M48
; DRILL file {KiCad 8.0.4} date 2024-12-11T23:07:34+0700
; FORMAT={-:-/ absolute / inch / decimal}
; #@! TF.CreationDate,2024-12-11T23:07:34+07:00
; #@! TF.GenerationSoftware,Kicad,Pcbnew,8.0.4
; #@! TF.FileFunction,Plated,1,4,PTH
FMAT,2
INCH
; #@! TA.AperFunction,Plated,PTH,ComponentDrill
T1C0.0236
; #@! TA.AperFunction,Plated,PTH,ComponentDrill
T2C0.0394
; #@! TA.AperFunction,Plated,PTH,ComponentDrill
T3C0.0433
; #@! TA.AperFunction,Plated,PTH,ComponentDrill
T4C0.0598
%
G90
G05
T2
X4.15Y-2.4586
X4.15Y-2.5586
X4.15Y-3.5586
X4.15Y-3.6586
X4.15Y-3.7586
X4.15Y-3.8586
X4.15Y-3.9586
X4.15Y-4.0586
X4.15Y-4.1586
X4.15Y-4.2586
X4.15Y-4.3586
X4.15Y-4.4586
X4.15Y-4.5586
X4.15Y-4.6586
X4.15Y-4.7586
X4.15Y-4.8586
X4.15Y-4.9586
X4.15Y-5.0586
X4.15Y-5.1586
X4.15Y-5.2586
X4.15Y-5.3586
X4.25Y-3.5586
X4.25Y-3.6586
X4.25Y-3.7586
X4.25Y-3.8586
X4.25Y-3.9586
X4.25Y-4.0586
X4.25Y-4.1586
X4.25Y-4.2586
X4.25Y-4.3586
X4.25Y-4.4586
X4.25Y-4.5586
X4.25Y-4.6586
X4.25Y-4.7586
X4.25Y-4.8586
X4.25Y-4.9586
X4.25Y-5.0586
X4.25Y-5.1586
X4.25Y-5.2586
X4.25Y-5.3586
X4.449Y-3.5586
X4.449Y-3.6586
X4.45Y-3.9586
X4.45Y-4.0586
X4.45Y-4.1586
X4.45Y-4.2586
X4.45Y-4.3586
X4.45Y-4.4586
X4.45Y-4.5586
X4.45Y-4.6586
X4.45Y-4.8586
X4.45Y-4.9586
X4.45Y-5.0586
X4.45Y-5.1586
X4.45Y-5.2586
X4.45Y-5.3586
X4.508Y-2.45
X4.508Y-2.55
X4.608Y-2.45
X4.608Y-2.55
X4.708Y-2.45
X4.708Y-2.55
X4.743Y-4.606
X4.743Y-4.706
X4.7994Y-3.837
X4.7994Y-3.937
X4.808Y-2.45
X4.808Y-2.55
X4.8994Y-3.837
X4.8994Y-3.937
X4.908Y-2.45
X4.908Y-2.55
X4.9994Y-3.837
X4.9994Y-3.937
X5.321Y-3.936
X5.421Y-3.936
X5.587Y-3.936
X5.687Y-3.936
X5.787Y-3.936
X6.35Y-3.5586
X6.35Y-3.6586
X6.35Y-3.7586
X6.35Y-3.8586
X6.35Y-3.9586
X6.35Y-4.0586
X6.35Y-4.1586
X6.35Y-4.2586
X6.35Y-4.3586
X6.35Y-4.4586
X6.35Y-4.6586
X6.35Y-4.7586
X6.35Y-4.8586
X6.35Y-4.9586
X6.35Y-5.0586
X6.35Y-5.1586
X6.35Y-5.2586
X6.35Y-5.3586
X6.55Y-3.5586
X6.55Y-3.6586
X6.55Y-3.7586
X6.55Y-3.8586
X6.55Y-3.9586
X6.55Y-4.0586
X6.55Y-4.1586
X6.55Y-4.2586
X6.55Y-4.3586
X6.55Y-4.4586
X6.55Y-4.5586
X6.55Y-4.6586
X6.55Y-4.7586
X6.55Y-4.8586
X6.55Y-4.9586
X6.55Y-5.0586
X6.55Y-5.1586
X6.55Y-5.2586
X6.55Y-5.3586
X6.65Y-2.4586
X6.65Y-2.5586
X6.65Y-3.5586
X6.65Y-3.6586
X6.65Y-3.7586
X6.65Y-3.8586
X6.65Y-3.9586
X6.65Y-4.0586
X6.65Y-4.1586
X6.65Y-4.2586
X6.65Y-4.3586
X6.65Y-4.4586
X6.65Y-4.5586
X6.65Y-4.6586
X6.65Y-4.7586
X6.65Y-4.8586
X6.65Y-4.9586
X6.65Y-5.0586
X6.65Y-5.1586
X6.65Y-5.2586
X6.65Y-5.3586
T3
X4.943Y-3.3764
X4.943Y-3.5536
X5.199Y-3.3764
X5.199Y-3.5536
X5.591Y-3.3764
X5.591Y-3.5536
X5.847Y-3.3764
X5.847Y-3.5536
T4
X6.074Y-2.465
X6.274Y-2.465
T1
G00X5.2268Y-2.3794
M15
G01X5.2268Y-2.3479
M16
G05
G00X5.2268Y-2.5507
M15
G01X5.2268Y-2.5073
M16
G05
G00X5.567Y-2.3794
M15
G01X5.567Y-2.3479
M16
G05
G00X5.567Y-2.5507
M15
G01X5.567Y-2.5073
M16
G05
M30
