%TF.GenerationSoftware,KiCad,Pcbnew,8.0.4*%
%TF.CreationDate,2024-12-11T23:07:32+07:00*%
%TF.ProjectId,G474-dev-board,47343734-2d64-4657-962d-626f6172642e,rev?*%
%TF.SameCoordinates,Original*%
%TF.FileFunction,Legend,Top*%
%TF.FilePolarity,Positive*%
%FSLAX46Y46*%
G04 Gerber Fmt 4.6, Leading zero omitted, Abs format (unit mm)*
G04 Created by KiCad (PCBNEW 8.0.4) date 2024-12-11 23:07:32*
%MOMM*%
%LPD*%
G01*
G04 APERTURE LIST*
%ADD10C,0.150000*%
%ADD11C,0.120000*%
G04 APERTURE END LIST*
D10*
X135557419Y-86297094D02*
X134557419Y-86297094D01*
X134557419Y-86297094D02*
X134557419Y-86058999D01*
X134557419Y-86058999D02*
X134605038Y-85916142D01*
X134605038Y-85916142D02*
X134700276Y-85820904D01*
X134700276Y-85820904D02*
X134795514Y-85773285D01*
X134795514Y-85773285D02*
X134985990Y-85725666D01*
X134985990Y-85725666D02*
X135128847Y-85725666D01*
X135128847Y-85725666D02*
X135319323Y-85773285D01*
X135319323Y-85773285D02*
X135414561Y-85820904D01*
X135414561Y-85820904D02*
X135509800Y-85916142D01*
X135509800Y-85916142D02*
X135557419Y-86058999D01*
X135557419Y-86058999D02*
X135557419Y-86297094D01*
X134652657Y-85344713D02*
X134605038Y-85297094D01*
X134605038Y-85297094D02*
X134557419Y-85201856D01*
X134557419Y-85201856D02*
X134557419Y-84963761D01*
X134557419Y-84963761D02*
X134605038Y-84868523D01*
X134605038Y-84868523D02*
X134652657Y-84820904D01*
X134652657Y-84820904D02*
X134747895Y-84773285D01*
X134747895Y-84773285D02*
X134843133Y-84773285D01*
X134843133Y-84773285D02*
X134985990Y-84820904D01*
X134985990Y-84820904D02*
X135557419Y-85392332D01*
X135557419Y-85392332D02*
X135557419Y-84773285D01*
X153794619Y-89599094D02*
X152794619Y-89599094D01*
X152794619Y-89599094D02*
X152794619Y-89360999D01*
X152794619Y-89360999D02*
X152842238Y-89218142D01*
X152842238Y-89218142D02*
X152937476Y-89122904D01*
X152937476Y-89122904D02*
X153032714Y-89075285D01*
X153032714Y-89075285D02*
X153223190Y-89027666D01*
X153223190Y-89027666D02*
X153366047Y-89027666D01*
X153366047Y-89027666D02*
X153556523Y-89075285D01*
X153556523Y-89075285D02*
X153651761Y-89122904D01*
X153651761Y-89122904D02*
X153747000Y-89218142D01*
X153747000Y-89218142D02*
X153794619Y-89360999D01*
X153794619Y-89360999D02*
X153794619Y-89599094D01*
X153794619Y-88075285D02*
X153794619Y-88646713D01*
X153794619Y-88360999D02*
X152794619Y-88360999D01*
X152794619Y-88360999D02*
X152937476Y-88456237D01*
X152937476Y-88456237D02*
X153032714Y-88551475D01*
X153032714Y-88551475D02*
X153080333Y-88646713D01*
X130218019Y-64309523D02*
X130932304Y-64309523D01*
X130932304Y-64309523D02*
X131075161Y-64357142D01*
X131075161Y-64357142D02*
X131170400Y-64452380D01*
X131170400Y-64452380D02*
X131218019Y-64595237D01*
X131218019Y-64595237D02*
X131218019Y-64690475D01*
X131218019Y-63309523D02*
X131218019Y-63880951D01*
X131218019Y-63595237D02*
X130218019Y-63595237D01*
X130218019Y-63595237D02*
X130360876Y-63690475D01*
X130360876Y-63690475D02*
X130456114Y-63785713D01*
X130456114Y-63785713D02*
X130503733Y-63880951D01*
X130218019Y-62976189D02*
X130218019Y-62309523D01*
X130218019Y-62309523D02*
X131218019Y-62738094D01*
X106753819Y-73635094D02*
X105753819Y-73635094D01*
X105753819Y-73635094D02*
X105753819Y-73396999D01*
X105753819Y-73396999D02*
X105801438Y-73254142D01*
X105801438Y-73254142D02*
X105896676Y-73158904D01*
X105896676Y-73158904D02*
X105991914Y-73111285D01*
X105991914Y-73111285D02*
X106182390Y-73063666D01*
X106182390Y-73063666D02*
X106325247Y-73063666D01*
X106325247Y-73063666D02*
X106515723Y-73111285D01*
X106515723Y-73111285D02*
X106610961Y-73158904D01*
X106610961Y-73158904D02*
X106706200Y-73254142D01*
X106706200Y-73254142D02*
X106753819Y-73396999D01*
X106753819Y-73396999D02*
X106753819Y-73635094D01*
X105753819Y-72206523D02*
X105753819Y-72396999D01*
X105753819Y-72396999D02*
X105801438Y-72492237D01*
X105801438Y-72492237D02*
X105849057Y-72539856D01*
X105849057Y-72539856D02*
X105991914Y-72635094D01*
X105991914Y-72635094D02*
X106182390Y-72682713D01*
X106182390Y-72682713D02*
X106563342Y-72682713D01*
X106563342Y-72682713D02*
X106658580Y-72635094D01*
X106658580Y-72635094D02*
X106706200Y-72587475D01*
X106706200Y-72587475D02*
X106753819Y-72492237D01*
X106753819Y-72492237D02*
X106753819Y-72301761D01*
X106753819Y-72301761D02*
X106706200Y-72206523D01*
X106706200Y-72206523D02*
X106658580Y-72158904D01*
X106658580Y-72158904D02*
X106563342Y-72111285D01*
X106563342Y-72111285D02*
X106325247Y-72111285D01*
X106325247Y-72111285D02*
X106230009Y-72158904D01*
X106230009Y-72158904D02*
X106182390Y-72206523D01*
X106182390Y-72206523D02*
X106134771Y-72301761D01*
X106134771Y-72301761D02*
X106134771Y-72492237D01*
X106134771Y-72492237D02*
X106182390Y-72587475D01*
X106182390Y-72587475D02*
X106230009Y-72635094D01*
X106230009Y-72635094D02*
X106325247Y-72682713D01*
X125431609Y-132769828D02*
X125431609Y-133246019D01*
X125098276Y-132246019D02*
X125431609Y-132769828D01*
X125431609Y-132769828D02*
X125764942Y-132246019D01*
X126050657Y-132341257D02*
X126098276Y-132293638D01*
X126098276Y-132293638D02*
X126193514Y-132246019D01*
X126193514Y-132246019D02*
X126431609Y-132246019D01*
X126431609Y-132246019D02*
X126526847Y-132293638D01*
X126526847Y-132293638D02*
X126574466Y-132341257D01*
X126574466Y-132341257D02*
X126622085Y-132436495D01*
X126622085Y-132436495D02*
X126622085Y-132531733D01*
X126622085Y-132531733D02*
X126574466Y-132674590D01*
X126574466Y-132674590D02*
X126003038Y-133246019D01*
X126003038Y-133246019D02*
X126622085Y-133246019D01*
X132038209Y-133645028D02*
X132038209Y-134121219D01*
X131704876Y-133121219D02*
X132038209Y-133645028D01*
X132038209Y-133645028D02*
X132371542Y-133121219D01*
X133228685Y-134121219D02*
X132657257Y-134121219D01*
X132942971Y-134121219D02*
X132942971Y-133121219D01*
X132942971Y-133121219D02*
X132847733Y-133264076D01*
X132847733Y-133264076D02*
X132752495Y-133359314D01*
X132752495Y-133359314D02*
X132657257Y-133406933D01*
X126319219Y-118109904D02*
X127128742Y-118109904D01*
X127128742Y-118109904D02*
X127223980Y-118062285D01*
X127223980Y-118062285D02*
X127271600Y-118014666D01*
X127271600Y-118014666D02*
X127319219Y-117919428D01*
X127319219Y-117919428D02*
X127319219Y-117728952D01*
X127319219Y-117728952D02*
X127271600Y-117633714D01*
X127271600Y-117633714D02*
X127223980Y-117586095D01*
X127223980Y-117586095D02*
X127128742Y-117538476D01*
X127128742Y-117538476D02*
X126319219Y-117538476D01*
X127319219Y-116538476D02*
X127319219Y-117109904D01*
X127319219Y-116824190D02*
X126319219Y-116824190D01*
X126319219Y-116824190D02*
X126462076Y-116919428D01*
X126462076Y-116919428D02*
X126557314Y-117014666D01*
X126557314Y-117014666D02*
X126604933Y-117109904D01*
X127470067Y-84024000D02*
X127612924Y-84071619D01*
X127612924Y-84071619D02*
X127851019Y-84071619D01*
X127851019Y-84071619D02*
X127946257Y-84024000D01*
X127946257Y-84024000D02*
X127993876Y-83976380D01*
X127993876Y-83976380D02*
X128041495Y-83881142D01*
X128041495Y-83881142D02*
X128041495Y-83785904D01*
X128041495Y-83785904D02*
X127993876Y-83690666D01*
X127993876Y-83690666D02*
X127946257Y-83643047D01*
X127946257Y-83643047D02*
X127851019Y-83595428D01*
X127851019Y-83595428D02*
X127660543Y-83547809D01*
X127660543Y-83547809D02*
X127565305Y-83500190D01*
X127565305Y-83500190D02*
X127517686Y-83452571D01*
X127517686Y-83452571D02*
X127470067Y-83357333D01*
X127470067Y-83357333D02*
X127470067Y-83262095D01*
X127470067Y-83262095D02*
X127517686Y-83166857D01*
X127517686Y-83166857D02*
X127565305Y-83119238D01*
X127565305Y-83119238D02*
X127660543Y-83071619D01*
X127660543Y-83071619D02*
X127898638Y-83071619D01*
X127898638Y-83071619D02*
X128041495Y-83119238D01*
X128374829Y-83071619D02*
X128612924Y-84071619D01*
X128612924Y-84071619D02*
X128803400Y-83357333D01*
X128803400Y-83357333D02*
X128993876Y-84071619D01*
X128993876Y-84071619D02*
X129231972Y-83071619D01*
X129565305Y-83166857D02*
X129612924Y-83119238D01*
X129612924Y-83119238D02*
X129708162Y-83071619D01*
X129708162Y-83071619D02*
X129946257Y-83071619D01*
X129946257Y-83071619D02*
X130041495Y-83119238D01*
X130041495Y-83119238D02*
X130089114Y-83166857D01*
X130089114Y-83166857D02*
X130136733Y-83262095D01*
X130136733Y-83262095D02*
X130136733Y-83357333D01*
X130136733Y-83357333D02*
X130089114Y-83500190D01*
X130089114Y-83500190D02*
X129517686Y-84071619D01*
X129517686Y-84071619D02*
X130136733Y-84071619D01*
X143929267Y-92668200D02*
X144072124Y-92715819D01*
X144072124Y-92715819D02*
X144310219Y-92715819D01*
X144310219Y-92715819D02*
X144405457Y-92668200D01*
X144405457Y-92668200D02*
X144453076Y-92620580D01*
X144453076Y-92620580D02*
X144500695Y-92525342D01*
X144500695Y-92525342D02*
X144500695Y-92430104D01*
X144500695Y-92430104D02*
X144453076Y-92334866D01*
X144453076Y-92334866D02*
X144405457Y-92287247D01*
X144405457Y-92287247D02*
X144310219Y-92239628D01*
X144310219Y-92239628D02*
X144119743Y-92192009D01*
X144119743Y-92192009D02*
X144024505Y-92144390D01*
X144024505Y-92144390D02*
X143976886Y-92096771D01*
X143976886Y-92096771D02*
X143929267Y-92001533D01*
X143929267Y-92001533D02*
X143929267Y-91906295D01*
X143929267Y-91906295D02*
X143976886Y-91811057D01*
X143976886Y-91811057D02*
X144024505Y-91763438D01*
X144024505Y-91763438D02*
X144119743Y-91715819D01*
X144119743Y-91715819D02*
X144357838Y-91715819D01*
X144357838Y-91715819D02*
X144500695Y-91763438D01*
X144834029Y-91715819D02*
X145072124Y-92715819D01*
X145072124Y-92715819D02*
X145262600Y-92001533D01*
X145262600Y-92001533D02*
X145453076Y-92715819D01*
X145453076Y-92715819D02*
X145691172Y-91715819D01*
X146595933Y-92715819D02*
X146024505Y-92715819D01*
X146310219Y-92715819D02*
X146310219Y-91715819D01*
X146310219Y-91715819D02*
X146214981Y-91858676D01*
X146214981Y-91858676D02*
X146119743Y-91953914D01*
X146119743Y-91953914D02*
X146024505Y-92001533D01*
X126045933Y-93012419D02*
X125712600Y-92536228D01*
X125474505Y-93012419D02*
X125474505Y-92012419D01*
X125474505Y-92012419D02*
X125855457Y-92012419D01*
X125855457Y-92012419D02*
X125950695Y-92060038D01*
X125950695Y-92060038D02*
X125998314Y-92107657D01*
X125998314Y-92107657D02*
X126045933Y-92202895D01*
X126045933Y-92202895D02*
X126045933Y-92345752D01*
X126045933Y-92345752D02*
X125998314Y-92440990D01*
X125998314Y-92440990D02*
X125950695Y-92488609D01*
X125950695Y-92488609D02*
X125855457Y-92536228D01*
X125855457Y-92536228D02*
X125474505Y-92536228D01*
X126903076Y-92012419D02*
X126712600Y-92012419D01*
X126712600Y-92012419D02*
X126617362Y-92060038D01*
X126617362Y-92060038D02*
X126569743Y-92107657D01*
X126569743Y-92107657D02*
X126474505Y-92250514D01*
X126474505Y-92250514D02*
X126426886Y-92440990D01*
X126426886Y-92440990D02*
X126426886Y-92821942D01*
X126426886Y-92821942D02*
X126474505Y-92917180D01*
X126474505Y-92917180D02*
X126522124Y-92964800D01*
X126522124Y-92964800D02*
X126617362Y-93012419D01*
X126617362Y-93012419D02*
X126807838Y-93012419D01*
X126807838Y-93012419D02*
X126903076Y-92964800D01*
X126903076Y-92964800D02*
X126950695Y-92917180D01*
X126950695Y-92917180D02*
X126998314Y-92821942D01*
X126998314Y-92821942D02*
X126998314Y-92583847D01*
X126998314Y-92583847D02*
X126950695Y-92488609D01*
X126950695Y-92488609D02*
X126903076Y-92440990D01*
X126903076Y-92440990D02*
X126807838Y-92393371D01*
X126807838Y-92393371D02*
X126617362Y-92393371D01*
X126617362Y-92393371D02*
X126522124Y-92440990D01*
X126522124Y-92440990D02*
X126474505Y-92488609D01*
X126474505Y-92488609D02*
X126426886Y-92583847D01*
X105548133Y-83221219D02*
X105214800Y-82745028D01*
X104976705Y-83221219D02*
X104976705Y-82221219D01*
X104976705Y-82221219D02*
X105357657Y-82221219D01*
X105357657Y-82221219D02*
X105452895Y-82268838D01*
X105452895Y-82268838D02*
X105500514Y-82316457D01*
X105500514Y-82316457D02*
X105548133Y-82411695D01*
X105548133Y-82411695D02*
X105548133Y-82554552D01*
X105548133Y-82554552D02*
X105500514Y-82649790D01*
X105500514Y-82649790D02*
X105452895Y-82697409D01*
X105452895Y-82697409D02*
X105357657Y-82745028D01*
X105357657Y-82745028D02*
X104976705Y-82745028D01*
X106452895Y-82221219D02*
X105976705Y-82221219D01*
X105976705Y-82221219D02*
X105929086Y-82697409D01*
X105929086Y-82697409D02*
X105976705Y-82649790D01*
X105976705Y-82649790D02*
X106071943Y-82602171D01*
X106071943Y-82602171D02*
X106310038Y-82602171D01*
X106310038Y-82602171D02*
X106405276Y-82649790D01*
X106405276Y-82649790D02*
X106452895Y-82697409D01*
X106452895Y-82697409D02*
X106500514Y-82792647D01*
X106500514Y-82792647D02*
X106500514Y-83030742D01*
X106500514Y-83030742D02*
X106452895Y-83125980D01*
X106452895Y-83125980D02*
X106405276Y-83173600D01*
X106405276Y-83173600D02*
X106310038Y-83221219D01*
X106310038Y-83221219D02*
X106071943Y-83221219D01*
X106071943Y-83221219D02*
X105976705Y-83173600D01*
X105976705Y-83173600D02*
X105929086Y-83125980D01*
X119573219Y-113743266D02*
X119097028Y-114076599D01*
X119573219Y-114314694D02*
X118573219Y-114314694D01*
X118573219Y-114314694D02*
X118573219Y-113933742D01*
X118573219Y-113933742D02*
X118620838Y-113838504D01*
X118620838Y-113838504D02*
X118668457Y-113790885D01*
X118668457Y-113790885D02*
X118763695Y-113743266D01*
X118763695Y-113743266D02*
X118906552Y-113743266D01*
X118906552Y-113743266D02*
X119001790Y-113790885D01*
X119001790Y-113790885D02*
X119049409Y-113838504D01*
X119049409Y-113838504D02*
X119097028Y-113933742D01*
X119097028Y-113933742D02*
X119097028Y-114314694D01*
X118906552Y-112886123D02*
X119573219Y-112886123D01*
X118525600Y-113124218D02*
X119239885Y-113362313D01*
X119239885Y-113362313D02*
X119239885Y-112743266D01*
X147134933Y-117091619D02*
X146658743Y-117091619D01*
X146658743Y-117091619D02*
X146658743Y-116091619D01*
X147420648Y-116186857D02*
X147468267Y-116139238D01*
X147468267Y-116139238D02*
X147563505Y-116091619D01*
X147563505Y-116091619D02*
X147801600Y-116091619D01*
X147801600Y-116091619D02*
X147896838Y-116139238D01*
X147896838Y-116139238D02*
X147944457Y-116186857D01*
X147944457Y-116186857D02*
X147992076Y-116282095D01*
X147992076Y-116282095D02*
X147992076Y-116377333D01*
X147992076Y-116377333D02*
X147944457Y-116520190D01*
X147944457Y-116520190D02*
X147373029Y-117091619D01*
X147373029Y-117091619D02*
X147992076Y-117091619D01*
X147287333Y-120292019D02*
X146811143Y-120292019D01*
X146811143Y-120292019D02*
X146811143Y-119292019D01*
X148144476Y-120292019D02*
X147573048Y-120292019D01*
X147858762Y-120292019D02*
X147858762Y-119292019D01*
X147858762Y-119292019D02*
X147763524Y-119434876D01*
X147763524Y-119434876D02*
X147668286Y-119530114D01*
X147668286Y-119530114D02*
X147573048Y-119577733D01*
X139034619Y-100783923D02*
X139748904Y-100783923D01*
X139748904Y-100783923D02*
X139891761Y-100831542D01*
X139891761Y-100831542D02*
X139987000Y-100926780D01*
X139987000Y-100926780D02*
X140034619Y-101069637D01*
X140034619Y-101069637D02*
X140034619Y-101164875D01*
X140034619Y-99783923D02*
X140034619Y-100355351D01*
X140034619Y-100069637D02*
X139034619Y-100069637D01*
X139034619Y-100069637D02*
X139177476Y-100164875D01*
X139177476Y-100164875D02*
X139272714Y-100260113D01*
X139272714Y-100260113D02*
X139320333Y-100355351D01*
X139034619Y-98926780D02*
X139034619Y-99117256D01*
X139034619Y-99117256D02*
X139082238Y-99212494D01*
X139082238Y-99212494D02*
X139129857Y-99260113D01*
X139129857Y-99260113D02*
X139272714Y-99355351D01*
X139272714Y-99355351D02*
X139463190Y-99402970D01*
X139463190Y-99402970D02*
X139844142Y-99402970D01*
X139844142Y-99402970D02*
X139939380Y-99355351D01*
X139939380Y-99355351D02*
X139987000Y-99307732D01*
X139987000Y-99307732D02*
X140034619Y-99212494D01*
X140034619Y-99212494D02*
X140034619Y-99022018D01*
X140034619Y-99022018D02*
X139987000Y-98926780D01*
X139987000Y-98926780D02*
X139939380Y-98879161D01*
X139939380Y-98879161D02*
X139844142Y-98831542D01*
X139844142Y-98831542D02*
X139606047Y-98831542D01*
X139606047Y-98831542D02*
X139510809Y-98879161D01*
X139510809Y-98879161D02*
X139463190Y-98926780D01*
X139463190Y-98926780D02*
X139415571Y-99022018D01*
X139415571Y-99022018D02*
X139415571Y-99212494D01*
X139415571Y-99212494D02*
X139463190Y-99307732D01*
X139463190Y-99307732D02*
X139510809Y-99355351D01*
X139510809Y-99355351D02*
X139606047Y-99402970D01*
X112670466Y-87513419D02*
X112670466Y-88227704D01*
X112670466Y-88227704D02*
X112622847Y-88370561D01*
X112622847Y-88370561D02*
X112527609Y-88465800D01*
X112527609Y-88465800D02*
X112384752Y-88513419D01*
X112384752Y-88513419D02*
X112289514Y-88513419D01*
X113289514Y-87941990D02*
X113194276Y-87894371D01*
X113194276Y-87894371D02*
X113146657Y-87846752D01*
X113146657Y-87846752D02*
X113099038Y-87751514D01*
X113099038Y-87751514D02*
X113099038Y-87703895D01*
X113099038Y-87703895D02*
X113146657Y-87608657D01*
X113146657Y-87608657D02*
X113194276Y-87561038D01*
X113194276Y-87561038D02*
X113289514Y-87513419D01*
X113289514Y-87513419D02*
X113479990Y-87513419D01*
X113479990Y-87513419D02*
X113575228Y-87561038D01*
X113575228Y-87561038D02*
X113622847Y-87608657D01*
X113622847Y-87608657D02*
X113670466Y-87703895D01*
X113670466Y-87703895D02*
X113670466Y-87751514D01*
X113670466Y-87751514D02*
X113622847Y-87846752D01*
X113622847Y-87846752D02*
X113575228Y-87894371D01*
X113575228Y-87894371D02*
X113479990Y-87941990D01*
X113479990Y-87941990D02*
X113289514Y-87941990D01*
X113289514Y-87941990D02*
X113194276Y-87989609D01*
X113194276Y-87989609D02*
X113146657Y-88037228D01*
X113146657Y-88037228D02*
X113099038Y-88132466D01*
X113099038Y-88132466D02*
X113099038Y-88322942D01*
X113099038Y-88322942D02*
X113146657Y-88418180D01*
X113146657Y-88418180D02*
X113194276Y-88465800D01*
X113194276Y-88465800D02*
X113289514Y-88513419D01*
X113289514Y-88513419D02*
X113479990Y-88513419D01*
X113479990Y-88513419D02*
X113575228Y-88465800D01*
X113575228Y-88465800D02*
X113622847Y-88418180D01*
X113622847Y-88418180D02*
X113670466Y-88322942D01*
X113670466Y-88322942D02*
X113670466Y-88132466D01*
X113670466Y-88132466D02*
X113622847Y-88037228D01*
X113622847Y-88037228D02*
X113575228Y-87989609D01*
X113575228Y-87989609D02*
X113479990Y-87941990D01*
X112137866Y-68879819D02*
X112137866Y-69594104D01*
X112137866Y-69594104D02*
X112090247Y-69736961D01*
X112090247Y-69736961D02*
X111995009Y-69832200D01*
X111995009Y-69832200D02*
X111852152Y-69879819D01*
X111852152Y-69879819D02*
X111756914Y-69879819D01*
X112566438Y-68975057D02*
X112614057Y-68927438D01*
X112614057Y-68927438D02*
X112709295Y-68879819D01*
X112709295Y-68879819D02*
X112947390Y-68879819D01*
X112947390Y-68879819D02*
X113042628Y-68927438D01*
X113042628Y-68927438D02*
X113090247Y-68975057D01*
X113090247Y-68975057D02*
X113137866Y-69070295D01*
X113137866Y-69070295D02*
X113137866Y-69165533D01*
X113137866Y-69165533D02*
X113090247Y-69308390D01*
X113090247Y-69308390D02*
X112518819Y-69879819D01*
X112518819Y-69879819D02*
X113137866Y-69879819D01*
X120138866Y-121317219D02*
X120138866Y-122031504D01*
X120138866Y-122031504D02*
X120091247Y-122174361D01*
X120091247Y-122174361D02*
X119996009Y-122269600D01*
X119996009Y-122269600D02*
X119853152Y-122317219D01*
X119853152Y-122317219D02*
X119757914Y-122317219D01*
X121138866Y-122317219D02*
X120567438Y-122317219D01*
X120853152Y-122317219D02*
X120853152Y-121317219D01*
X120853152Y-121317219D02*
X120757914Y-121460076D01*
X120757914Y-121460076D02*
X120662676Y-121555314D01*
X120662676Y-121555314D02*
X120567438Y-121602933D01*
X146334542Y-115421580D02*
X146286923Y-115469200D01*
X146286923Y-115469200D02*
X146144066Y-115516819D01*
X146144066Y-115516819D02*
X146048828Y-115516819D01*
X146048828Y-115516819D02*
X145905971Y-115469200D01*
X145905971Y-115469200D02*
X145810733Y-115373961D01*
X145810733Y-115373961D02*
X145763114Y-115278723D01*
X145763114Y-115278723D02*
X145715495Y-115088247D01*
X145715495Y-115088247D02*
X145715495Y-114945390D01*
X145715495Y-114945390D02*
X145763114Y-114754914D01*
X145763114Y-114754914D02*
X145810733Y-114659676D01*
X145810733Y-114659676D02*
X145905971Y-114564438D01*
X145905971Y-114564438D02*
X146048828Y-114516819D01*
X146048828Y-114516819D02*
X146144066Y-114516819D01*
X146144066Y-114516819D02*
X146286923Y-114564438D01*
X146286923Y-114564438D02*
X146334542Y-114612057D01*
X146715495Y-114612057D02*
X146763114Y-114564438D01*
X146763114Y-114564438D02*
X146858352Y-114516819D01*
X146858352Y-114516819D02*
X147096447Y-114516819D01*
X147096447Y-114516819D02*
X147191685Y-114564438D01*
X147191685Y-114564438D02*
X147239304Y-114612057D01*
X147239304Y-114612057D02*
X147286923Y-114707295D01*
X147286923Y-114707295D02*
X147286923Y-114802533D01*
X147286923Y-114802533D02*
X147239304Y-114945390D01*
X147239304Y-114945390D02*
X146667876Y-115516819D01*
X146667876Y-115516819D02*
X147286923Y-115516819D01*
X148239304Y-115516819D02*
X147667876Y-115516819D01*
X147953590Y-115516819D02*
X147953590Y-114516819D01*
X147953590Y-114516819D02*
X147858352Y-114659676D01*
X147858352Y-114659676D02*
X147763114Y-114754914D01*
X147763114Y-114754914D02*
X147667876Y-114802533D01*
X146436142Y-118621980D02*
X146388523Y-118669600D01*
X146388523Y-118669600D02*
X146245666Y-118717219D01*
X146245666Y-118717219D02*
X146150428Y-118717219D01*
X146150428Y-118717219D02*
X146007571Y-118669600D01*
X146007571Y-118669600D02*
X145912333Y-118574361D01*
X145912333Y-118574361D02*
X145864714Y-118479123D01*
X145864714Y-118479123D02*
X145817095Y-118288647D01*
X145817095Y-118288647D02*
X145817095Y-118145790D01*
X145817095Y-118145790D02*
X145864714Y-117955314D01*
X145864714Y-117955314D02*
X145912333Y-117860076D01*
X145912333Y-117860076D02*
X146007571Y-117764838D01*
X146007571Y-117764838D02*
X146150428Y-117717219D01*
X146150428Y-117717219D02*
X146245666Y-117717219D01*
X146245666Y-117717219D02*
X146388523Y-117764838D01*
X146388523Y-117764838D02*
X146436142Y-117812457D01*
X147388523Y-118717219D02*
X146817095Y-118717219D01*
X147102809Y-118717219D02*
X147102809Y-117717219D01*
X147102809Y-117717219D02*
X147007571Y-117860076D01*
X147007571Y-117860076D02*
X146912333Y-117955314D01*
X146912333Y-117955314D02*
X146817095Y-118002933D01*
X147864714Y-118717219D02*
X148055190Y-118717219D01*
X148055190Y-118717219D02*
X148150428Y-118669600D01*
X148150428Y-118669600D02*
X148198047Y-118621980D01*
X148198047Y-118621980D02*
X148293285Y-118479123D01*
X148293285Y-118479123D02*
X148340904Y-118288647D01*
X148340904Y-118288647D02*
X148340904Y-117907695D01*
X148340904Y-117907695D02*
X148293285Y-117812457D01*
X148293285Y-117812457D02*
X148245666Y-117764838D01*
X148245666Y-117764838D02*
X148150428Y-117717219D01*
X148150428Y-117717219D02*
X147959952Y-117717219D01*
X147959952Y-117717219D02*
X147864714Y-117764838D01*
X147864714Y-117764838D02*
X147817095Y-117812457D01*
X147817095Y-117812457D02*
X147769476Y-117907695D01*
X147769476Y-117907695D02*
X147769476Y-118145790D01*
X147769476Y-118145790D02*
X147817095Y-118241028D01*
X147817095Y-118241028D02*
X147864714Y-118288647D01*
X147864714Y-118288647D02*
X147959952Y-118336266D01*
X147959952Y-118336266D02*
X148150428Y-118336266D01*
X148150428Y-118336266D02*
X148245666Y-118288647D01*
X148245666Y-118288647D02*
X148293285Y-118241028D01*
X148293285Y-118241028D02*
X148340904Y-118145790D01*
X149455942Y-113716180D02*
X149408323Y-113763800D01*
X149408323Y-113763800D02*
X149265466Y-113811419D01*
X149265466Y-113811419D02*
X149170228Y-113811419D01*
X149170228Y-113811419D02*
X149027371Y-113763800D01*
X149027371Y-113763800D02*
X148932133Y-113668561D01*
X148932133Y-113668561D02*
X148884514Y-113573323D01*
X148884514Y-113573323D02*
X148836895Y-113382847D01*
X148836895Y-113382847D02*
X148836895Y-113239990D01*
X148836895Y-113239990D02*
X148884514Y-113049514D01*
X148884514Y-113049514D02*
X148932133Y-112954276D01*
X148932133Y-112954276D02*
X149027371Y-112859038D01*
X149027371Y-112859038D02*
X149170228Y-112811419D01*
X149170228Y-112811419D02*
X149265466Y-112811419D01*
X149265466Y-112811419D02*
X149408323Y-112859038D01*
X149408323Y-112859038D02*
X149455942Y-112906657D01*
X150408323Y-113811419D02*
X149836895Y-113811419D01*
X150122609Y-113811419D02*
X150122609Y-112811419D01*
X150122609Y-112811419D02*
X150027371Y-112954276D01*
X150027371Y-112954276D02*
X149932133Y-113049514D01*
X149932133Y-113049514D02*
X149836895Y-113097133D01*
X151265466Y-112811419D02*
X151074990Y-112811419D01*
X151074990Y-112811419D02*
X150979752Y-112859038D01*
X150979752Y-112859038D02*
X150932133Y-112906657D01*
X150932133Y-112906657D02*
X150836895Y-113049514D01*
X150836895Y-113049514D02*
X150789276Y-113239990D01*
X150789276Y-113239990D02*
X150789276Y-113620942D01*
X150789276Y-113620942D02*
X150836895Y-113716180D01*
X150836895Y-113716180D02*
X150884514Y-113763800D01*
X150884514Y-113763800D02*
X150979752Y-113811419D01*
X150979752Y-113811419D02*
X151170228Y-113811419D01*
X151170228Y-113811419D02*
X151265466Y-113763800D01*
X151265466Y-113763800D02*
X151313085Y-113716180D01*
X151313085Y-113716180D02*
X151360704Y-113620942D01*
X151360704Y-113620942D02*
X151360704Y-113382847D01*
X151360704Y-113382847D02*
X151313085Y-113287609D01*
X151313085Y-113287609D02*
X151265466Y-113239990D01*
X151265466Y-113239990D02*
X151170228Y-113192371D01*
X151170228Y-113192371D02*
X150979752Y-113192371D01*
X150979752Y-113192371D02*
X150884514Y-113239990D01*
X150884514Y-113239990D02*
X150836895Y-113287609D01*
X150836895Y-113287609D02*
X150789276Y-113382847D01*
X152656342Y-118926780D02*
X152608723Y-118974400D01*
X152608723Y-118974400D02*
X152465866Y-119022019D01*
X152465866Y-119022019D02*
X152370628Y-119022019D01*
X152370628Y-119022019D02*
X152227771Y-118974400D01*
X152227771Y-118974400D02*
X152132533Y-118879161D01*
X152132533Y-118879161D02*
X152084914Y-118783923D01*
X152084914Y-118783923D02*
X152037295Y-118593447D01*
X152037295Y-118593447D02*
X152037295Y-118450590D01*
X152037295Y-118450590D02*
X152084914Y-118260114D01*
X152084914Y-118260114D02*
X152132533Y-118164876D01*
X152132533Y-118164876D02*
X152227771Y-118069638D01*
X152227771Y-118069638D02*
X152370628Y-118022019D01*
X152370628Y-118022019D02*
X152465866Y-118022019D01*
X152465866Y-118022019D02*
X152608723Y-118069638D01*
X152608723Y-118069638D02*
X152656342Y-118117257D01*
X153608723Y-119022019D02*
X153037295Y-119022019D01*
X153323009Y-119022019D02*
X153323009Y-118022019D01*
X153323009Y-118022019D02*
X153227771Y-118164876D01*
X153227771Y-118164876D02*
X153132533Y-118260114D01*
X153132533Y-118260114D02*
X153037295Y-118307733D01*
X154513485Y-118022019D02*
X154037295Y-118022019D01*
X154037295Y-118022019D02*
X153989676Y-118498209D01*
X153989676Y-118498209D02*
X154037295Y-118450590D01*
X154037295Y-118450590D02*
X154132533Y-118402971D01*
X154132533Y-118402971D02*
X154370628Y-118402971D01*
X154370628Y-118402971D02*
X154465866Y-118450590D01*
X154465866Y-118450590D02*
X154513485Y-118498209D01*
X154513485Y-118498209D02*
X154561104Y-118593447D01*
X154561104Y-118593447D02*
X154561104Y-118831542D01*
X154561104Y-118831542D02*
X154513485Y-118926780D01*
X154513485Y-118926780D02*
X154465866Y-118974400D01*
X154465866Y-118974400D02*
X154370628Y-119022019D01*
X154370628Y-119022019D02*
X154132533Y-119022019D01*
X154132533Y-119022019D02*
X154037295Y-118974400D01*
X154037295Y-118974400D02*
X153989676Y-118926780D01*
X152201942Y-117148780D02*
X152154323Y-117196400D01*
X152154323Y-117196400D02*
X152011466Y-117244019D01*
X152011466Y-117244019D02*
X151916228Y-117244019D01*
X151916228Y-117244019D02*
X151773371Y-117196400D01*
X151773371Y-117196400D02*
X151678133Y-117101161D01*
X151678133Y-117101161D02*
X151630514Y-117005923D01*
X151630514Y-117005923D02*
X151582895Y-116815447D01*
X151582895Y-116815447D02*
X151582895Y-116672590D01*
X151582895Y-116672590D02*
X151630514Y-116482114D01*
X151630514Y-116482114D02*
X151678133Y-116386876D01*
X151678133Y-116386876D02*
X151773371Y-116291638D01*
X151773371Y-116291638D02*
X151916228Y-116244019D01*
X151916228Y-116244019D02*
X152011466Y-116244019D01*
X152011466Y-116244019D02*
X152154323Y-116291638D01*
X152154323Y-116291638D02*
X152201942Y-116339257D01*
X153154323Y-117244019D02*
X152582895Y-117244019D01*
X152868609Y-117244019D02*
X152868609Y-116244019D01*
X152868609Y-116244019D02*
X152773371Y-116386876D01*
X152773371Y-116386876D02*
X152678133Y-116482114D01*
X152678133Y-116482114D02*
X152582895Y-116529733D01*
X154011466Y-116577352D02*
X154011466Y-117244019D01*
X153773371Y-116196400D02*
X153535276Y-116910685D01*
X153535276Y-116910685D02*
X154154323Y-116910685D01*
X152151142Y-120628580D02*
X152103523Y-120676200D01*
X152103523Y-120676200D02*
X151960666Y-120723819D01*
X151960666Y-120723819D02*
X151865428Y-120723819D01*
X151865428Y-120723819D02*
X151722571Y-120676200D01*
X151722571Y-120676200D02*
X151627333Y-120580961D01*
X151627333Y-120580961D02*
X151579714Y-120485723D01*
X151579714Y-120485723D02*
X151532095Y-120295247D01*
X151532095Y-120295247D02*
X151532095Y-120152390D01*
X151532095Y-120152390D02*
X151579714Y-119961914D01*
X151579714Y-119961914D02*
X151627333Y-119866676D01*
X151627333Y-119866676D02*
X151722571Y-119771438D01*
X151722571Y-119771438D02*
X151865428Y-119723819D01*
X151865428Y-119723819D02*
X151960666Y-119723819D01*
X151960666Y-119723819D02*
X152103523Y-119771438D01*
X152103523Y-119771438D02*
X152151142Y-119819057D01*
X153103523Y-120723819D02*
X152532095Y-120723819D01*
X152817809Y-120723819D02*
X152817809Y-119723819D01*
X152817809Y-119723819D02*
X152722571Y-119866676D01*
X152722571Y-119866676D02*
X152627333Y-119961914D01*
X152627333Y-119961914D02*
X152532095Y-120009533D01*
X153436857Y-119723819D02*
X154055904Y-119723819D01*
X154055904Y-119723819D02*
X153722571Y-120104771D01*
X153722571Y-120104771D02*
X153865428Y-120104771D01*
X153865428Y-120104771D02*
X153960666Y-120152390D01*
X153960666Y-120152390D02*
X154008285Y-120200009D01*
X154008285Y-120200009D02*
X154055904Y-120295247D01*
X154055904Y-120295247D02*
X154055904Y-120533342D01*
X154055904Y-120533342D02*
X154008285Y-120628580D01*
X154008285Y-120628580D02*
X153960666Y-120676200D01*
X153960666Y-120676200D02*
X153865428Y-120723819D01*
X153865428Y-120723819D02*
X153579714Y-120723819D01*
X153579714Y-120723819D02*
X153484476Y-120676200D01*
X153484476Y-120676200D02*
X153436857Y-120628580D01*
X143515142Y-112492980D02*
X143467523Y-112540600D01*
X143467523Y-112540600D02*
X143324666Y-112588219D01*
X143324666Y-112588219D02*
X143229428Y-112588219D01*
X143229428Y-112588219D02*
X143086571Y-112540600D01*
X143086571Y-112540600D02*
X142991333Y-112445361D01*
X142991333Y-112445361D02*
X142943714Y-112350123D01*
X142943714Y-112350123D02*
X142896095Y-112159647D01*
X142896095Y-112159647D02*
X142896095Y-112016790D01*
X142896095Y-112016790D02*
X142943714Y-111826314D01*
X142943714Y-111826314D02*
X142991333Y-111731076D01*
X142991333Y-111731076D02*
X143086571Y-111635838D01*
X143086571Y-111635838D02*
X143229428Y-111588219D01*
X143229428Y-111588219D02*
X143324666Y-111588219D01*
X143324666Y-111588219D02*
X143467523Y-111635838D01*
X143467523Y-111635838D02*
X143515142Y-111683457D01*
X144467523Y-112588219D02*
X143896095Y-112588219D01*
X144181809Y-112588219D02*
X144181809Y-111588219D01*
X144181809Y-111588219D02*
X144086571Y-111731076D01*
X144086571Y-111731076D02*
X143991333Y-111826314D01*
X143991333Y-111826314D02*
X143896095Y-111873933D01*
X144848476Y-111683457D02*
X144896095Y-111635838D01*
X144896095Y-111635838D02*
X144991333Y-111588219D01*
X144991333Y-111588219D02*
X145229428Y-111588219D01*
X145229428Y-111588219D02*
X145324666Y-111635838D01*
X145324666Y-111635838D02*
X145372285Y-111683457D01*
X145372285Y-111683457D02*
X145419904Y-111778695D01*
X145419904Y-111778695D02*
X145419904Y-111873933D01*
X145419904Y-111873933D02*
X145372285Y-112016790D01*
X145372285Y-112016790D02*
X144800857Y-112588219D01*
X144800857Y-112588219D02*
X145419904Y-112588219D01*
X123893342Y-122896780D02*
X123845723Y-122944400D01*
X123845723Y-122944400D02*
X123702866Y-122992019D01*
X123702866Y-122992019D02*
X123607628Y-122992019D01*
X123607628Y-122992019D02*
X123464771Y-122944400D01*
X123464771Y-122944400D02*
X123369533Y-122849161D01*
X123369533Y-122849161D02*
X123321914Y-122753923D01*
X123321914Y-122753923D02*
X123274295Y-122563447D01*
X123274295Y-122563447D02*
X123274295Y-122420590D01*
X123274295Y-122420590D02*
X123321914Y-122230114D01*
X123321914Y-122230114D02*
X123369533Y-122134876D01*
X123369533Y-122134876D02*
X123464771Y-122039638D01*
X123464771Y-122039638D02*
X123607628Y-121992019D01*
X123607628Y-121992019D02*
X123702866Y-121992019D01*
X123702866Y-121992019D02*
X123845723Y-122039638D01*
X123845723Y-122039638D02*
X123893342Y-122087257D01*
X124845723Y-122992019D02*
X124274295Y-122992019D01*
X124560009Y-122992019D02*
X124560009Y-121992019D01*
X124560009Y-121992019D02*
X124464771Y-122134876D01*
X124464771Y-122134876D02*
X124369533Y-122230114D01*
X124369533Y-122230114D02*
X124274295Y-122277733D01*
X125798104Y-122992019D02*
X125226676Y-122992019D01*
X125512390Y-122992019D02*
X125512390Y-121992019D01*
X125512390Y-121992019D02*
X125417152Y-122134876D01*
X125417152Y-122134876D02*
X125321914Y-122230114D01*
X125321914Y-122230114D02*
X125226676Y-122277733D01*
X141641980Y-128455657D02*
X141689600Y-128503276D01*
X141689600Y-128503276D02*
X141737219Y-128646133D01*
X141737219Y-128646133D02*
X141737219Y-128741371D01*
X141737219Y-128741371D02*
X141689600Y-128884228D01*
X141689600Y-128884228D02*
X141594361Y-128979466D01*
X141594361Y-128979466D02*
X141499123Y-129027085D01*
X141499123Y-129027085D02*
X141308647Y-129074704D01*
X141308647Y-129074704D02*
X141165790Y-129074704D01*
X141165790Y-129074704D02*
X140975314Y-129027085D01*
X140975314Y-129027085D02*
X140880076Y-128979466D01*
X140880076Y-128979466D02*
X140784838Y-128884228D01*
X140784838Y-128884228D02*
X140737219Y-128741371D01*
X140737219Y-128741371D02*
X140737219Y-128646133D01*
X140737219Y-128646133D02*
X140784838Y-128503276D01*
X140784838Y-128503276D02*
X140832457Y-128455657D01*
X141737219Y-127503276D02*
X141737219Y-128074704D01*
X141737219Y-127788990D02*
X140737219Y-127788990D01*
X140737219Y-127788990D02*
X140880076Y-127884228D01*
X140880076Y-127884228D02*
X140975314Y-127979466D01*
X140975314Y-127979466D02*
X141022933Y-128074704D01*
X140737219Y-126884228D02*
X140737219Y-126788990D01*
X140737219Y-126788990D02*
X140784838Y-126693752D01*
X140784838Y-126693752D02*
X140832457Y-126646133D01*
X140832457Y-126646133D02*
X140927695Y-126598514D01*
X140927695Y-126598514D02*
X141118171Y-126550895D01*
X141118171Y-126550895D02*
X141356266Y-126550895D01*
X141356266Y-126550895D02*
X141546742Y-126598514D01*
X141546742Y-126598514D02*
X141641980Y-126646133D01*
X141641980Y-126646133D02*
X141689600Y-126693752D01*
X141689600Y-126693752D02*
X141737219Y-126788990D01*
X141737219Y-126788990D02*
X141737219Y-126884228D01*
X141737219Y-126884228D02*
X141689600Y-126979466D01*
X141689600Y-126979466D02*
X141641980Y-127027085D01*
X141641980Y-127027085D02*
X141546742Y-127074704D01*
X141546742Y-127074704D02*
X141356266Y-127122323D01*
X141356266Y-127122323D02*
X141118171Y-127122323D01*
X141118171Y-127122323D02*
X140927695Y-127074704D01*
X140927695Y-127074704D02*
X140832457Y-127027085D01*
X140832457Y-127027085D02*
X140784838Y-126979466D01*
X140784838Y-126979466D02*
X140737219Y-126884228D01*
X143445380Y-128131866D02*
X143493000Y-128179485D01*
X143493000Y-128179485D02*
X143540619Y-128322342D01*
X143540619Y-128322342D02*
X143540619Y-128417580D01*
X143540619Y-128417580D02*
X143493000Y-128560437D01*
X143493000Y-128560437D02*
X143397761Y-128655675D01*
X143397761Y-128655675D02*
X143302523Y-128703294D01*
X143302523Y-128703294D02*
X143112047Y-128750913D01*
X143112047Y-128750913D02*
X142969190Y-128750913D01*
X142969190Y-128750913D02*
X142778714Y-128703294D01*
X142778714Y-128703294D02*
X142683476Y-128655675D01*
X142683476Y-128655675D02*
X142588238Y-128560437D01*
X142588238Y-128560437D02*
X142540619Y-128417580D01*
X142540619Y-128417580D02*
X142540619Y-128322342D01*
X142540619Y-128322342D02*
X142588238Y-128179485D01*
X142588238Y-128179485D02*
X142635857Y-128131866D01*
X143540619Y-127655675D02*
X143540619Y-127465199D01*
X143540619Y-127465199D02*
X143493000Y-127369961D01*
X143493000Y-127369961D02*
X143445380Y-127322342D01*
X143445380Y-127322342D02*
X143302523Y-127227104D01*
X143302523Y-127227104D02*
X143112047Y-127179485D01*
X143112047Y-127179485D02*
X142731095Y-127179485D01*
X142731095Y-127179485D02*
X142635857Y-127227104D01*
X142635857Y-127227104D02*
X142588238Y-127274723D01*
X142588238Y-127274723D02*
X142540619Y-127369961D01*
X142540619Y-127369961D02*
X142540619Y-127560437D01*
X142540619Y-127560437D02*
X142588238Y-127655675D01*
X142588238Y-127655675D02*
X142635857Y-127703294D01*
X142635857Y-127703294D02*
X142731095Y-127750913D01*
X142731095Y-127750913D02*
X142969190Y-127750913D01*
X142969190Y-127750913D02*
X143064428Y-127703294D01*
X143064428Y-127703294D02*
X143112047Y-127655675D01*
X143112047Y-127655675D02*
X143159666Y-127560437D01*
X143159666Y-127560437D02*
X143159666Y-127369961D01*
X143159666Y-127369961D02*
X143112047Y-127274723D01*
X143112047Y-127274723D02*
X143064428Y-127227104D01*
X143064428Y-127227104D02*
X142969190Y-127179485D01*
X105548133Y-80615980D02*
X105500514Y-80663600D01*
X105500514Y-80663600D02*
X105357657Y-80711219D01*
X105357657Y-80711219D02*
X105262419Y-80711219D01*
X105262419Y-80711219D02*
X105119562Y-80663600D01*
X105119562Y-80663600D02*
X105024324Y-80568361D01*
X105024324Y-80568361D02*
X104976705Y-80473123D01*
X104976705Y-80473123D02*
X104929086Y-80282647D01*
X104929086Y-80282647D02*
X104929086Y-80139790D01*
X104929086Y-80139790D02*
X104976705Y-79949314D01*
X104976705Y-79949314D02*
X105024324Y-79854076D01*
X105024324Y-79854076D02*
X105119562Y-79758838D01*
X105119562Y-79758838D02*
X105262419Y-79711219D01*
X105262419Y-79711219D02*
X105357657Y-79711219D01*
X105357657Y-79711219D02*
X105500514Y-79758838D01*
X105500514Y-79758838D02*
X105548133Y-79806457D01*
X106119562Y-80139790D02*
X106024324Y-80092171D01*
X106024324Y-80092171D02*
X105976705Y-80044552D01*
X105976705Y-80044552D02*
X105929086Y-79949314D01*
X105929086Y-79949314D02*
X105929086Y-79901695D01*
X105929086Y-79901695D02*
X105976705Y-79806457D01*
X105976705Y-79806457D02*
X106024324Y-79758838D01*
X106024324Y-79758838D02*
X106119562Y-79711219D01*
X106119562Y-79711219D02*
X106310038Y-79711219D01*
X106310038Y-79711219D02*
X106405276Y-79758838D01*
X106405276Y-79758838D02*
X106452895Y-79806457D01*
X106452895Y-79806457D02*
X106500514Y-79901695D01*
X106500514Y-79901695D02*
X106500514Y-79949314D01*
X106500514Y-79949314D02*
X106452895Y-80044552D01*
X106452895Y-80044552D02*
X106405276Y-80092171D01*
X106405276Y-80092171D02*
X106310038Y-80139790D01*
X106310038Y-80139790D02*
X106119562Y-80139790D01*
X106119562Y-80139790D02*
X106024324Y-80187409D01*
X106024324Y-80187409D02*
X105976705Y-80235028D01*
X105976705Y-80235028D02*
X105929086Y-80330266D01*
X105929086Y-80330266D02*
X105929086Y-80520742D01*
X105929086Y-80520742D02*
X105976705Y-80615980D01*
X105976705Y-80615980D02*
X106024324Y-80663600D01*
X106024324Y-80663600D02*
X106119562Y-80711219D01*
X106119562Y-80711219D02*
X106310038Y-80711219D01*
X106310038Y-80711219D02*
X106405276Y-80663600D01*
X106405276Y-80663600D02*
X106452895Y-80615980D01*
X106452895Y-80615980D02*
X106500514Y-80520742D01*
X106500514Y-80520742D02*
X106500514Y-80330266D01*
X106500514Y-80330266D02*
X106452895Y-80235028D01*
X106452895Y-80235028D02*
X106405276Y-80187409D01*
X106405276Y-80187409D02*
X106310038Y-80139790D01*
X129409380Y-108154466D02*
X129457000Y-108202085D01*
X129457000Y-108202085D02*
X129504619Y-108344942D01*
X129504619Y-108344942D02*
X129504619Y-108440180D01*
X129504619Y-108440180D02*
X129457000Y-108583037D01*
X129457000Y-108583037D02*
X129361761Y-108678275D01*
X129361761Y-108678275D02*
X129266523Y-108725894D01*
X129266523Y-108725894D02*
X129076047Y-108773513D01*
X129076047Y-108773513D02*
X128933190Y-108773513D01*
X128933190Y-108773513D02*
X128742714Y-108725894D01*
X128742714Y-108725894D02*
X128647476Y-108678275D01*
X128647476Y-108678275D02*
X128552238Y-108583037D01*
X128552238Y-108583037D02*
X128504619Y-108440180D01*
X128504619Y-108440180D02*
X128504619Y-108344942D01*
X128504619Y-108344942D02*
X128552238Y-108202085D01*
X128552238Y-108202085D02*
X128599857Y-108154466D01*
X128504619Y-107821132D02*
X128504619Y-107154466D01*
X128504619Y-107154466D02*
X129504619Y-107583037D01*
X124344133Y-120428980D02*
X124296514Y-120476600D01*
X124296514Y-120476600D02*
X124153657Y-120524219D01*
X124153657Y-120524219D02*
X124058419Y-120524219D01*
X124058419Y-120524219D02*
X123915562Y-120476600D01*
X123915562Y-120476600D02*
X123820324Y-120381361D01*
X123820324Y-120381361D02*
X123772705Y-120286123D01*
X123772705Y-120286123D02*
X123725086Y-120095647D01*
X123725086Y-120095647D02*
X123725086Y-119952790D01*
X123725086Y-119952790D02*
X123772705Y-119762314D01*
X123772705Y-119762314D02*
X123820324Y-119667076D01*
X123820324Y-119667076D02*
X123915562Y-119571838D01*
X123915562Y-119571838D02*
X124058419Y-119524219D01*
X124058419Y-119524219D02*
X124153657Y-119524219D01*
X124153657Y-119524219D02*
X124296514Y-119571838D01*
X124296514Y-119571838D02*
X124344133Y-119619457D01*
X125201276Y-119524219D02*
X125010800Y-119524219D01*
X125010800Y-119524219D02*
X124915562Y-119571838D01*
X124915562Y-119571838D02*
X124867943Y-119619457D01*
X124867943Y-119619457D02*
X124772705Y-119762314D01*
X124772705Y-119762314D02*
X124725086Y-119952790D01*
X124725086Y-119952790D02*
X124725086Y-120333742D01*
X124725086Y-120333742D02*
X124772705Y-120428980D01*
X124772705Y-120428980D02*
X124820324Y-120476600D01*
X124820324Y-120476600D02*
X124915562Y-120524219D01*
X124915562Y-120524219D02*
X125106038Y-120524219D01*
X125106038Y-120524219D02*
X125201276Y-120476600D01*
X125201276Y-120476600D02*
X125248895Y-120428980D01*
X125248895Y-120428980D02*
X125296514Y-120333742D01*
X125296514Y-120333742D02*
X125296514Y-120095647D01*
X125296514Y-120095647D02*
X125248895Y-120000409D01*
X125248895Y-120000409D02*
X125201276Y-119952790D01*
X125201276Y-119952790D02*
X125106038Y-119905171D01*
X125106038Y-119905171D02*
X124915562Y-119905171D01*
X124915562Y-119905171D02*
X124820324Y-119952790D01*
X124820324Y-119952790D02*
X124772705Y-120000409D01*
X124772705Y-120000409D02*
X124725086Y-120095647D01*
X124394933Y-125077180D02*
X124347314Y-125124800D01*
X124347314Y-125124800D02*
X124204457Y-125172419D01*
X124204457Y-125172419D02*
X124109219Y-125172419D01*
X124109219Y-125172419D02*
X123966362Y-125124800D01*
X123966362Y-125124800D02*
X123871124Y-125029561D01*
X123871124Y-125029561D02*
X123823505Y-124934323D01*
X123823505Y-124934323D02*
X123775886Y-124743847D01*
X123775886Y-124743847D02*
X123775886Y-124600990D01*
X123775886Y-124600990D02*
X123823505Y-124410514D01*
X123823505Y-124410514D02*
X123871124Y-124315276D01*
X123871124Y-124315276D02*
X123966362Y-124220038D01*
X123966362Y-124220038D02*
X124109219Y-124172419D01*
X124109219Y-124172419D02*
X124204457Y-124172419D01*
X124204457Y-124172419D02*
X124347314Y-124220038D01*
X124347314Y-124220038D02*
X124394933Y-124267657D01*
X125299695Y-124172419D02*
X124823505Y-124172419D01*
X124823505Y-124172419D02*
X124775886Y-124648609D01*
X124775886Y-124648609D02*
X124823505Y-124600990D01*
X124823505Y-124600990D02*
X124918743Y-124553371D01*
X124918743Y-124553371D02*
X125156838Y-124553371D01*
X125156838Y-124553371D02*
X125252076Y-124600990D01*
X125252076Y-124600990D02*
X125299695Y-124648609D01*
X125299695Y-124648609D02*
X125347314Y-124743847D01*
X125347314Y-124743847D02*
X125347314Y-124981942D01*
X125347314Y-124981942D02*
X125299695Y-125077180D01*
X125299695Y-125077180D02*
X125252076Y-125124800D01*
X125252076Y-125124800D02*
X125156838Y-125172419D01*
X125156838Y-125172419D02*
X124918743Y-125172419D01*
X124918743Y-125172419D02*
X124823505Y-125124800D01*
X124823505Y-125124800D02*
X124775886Y-125077180D01*
X127798533Y-127994580D02*
X127750914Y-128042200D01*
X127750914Y-128042200D02*
X127608057Y-128089819D01*
X127608057Y-128089819D02*
X127512819Y-128089819D01*
X127512819Y-128089819D02*
X127369962Y-128042200D01*
X127369962Y-128042200D02*
X127274724Y-127946961D01*
X127274724Y-127946961D02*
X127227105Y-127851723D01*
X127227105Y-127851723D02*
X127179486Y-127661247D01*
X127179486Y-127661247D02*
X127179486Y-127518390D01*
X127179486Y-127518390D02*
X127227105Y-127327914D01*
X127227105Y-127327914D02*
X127274724Y-127232676D01*
X127274724Y-127232676D02*
X127369962Y-127137438D01*
X127369962Y-127137438D02*
X127512819Y-127089819D01*
X127512819Y-127089819D02*
X127608057Y-127089819D01*
X127608057Y-127089819D02*
X127750914Y-127137438D01*
X127750914Y-127137438D02*
X127798533Y-127185057D01*
X128655676Y-127423152D02*
X128655676Y-128089819D01*
X128417581Y-127042200D02*
X128179486Y-127756485D01*
X128179486Y-127756485D02*
X128798533Y-127756485D01*
X123722133Y-127961580D02*
X123674514Y-128009200D01*
X123674514Y-128009200D02*
X123531657Y-128056819D01*
X123531657Y-128056819D02*
X123436419Y-128056819D01*
X123436419Y-128056819D02*
X123293562Y-128009200D01*
X123293562Y-128009200D02*
X123198324Y-127913961D01*
X123198324Y-127913961D02*
X123150705Y-127818723D01*
X123150705Y-127818723D02*
X123103086Y-127628247D01*
X123103086Y-127628247D02*
X123103086Y-127485390D01*
X123103086Y-127485390D02*
X123150705Y-127294914D01*
X123150705Y-127294914D02*
X123198324Y-127199676D01*
X123198324Y-127199676D02*
X123293562Y-127104438D01*
X123293562Y-127104438D02*
X123436419Y-127056819D01*
X123436419Y-127056819D02*
X123531657Y-127056819D01*
X123531657Y-127056819D02*
X123674514Y-127104438D01*
X123674514Y-127104438D02*
X123722133Y-127152057D01*
X124055467Y-127056819D02*
X124674514Y-127056819D01*
X124674514Y-127056819D02*
X124341181Y-127437771D01*
X124341181Y-127437771D02*
X124484038Y-127437771D01*
X124484038Y-127437771D02*
X124579276Y-127485390D01*
X124579276Y-127485390D02*
X124626895Y-127533009D01*
X124626895Y-127533009D02*
X124674514Y-127628247D01*
X124674514Y-127628247D02*
X124674514Y-127866342D01*
X124674514Y-127866342D02*
X124626895Y-127961580D01*
X124626895Y-127961580D02*
X124579276Y-128009200D01*
X124579276Y-128009200D02*
X124484038Y-128056819D01*
X124484038Y-128056819D02*
X124198324Y-128056819D01*
X124198324Y-128056819D02*
X124103086Y-128009200D01*
X124103086Y-128009200D02*
X124055467Y-127961580D01*
X137163980Y-131383066D02*
X137211600Y-131430685D01*
X137211600Y-131430685D02*
X137259219Y-131573542D01*
X137259219Y-131573542D02*
X137259219Y-131668780D01*
X137259219Y-131668780D02*
X137211600Y-131811637D01*
X137211600Y-131811637D02*
X137116361Y-131906875D01*
X137116361Y-131906875D02*
X137021123Y-131954494D01*
X137021123Y-131954494D02*
X136830647Y-132002113D01*
X136830647Y-132002113D02*
X136687790Y-132002113D01*
X136687790Y-132002113D02*
X136497314Y-131954494D01*
X136497314Y-131954494D02*
X136402076Y-131906875D01*
X136402076Y-131906875D02*
X136306838Y-131811637D01*
X136306838Y-131811637D02*
X136259219Y-131668780D01*
X136259219Y-131668780D02*
X136259219Y-131573542D01*
X136259219Y-131573542D02*
X136306838Y-131430685D01*
X136306838Y-131430685D02*
X136354457Y-131383066D01*
X136354457Y-131002113D02*
X136306838Y-130954494D01*
X136306838Y-130954494D02*
X136259219Y-130859256D01*
X136259219Y-130859256D02*
X136259219Y-130621161D01*
X136259219Y-130621161D02*
X136306838Y-130525923D01*
X136306838Y-130525923D02*
X136354457Y-130478304D01*
X136354457Y-130478304D02*
X136449695Y-130430685D01*
X136449695Y-130430685D02*
X136544933Y-130430685D01*
X136544933Y-130430685D02*
X136687790Y-130478304D01*
X136687790Y-130478304D02*
X137259219Y-131049732D01*
X137259219Y-131049732D02*
X137259219Y-130430685D01*
X131572733Y-127555180D02*
X131525114Y-127602800D01*
X131525114Y-127602800D02*
X131382257Y-127650419D01*
X131382257Y-127650419D02*
X131287019Y-127650419D01*
X131287019Y-127650419D02*
X131144162Y-127602800D01*
X131144162Y-127602800D02*
X131048924Y-127507561D01*
X131048924Y-127507561D02*
X131001305Y-127412323D01*
X131001305Y-127412323D02*
X130953686Y-127221847D01*
X130953686Y-127221847D02*
X130953686Y-127078990D01*
X130953686Y-127078990D02*
X131001305Y-126888514D01*
X131001305Y-126888514D02*
X131048924Y-126793276D01*
X131048924Y-126793276D02*
X131144162Y-126698038D01*
X131144162Y-126698038D02*
X131287019Y-126650419D01*
X131287019Y-126650419D02*
X131382257Y-126650419D01*
X131382257Y-126650419D02*
X131525114Y-126698038D01*
X131525114Y-126698038D02*
X131572733Y-126745657D01*
X132525114Y-127650419D02*
X131953686Y-127650419D01*
X132239400Y-127650419D02*
X132239400Y-126650419D01*
X132239400Y-126650419D02*
X132144162Y-126793276D01*
X132144162Y-126793276D02*
X132048924Y-126888514D01*
X132048924Y-126888514D02*
X131953686Y-126936133D01*
X132871591Y-98239280D02*
X132823972Y-98286900D01*
X132823972Y-98286900D02*
X132681115Y-98334519D01*
X132681115Y-98334519D02*
X132585877Y-98334519D01*
X132585877Y-98334519D02*
X132443020Y-98286900D01*
X132443020Y-98286900D02*
X132347782Y-98191661D01*
X132347782Y-98191661D02*
X132300163Y-98096423D01*
X132300163Y-98096423D02*
X132252544Y-97905947D01*
X132252544Y-97905947D02*
X132252544Y-97763090D01*
X132252544Y-97763090D02*
X132300163Y-97572614D01*
X132300163Y-97572614D02*
X132347782Y-97477376D01*
X132347782Y-97477376D02*
X132443020Y-97382138D01*
X132443020Y-97382138D02*
X132585877Y-97334519D01*
X132585877Y-97334519D02*
X132681115Y-97334519D01*
X132681115Y-97334519D02*
X132823972Y-97382138D01*
X132823972Y-97382138D02*
X132871591Y-97429757D01*
X133252544Y-97429757D02*
X133300163Y-97382138D01*
X133300163Y-97382138D02*
X133395401Y-97334519D01*
X133395401Y-97334519D02*
X133633496Y-97334519D01*
X133633496Y-97334519D02*
X133728734Y-97382138D01*
X133728734Y-97382138D02*
X133776353Y-97429757D01*
X133776353Y-97429757D02*
X133823972Y-97524995D01*
X133823972Y-97524995D02*
X133823972Y-97620233D01*
X133823972Y-97620233D02*
X133776353Y-97763090D01*
X133776353Y-97763090D02*
X133204925Y-98334519D01*
X133204925Y-98334519D02*
X133823972Y-98334519D01*
X134728734Y-97334519D02*
X134252544Y-97334519D01*
X134252544Y-97334519D02*
X134204925Y-97810709D01*
X134204925Y-97810709D02*
X134252544Y-97763090D01*
X134252544Y-97763090D02*
X134347782Y-97715471D01*
X134347782Y-97715471D02*
X134585877Y-97715471D01*
X134585877Y-97715471D02*
X134681115Y-97763090D01*
X134681115Y-97763090D02*
X134728734Y-97810709D01*
X134728734Y-97810709D02*
X134776353Y-97905947D01*
X134776353Y-97905947D02*
X134776353Y-98144042D01*
X134776353Y-98144042D02*
X134728734Y-98239280D01*
X134728734Y-98239280D02*
X134681115Y-98286900D01*
X134681115Y-98286900D02*
X134585877Y-98334519D01*
X134585877Y-98334519D02*
X134347782Y-98334519D01*
X134347782Y-98334519D02*
X134252544Y-98286900D01*
X134252544Y-98286900D02*
X134204925Y-98239280D01*
X138434191Y-98239280D02*
X138386572Y-98286900D01*
X138386572Y-98286900D02*
X138243715Y-98334519D01*
X138243715Y-98334519D02*
X138148477Y-98334519D01*
X138148477Y-98334519D02*
X138005620Y-98286900D01*
X138005620Y-98286900D02*
X137910382Y-98191661D01*
X137910382Y-98191661D02*
X137862763Y-98096423D01*
X137862763Y-98096423D02*
X137815144Y-97905947D01*
X137815144Y-97905947D02*
X137815144Y-97763090D01*
X137815144Y-97763090D02*
X137862763Y-97572614D01*
X137862763Y-97572614D02*
X137910382Y-97477376D01*
X137910382Y-97477376D02*
X138005620Y-97382138D01*
X138005620Y-97382138D02*
X138148477Y-97334519D01*
X138148477Y-97334519D02*
X138243715Y-97334519D01*
X138243715Y-97334519D02*
X138386572Y-97382138D01*
X138386572Y-97382138D02*
X138434191Y-97429757D01*
X138815144Y-97429757D02*
X138862763Y-97382138D01*
X138862763Y-97382138D02*
X138958001Y-97334519D01*
X138958001Y-97334519D02*
X139196096Y-97334519D01*
X139196096Y-97334519D02*
X139291334Y-97382138D01*
X139291334Y-97382138D02*
X139338953Y-97429757D01*
X139338953Y-97429757D02*
X139386572Y-97524995D01*
X139386572Y-97524995D02*
X139386572Y-97620233D01*
X139386572Y-97620233D02*
X139338953Y-97763090D01*
X139338953Y-97763090D02*
X138767525Y-98334519D01*
X138767525Y-98334519D02*
X139386572Y-98334519D01*
X139719906Y-97334519D02*
X140338953Y-97334519D01*
X140338953Y-97334519D02*
X140005620Y-97715471D01*
X140005620Y-97715471D02*
X140148477Y-97715471D01*
X140148477Y-97715471D02*
X140243715Y-97763090D01*
X140243715Y-97763090D02*
X140291334Y-97810709D01*
X140291334Y-97810709D02*
X140338953Y-97905947D01*
X140338953Y-97905947D02*
X140338953Y-98144042D01*
X140338953Y-98144042D02*
X140291334Y-98239280D01*
X140291334Y-98239280D02*
X140243715Y-98286900D01*
X140243715Y-98286900D02*
X140148477Y-98334519D01*
X140148477Y-98334519D02*
X139862763Y-98334519D01*
X139862763Y-98334519D02*
X139767525Y-98286900D01*
X139767525Y-98286900D02*
X139719906Y-98239280D01*
X135515644Y-97297819D02*
X135515644Y-98107342D01*
X135515644Y-98107342D02*
X135563263Y-98202580D01*
X135563263Y-98202580D02*
X135610882Y-98250200D01*
X135610882Y-98250200D02*
X135706120Y-98297819D01*
X135706120Y-98297819D02*
X135896596Y-98297819D01*
X135896596Y-98297819D02*
X135991834Y-98250200D01*
X135991834Y-98250200D02*
X136039453Y-98202580D01*
X136039453Y-98202580D02*
X136087072Y-98107342D01*
X136087072Y-98107342D02*
X136087072Y-97297819D01*
X136468025Y-97297819D02*
X137087072Y-97297819D01*
X137087072Y-97297819D02*
X136753739Y-97678771D01*
X136753739Y-97678771D02*
X136896596Y-97678771D01*
X136896596Y-97678771D02*
X136991834Y-97726390D01*
X136991834Y-97726390D02*
X137039453Y-97774009D01*
X137039453Y-97774009D02*
X137087072Y-97869247D01*
X137087072Y-97869247D02*
X137087072Y-98107342D01*
X137087072Y-98107342D02*
X137039453Y-98202580D01*
X137039453Y-98202580D02*
X136991834Y-98250200D01*
X136991834Y-98250200D02*
X136896596Y-98297819D01*
X136896596Y-98297819D02*
X136610882Y-98297819D01*
X136610882Y-98297819D02*
X136515644Y-98250200D01*
X136515644Y-98250200D02*
X136468025Y-98202580D01*
X138783219Y-71508857D02*
X138307028Y-71842190D01*
X138783219Y-72080285D02*
X137783219Y-72080285D01*
X137783219Y-72080285D02*
X137783219Y-71699333D01*
X137783219Y-71699333D02*
X137830838Y-71604095D01*
X137830838Y-71604095D02*
X137878457Y-71556476D01*
X137878457Y-71556476D02*
X137973695Y-71508857D01*
X137973695Y-71508857D02*
X138116552Y-71508857D01*
X138116552Y-71508857D02*
X138211790Y-71556476D01*
X138211790Y-71556476D02*
X138259409Y-71604095D01*
X138259409Y-71604095D02*
X138307028Y-71699333D01*
X138307028Y-71699333D02*
X138307028Y-72080285D01*
X138783219Y-70556476D02*
X138783219Y-71127904D01*
X138783219Y-70842190D02*
X137783219Y-70842190D01*
X137783219Y-70842190D02*
X137926076Y-70937428D01*
X137926076Y-70937428D02*
X138021314Y-71032666D01*
X138021314Y-71032666D02*
X138068933Y-71127904D01*
X137783219Y-69937428D02*
X137783219Y-69842190D01*
X137783219Y-69842190D02*
X137830838Y-69746952D01*
X137830838Y-69746952D02*
X137878457Y-69699333D01*
X137878457Y-69699333D02*
X137973695Y-69651714D01*
X137973695Y-69651714D02*
X138164171Y-69604095D01*
X138164171Y-69604095D02*
X138402266Y-69604095D01*
X138402266Y-69604095D02*
X138592742Y-69651714D01*
X138592742Y-69651714D02*
X138687980Y-69699333D01*
X138687980Y-69699333D02*
X138735600Y-69746952D01*
X138735600Y-69746952D02*
X138783219Y-69842190D01*
X138783219Y-69842190D02*
X138783219Y-69937428D01*
X138783219Y-69937428D02*
X138735600Y-70032666D01*
X138735600Y-70032666D02*
X138687980Y-70080285D01*
X138687980Y-70080285D02*
X138592742Y-70127904D01*
X138592742Y-70127904D02*
X138402266Y-70175523D01*
X138402266Y-70175523D02*
X138164171Y-70175523D01*
X138164171Y-70175523D02*
X137973695Y-70127904D01*
X137973695Y-70127904D02*
X137878457Y-70080285D01*
X137878457Y-70080285D02*
X137830838Y-70032666D01*
X137830838Y-70032666D02*
X137783219Y-69937428D01*
X144435533Y-134147219D02*
X144102200Y-133671028D01*
X143864105Y-134147219D02*
X143864105Y-133147219D01*
X143864105Y-133147219D02*
X144245057Y-133147219D01*
X144245057Y-133147219D02*
X144340295Y-133194838D01*
X144340295Y-133194838D02*
X144387914Y-133242457D01*
X144387914Y-133242457D02*
X144435533Y-133337695D01*
X144435533Y-133337695D02*
X144435533Y-133480552D01*
X144435533Y-133480552D02*
X144387914Y-133575790D01*
X144387914Y-133575790D02*
X144340295Y-133623409D01*
X144340295Y-133623409D02*
X144245057Y-133671028D01*
X144245057Y-133671028D02*
X143864105Y-133671028D01*
X144768867Y-133147219D02*
X145387914Y-133147219D01*
X145387914Y-133147219D02*
X145054581Y-133528171D01*
X145054581Y-133528171D02*
X145197438Y-133528171D01*
X145197438Y-133528171D02*
X145292676Y-133575790D01*
X145292676Y-133575790D02*
X145340295Y-133623409D01*
X145340295Y-133623409D02*
X145387914Y-133718647D01*
X145387914Y-133718647D02*
X145387914Y-133956742D01*
X145387914Y-133956742D02*
X145340295Y-134051980D01*
X145340295Y-134051980D02*
X145292676Y-134099600D01*
X145292676Y-134099600D02*
X145197438Y-134147219D01*
X145197438Y-134147219D02*
X144911724Y-134147219D01*
X144911724Y-134147219D02*
X144816486Y-134099600D01*
X144816486Y-134099600D02*
X144768867Y-134051980D01*
X140332619Y-85102666D02*
X139856428Y-85435999D01*
X140332619Y-85674094D02*
X139332619Y-85674094D01*
X139332619Y-85674094D02*
X139332619Y-85293142D01*
X139332619Y-85293142D02*
X139380238Y-85197904D01*
X139380238Y-85197904D02*
X139427857Y-85150285D01*
X139427857Y-85150285D02*
X139523095Y-85102666D01*
X139523095Y-85102666D02*
X139665952Y-85102666D01*
X139665952Y-85102666D02*
X139761190Y-85150285D01*
X139761190Y-85150285D02*
X139808809Y-85197904D01*
X139808809Y-85197904D02*
X139856428Y-85293142D01*
X139856428Y-85293142D02*
X139856428Y-85674094D01*
X140332619Y-84626475D02*
X140332619Y-84435999D01*
X140332619Y-84435999D02*
X140285000Y-84340761D01*
X140285000Y-84340761D02*
X140237380Y-84293142D01*
X140237380Y-84293142D02*
X140094523Y-84197904D01*
X140094523Y-84197904D02*
X139904047Y-84150285D01*
X139904047Y-84150285D02*
X139523095Y-84150285D01*
X139523095Y-84150285D02*
X139427857Y-84197904D01*
X139427857Y-84197904D02*
X139380238Y-84245523D01*
X139380238Y-84245523D02*
X139332619Y-84340761D01*
X139332619Y-84340761D02*
X139332619Y-84531237D01*
X139332619Y-84531237D02*
X139380238Y-84626475D01*
X139380238Y-84626475D02*
X139427857Y-84674094D01*
X139427857Y-84674094D02*
X139523095Y-84721713D01*
X139523095Y-84721713D02*
X139761190Y-84721713D01*
X139761190Y-84721713D02*
X139856428Y-84674094D01*
X139856428Y-84674094D02*
X139904047Y-84626475D01*
X139904047Y-84626475D02*
X139951666Y-84531237D01*
X139951666Y-84531237D02*
X139951666Y-84340761D01*
X139951666Y-84340761D02*
X139904047Y-84245523D01*
X139904047Y-84245523D02*
X139856428Y-84197904D01*
X139856428Y-84197904D02*
X139761190Y-84150285D01*
X106345466Y-87513419D02*
X106345466Y-88227704D01*
X106345466Y-88227704D02*
X106297847Y-88370561D01*
X106297847Y-88370561D02*
X106202609Y-88465800D01*
X106202609Y-88465800D02*
X106059752Y-88513419D01*
X106059752Y-88513419D02*
X105964514Y-88513419D01*
X106869276Y-88513419D02*
X107059752Y-88513419D01*
X107059752Y-88513419D02*
X107154990Y-88465800D01*
X107154990Y-88465800D02*
X107202609Y-88418180D01*
X107202609Y-88418180D02*
X107297847Y-88275323D01*
X107297847Y-88275323D02*
X107345466Y-88084847D01*
X107345466Y-88084847D02*
X107345466Y-87703895D01*
X107345466Y-87703895D02*
X107297847Y-87608657D01*
X107297847Y-87608657D02*
X107250228Y-87561038D01*
X107250228Y-87561038D02*
X107154990Y-87513419D01*
X107154990Y-87513419D02*
X106964514Y-87513419D01*
X106964514Y-87513419D02*
X106869276Y-87561038D01*
X106869276Y-87561038D02*
X106821657Y-87608657D01*
X106821657Y-87608657D02*
X106774038Y-87703895D01*
X106774038Y-87703895D02*
X106774038Y-87941990D01*
X106774038Y-87941990D02*
X106821657Y-88037228D01*
X106821657Y-88037228D02*
X106869276Y-88084847D01*
X106869276Y-88084847D02*
X106964514Y-88132466D01*
X106964514Y-88132466D02*
X107154990Y-88132466D01*
X107154990Y-88132466D02*
X107250228Y-88084847D01*
X107250228Y-88084847D02*
X107297847Y-88037228D01*
X107297847Y-88037228D02*
X107345466Y-87941990D01*
X149485361Y-98962057D02*
X149390123Y-98914438D01*
X149390123Y-98914438D02*
X149294885Y-98819200D01*
X149294885Y-98819200D02*
X149152028Y-98676342D01*
X149152028Y-98676342D02*
X149056790Y-98628723D01*
X149056790Y-98628723D02*
X148961552Y-98628723D01*
X149009171Y-98866819D02*
X148913933Y-98819200D01*
X148913933Y-98819200D02*
X148818695Y-98723961D01*
X148818695Y-98723961D02*
X148771076Y-98533485D01*
X148771076Y-98533485D02*
X148771076Y-98200152D01*
X148771076Y-98200152D02*
X148818695Y-98009676D01*
X148818695Y-98009676D02*
X148913933Y-97914438D01*
X148913933Y-97914438D02*
X149009171Y-97866819D01*
X149009171Y-97866819D02*
X149199647Y-97866819D01*
X149199647Y-97866819D02*
X149294885Y-97914438D01*
X149294885Y-97914438D02*
X149390123Y-98009676D01*
X149390123Y-98009676D02*
X149437742Y-98200152D01*
X149437742Y-98200152D02*
X149437742Y-98533485D01*
X149437742Y-98533485D02*
X149390123Y-98723961D01*
X149390123Y-98723961D02*
X149294885Y-98819200D01*
X149294885Y-98819200D02*
X149199647Y-98866819D01*
X149199647Y-98866819D02*
X149009171Y-98866819D01*
X149818695Y-97962057D02*
X149866314Y-97914438D01*
X149866314Y-97914438D02*
X149961552Y-97866819D01*
X149961552Y-97866819D02*
X150199647Y-97866819D01*
X150199647Y-97866819D02*
X150294885Y-97914438D01*
X150294885Y-97914438D02*
X150342504Y-97962057D01*
X150342504Y-97962057D02*
X150390123Y-98057295D01*
X150390123Y-98057295D02*
X150390123Y-98152533D01*
X150390123Y-98152533D02*
X150342504Y-98295390D01*
X150342504Y-98295390D02*
X149771076Y-98866819D01*
X149771076Y-98866819D02*
X150390123Y-98866819D01*
X149166342Y-122787580D02*
X149118723Y-122835200D01*
X149118723Y-122835200D02*
X148975866Y-122882819D01*
X148975866Y-122882819D02*
X148880628Y-122882819D01*
X148880628Y-122882819D02*
X148737771Y-122835200D01*
X148737771Y-122835200D02*
X148642533Y-122739961D01*
X148642533Y-122739961D02*
X148594914Y-122644723D01*
X148594914Y-122644723D02*
X148547295Y-122454247D01*
X148547295Y-122454247D02*
X148547295Y-122311390D01*
X148547295Y-122311390D02*
X148594914Y-122120914D01*
X148594914Y-122120914D02*
X148642533Y-122025676D01*
X148642533Y-122025676D02*
X148737771Y-121930438D01*
X148737771Y-121930438D02*
X148880628Y-121882819D01*
X148880628Y-121882819D02*
X148975866Y-121882819D01*
X148975866Y-121882819D02*
X149118723Y-121930438D01*
X149118723Y-121930438D02*
X149166342Y-121978057D01*
X150118723Y-122882819D02*
X149547295Y-122882819D01*
X149833009Y-122882819D02*
X149833009Y-121882819D01*
X149833009Y-121882819D02*
X149737771Y-122025676D01*
X149737771Y-122025676D02*
X149642533Y-122120914D01*
X149642533Y-122120914D02*
X149547295Y-122168533D01*
X150690152Y-122311390D02*
X150594914Y-122263771D01*
X150594914Y-122263771D02*
X150547295Y-122216152D01*
X150547295Y-122216152D02*
X150499676Y-122120914D01*
X150499676Y-122120914D02*
X150499676Y-122073295D01*
X150499676Y-122073295D02*
X150547295Y-121978057D01*
X150547295Y-121978057D02*
X150594914Y-121930438D01*
X150594914Y-121930438D02*
X150690152Y-121882819D01*
X150690152Y-121882819D02*
X150880628Y-121882819D01*
X150880628Y-121882819D02*
X150975866Y-121930438D01*
X150975866Y-121930438D02*
X151023485Y-121978057D01*
X151023485Y-121978057D02*
X151071104Y-122073295D01*
X151071104Y-122073295D02*
X151071104Y-122120914D01*
X151071104Y-122120914D02*
X151023485Y-122216152D01*
X151023485Y-122216152D02*
X150975866Y-122263771D01*
X150975866Y-122263771D02*
X150880628Y-122311390D01*
X150880628Y-122311390D02*
X150690152Y-122311390D01*
X150690152Y-122311390D02*
X150594914Y-122359009D01*
X150594914Y-122359009D02*
X150547295Y-122406628D01*
X150547295Y-122406628D02*
X150499676Y-122501866D01*
X150499676Y-122501866D02*
X150499676Y-122692342D01*
X150499676Y-122692342D02*
X150547295Y-122787580D01*
X150547295Y-122787580D02*
X150594914Y-122835200D01*
X150594914Y-122835200D02*
X150690152Y-122882819D01*
X150690152Y-122882819D02*
X150880628Y-122882819D01*
X150880628Y-122882819D02*
X150975866Y-122835200D01*
X150975866Y-122835200D02*
X151023485Y-122787580D01*
X151023485Y-122787580D02*
X151071104Y-122692342D01*
X151071104Y-122692342D02*
X151071104Y-122501866D01*
X151071104Y-122501866D02*
X151023485Y-122406628D01*
X151023485Y-122406628D02*
X150975866Y-122359009D01*
X150975866Y-122359009D02*
X150880628Y-122311390D01*
X167305466Y-87513419D02*
X167305466Y-88227704D01*
X167305466Y-88227704D02*
X167257847Y-88370561D01*
X167257847Y-88370561D02*
X167162609Y-88465800D01*
X167162609Y-88465800D02*
X167019752Y-88513419D01*
X167019752Y-88513419D02*
X166924514Y-88513419D01*
X167686419Y-87513419D02*
X168353085Y-87513419D01*
X168353085Y-87513419D02*
X167924514Y-88513419D01*
X135760619Y-71356457D02*
X135284428Y-71689790D01*
X135760619Y-71927885D02*
X134760619Y-71927885D01*
X134760619Y-71927885D02*
X134760619Y-71546933D01*
X134760619Y-71546933D02*
X134808238Y-71451695D01*
X134808238Y-71451695D02*
X134855857Y-71404076D01*
X134855857Y-71404076D02*
X134951095Y-71356457D01*
X134951095Y-71356457D02*
X135093952Y-71356457D01*
X135093952Y-71356457D02*
X135189190Y-71404076D01*
X135189190Y-71404076D02*
X135236809Y-71451695D01*
X135236809Y-71451695D02*
X135284428Y-71546933D01*
X135284428Y-71546933D02*
X135284428Y-71927885D01*
X135760619Y-70404076D02*
X135760619Y-70975504D01*
X135760619Y-70689790D02*
X134760619Y-70689790D01*
X134760619Y-70689790D02*
X134903476Y-70785028D01*
X134903476Y-70785028D02*
X134998714Y-70880266D01*
X134998714Y-70880266D02*
X135046333Y-70975504D01*
X135760619Y-69451695D02*
X135760619Y-70023123D01*
X135760619Y-69737409D02*
X134760619Y-69737409D01*
X134760619Y-69737409D02*
X134903476Y-69832647D01*
X134903476Y-69832647D02*
X134998714Y-69927885D01*
X134998714Y-69927885D02*
X135046333Y-70023123D01*
X104599276Y-59573419D02*
X104599276Y-60287704D01*
X104599276Y-60287704D02*
X104551657Y-60430561D01*
X104551657Y-60430561D02*
X104456419Y-60525800D01*
X104456419Y-60525800D02*
X104313562Y-60573419D01*
X104313562Y-60573419D02*
X104218324Y-60573419D01*
X105599276Y-60573419D02*
X105027848Y-60573419D01*
X105313562Y-60573419D02*
X105313562Y-59573419D01*
X105313562Y-59573419D02*
X105218324Y-59716276D01*
X105218324Y-59716276D02*
X105123086Y-59811514D01*
X105123086Y-59811514D02*
X105027848Y-59859133D01*
X106456419Y-59906752D02*
X106456419Y-60573419D01*
X106218324Y-59525800D02*
X105980229Y-60240085D01*
X105980229Y-60240085D02*
X106599276Y-60240085D01*
X132820791Y-93362480D02*
X132773172Y-93410100D01*
X132773172Y-93410100D02*
X132630315Y-93457719D01*
X132630315Y-93457719D02*
X132535077Y-93457719D01*
X132535077Y-93457719D02*
X132392220Y-93410100D01*
X132392220Y-93410100D02*
X132296982Y-93314861D01*
X132296982Y-93314861D02*
X132249363Y-93219623D01*
X132249363Y-93219623D02*
X132201744Y-93029147D01*
X132201744Y-93029147D02*
X132201744Y-92886290D01*
X132201744Y-92886290D02*
X132249363Y-92695814D01*
X132249363Y-92695814D02*
X132296982Y-92600576D01*
X132296982Y-92600576D02*
X132392220Y-92505338D01*
X132392220Y-92505338D02*
X132535077Y-92457719D01*
X132535077Y-92457719D02*
X132630315Y-92457719D01*
X132630315Y-92457719D02*
X132773172Y-92505338D01*
X132773172Y-92505338D02*
X132820791Y-92552957D01*
X133201744Y-92552957D02*
X133249363Y-92505338D01*
X133249363Y-92505338D02*
X133344601Y-92457719D01*
X133344601Y-92457719D02*
X133582696Y-92457719D01*
X133582696Y-92457719D02*
X133677934Y-92505338D01*
X133677934Y-92505338D02*
X133725553Y-92552957D01*
X133725553Y-92552957D02*
X133773172Y-92648195D01*
X133773172Y-92648195D02*
X133773172Y-92743433D01*
X133773172Y-92743433D02*
X133725553Y-92886290D01*
X133725553Y-92886290D02*
X133154125Y-93457719D01*
X133154125Y-93457719D02*
X133773172Y-93457719D01*
X134630315Y-92457719D02*
X134439839Y-92457719D01*
X134439839Y-92457719D02*
X134344601Y-92505338D01*
X134344601Y-92505338D02*
X134296982Y-92552957D01*
X134296982Y-92552957D02*
X134201744Y-92695814D01*
X134201744Y-92695814D02*
X134154125Y-92886290D01*
X134154125Y-92886290D02*
X134154125Y-93267242D01*
X134154125Y-93267242D02*
X134201744Y-93362480D01*
X134201744Y-93362480D02*
X134249363Y-93410100D01*
X134249363Y-93410100D02*
X134344601Y-93457719D01*
X134344601Y-93457719D02*
X134535077Y-93457719D01*
X134535077Y-93457719D02*
X134630315Y-93410100D01*
X134630315Y-93410100D02*
X134677934Y-93362480D01*
X134677934Y-93362480D02*
X134725553Y-93267242D01*
X134725553Y-93267242D02*
X134725553Y-93029147D01*
X134725553Y-93029147D02*
X134677934Y-92933909D01*
X134677934Y-92933909D02*
X134630315Y-92886290D01*
X134630315Y-92886290D02*
X134535077Y-92838671D01*
X134535077Y-92838671D02*
X134344601Y-92838671D01*
X134344601Y-92838671D02*
X134249363Y-92886290D01*
X134249363Y-92886290D02*
X134201744Y-92933909D01*
X134201744Y-92933909D02*
X134154125Y-93029147D01*
X153623180Y-125407657D02*
X153670800Y-125455276D01*
X153670800Y-125455276D02*
X153718419Y-125598133D01*
X153718419Y-125598133D02*
X153718419Y-125693371D01*
X153718419Y-125693371D02*
X153670800Y-125836228D01*
X153670800Y-125836228D02*
X153575561Y-125931466D01*
X153575561Y-125931466D02*
X153480323Y-125979085D01*
X153480323Y-125979085D02*
X153289847Y-126026704D01*
X153289847Y-126026704D02*
X153146990Y-126026704D01*
X153146990Y-126026704D02*
X152956514Y-125979085D01*
X152956514Y-125979085D02*
X152861276Y-125931466D01*
X152861276Y-125931466D02*
X152766038Y-125836228D01*
X152766038Y-125836228D02*
X152718419Y-125693371D01*
X152718419Y-125693371D02*
X152718419Y-125598133D01*
X152718419Y-125598133D02*
X152766038Y-125455276D01*
X152766038Y-125455276D02*
X152813657Y-125407657D01*
X152813657Y-125026704D02*
X152766038Y-124979085D01*
X152766038Y-124979085D02*
X152718419Y-124883847D01*
X152718419Y-124883847D02*
X152718419Y-124645752D01*
X152718419Y-124645752D02*
X152766038Y-124550514D01*
X152766038Y-124550514D02*
X152813657Y-124502895D01*
X152813657Y-124502895D02*
X152908895Y-124455276D01*
X152908895Y-124455276D02*
X153004133Y-124455276D01*
X153004133Y-124455276D02*
X153146990Y-124502895D01*
X153146990Y-124502895D02*
X153718419Y-125074323D01*
X153718419Y-125074323D02*
X153718419Y-124455276D01*
X152718419Y-123836228D02*
X152718419Y-123740990D01*
X152718419Y-123740990D02*
X152766038Y-123645752D01*
X152766038Y-123645752D02*
X152813657Y-123598133D01*
X152813657Y-123598133D02*
X152908895Y-123550514D01*
X152908895Y-123550514D02*
X153099371Y-123502895D01*
X153099371Y-123502895D02*
X153337466Y-123502895D01*
X153337466Y-123502895D02*
X153527942Y-123550514D01*
X153527942Y-123550514D02*
X153623180Y-123598133D01*
X153623180Y-123598133D02*
X153670800Y-123645752D01*
X153670800Y-123645752D02*
X153718419Y-123740990D01*
X153718419Y-123740990D02*
X153718419Y-123836228D01*
X153718419Y-123836228D02*
X153670800Y-123931466D01*
X153670800Y-123931466D02*
X153623180Y-123979085D01*
X153623180Y-123979085D02*
X153527942Y-124026704D01*
X153527942Y-124026704D02*
X153337466Y-124074323D01*
X153337466Y-124074323D02*
X153099371Y-124074323D01*
X153099371Y-124074323D02*
X152908895Y-124026704D01*
X152908895Y-124026704D02*
X152813657Y-123979085D01*
X152813657Y-123979085D02*
X152766038Y-123931466D01*
X152766038Y-123931466D02*
X152718419Y-123836228D01*
X151755019Y-99890266D02*
X151278828Y-100223599D01*
X151755019Y-100461694D02*
X150755019Y-100461694D01*
X150755019Y-100461694D02*
X150755019Y-100080742D01*
X150755019Y-100080742D02*
X150802638Y-99985504D01*
X150802638Y-99985504D02*
X150850257Y-99937885D01*
X150850257Y-99937885D02*
X150945495Y-99890266D01*
X150945495Y-99890266D02*
X151088352Y-99890266D01*
X151088352Y-99890266D02*
X151183590Y-99937885D01*
X151183590Y-99937885D02*
X151231209Y-99985504D01*
X151231209Y-99985504D02*
X151278828Y-100080742D01*
X151278828Y-100080742D02*
X151278828Y-100461694D01*
X151183590Y-99318837D02*
X151135971Y-99414075D01*
X151135971Y-99414075D02*
X151088352Y-99461694D01*
X151088352Y-99461694D02*
X150993114Y-99509313D01*
X150993114Y-99509313D02*
X150945495Y-99509313D01*
X150945495Y-99509313D02*
X150850257Y-99461694D01*
X150850257Y-99461694D02*
X150802638Y-99414075D01*
X150802638Y-99414075D02*
X150755019Y-99318837D01*
X150755019Y-99318837D02*
X150755019Y-99128361D01*
X150755019Y-99128361D02*
X150802638Y-99033123D01*
X150802638Y-99033123D02*
X150850257Y-98985504D01*
X150850257Y-98985504D02*
X150945495Y-98937885D01*
X150945495Y-98937885D02*
X150993114Y-98937885D01*
X150993114Y-98937885D02*
X151088352Y-98985504D01*
X151088352Y-98985504D02*
X151135971Y-99033123D01*
X151135971Y-99033123D02*
X151183590Y-99128361D01*
X151183590Y-99128361D02*
X151183590Y-99318837D01*
X151183590Y-99318837D02*
X151231209Y-99414075D01*
X151231209Y-99414075D02*
X151278828Y-99461694D01*
X151278828Y-99461694D02*
X151374066Y-99509313D01*
X151374066Y-99509313D02*
X151564542Y-99509313D01*
X151564542Y-99509313D02*
X151659780Y-99461694D01*
X151659780Y-99461694D02*
X151707400Y-99414075D01*
X151707400Y-99414075D02*
X151755019Y-99318837D01*
X151755019Y-99318837D02*
X151755019Y-99128361D01*
X151755019Y-99128361D02*
X151707400Y-99033123D01*
X151707400Y-99033123D02*
X151659780Y-98985504D01*
X151659780Y-98985504D02*
X151564542Y-98937885D01*
X151564542Y-98937885D02*
X151374066Y-98937885D01*
X151374066Y-98937885D02*
X151278828Y-98985504D01*
X151278828Y-98985504D02*
X151231209Y-99033123D01*
X151231209Y-99033123D02*
X151183590Y-99128361D01*
X142103019Y-131598466D02*
X141626828Y-131931799D01*
X142103019Y-132169894D02*
X141103019Y-132169894D01*
X141103019Y-132169894D02*
X141103019Y-131788942D01*
X141103019Y-131788942D02*
X141150638Y-131693704D01*
X141150638Y-131693704D02*
X141198257Y-131646085D01*
X141198257Y-131646085D02*
X141293495Y-131598466D01*
X141293495Y-131598466D02*
X141436352Y-131598466D01*
X141436352Y-131598466D02*
X141531590Y-131646085D01*
X141531590Y-131646085D02*
X141579209Y-131693704D01*
X141579209Y-131693704D02*
X141626828Y-131788942D01*
X141626828Y-131788942D02*
X141626828Y-132169894D01*
X141198257Y-131217513D02*
X141150638Y-131169894D01*
X141150638Y-131169894D02*
X141103019Y-131074656D01*
X141103019Y-131074656D02*
X141103019Y-130836561D01*
X141103019Y-130836561D02*
X141150638Y-130741323D01*
X141150638Y-130741323D02*
X141198257Y-130693704D01*
X141198257Y-130693704D02*
X141293495Y-130646085D01*
X141293495Y-130646085D02*
X141388733Y-130646085D01*
X141388733Y-130646085D02*
X141531590Y-130693704D01*
X141531590Y-130693704D02*
X142103019Y-131265132D01*
X142103019Y-131265132D02*
X142103019Y-130646085D01*
X159214780Y-78441857D02*
X159262400Y-78489476D01*
X159262400Y-78489476D02*
X159310019Y-78632333D01*
X159310019Y-78632333D02*
X159310019Y-78727571D01*
X159310019Y-78727571D02*
X159262400Y-78870428D01*
X159262400Y-78870428D02*
X159167161Y-78965666D01*
X159167161Y-78965666D02*
X159071923Y-79013285D01*
X159071923Y-79013285D02*
X158881447Y-79060904D01*
X158881447Y-79060904D02*
X158738590Y-79060904D01*
X158738590Y-79060904D02*
X158548114Y-79013285D01*
X158548114Y-79013285D02*
X158452876Y-78965666D01*
X158452876Y-78965666D02*
X158357638Y-78870428D01*
X158357638Y-78870428D02*
X158310019Y-78727571D01*
X158310019Y-78727571D02*
X158310019Y-78632333D01*
X158310019Y-78632333D02*
X158357638Y-78489476D01*
X158357638Y-78489476D02*
X158405257Y-78441857D01*
X158405257Y-78060904D02*
X158357638Y-78013285D01*
X158357638Y-78013285D02*
X158310019Y-77918047D01*
X158310019Y-77918047D02*
X158310019Y-77679952D01*
X158310019Y-77679952D02*
X158357638Y-77584714D01*
X158357638Y-77584714D02*
X158405257Y-77537095D01*
X158405257Y-77537095D02*
X158500495Y-77489476D01*
X158500495Y-77489476D02*
X158595733Y-77489476D01*
X158595733Y-77489476D02*
X158738590Y-77537095D01*
X158738590Y-77537095D02*
X159310019Y-78108523D01*
X159310019Y-78108523D02*
X159310019Y-77489476D01*
X158738590Y-76918047D02*
X158690971Y-77013285D01*
X158690971Y-77013285D02*
X158643352Y-77060904D01*
X158643352Y-77060904D02*
X158548114Y-77108523D01*
X158548114Y-77108523D02*
X158500495Y-77108523D01*
X158500495Y-77108523D02*
X158405257Y-77060904D01*
X158405257Y-77060904D02*
X158357638Y-77013285D01*
X158357638Y-77013285D02*
X158310019Y-76918047D01*
X158310019Y-76918047D02*
X158310019Y-76727571D01*
X158310019Y-76727571D02*
X158357638Y-76632333D01*
X158357638Y-76632333D02*
X158405257Y-76584714D01*
X158405257Y-76584714D02*
X158500495Y-76537095D01*
X158500495Y-76537095D02*
X158548114Y-76537095D01*
X158548114Y-76537095D02*
X158643352Y-76584714D01*
X158643352Y-76584714D02*
X158690971Y-76632333D01*
X158690971Y-76632333D02*
X158738590Y-76727571D01*
X158738590Y-76727571D02*
X158738590Y-76918047D01*
X158738590Y-76918047D02*
X158786209Y-77013285D01*
X158786209Y-77013285D02*
X158833828Y-77060904D01*
X158833828Y-77060904D02*
X158929066Y-77108523D01*
X158929066Y-77108523D02*
X159119542Y-77108523D01*
X159119542Y-77108523D02*
X159214780Y-77060904D01*
X159214780Y-77060904D02*
X159262400Y-77013285D01*
X159262400Y-77013285D02*
X159310019Y-76918047D01*
X159310019Y-76918047D02*
X159310019Y-76727571D01*
X159310019Y-76727571D02*
X159262400Y-76632333D01*
X159262400Y-76632333D02*
X159214780Y-76584714D01*
X159214780Y-76584714D02*
X159119542Y-76537095D01*
X159119542Y-76537095D02*
X158929066Y-76537095D01*
X158929066Y-76537095D02*
X158833828Y-76584714D01*
X158833828Y-76584714D02*
X158786209Y-76632333D01*
X158786209Y-76632333D02*
X158738590Y-76727571D01*
X156010076Y-56985819D02*
X156010076Y-57700104D01*
X156010076Y-57700104D02*
X155962457Y-57842961D01*
X155962457Y-57842961D02*
X155867219Y-57938200D01*
X155867219Y-57938200D02*
X155724362Y-57985819D01*
X155724362Y-57985819D02*
X155629124Y-57985819D01*
X157010076Y-57985819D02*
X156438648Y-57985819D01*
X156724362Y-57985819D02*
X156724362Y-56985819D01*
X156724362Y-56985819D02*
X156629124Y-57128676D01*
X156629124Y-57128676D02*
X156533886Y-57223914D01*
X156533886Y-57223914D02*
X156438648Y-57271533D01*
X157391029Y-57081057D02*
X157438648Y-57033438D01*
X157438648Y-57033438D02*
X157533886Y-56985819D01*
X157533886Y-56985819D02*
X157771981Y-56985819D01*
X157771981Y-56985819D02*
X157867219Y-57033438D01*
X157867219Y-57033438D02*
X157914838Y-57081057D01*
X157914838Y-57081057D02*
X157962457Y-57176295D01*
X157962457Y-57176295D02*
X157962457Y-57271533D01*
X157962457Y-57271533D02*
X157914838Y-57414390D01*
X157914838Y-57414390D02*
X157343410Y-57985819D01*
X157343410Y-57985819D02*
X157962457Y-57985819D01*
X149350133Y-127835819D02*
X149016800Y-127359628D01*
X148778705Y-127835819D02*
X148778705Y-126835819D01*
X148778705Y-126835819D02*
X149159657Y-126835819D01*
X149159657Y-126835819D02*
X149254895Y-126883438D01*
X149254895Y-126883438D02*
X149302514Y-126931057D01*
X149302514Y-126931057D02*
X149350133Y-127026295D01*
X149350133Y-127026295D02*
X149350133Y-127169152D01*
X149350133Y-127169152D02*
X149302514Y-127264390D01*
X149302514Y-127264390D02*
X149254895Y-127312009D01*
X149254895Y-127312009D02*
X149159657Y-127359628D01*
X149159657Y-127359628D02*
X148778705Y-127359628D01*
X150302514Y-127835819D02*
X149731086Y-127835819D01*
X150016800Y-127835819D02*
X150016800Y-126835819D01*
X150016800Y-126835819D02*
X149921562Y-126978676D01*
X149921562Y-126978676D02*
X149826324Y-127073914D01*
X149826324Y-127073914D02*
X149731086Y-127121533D01*
X149407342Y-129188380D02*
X149359723Y-129236000D01*
X149359723Y-129236000D02*
X149216866Y-129283619D01*
X149216866Y-129283619D02*
X149121628Y-129283619D01*
X149121628Y-129283619D02*
X148978771Y-129236000D01*
X148978771Y-129236000D02*
X148883533Y-129140761D01*
X148883533Y-129140761D02*
X148835914Y-129045523D01*
X148835914Y-129045523D02*
X148788295Y-128855047D01*
X148788295Y-128855047D02*
X148788295Y-128712190D01*
X148788295Y-128712190D02*
X148835914Y-128521714D01*
X148835914Y-128521714D02*
X148883533Y-128426476D01*
X148883533Y-128426476D02*
X148978771Y-128331238D01*
X148978771Y-128331238D02*
X149121628Y-128283619D01*
X149121628Y-128283619D02*
X149216866Y-128283619D01*
X149216866Y-128283619D02*
X149359723Y-128331238D01*
X149359723Y-128331238D02*
X149407342Y-128378857D01*
X150359723Y-129283619D02*
X149788295Y-129283619D01*
X150074009Y-129283619D02*
X150074009Y-128283619D01*
X150074009Y-128283619D02*
X149978771Y-128426476D01*
X149978771Y-128426476D02*
X149883533Y-128521714D01*
X149883533Y-128521714D02*
X149788295Y-128569333D01*
X150693057Y-128283619D02*
X151359723Y-128283619D01*
X151359723Y-128283619D02*
X150931152Y-129283619D01*
X152661342Y-70997680D02*
X152613723Y-71045300D01*
X152613723Y-71045300D02*
X152470866Y-71092919D01*
X152470866Y-71092919D02*
X152375628Y-71092919D01*
X152375628Y-71092919D02*
X152232771Y-71045300D01*
X152232771Y-71045300D02*
X152137533Y-70950061D01*
X152137533Y-70950061D02*
X152089914Y-70854823D01*
X152089914Y-70854823D02*
X152042295Y-70664347D01*
X152042295Y-70664347D02*
X152042295Y-70521490D01*
X152042295Y-70521490D02*
X152089914Y-70331014D01*
X152089914Y-70331014D02*
X152137533Y-70235776D01*
X152137533Y-70235776D02*
X152232771Y-70140538D01*
X152232771Y-70140538D02*
X152375628Y-70092919D01*
X152375628Y-70092919D02*
X152470866Y-70092919D01*
X152470866Y-70092919D02*
X152613723Y-70140538D01*
X152613723Y-70140538D02*
X152661342Y-70188157D01*
X153042295Y-70188157D02*
X153089914Y-70140538D01*
X153089914Y-70140538D02*
X153185152Y-70092919D01*
X153185152Y-70092919D02*
X153423247Y-70092919D01*
X153423247Y-70092919D02*
X153518485Y-70140538D01*
X153518485Y-70140538D02*
X153566104Y-70188157D01*
X153566104Y-70188157D02*
X153613723Y-70283395D01*
X153613723Y-70283395D02*
X153613723Y-70378633D01*
X153613723Y-70378633D02*
X153566104Y-70521490D01*
X153566104Y-70521490D02*
X152994676Y-71092919D01*
X152994676Y-71092919D02*
X153613723Y-71092919D01*
X153947057Y-70092919D02*
X154613723Y-70092919D01*
X154613723Y-70092919D02*
X154185152Y-71092919D01*
X160955466Y-138333419D02*
X160955466Y-139047704D01*
X160955466Y-139047704D02*
X160907847Y-139190561D01*
X160907847Y-139190561D02*
X160812609Y-139285800D01*
X160812609Y-139285800D02*
X160669752Y-139333419D01*
X160669752Y-139333419D02*
X160574514Y-139333419D01*
X161907847Y-138333419D02*
X161431657Y-138333419D01*
X161431657Y-138333419D02*
X161384038Y-138809609D01*
X161384038Y-138809609D02*
X161431657Y-138761990D01*
X161431657Y-138761990D02*
X161526895Y-138714371D01*
X161526895Y-138714371D02*
X161764990Y-138714371D01*
X161764990Y-138714371D02*
X161860228Y-138761990D01*
X161860228Y-138761990D02*
X161907847Y-138809609D01*
X161907847Y-138809609D02*
X161955466Y-138904847D01*
X161955466Y-138904847D02*
X161955466Y-139142942D01*
X161955466Y-139142942D02*
X161907847Y-139238180D01*
X161907847Y-139238180D02*
X161860228Y-139285800D01*
X161860228Y-139285800D02*
X161764990Y-139333419D01*
X161764990Y-139333419D02*
X161526895Y-139333419D01*
X161526895Y-139333419D02*
X161431657Y-139285800D01*
X161431657Y-139285800D02*
X161384038Y-139238180D01*
X144936057Y-124885438D02*
X144888438Y-124980676D01*
X144888438Y-124980676D02*
X144793200Y-125075914D01*
X144793200Y-125075914D02*
X144650342Y-125218771D01*
X144650342Y-125218771D02*
X144602723Y-125314009D01*
X144602723Y-125314009D02*
X144602723Y-125409247D01*
X144840819Y-125361628D02*
X144793200Y-125456866D01*
X144793200Y-125456866D02*
X144697961Y-125552104D01*
X144697961Y-125552104D02*
X144507485Y-125599723D01*
X144507485Y-125599723D02*
X144174152Y-125599723D01*
X144174152Y-125599723D02*
X143983676Y-125552104D01*
X143983676Y-125552104D02*
X143888438Y-125456866D01*
X143888438Y-125456866D02*
X143840819Y-125361628D01*
X143840819Y-125361628D02*
X143840819Y-125171152D01*
X143840819Y-125171152D02*
X143888438Y-125075914D01*
X143888438Y-125075914D02*
X143983676Y-124980676D01*
X143983676Y-124980676D02*
X144174152Y-124933057D01*
X144174152Y-124933057D02*
X144507485Y-124933057D01*
X144507485Y-124933057D02*
X144697961Y-124980676D01*
X144697961Y-124980676D02*
X144793200Y-125075914D01*
X144793200Y-125075914D02*
X144840819Y-125171152D01*
X144840819Y-125171152D02*
X144840819Y-125361628D01*
X144840819Y-123980676D02*
X144840819Y-124552104D01*
X144840819Y-124266390D02*
X143840819Y-124266390D01*
X143840819Y-124266390D02*
X143983676Y-124361628D01*
X143983676Y-124361628D02*
X144078914Y-124456866D01*
X144078914Y-124456866D02*
X144126533Y-124552104D01*
X139307219Y-100783923D02*
X140021504Y-100783923D01*
X140021504Y-100783923D02*
X140164361Y-100831542D01*
X140164361Y-100831542D02*
X140259600Y-100926780D01*
X140259600Y-100926780D02*
X140307219Y-101069637D01*
X140307219Y-101069637D02*
X140307219Y-101164875D01*
X140307219Y-99783923D02*
X140307219Y-100355351D01*
X140307219Y-100069637D02*
X139307219Y-100069637D01*
X139307219Y-100069637D02*
X139450076Y-100164875D01*
X139450076Y-100164875D02*
X139545314Y-100260113D01*
X139545314Y-100260113D02*
X139592933Y-100355351D01*
X140307219Y-98831542D02*
X140307219Y-99402970D01*
X140307219Y-99117256D02*
X139307219Y-99117256D01*
X139307219Y-99117256D02*
X139450076Y-99212494D01*
X139450076Y-99212494D02*
X139545314Y-99307732D01*
X139545314Y-99307732D02*
X139592933Y-99402970D01*
X142471395Y-81648419D02*
X142471395Y-82457942D01*
X142471395Y-82457942D02*
X142519014Y-82553180D01*
X142519014Y-82553180D02*
X142566633Y-82600800D01*
X142566633Y-82600800D02*
X142661871Y-82648419D01*
X142661871Y-82648419D02*
X142852347Y-82648419D01*
X142852347Y-82648419D02*
X142947585Y-82600800D01*
X142947585Y-82600800D02*
X142995204Y-82553180D01*
X142995204Y-82553180D02*
X143042823Y-82457942D01*
X143042823Y-82457942D02*
X143042823Y-81648419D01*
X143947585Y-81981752D02*
X143947585Y-82648419D01*
X143709490Y-81600800D02*
X143471395Y-82315085D01*
X143471395Y-82315085D02*
X144090442Y-82315085D01*
X130546629Y-96185757D02*
X130594249Y-96233376D01*
X130594249Y-96233376D02*
X130641868Y-96376233D01*
X130641868Y-96376233D02*
X130641868Y-96471471D01*
X130641868Y-96471471D02*
X130594249Y-96614328D01*
X130594249Y-96614328D02*
X130499010Y-96709566D01*
X130499010Y-96709566D02*
X130403772Y-96757185D01*
X130403772Y-96757185D02*
X130213296Y-96804804D01*
X130213296Y-96804804D02*
X130070439Y-96804804D01*
X130070439Y-96804804D02*
X129879963Y-96757185D01*
X129879963Y-96757185D02*
X129784725Y-96709566D01*
X129784725Y-96709566D02*
X129689487Y-96614328D01*
X129689487Y-96614328D02*
X129641868Y-96471471D01*
X129641868Y-96471471D02*
X129641868Y-96376233D01*
X129641868Y-96376233D02*
X129689487Y-96233376D01*
X129689487Y-96233376D02*
X129737106Y-96185757D01*
X129737106Y-95804804D02*
X129689487Y-95757185D01*
X129689487Y-95757185D02*
X129641868Y-95661947D01*
X129641868Y-95661947D02*
X129641868Y-95423852D01*
X129641868Y-95423852D02*
X129689487Y-95328614D01*
X129689487Y-95328614D02*
X129737106Y-95280995D01*
X129737106Y-95280995D02*
X129832344Y-95233376D01*
X129832344Y-95233376D02*
X129927582Y-95233376D01*
X129927582Y-95233376D02*
X130070439Y-95280995D01*
X130070439Y-95280995D02*
X130641868Y-95852423D01*
X130641868Y-95852423D02*
X130641868Y-95233376D01*
X129975201Y-94376233D02*
X130641868Y-94376233D01*
X129594249Y-94614328D02*
X130308534Y-94852423D01*
X130308534Y-94852423D02*
X130308534Y-94233376D01*
X123754019Y-88831657D02*
X123277828Y-89164990D01*
X123754019Y-89403085D02*
X122754019Y-89403085D01*
X122754019Y-89403085D02*
X122754019Y-89022133D01*
X122754019Y-89022133D02*
X122801638Y-88926895D01*
X122801638Y-88926895D02*
X122849257Y-88879276D01*
X122849257Y-88879276D02*
X122944495Y-88831657D01*
X122944495Y-88831657D02*
X123087352Y-88831657D01*
X123087352Y-88831657D02*
X123182590Y-88879276D01*
X123182590Y-88879276D02*
X123230209Y-88926895D01*
X123230209Y-88926895D02*
X123277828Y-89022133D01*
X123277828Y-89022133D02*
X123277828Y-89403085D01*
X123754019Y-87879276D02*
X123754019Y-88450704D01*
X123754019Y-88164990D02*
X122754019Y-88164990D01*
X122754019Y-88164990D02*
X122896876Y-88260228D01*
X122896876Y-88260228D02*
X122992114Y-88355466D01*
X122992114Y-88355466D02*
X123039733Y-88450704D01*
X122849257Y-87498323D02*
X122801638Y-87450704D01*
X122801638Y-87450704D02*
X122754019Y-87355466D01*
X122754019Y-87355466D02*
X122754019Y-87117371D01*
X122754019Y-87117371D02*
X122801638Y-87022133D01*
X122801638Y-87022133D02*
X122849257Y-86974514D01*
X122849257Y-86974514D02*
X122944495Y-86926895D01*
X122944495Y-86926895D02*
X123039733Y-86926895D01*
X123039733Y-86926895D02*
X123182590Y-86974514D01*
X123182590Y-86974514D02*
X123754019Y-87545942D01*
X123754019Y-87545942D02*
X123754019Y-86926895D01*
X154658219Y-96204066D02*
X154182028Y-96537399D01*
X154658219Y-96775494D02*
X153658219Y-96775494D01*
X153658219Y-96775494D02*
X153658219Y-96394542D01*
X153658219Y-96394542D02*
X153705838Y-96299304D01*
X153705838Y-96299304D02*
X153753457Y-96251685D01*
X153753457Y-96251685D02*
X153848695Y-96204066D01*
X153848695Y-96204066D02*
X153991552Y-96204066D01*
X153991552Y-96204066D02*
X154086790Y-96251685D01*
X154086790Y-96251685D02*
X154134409Y-96299304D01*
X154134409Y-96299304D02*
X154182028Y-96394542D01*
X154182028Y-96394542D02*
X154182028Y-96775494D01*
X153658219Y-95870732D02*
X153658219Y-95204066D01*
X153658219Y-95204066D02*
X154658219Y-95632637D01*
X168099276Y-59573419D02*
X168099276Y-60287704D01*
X168099276Y-60287704D02*
X168051657Y-60430561D01*
X168051657Y-60430561D02*
X167956419Y-60525800D01*
X167956419Y-60525800D02*
X167813562Y-60573419D01*
X167813562Y-60573419D02*
X167718324Y-60573419D01*
X169099276Y-60573419D02*
X168527848Y-60573419D01*
X168813562Y-60573419D02*
X168813562Y-59573419D01*
X168813562Y-59573419D02*
X168718324Y-59716276D01*
X168718324Y-59716276D02*
X168623086Y-59811514D01*
X168623086Y-59811514D02*
X168527848Y-59859133D01*
X170004038Y-59573419D02*
X169527848Y-59573419D01*
X169527848Y-59573419D02*
X169480229Y-60049609D01*
X169480229Y-60049609D02*
X169527848Y-60001990D01*
X169527848Y-60001990D02*
X169623086Y-59954371D01*
X169623086Y-59954371D02*
X169861181Y-59954371D01*
X169861181Y-59954371D02*
X169956419Y-60001990D01*
X169956419Y-60001990D02*
X170004038Y-60049609D01*
X170004038Y-60049609D02*
X170051657Y-60144847D01*
X170051657Y-60144847D02*
X170051657Y-60382942D01*
X170051657Y-60382942D02*
X170004038Y-60478180D01*
X170004038Y-60478180D02*
X169956419Y-60525800D01*
X169956419Y-60525800D02*
X169861181Y-60573419D01*
X169861181Y-60573419D02*
X169623086Y-60573419D01*
X169623086Y-60573419D02*
X169527848Y-60525800D01*
X169527848Y-60525800D02*
X169480229Y-60478180D01*
X112695466Y-120093419D02*
X112695466Y-120807704D01*
X112695466Y-120807704D02*
X112647847Y-120950561D01*
X112647847Y-120950561D02*
X112552609Y-121045800D01*
X112552609Y-121045800D02*
X112409752Y-121093419D01*
X112409752Y-121093419D02*
X112314514Y-121093419D01*
X113600228Y-120426752D02*
X113600228Y-121093419D01*
X113362133Y-120045800D02*
X113124038Y-120760085D01*
X113124038Y-120760085D02*
X113743085Y-120760085D01*
X112695466Y-97233419D02*
X112695466Y-97947704D01*
X112695466Y-97947704D02*
X112647847Y-98090561D01*
X112647847Y-98090561D02*
X112552609Y-98185800D01*
X112552609Y-98185800D02*
X112409752Y-98233419D01*
X112409752Y-98233419D02*
X112314514Y-98233419D01*
X113076419Y-97233419D02*
X113695466Y-97233419D01*
X113695466Y-97233419D02*
X113362133Y-97614371D01*
X113362133Y-97614371D02*
X113504990Y-97614371D01*
X113504990Y-97614371D02*
X113600228Y-97661990D01*
X113600228Y-97661990D02*
X113647847Y-97709609D01*
X113647847Y-97709609D02*
X113695466Y-97804847D01*
X113695466Y-97804847D02*
X113695466Y-98042942D01*
X113695466Y-98042942D02*
X113647847Y-98138180D01*
X113647847Y-98138180D02*
X113600228Y-98185800D01*
X113600228Y-98185800D02*
X113504990Y-98233419D01*
X113504990Y-98233419D02*
X113219276Y-98233419D01*
X113219276Y-98233419D02*
X113124038Y-98185800D01*
X113124038Y-98185800D02*
X113076419Y-98138180D01*
X136272276Y-66066419D02*
X136272276Y-66780704D01*
X136272276Y-66780704D02*
X136224657Y-66923561D01*
X136224657Y-66923561D02*
X136129419Y-67018800D01*
X136129419Y-67018800D02*
X135986562Y-67066419D01*
X135986562Y-67066419D02*
X135891324Y-67066419D01*
X137272276Y-67066419D02*
X136700848Y-67066419D01*
X136986562Y-67066419D02*
X136986562Y-66066419D01*
X136986562Y-66066419D02*
X136891324Y-66209276D01*
X136891324Y-66209276D02*
X136796086Y-66304514D01*
X136796086Y-66304514D02*
X136700848Y-66352133D01*
X137891324Y-66066419D02*
X137986562Y-66066419D01*
X137986562Y-66066419D02*
X138081800Y-66114038D01*
X138081800Y-66114038D02*
X138129419Y-66161657D01*
X138129419Y-66161657D02*
X138177038Y-66256895D01*
X138177038Y-66256895D02*
X138224657Y-66447371D01*
X138224657Y-66447371D02*
X138224657Y-66685466D01*
X138224657Y-66685466D02*
X138177038Y-66875942D01*
X138177038Y-66875942D02*
X138129419Y-66971180D01*
X138129419Y-66971180D02*
X138081800Y-67018800D01*
X138081800Y-67018800D02*
X137986562Y-67066419D01*
X137986562Y-67066419D02*
X137891324Y-67066419D01*
X137891324Y-67066419D02*
X137796086Y-67018800D01*
X137796086Y-67018800D02*
X137748467Y-66971180D01*
X137748467Y-66971180D02*
X137700848Y-66875942D01*
X137700848Y-66875942D02*
X137653229Y-66685466D01*
X137653229Y-66685466D02*
X137653229Y-66447371D01*
X137653229Y-66447371D02*
X137700848Y-66256895D01*
X137700848Y-66256895D02*
X137748467Y-66161657D01*
X137748467Y-66161657D02*
X137796086Y-66114038D01*
X137796086Y-66114038D02*
X137891324Y-66066419D01*
X140688219Y-90061594D02*
X139688219Y-90061594D01*
X139688219Y-90061594D02*
X139688219Y-89823499D01*
X139688219Y-89823499D02*
X139735838Y-89680642D01*
X139735838Y-89680642D02*
X139831076Y-89585404D01*
X139831076Y-89585404D02*
X139926314Y-89537785D01*
X139926314Y-89537785D02*
X140116790Y-89490166D01*
X140116790Y-89490166D02*
X140259647Y-89490166D01*
X140259647Y-89490166D02*
X140450123Y-89537785D01*
X140450123Y-89537785D02*
X140545361Y-89585404D01*
X140545361Y-89585404D02*
X140640600Y-89680642D01*
X140640600Y-89680642D02*
X140688219Y-89823499D01*
X140688219Y-89823499D02*
X140688219Y-90061594D01*
X139688219Y-89156832D02*
X139688219Y-88537785D01*
X139688219Y-88537785D02*
X140069171Y-88871118D01*
X140069171Y-88871118D02*
X140069171Y-88728261D01*
X140069171Y-88728261D02*
X140116790Y-88633023D01*
X140116790Y-88633023D02*
X140164409Y-88585404D01*
X140164409Y-88585404D02*
X140259647Y-88537785D01*
X140259647Y-88537785D02*
X140497742Y-88537785D01*
X140497742Y-88537785D02*
X140592980Y-88585404D01*
X140592980Y-88585404D02*
X140640600Y-88633023D01*
X140640600Y-88633023D02*
X140688219Y-88728261D01*
X140688219Y-88728261D02*
X140688219Y-89013975D01*
X140688219Y-89013975D02*
X140640600Y-89109213D01*
X140640600Y-89109213D02*
X140592980Y-89156832D01*
X120674019Y-92787694D02*
X119674019Y-92787694D01*
X119674019Y-92787694D02*
X119674019Y-92549599D01*
X119674019Y-92549599D02*
X119721638Y-92406742D01*
X119721638Y-92406742D02*
X119816876Y-92311504D01*
X119816876Y-92311504D02*
X119912114Y-92263885D01*
X119912114Y-92263885D02*
X120102590Y-92216266D01*
X120102590Y-92216266D02*
X120245447Y-92216266D01*
X120245447Y-92216266D02*
X120435923Y-92263885D01*
X120435923Y-92263885D02*
X120531161Y-92311504D01*
X120531161Y-92311504D02*
X120626400Y-92406742D01*
X120626400Y-92406742D02*
X120674019Y-92549599D01*
X120674019Y-92549599D02*
X120674019Y-92787694D01*
X120007352Y-91359123D02*
X120674019Y-91359123D01*
X119626400Y-91597218D02*
X120340685Y-91835313D01*
X120340685Y-91835313D02*
X120340685Y-91216266D01*
X160955466Y-115473419D02*
X160955466Y-116187704D01*
X160955466Y-116187704D02*
X160907847Y-116330561D01*
X160907847Y-116330561D02*
X160812609Y-116425800D01*
X160812609Y-116425800D02*
X160669752Y-116473419D01*
X160669752Y-116473419D02*
X160574514Y-116473419D01*
X161860228Y-115473419D02*
X161669752Y-115473419D01*
X161669752Y-115473419D02*
X161574514Y-115521038D01*
X161574514Y-115521038D02*
X161526895Y-115568657D01*
X161526895Y-115568657D02*
X161431657Y-115711514D01*
X161431657Y-115711514D02*
X161384038Y-115901990D01*
X161384038Y-115901990D02*
X161384038Y-116282942D01*
X161384038Y-116282942D02*
X161431657Y-116378180D01*
X161431657Y-116378180D02*
X161479276Y-116425800D01*
X161479276Y-116425800D02*
X161574514Y-116473419D01*
X161574514Y-116473419D02*
X161764990Y-116473419D01*
X161764990Y-116473419D02*
X161860228Y-116425800D01*
X161860228Y-116425800D02*
X161907847Y-116378180D01*
X161907847Y-116378180D02*
X161955466Y-116282942D01*
X161955466Y-116282942D02*
X161955466Y-116044847D01*
X161955466Y-116044847D02*
X161907847Y-115949609D01*
X161907847Y-115949609D02*
X161860228Y-115901990D01*
X161860228Y-115901990D02*
X161764990Y-115854371D01*
X161764990Y-115854371D02*
X161574514Y-115854371D01*
X161574514Y-115854371D02*
X161479276Y-115901990D01*
X161479276Y-115901990D02*
X161431657Y-115949609D01*
X161431657Y-115949609D02*
X161384038Y-116044847D01*
X140110591Y-93475980D02*
X140062972Y-93523600D01*
X140062972Y-93523600D02*
X139920115Y-93571219D01*
X139920115Y-93571219D02*
X139824877Y-93571219D01*
X139824877Y-93571219D02*
X139682020Y-93523600D01*
X139682020Y-93523600D02*
X139586782Y-93428361D01*
X139586782Y-93428361D02*
X139539163Y-93333123D01*
X139539163Y-93333123D02*
X139491544Y-93142647D01*
X139491544Y-93142647D02*
X139491544Y-92999790D01*
X139491544Y-92999790D02*
X139539163Y-92809314D01*
X139539163Y-92809314D02*
X139586782Y-92714076D01*
X139586782Y-92714076D02*
X139682020Y-92618838D01*
X139682020Y-92618838D02*
X139824877Y-92571219D01*
X139824877Y-92571219D02*
X139920115Y-92571219D01*
X139920115Y-92571219D02*
X140062972Y-92618838D01*
X140062972Y-92618838D02*
X140110591Y-92666457D01*
X140491544Y-92666457D02*
X140539163Y-92618838D01*
X140539163Y-92618838D02*
X140634401Y-92571219D01*
X140634401Y-92571219D02*
X140872496Y-92571219D01*
X140872496Y-92571219D02*
X140967734Y-92618838D01*
X140967734Y-92618838D02*
X141015353Y-92666457D01*
X141015353Y-92666457D02*
X141062972Y-92761695D01*
X141062972Y-92761695D02*
X141062972Y-92856933D01*
X141062972Y-92856933D02*
X141015353Y-92999790D01*
X141015353Y-92999790D02*
X140443925Y-93571219D01*
X140443925Y-93571219D02*
X141062972Y-93571219D01*
X141443925Y-92666457D02*
X141491544Y-92618838D01*
X141491544Y-92618838D02*
X141586782Y-92571219D01*
X141586782Y-92571219D02*
X141824877Y-92571219D01*
X141824877Y-92571219D02*
X141920115Y-92618838D01*
X141920115Y-92618838D02*
X141967734Y-92666457D01*
X141967734Y-92666457D02*
X142015353Y-92761695D01*
X142015353Y-92761695D02*
X142015353Y-92856933D01*
X142015353Y-92856933D02*
X141967734Y-92999790D01*
X141967734Y-92999790D02*
X141396306Y-93571219D01*
X141396306Y-93571219D02*
X142015353Y-93571219D01*
X148896519Y-132306204D02*
X149706042Y-132306204D01*
X149706042Y-132306204D02*
X149801280Y-132258585D01*
X149801280Y-132258585D02*
X149848900Y-132210966D01*
X149848900Y-132210966D02*
X149896519Y-132115728D01*
X149896519Y-132115728D02*
X149896519Y-131925252D01*
X149896519Y-131925252D02*
X149848900Y-131830014D01*
X149848900Y-131830014D02*
X149801280Y-131782395D01*
X149801280Y-131782395D02*
X149706042Y-131734776D01*
X149706042Y-131734776D02*
X148896519Y-131734776D01*
X148991757Y-131306204D02*
X148944138Y-131258585D01*
X148944138Y-131258585D02*
X148896519Y-131163347D01*
X148896519Y-131163347D02*
X148896519Y-130925252D01*
X148896519Y-130925252D02*
X148944138Y-130830014D01*
X148944138Y-130830014D02*
X148991757Y-130782395D01*
X148991757Y-130782395D02*
X149086995Y-130734776D01*
X149086995Y-130734776D02*
X149182233Y-130734776D01*
X149182233Y-130734776D02*
X149325090Y-130782395D01*
X149325090Y-130782395D02*
X149896519Y-131353823D01*
X149896519Y-131353823D02*
X149896519Y-130734776D01*
X128769819Y-99539323D02*
X129484104Y-99539323D01*
X129484104Y-99539323D02*
X129626961Y-99586942D01*
X129626961Y-99586942D02*
X129722200Y-99682180D01*
X129722200Y-99682180D02*
X129769819Y-99825037D01*
X129769819Y-99825037D02*
X129769819Y-99920275D01*
X129769819Y-98539323D02*
X129769819Y-99110751D01*
X129769819Y-98825037D02*
X128769819Y-98825037D01*
X128769819Y-98825037D02*
X128912676Y-98920275D01*
X128912676Y-98920275D02*
X129007914Y-99015513D01*
X129007914Y-99015513D02*
X129055533Y-99110751D01*
X128769819Y-98205989D02*
X128769819Y-97586942D01*
X128769819Y-97586942D02*
X129150771Y-97920275D01*
X129150771Y-97920275D02*
X129150771Y-97777418D01*
X129150771Y-97777418D02*
X129198390Y-97682180D01*
X129198390Y-97682180D02*
X129246009Y-97634561D01*
X129246009Y-97634561D02*
X129341247Y-97586942D01*
X129341247Y-97586942D02*
X129579342Y-97586942D01*
X129579342Y-97586942D02*
X129674580Y-97634561D01*
X129674580Y-97634561D02*
X129722200Y-97682180D01*
X129722200Y-97682180D02*
X129769819Y-97777418D01*
X129769819Y-97777418D02*
X129769819Y-98063132D01*
X129769819Y-98063132D02*
X129722200Y-98158370D01*
X129722200Y-98158370D02*
X129674580Y-98205989D01*
D11*
%TO.C,D2*%
X134102600Y-91071000D02*
X136102600Y-91071000D01*
X134102600Y-91071000D02*
X134102600Y-87211000D01*
X136102600Y-91071000D02*
X136102600Y-87211000D01*
%TO.C,D1*%
X150460200Y-91071000D02*
X152460200Y-91071000D01*
X150460200Y-91071000D02*
X150460200Y-87211000D01*
X152460200Y-91071000D02*
X152460200Y-87211000D01*
%TO.C,J17*%
X109293200Y-68060000D02*
X109293200Y-58940000D01*
X129873200Y-68060000D02*
X109293200Y-68060000D01*
X110593200Y-66750000D02*
X110593200Y-60250000D01*
X128573200Y-66750000D02*
X110593200Y-66750000D01*
X110593200Y-60250000D02*
X117533200Y-60250000D01*
X117533200Y-60250000D02*
X117533200Y-60250000D01*
X117533200Y-60250000D02*
X117533200Y-58940000D01*
X121633200Y-60250000D02*
X128573200Y-60250000D01*
X128573200Y-60250000D02*
X128573200Y-66750000D01*
X109293200Y-58940000D02*
X129873200Y-58940000D01*
X121633200Y-58940000D02*
X121633200Y-60250000D01*
X129873200Y-58940000D02*
X129873200Y-68060000D01*
X124663200Y-58550000D02*
X125163200Y-57550000D01*
X124163200Y-57550000D02*
X124663200Y-58550000D01*
X125163200Y-57550000D02*
X124163200Y-57550000D01*
%TO.C,D6*%
X103444800Y-75080200D02*
X105444800Y-75080200D01*
X103444800Y-75080200D02*
X103444800Y-71070200D01*
X105444800Y-75080200D02*
X105444800Y-71070200D01*
%TO.C,Y2*%
X125232800Y-130239800D02*
X126582800Y-130239800D01*
X125232800Y-131989800D02*
X126582800Y-131989800D01*
%TO.C,Y1*%
X134514400Y-132866400D02*
X134514400Y-129566400D01*
X134514400Y-129566400D02*
X130514400Y-129566400D01*
%TO.C,U1*%
X129154400Y-122458000D02*
X130104400Y-122458000D01*
X139374400Y-122458000D02*
X138424400Y-122458000D01*
X129154400Y-121508000D02*
X129154400Y-122458000D01*
X139374400Y-121508000D02*
X139374400Y-122458000D01*
X129154400Y-113188000D02*
X129154400Y-112238000D01*
X139374400Y-113188000D02*
X139374400Y-112238000D01*
X129154400Y-112238000D02*
X130104400Y-112238000D01*
X139374400Y-112238000D02*
X138424400Y-112238000D01*
X130104400Y-123073000D02*
X129634400Y-123413000D01*
X129634400Y-122733000D01*
X130104400Y-123073000D01*
G36*
X130104400Y-123073000D02*
G01*
X129634400Y-123413000D01*
X129634400Y-122733000D01*
X130104400Y-123073000D01*
G37*
%TO.C,SW2*%
X125303400Y-87261000D02*
X125303400Y-88761000D01*
X126553400Y-91261000D02*
X131053400Y-91261000D01*
X131053400Y-84761000D02*
X126553400Y-84761000D01*
X132303400Y-88761000D02*
X132303400Y-87261000D01*
%TO.C,SW1*%
X148762600Y-88761000D02*
X148762600Y-87261000D01*
X147512600Y-84761000D02*
X143012600Y-84761000D01*
X143012600Y-91261000D02*
X147512600Y-91261000D01*
X141762600Y-87261000D02*
X141762600Y-88761000D01*
%TO.C,R6*%
X129116858Y-93080100D02*
X128642342Y-93080100D01*
X129116858Y-92035100D02*
X128642342Y-92035100D01*
%TO.C,R5*%
X105477542Y-83673900D02*
X105952058Y-83673900D01*
X105477542Y-84718900D02*
X105952058Y-84718900D01*
%TO.C,R4*%
X120025900Y-113813858D02*
X120025900Y-113339342D01*
X121070900Y-113813858D02*
X121070900Y-113339342D01*
%TO.C,L2*%
X144943242Y-117222200D02*
X144122758Y-117222200D01*
X144943242Y-116102200D02*
X144122758Y-116102200D01*
%TO.C,L1*%
X144943242Y-120422600D02*
X144122758Y-120422600D01*
X144943242Y-119302600D02*
X144122758Y-119302600D01*
%TO.C,J16*%
X140579800Y-101304400D02*
X140579800Y-99974400D01*
X141909800Y-101304400D02*
X140579800Y-101304400D01*
X143179800Y-101304400D02*
X148319800Y-101304400D01*
X143179800Y-101304400D02*
X143179800Y-98644400D01*
X148319800Y-101304400D02*
X148319800Y-98644400D01*
X143179800Y-98644400D02*
X148319800Y-98644400D01*
%TO.C,J8*%
X111673800Y-89058600D02*
X113003800Y-89058600D01*
X111673800Y-90388600D02*
X111673800Y-89058600D01*
X111673800Y-91658600D02*
X111673800Y-94258600D01*
X111673800Y-91658600D02*
X114333800Y-91658600D01*
X111673800Y-94258600D02*
X114333800Y-94258600D01*
X114333800Y-91658600D02*
X114333800Y-94258600D01*
%TO.C,J2*%
X109381200Y-70490000D02*
X110706200Y-70490000D01*
X110706200Y-70425000D02*
X110706200Y-70490000D01*
X110706200Y-70425000D02*
X114236200Y-70425000D01*
X110706200Y-79370000D02*
X110706200Y-79435000D01*
X110706200Y-79435000D02*
X114236200Y-79435000D01*
X114236200Y-70425000D02*
X114236200Y-70490000D01*
X114236200Y-79370000D02*
X114236200Y-79435000D01*
%TO.C,J1*%
X121802200Y-120862400D02*
X120472200Y-120862400D01*
X121802200Y-119532400D02*
X121802200Y-120862400D01*
X121802200Y-118262400D02*
X121802200Y-115662400D01*
X121802200Y-118262400D02*
X119142200Y-118262400D01*
X121802200Y-115662400D02*
X119142200Y-115662400D01*
X119142200Y-118262400D02*
X119142200Y-115662400D01*
%TO.C,C21*%
X144017420Y-115572000D02*
X144298580Y-115572000D01*
X144017420Y-114552000D02*
X144298580Y-114552000D01*
%TO.C,C19*%
X144017420Y-117752400D02*
X144298580Y-117752400D01*
X144017420Y-118772400D02*
X144298580Y-118772400D01*
%TO.C,C16*%
X149837548Y-114301600D02*
X150360052Y-114301600D01*
X149837548Y-115771600D02*
X150360052Y-115771600D01*
%TO.C,C15*%
X149837548Y-119276800D02*
X150360052Y-119276800D01*
X149837548Y-117806800D02*
X150360052Y-117806800D01*
%TO.C,C14*%
X149783220Y-117299200D02*
X150064380Y-117299200D01*
X149783220Y-116279200D02*
X150064380Y-116279200D01*
%TO.C,C13*%
X149783220Y-120779000D02*
X150064380Y-120779000D01*
X149783220Y-119759000D02*
X150064380Y-119759000D01*
%TO.C,C12*%
X144017420Y-113053400D02*
X144298580Y-113053400D01*
X144017420Y-114073400D02*
X144298580Y-114073400D01*
%TO.C,C11*%
X124676780Y-121617200D02*
X124395620Y-121617200D01*
X124676780Y-120597200D02*
X124395620Y-120597200D01*
%TO.C,C10*%
X140362400Y-127672220D02*
X140362400Y-127953380D01*
X139342400Y-127672220D02*
X139342400Y-127953380D01*
%TO.C,C9*%
X142165800Y-127824620D02*
X142165800Y-128105780D01*
X141145800Y-127824620D02*
X141145800Y-128105780D01*
%TO.C,C8*%
X105574220Y-81176400D02*
X105855380Y-81176400D01*
X105574220Y-82196400D02*
X105855380Y-82196400D01*
%TO.C,C7*%
X129969800Y-108128380D02*
X129969800Y-107847220D01*
X130989800Y-108128380D02*
X130989800Y-107847220D01*
%TO.C,C6*%
X124772052Y-119124400D02*
X124249548Y-119124400D01*
X124772052Y-117654400D02*
X124249548Y-117654400D01*
%TO.C,C5*%
X124822852Y-123772600D02*
X124300348Y-123772600D01*
X124822852Y-122302600D02*
X124300348Y-122302600D01*
%TO.C,C4*%
X128105780Y-129491200D02*
X127824620Y-129491200D01*
X128105780Y-128471200D02*
X127824620Y-128471200D01*
%TO.C,C3*%
X123748220Y-128522000D02*
X124029380Y-128522000D01*
X123748220Y-129542000D02*
X124029380Y-129542000D01*
%TO.C,C2*%
X134897400Y-131356980D02*
X134897400Y-131075820D01*
X135917400Y-131356980D02*
X135917400Y-131075820D01*
%TO.C,C1*%
X131598820Y-128115600D02*
X131879980Y-128115600D01*
X131598820Y-129135600D02*
X131879980Y-129135600D01*
%TO.C,C25*%
X132979049Y-95671080D02*
X132979049Y-95389920D01*
X133999049Y-95671080D02*
X133999049Y-95389920D01*
%TO.C,C23*%
X138567049Y-95671080D02*
X138567049Y-95389920D01*
X139587049Y-95671080D02*
X139587049Y-95389920D01*
%TO.C,U3*%
X136277549Y-93883000D02*
X135477549Y-93883000D01*
X136277549Y-93883000D02*
X137077549Y-93883000D01*
X136277549Y-97003000D02*
X135477549Y-97003000D01*
X136277549Y-97003000D02*
X137077549Y-97003000D01*
X137817549Y-97283000D02*
X137337549Y-97283000D01*
X137577549Y-96953000D01*
X137817549Y-97283000D01*
G36*
X137817549Y-97283000D02*
G01*
X137337549Y-97283000D01*
X137577549Y-96953000D01*
X137817549Y-97283000D01*
G37*
%TO.C,R10*%
X137809300Y-67707742D02*
X137809300Y-68182258D01*
X138854300Y-67707742D02*
X138854300Y-68182258D01*
%TO.C,R3*%
X144054300Y-131194542D02*
X144054300Y-131669058D01*
X145099300Y-131194542D02*
X145099300Y-131669058D01*
%TO.C,R9*%
X137907500Y-85173258D02*
X137907500Y-84698742D01*
X138952500Y-85173258D02*
X138952500Y-84698742D01*
%TO.C,J9*%
X109278800Y-89058600D02*
X109278800Y-137438600D01*
X106678800Y-91658600D02*
X106678800Y-89058600D01*
X106678800Y-89058600D02*
X109278800Y-89058600D01*
X104078800Y-137438600D02*
X109278800Y-137438600D01*
X104078800Y-91658600D02*
X106678800Y-91658600D01*
X104078800Y-91658600D02*
X104078800Y-137438600D01*
X104078800Y-90388600D02*
X104078800Y-89058600D01*
X104078800Y-89058600D02*
X105408800Y-89058600D01*
%TO.C,Q2*%
X149580600Y-94452000D02*
X148930600Y-94452000D01*
X149580600Y-94452000D02*
X150230600Y-94452000D01*
X149580600Y-97572000D02*
X148930600Y-97572000D01*
X149580600Y-97572000D02*
X150230600Y-97572000D01*
X150983100Y-97852000D02*
X150503100Y-97852000D01*
X150743100Y-97522000D01*
X150983100Y-97852000D01*
G36*
X150983100Y-97852000D02*
G01*
X150503100Y-97852000D01*
X150743100Y-97522000D01*
X150983100Y-97852000D01*
G37*
%TO.C,C18*%
X149299200Y-124755780D02*
X149299200Y-124474620D01*
X150319200Y-124755780D02*
X150319200Y-124474620D01*
%TO.C,J7*%
X165038800Y-89058600D02*
X166368800Y-89058600D01*
X165038800Y-90388600D02*
X165038800Y-89058600D01*
X165038800Y-91658600D02*
X165038800Y-137438600D01*
X165038800Y-91658600D02*
X167638800Y-91658600D01*
X165038800Y-137438600D02*
X170238800Y-137438600D01*
X167638800Y-89058600D02*
X170238800Y-89058600D01*
X167638800Y-91658600D02*
X167638800Y-89058600D01*
X170238800Y-89058600D02*
X170238800Y-137438600D01*
%TO.C,R11*%
X134809300Y-67707742D02*
X134809300Y-68182258D01*
X135854300Y-67707742D02*
X135854300Y-68182258D01*
%TO.C,J14*%
X104078800Y-61118600D02*
X105408800Y-61118600D01*
X104078800Y-62448600D02*
X104078800Y-61118600D01*
X104078800Y-63718600D02*
X104078800Y-66318600D01*
X104078800Y-63718600D02*
X106738800Y-63718600D01*
X104078800Y-66318600D02*
X106738800Y-66318600D01*
X106738800Y-63718600D02*
X106738800Y-66318600D01*
%TO.C,C26*%
X136136969Y-92455100D02*
X136418129Y-92455100D01*
X136136969Y-93475100D02*
X136418129Y-93475100D01*
%TO.C,C20*%
X150852200Y-124528948D02*
X150852200Y-125051452D01*
X152322200Y-124528948D02*
X152322200Y-125051452D01*
%TO.C,R8*%
X152207700Y-99960858D02*
X152207700Y-99486342D01*
X153252700Y-99960858D02*
X153252700Y-99486342D01*
%TO.C,R2*%
X142555700Y-131669058D02*
X142555700Y-131194542D01*
X143600700Y-131669058D02*
X143600700Y-131194542D01*
%TO.C,C28*%
X156440200Y-77537748D02*
X156440200Y-78060252D01*
X157910200Y-77537748D02*
X157910200Y-78060252D01*
%TO.C,J12*%
X151739600Y-58801000D02*
X151739600Y-66421000D01*
X151739600Y-66421000D02*
X161899600Y-66421000D01*
X161899600Y-58801000D02*
X151739600Y-58801000D01*
X161899600Y-65151000D02*
X151739600Y-65151000D01*
X161899600Y-66421000D02*
X161899600Y-58801000D01*
%TO.C,R1*%
X146891942Y-126833100D02*
X147366458Y-126833100D01*
X146891942Y-127878100D02*
X147366458Y-127878100D01*
%TO.C,C17*%
X147269780Y-128369600D02*
X146988620Y-128369600D01*
X147269780Y-129389600D02*
X146988620Y-129389600D01*
%TO.C,C27*%
X153590852Y-71528700D02*
X153068348Y-71528700D01*
X153590852Y-72998700D02*
X153068348Y-72998700D01*
%TO.C,J5*%
X159958800Y-134838600D02*
X159958800Y-116998600D01*
X159958800Y-137438600D02*
X159958800Y-136108600D01*
X161288800Y-137438600D02*
X159958800Y-137438600D01*
X162618800Y-116998600D02*
X159958800Y-116998600D01*
X162618800Y-134838600D02*
X159958800Y-134838600D01*
X162618800Y-134838600D02*
X162618800Y-116998600D01*
%TO.C,Q1*%
X147129200Y-123230200D02*
X146479200Y-123230200D01*
X147129200Y-123230200D02*
X147779200Y-123230200D01*
X147129200Y-126350200D02*
X146479200Y-126350200D01*
X147129200Y-126350200D02*
X147779200Y-126350200D01*
X148531700Y-126630200D02*
X148051700Y-126630200D01*
X148291700Y-126300200D01*
X148531700Y-126630200D01*
G36*
X148531700Y-126630200D02*
G01*
X148051700Y-126630200D01*
X148291700Y-126300200D01*
X148531700Y-126630200D01*
G37*
%TO.C,J11*%
X133823400Y-101304400D02*
X133823400Y-99974400D01*
X135153400Y-101304400D02*
X133823400Y-101304400D01*
X136423400Y-98644400D02*
X139023400Y-98644400D01*
X136423400Y-101304400D02*
X136423400Y-98644400D01*
X136423400Y-101304400D02*
X139023400Y-101304400D01*
X139023400Y-101304400D02*
X139023400Y-98644400D01*
%TO.C,U4*%
X149219600Y-73439000D02*
X149219600Y-74699000D01*
X149219600Y-80259000D02*
X149219600Y-78999000D01*
X152979600Y-73439000D02*
X149219600Y-73439000D01*
X152979600Y-80259000D02*
X149219600Y-80259000D01*
X154499600Y-80489000D02*
X154019600Y-80489000D01*
X154259600Y-80159000D01*
X154499600Y-80489000D01*
G36*
X154499600Y-80489000D02*
G01*
X154019600Y-80489000D01*
X154259600Y-80159000D01*
X154499600Y-80489000D01*
G37*
%TO.C,C24*%
X131026849Y-95791752D02*
X131026849Y-95269248D01*
X132496849Y-95791752D02*
X132496849Y-95269248D01*
%TO.C,R12*%
X122391700Y-87951542D02*
X122391700Y-88426058D01*
X121346700Y-87951542D02*
X121346700Y-88426058D01*
%TO.C,R7*%
X152207700Y-96249258D02*
X152207700Y-95774742D01*
X153252700Y-96249258D02*
X153252700Y-95774742D01*
%TO.C,J15*%
X167578800Y-61118600D02*
X168908800Y-61118600D01*
X167578800Y-62448600D02*
X167578800Y-61118600D01*
X167578800Y-63718600D02*
X167578800Y-66318600D01*
X167578800Y-63718600D02*
X170238800Y-63718600D01*
X167578800Y-66318600D02*
X170238800Y-66318600D01*
X170238800Y-63718600D02*
X170238800Y-66318600D01*
%TO.C,J4*%
X111698800Y-124678600D02*
X111698800Y-137438600D01*
X111698800Y-124678600D02*
X114358800Y-124678600D01*
X111698800Y-137438600D02*
X114358800Y-137438600D01*
X113028800Y-122078600D02*
X114358800Y-122078600D01*
X114358800Y-122078600D02*
X114358800Y-123408600D01*
X114358800Y-124678600D02*
X114358800Y-137438600D01*
%TO.C,J3*%
X111698800Y-101818600D02*
X111698800Y-119658600D01*
X111698800Y-101818600D02*
X114358800Y-101818600D01*
X111698800Y-119658600D02*
X114358800Y-119658600D01*
X113028800Y-99218600D02*
X114358800Y-99218600D01*
X114358800Y-99218600D02*
X114358800Y-100548600D01*
X114358800Y-101818600D02*
X114358800Y-119658600D01*
%TO.C,J10*%
X132501800Y-57326600D02*
X141661800Y-57326600D01*
X132501800Y-59031600D02*
X132501800Y-57326600D01*
X132501800Y-61041600D02*
X132501800Y-62961600D01*
X141661800Y-57326600D02*
X141661800Y-59031600D01*
X141661800Y-62961600D02*
X141661800Y-61041600D01*
%TO.C,D3*%
X137470000Y-88323500D02*
X137470000Y-91008500D01*
X137470000Y-91008500D02*
X139390000Y-91008500D01*
X139390000Y-91008500D02*
X139390000Y-88323500D01*
%TO.C,D4*%
X120909200Y-93734600D02*
X122829200Y-93734600D01*
X122829200Y-93734600D02*
X122829200Y-91049600D01*
X120909200Y-91049600D02*
X120909200Y-93734600D01*
%TO.C,J6*%
X159958800Y-111978600D02*
X159958800Y-89058600D01*
X159958800Y-114578600D02*
X159958800Y-113248600D01*
X161288800Y-114578600D02*
X159958800Y-114578600D01*
X162618800Y-89058600D02*
X159958800Y-89058600D01*
X162618800Y-111978600D02*
X159958800Y-111978600D01*
X162618800Y-111978600D02*
X162618800Y-89058600D01*
%TO.C,C22*%
X140069249Y-95791752D02*
X140069249Y-95269248D01*
X141539249Y-95791752D02*
X141539249Y-95269248D01*
%TO.C,U2*%
X145481700Y-131544300D02*
X145481700Y-130894300D01*
X145481700Y-131544300D02*
X145481700Y-132194300D01*
X148601700Y-131544300D02*
X148601700Y-130894300D01*
X148601700Y-131544300D02*
X148601700Y-132194300D01*
X148881700Y-130621800D02*
X148551700Y-130381800D01*
X148881700Y-130141800D01*
X148881700Y-130621800D01*
G36*
X148881700Y-130621800D02*
G01*
X148551700Y-130381800D01*
X148881700Y-130141800D01*
X148881700Y-130621800D01*
G37*
%TO.C,J13*%
X120575000Y-96129800D02*
X120575000Y-101329800D01*
X125715000Y-96129800D02*
X120575000Y-96129800D01*
X125715000Y-96129800D02*
X125715000Y-98729800D01*
X125715000Y-98729800D02*
X128315000Y-98729800D01*
X126985000Y-96129800D02*
X128315000Y-96129800D01*
X128315000Y-96129800D02*
X128315000Y-97459800D01*
X128315000Y-98729800D02*
X128315000Y-101329800D01*
X128315000Y-101329800D02*
X120575000Y-101329800D01*
%TD*%
M02*
