%TF.GenerationSoftware,KiCad,Pcbnew,8.0.4*%
%TF.CreationDate,2024-12-11T23:07:32+07:00*%
%TF.ProjectId,G474-dev-board,47343734-2d64-4657-962d-626f6172642e,rev?*%
%TF.SameCoordinates,Original*%
%TF.FileFunction,Soldermask,Bot*%
%TF.FilePolarity,Negative*%
%FSLAX46Y46*%
G04 Gerber Fmt 4.6, Leading zero omitted, Abs format (unit mm)*
G04 Created by KiCad (PCBNEW 8.0.4) date 2024-12-11 23:07:32*
%MOMM*%
%LPD*%
G01*
G04 APERTURE LIST*
G04 Aperture macros list*
%AMRoundRect*
0 Rectangle with rounded corners*
0 $1 Rounding radius*
0 $2 $3 $4 $5 $6 $7 $8 $9 X,Y pos of 4 corners*
0 Add a 4 corners polygon primitive as box body*
4,1,4,$2,$3,$4,$5,$6,$7,$8,$9,$2,$3,0*
0 Add four circle primitives for the rounded corners*
1,1,$1+$1,$2,$3*
1,1,$1+$1,$4,$5*
1,1,$1+$1,$6,$7*
1,1,$1+$1,$8,$9*
0 Add four rect primitives between the rounded corners*
20,1,$1+$1,$2,$3,$4,$5,0*
20,1,$1+$1,$4,$5,$6,$7,0*
20,1,$1+$1,$6,$7,$8,$9,0*
20,1,$1+$1,$8,$9,$2,$3,0*%
%AMFreePoly0*
4,1,19,0.500000,-0.750000,0.000000,-0.750000,0.000000,-0.744911,-0.071157,-0.744911,-0.207708,-0.704816,-0.327430,-0.627875,-0.420627,-0.520320,-0.479746,-0.390866,-0.500000,-0.250000,-0.500000,0.250000,-0.479746,0.390866,-0.420627,0.520320,-0.327430,0.627875,-0.207708,0.704816,-0.071157,0.744911,0.000000,0.744911,0.000000,0.750000,0.500000,0.750000,0.500000,-0.750000,0.500000,-0.750000,
$1*%
%AMFreePoly1*
4,1,19,0.000000,0.744911,0.071157,0.744911,0.207708,0.704816,0.327430,0.627875,0.420627,0.520320,0.479746,0.390866,0.500000,0.250000,0.500000,-0.250000,0.479746,-0.390866,0.420627,-0.520320,0.327430,-0.627875,0.207708,-0.704816,0.071157,-0.744911,0.000000,-0.744911,0.000000,-0.750000,-0.500000,-0.750000,-0.500000,0.750000,0.000000,0.750000,0.000000,0.744911,0.000000,0.744911,
$1*%
G04 Aperture macros list end*
%ADD10C,1.700000*%
%ADD11RoundRect,0.250000X-0.600000X0.600000X-0.600000X-0.600000X0.600000X-0.600000X0.600000X0.600000X0*%
%ADD12C,2.000000*%
%ADD13FreePoly0,0.000000*%
%ADD14FreePoly1,0.000000*%
%ADD15R,1.700000X1.700000*%
%ADD16O,1.700000X1.700000*%
%ADD17C,3.200000*%
%ADD18R,3.000000X3.000000*%
%ADD19C,3.000000*%
%ADD20C,0.650000*%
%ADD21O,1.000000X2.100000*%
%ADD22O,1.000000X1.800000*%
%ADD23FreePoly0,270.000000*%
%ADD24FreePoly1,270.000000*%
G04 APERTURE END LIST*
D10*
%TO.C,J17*%
X114503200Y-64770000D03*
X114503200Y-62230000D03*
X117043200Y-64770000D03*
X117043200Y-62230000D03*
X119583200Y-64770000D03*
X119583200Y-62230000D03*
X122123200Y-64770000D03*
X122123200Y-62230000D03*
X124663200Y-64770000D03*
D11*
X124663200Y-62230000D03*
%TD*%
D12*
%TO.C,SW2*%
X125553400Y-85761000D03*
X132053400Y-85761000D03*
X125553400Y-90261000D03*
X132053400Y-90261000D03*
%TD*%
%TO.C,SW1*%
X148512600Y-90261000D03*
X142012600Y-90261000D03*
X148512600Y-85761000D03*
X142012600Y-85761000D03*
%TD*%
D13*
%TO.C,JP1*%
X127213600Y-123037600D03*
D14*
X128513600Y-123037600D03*
%TD*%
D15*
%TO.C,J16*%
X141909800Y-99974400D03*
D16*
X144449800Y-99974400D03*
X146989800Y-99974400D03*
%TD*%
D15*
%TO.C,J8*%
X113003800Y-90388600D03*
D16*
X113003800Y-92928600D03*
%TD*%
D15*
%TO.C,J1*%
X120472200Y-119532400D03*
D16*
X120472200Y-116992400D03*
%TD*%
D17*
%TO.C,H1*%
X146837400Y-138531600D03*
%TD*%
D16*
%TO.C,J9*%
X107948800Y-136108600D03*
X105408800Y-136108600D03*
X107948800Y-133568600D03*
X105408800Y-133568600D03*
X107948800Y-131028600D03*
X105408800Y-131028600D03*
X107948800Y-128488600D03*
X105408800Y-128488600D03*
X107948800Y-125948600D03*
X105408800Y-125948600D03*
X107948800Y-123408600D03*
X105408800Y-123408600D03*
X107948800Y-120868600D03*
X105408800Y-120868600D03*
X107948800Y-118328600D03*
X105408800Y-118328600D03*
X107948800Y-115788600D03*
X105408800Y-115788600D03*
X107948800Y-113248600D03*
X105408800Y-113248600D03*
X107948800Y-110708600D03*
X105408800Y-110708600D03*
X107948800Y-108168600D03*
X105408800Y-108168600D03*
X107948800Y-105628600D03*
X105408800Y-105628600D03*
X107948800Y-103088600D03*
X105408800Y-103088600D03*
X107948800Y-100548600D03*
X105408800Y-100548600D03*
X107948800Y-98008600D03*
X105408800Y-98008600D03*
X107948800Y-95468600D03*
X105408800Y-95468600D03*
X107948800Y-92928600D03*
X105408800Y-92928600D03*
X107948800Y-90388600D03*
D15*
X105408800Y-90388600D03*
%TD*%
D17*
%TO.C,H3*%
X161313800Y-85140800D03*
%TD*%
D15*
%TO.C,J7*%
X166368800Y-90388600D03*
D16*
X168908800Y-90388600D03*
X166368800Y-92928600D03*
X168908800Y-92928600D03*
X166368800Y-95468600D03*
X168908800Y-95468600D03*
X166368800Y-98008600D03*
X168908800Y-98008600D03*
X166368800Y-100548600D03*
X168908800Y-100548600D03*
X166368800Y-103088600D03*
X168908800Y-103088600D03*
X166368800Y-105628600D03*
X168908800Y-105628600D03*
X166368800Y-108168600D03*
X168908800Y-108168600D03*
X166368800Y-110708600D03*
X168908800Y-110708600D03*
X166368800Y-113248600D03*
X168908800Y-113248600D03*
X166368800Y-115788600D03*
X168908800Y-115788600D03*
X166368800Y-118328600D03*
X168908800Y-118328600D03*
X166368800Y-120868600D03*
X168908800Y-120868600D03*
X166368800Y-123408600D03*
X168908800Y-123408600D03*
X166368800Y-125948600D03*
X168908800Y-125948600D03*
X166368800Y-128488600D03*
X168908800Y-128488600D03*
X166368800Y-131028600D03*
X168908800Y-131028600D03*
X166368800Y-133568600D03*
X168908800Y-133568600D03*
X166368800Y-136108600D03*
X168908800Y-136108600D03*
%TD*%
D15*
%TO.C,J14*%
X105408800Y-62448600D03*
D16*
X105408800Y-64988600D03*
%TD*%
D18*
%TO.C,J12*%
X154279600Y-62611000D03*
D19*
X159359600Y-62611000D03*
%TD*%
D15*
%TO.C,J5*%
X161288800Y-136108600D03*
D16*
X161288800Y-133568600D03*
X161288800Y-131028600D03*
X161288800Y-128488600D03*
X161288800Y-125948600D03*
X161288800Y-123408600D03*
X161288800Y-120868600D03*
X161288800Y-118328600D03*
%TD*%
D17*
%TO.C,H2*%
X123164600Y-138277600D03*
%TD*%
D15*
%TO.C,J11*%
X135153400Y-99974400D03*
D16*
X137693400Y-99974400D03*
%TD*%
D15*
%TO.C,J15*%
X168908800Y-62448600D03*
D16*
X168908800Y-64988600D03*
%TD*%
D15*
%TO.C,J4*%
X113028800Y-123408600D03*
D16*
X113028800Y-125948600D03*
X113028800Y-128488600D03*
X113028800Y-131028600D03*
X113028800Y-133568600D03*
X113028800Y-136108600D03*
%TD*%
D17*
%TO.C,H4*%
X113003800Y-84861400D03*
%TD*%
D15*
%TO.C,J3*%
X113028800Y-100548600D03*
D16*
X113028800Y-103088600D03*
X113028800Y-105628600D03*
X113028800Y-108168600D03*
X113028800Y-110708600D03*
X113028800Y-113248600D03*
X113028800Y-115788600D03*
X113028800Y-118328600D03*
%TD*%
D20*
%TO.C,J10*%
X139971800Y-63716600D03*
X134191800Y-63716600D03*
D21*
X141401800Y-64236600D03*
D22*
X141401800Y-60036600D03*
D21*
X132761800Y-64236600D03*
D22*
X132761800Y-60036600D03*
%TD*%
D15*
%TO.C,J6*%
X161288800Y-113248600D03*
D16*
X161288800Y-110708600D03*
X161288800Y-108168600D03*
X161288800Y-105628600D03*
X161288800Y-103088600D03*
X161288800Y-100548600D03*
X161288800Y-98008600D03*
X161288800Y-95468600D03*
X161288800Y-92928600D03*
X161288800Y-90388600D03*
%TD*%
D15*
%TO.C,J13*%
X126985000Y-97459800D03*
D16*
X126985000Y-99999800D03*
X124445000Y-97459800D03*
X124445000Y-99999800D03*
X121905000Y-97459800D03*
X121905000Y-99999800D03*
%TD*%
D13*
%TO.C,JP3*%
X148473400Y-130606800D03*
D14*
X149773400Y-130606800D03*
%TD*%
D23*
%TO.C,JP2*%
X144576800Y-129306800D03*
D24*
X144576800Y-130606800D03*
%TD*%
M02*
