%TF.GenerationSoftware,KiCad,Pcbnew,8.0.4*%
%TF.CreationDate,2024-12-11T23:07:31+07:00*%
%TF.ProjectId,G474-dev-board,47343734-2d64-4657-962d-626f6172642e,rev?*%
%TF.SameCoordinates,Original*%
%TF.FileFunction,Copper,L2,Inr*%
%TF.FilePolarity,Positive*%
%FSLAX46Y46*%
G04 Gerber Fmt 4.6, Leading zero omitted, Abs format (unit mm)*
G04 Created by KiCad (PCBNEW 8.0.4) date 2024-12-11 23:07:31*
%MOMM*%
%LPD*%
G01*
G04 APERTURE LIST*
G04 Aperture macros list*
%AMRoundRect*
0 Rectangle with rounded corners*
0 $1 Rounding radius*
0 $2 $3 $4 $5 $6 $7 $8 $9 X,Y pos of 4 corners*
0 Add a 4 corners polygon primitive as box body*
4,1,4,$2,$3,$4,$5,$6,$7,$8,$9,$2,$3,0*
0 Add four circle primitives for the rounded corners*
1,1,$1+$1,$2,$3*
1,1,$1+$1,$4,$5*
1,1,$1+$1,$6,$7*
1,1,$1+$1,$8,$9*
0 Add four rect primitives between the rounded corners*
20,1,$1+$1,$2,$3,$4,$5,0*
20,1,$1+$1,$4,$5,$6,$7,0*
20,1,$1+$1,$6,$7,$8,$9,0*
20,1,$1+$1,$8,$9,$2,$3,0*%
G04 Aperture macros list end*
%TA.AperFunction,ComponentPad*%
%ADD10C,1.700000*%
%TD*%
%TA.AperFunction,ComponentPad*%
%ADD11RoundRect,0.250000X-0.600000X0.600000X-0.600000X-0.600000X0.600000X-0.600000X0.600000X0.600000X0*%
%TD*%
%TA.AperFunction,ComponentPad*%
%ADD12C,2.000000*%
%TD*%
%TA.AperFunction,ComponentPad*%
%ADD13R,1.700000X1.700000*%
%TD*%
%TA.AperFunction,ComponentPad*%
%ADD14O,1.700000X1.700000*%
%TD*%
%TA.AperFunction,ComponentPad*%
%ADD15R,3.000000X3.000000*%
%TD*%
%TA.AperFunction,ComponentPad*%
%ADD16C,3.000000*%
%TD*%
%TA.AperFunction,ComponentPad*%
%ADD17O,1.000000X2.100000*%
%TD*%
%TA.AperFunction,ComponentPad*%
%ADD18O,1.000000X1.800000*%
%TD*%
G04 APERTURE END LIST*
D10*
%TO.N,unconnected-(J17-Pin_10-Pad10)*%
%TO.C,J17*%
X114503200Y-64770000D03*
%TO.N,unconnected-(J17-Pin_9-Pad9)*%
X114503200Y-62230000D03*
%TO.N,unconnected-(J17-Pin_8-Pad8)*%
X117043200Y-64770000D03*
%TO.N,unconnected-(J17-Pin_7-Pad7)*%
X117043200Y-62230000D03*
%TO.N,unconnected-(J17-Pin_6-Pad6)*%
X119583200Y-64770000D03*
%TO.N,unconnected-(J17-Pin_5-Pad5)*%
X119583200Y-62230000D03*
%TO.N,unconnected-(J17-Pin_4-Pad4)*%
X122123200Y-64770000D03*
%TO.N,unconnected-(J17-Pin_3-Pad3)*%
X122123200Y-62230000D03*
%TO.N,unconnected-(J17-Pin_2-Pad2)*%
X124663200Y-64770000D03*
D11*
%TO.N,unconnected-(J17-Pin_1-Pad1)*%
X124663200Y-62230000D03*
%TD*%
D12*
%TO.N,+3V3*%
%TO.C,SW2*%
X125553400Y-85761000D03*
X132053400Y-85761000D03*
%TO.N,Net-(D2-K)*%
X125553400Y-90261000D03*
X132053400Y-90261000D03*
%TD*%
%TO.N,/MCU/NRST*%
%TO.C,SW1*%
X148512600Y-90261000D03*
X142012600Y-90261000D03*
%TO.N,GND*%
X148512600Y-85761000D03*
X142012600Y-85761000D03*
%TD*%
D13*
%TO.N,+VREF*%
%TO.C,J16*%
X141909800Y-99974400D03*
D14*
%TO.N,Net-(J16-Pin_2)*%
X144449800Y-99974400D03*
%TO.N,+3V3*%
X146989800Y-99974400D03*
%TD*%
D13*
%TO.N,unconnected-(J8-Pin_1-Pad1)*%
%TO.C,J8*%
X113003800Y-90388600D03*
D14*
%TO.N,unconnected-(J8-Pin_2-Pad2)*%
X113003800Y-92928600D03*
%TD*%
D13*
%TO.N,/MCU/PB8*%
%TO.C,J1*%
X120472200Y-119532400D03*
D14*
%TO.N,/MCU/BOOT*%
X120472200Y-116992400D03*
%TD*%
%TO.N,/IO/PC0*%
%TO.C,J9*%
X107948800Y-136108600D03*
%TO.N,/IO/PC3*%
X105408800Y-136108600D03*
%TO.N,/IO/PC1*%
X107948800Y-133568600D03*
%TO.N,/IO/PC2*%
X105408800Y-133568600D03*
%TO.N,/IO/PB0*%
X107948800Y-131028600D03*
%TO.N,/IO/VBAT*%
X105408800Y-131028600D03*
%TO.N,/IO/PA4*%
X107948800Y-128488600D03*
%TO.N,/IO/PF1*%
X105408800Y-128488600D03*
%TO.N,/IO/PA1*%
X107948800Y-125948600D03*
%TO.N,/IO/PF0*%
X105408800Y-125948600D03*
%TO.N,/IO/PA0*%
X107948800Y-123408600D03*
%TO.N,/IO/PC15*%
X105408800Y-123408600D03*
%TO.N,unconnected-(J9-Pin_26-Pad26)*%
X107948800Y-120868600D03*
%TO.N,/IO/PC14*%
X105408800Y-120868600D03*
%TO.N,Net-(J3-Pin_8)*%
X107948800Y-118328600D03*
%TO.N,/IO/PC13*%
X105408800Y-118328600D03*
%TO.N,GND*%
X107948800Y-115788600D03*
%TO.N,/IO/PB7*%
X105408800Y-115788600D03*
%TO.N,GND*%
X107948800Y-113248600D03*
X105408800Y-113248600D03*
%TO.N,Net-(J3-Pin_5)*%
X107948800Y-110708600D03*
%TO.N,/IO/PA15*%
X105408800Y-110708600D03*
%TO.N,Net-(J3-Pin_4)*%
X107948800Y-108168600D03*
%TO.N,/IO/PA14*%
X105408800Y-108168600D03*
%TO.N,/IO/NRST*%
X107948800Y-105628600D03*
%TO.N,/IO/PA13*%
X105408800Y-105628600D03*
%TO.N,Net-(J3-Pin_2)*%
X107948800Y-103088600D03*
%TO.N,unconnected-(J9-Pin_11-Pad11)*%
X105408800Y-103088600D03*
%TO.N,unconnected-(J9-Pin_10-Pad10)*%
X107948800Y-100548600D03*
%TO.N,unconnected-(J9-Pin_9-Pad9)*%
X105408800Y-100548600D03*
%TO.N,GND*%
X107948800Y-98008600D03*
%TO.N,/IO/BOOT*%
X105408800Y-98008600D03*
%TO.N,+5V_EXT*%
X107948800Y-95468600D03*
%TO.N,unconnected-(J9-Pin_5-Pad5)*%
X105408800Y-95468600D03*
%TO.N,/IO/PD2*%
X107948800Y-92928600D03*
%TO.N,/IO/PC12*%
X105408800Y-92928600D03*
%TO.N,/IO/PC11*%
X107948800Y-90388600D03*
D13*
%TO.N,/IO/PC0*%
X105408800Y-90388600D03*
%TD*%
%TO.N,/IO/PC9*%
%TO.C,J7*%
X166368800Y-90388600D03*
D14*
%TO.N,/IO/PC8*%
X168908800Y-90388600D03*
%TO.N,Net-(J6-Pin_10)*%
X166368800Y-92928600D03*
%TO.N,/IO/PC6*%
X168908800Y-92928600D03*
%TO.N,/IO/PB9*%
X166368800Y-95468600D03*
%TO.N,/IO/PC5*%
X168908800Y-95468600D03*
%TO.N,+VDDREF*%
X166368800Y-98008600D03*
%TO.N,unconnected-(J7-Pin_8-Pad8)*%
X168908800Y-98008600D03*
%TO.N,GND*%
X166368800Y-100548600D03*
%TO.N,unconnected-(J7-Pin_10-Pad10)*%
X168908800Y-100548600D03*
%TO.N,/IO/PA5*%
X166368800Y-103088600D03*
%TO.N,/IO/PA12*%
X168908800Y-103088600D03*
%TO.N,/IO/PA6*%
X166368800Y-105628600D03*
%TO.N,/IO/PA11*%
X168908800Y-105628600D03*
%TO.N,/IO/PA7*%
X166368800Y-108168600D03*
%TO.N,/IO/PB12*%
X168908800Y-108168600D03*
%TO.N,/IO/PB6*%
X166368800Y-110708600D03*
%TO.N,/IO/PB11*%
X168908800Y-110708600D03*
%TO.N,/IO/PC7*%
X166368800Y-113248600D03*
%TO.N,GND*%
X168908800Y-113248600D03*
%TO.N,/IO/PA9*%
X166368800Y-115788600D03*
%TO.N,/IO/PB2*%
X168908800Y-115788600D03*
%TO.N,/IO/PA8*%
X166368800Y-118328600D03*
%TO.N,/IO/PB1*%
X168908800Y-118328600D03*
%TO.N,/IO/PB10*%
X166368800Y-120868600D03*
%TO.N,/IO/PB15*%
X168908800Y-120868600D03*
%TO.N,/IO/PB4*%
X166368800Y-123408600D03*
%TO.N,/IO/PB14*%
X168908800Y-123408600D03*
%TO.N,/IO/PB5*%
X166368800Y-125948600D03*
%TO.N,/IO/PB13*%
X168908800Y-125948600D03*
%TO.N,/IO/PB3*%
X166368800Y-128488600D03*
%TO.N,GND*%
X168908800Y-128488600D03*
%TO.N,/IO/PA10*%
X166368800Y-131028600D03*
%TO.N,/IO/PC4*%
X168908800Y-131028600D03*
%TO.N,Net-(J5-Pin_2)*%
X166368800Y-133568600D03*
%TO.N,unconnected-(J7-Pin_36-Pad36)*%
X168908800Y-133568600D03*
%TO.N,Net-(J5-Pin_1)*%
X166368800Y-136108600D03*
%TO.N,unconnected-(J7-Pin_38-Pad38)*%
X168908800Y-136108600D03*
%TD*%
D13*
%TO.N,GND*%
%TO.C,J14*%
X105408800Y-62448600D03*
D14*
X105408800Y-64988600D03*
%TD*%
D15*
%TO.N,+VIN*%
%TO.C,J12*%
X154279600Y-62611000D03*
D16*
%TO.N,GND*%
X159359600Y-62611000D03*
%TD*%
D13*
%TO.N,Net-(J5-Pin_1)*%
%TO.C,J5*%
X161288800Y-136108600D03*
D14*
%TO.N,Net-(J5-Pin_2)*%
X161288800Y-133568600D03*
%TO.N,/IO/PA10*%
X161288800Y-131028600D03*
%TO.N,/IO/PB3*%
X161288800Y-128488600D03*
%TO.N,/IO/PB5*%
X161288800Y-125948600D03*
%TO.N,/IO/PB4*%
X161288800Y-123408600D03*
%TO.N,/IO/PB10*%
X161288800Y-120868600D03*
%TO.N,/IO/PA8*%
X161288800Y-118328600D03*
%TD*%
D13*
%TO.N,Net-(J11-Pin_1)*%
%TO.C,J11*%
X135153400Y-99974400D03*
D14*
%TO.N,+3V3*%
X137693400Y-99974400D03*
%TD*%
D13*
%TO.N,GND*%
%TO.C,J15*%
X168908800Y-62448600D03*
D14*
X168908800Y-64988600D03*
%TD*%
D13*
%TO.N,/IO/PA0*%
%TO.C,J4*%
X113028800Y-123408600D03*
D14*
%TO.N,/IO/PA1*%
X113028800Y-125948600D03*
%TO.N,/IO/PA4*%
X113028800Y-128488600D03*
%TO.N,/IO/PB0*%
X113028800Y-131028600D03*
%TO.N,/IO/PC1*%
X113028800Y-133568600D03*
%TO.N,/IO/PC0*%
X113028800Y-136108600D03*
%TD*%
D13*
%TO.N,unconnected-(J3-Pin_1-Pad1)*%
%TO.C,J3*%
X113028800Y-100548600D03*
D14*
%TO.N,Net-(J3-Pin_2)*%
X113028800Y-103088600D03*
%TO.N,/IO/NRST*%
X113028800Y-105628600D03*
%TO.N,Net-(J3-Pin_4)*%
X113028800Y-108168600D03*
%TO.N,Net-(J3-Pin_5)*%
X113028800Y-110708600D03*
%TO.N,GND*%
X113028800Y-113248600D03*
X113028800Y-115788600D03*
%TO.N,Net-(J3-Pin_8)*%
X113028800Y-118328600D03*
%TD*%
D17*
%TO.N,unconnected-(J10-SHIELD-PadS1)*%
%TO.C,J10*%
X141401800Y-64236600D03*
D18*
X141401800Y-60036600D03*
D17*
X132761800Y-64236600D03*
D18*
X132761800Y-60036600D03*
%TD*%
D13*
%TO.N,/IO/PA9*%
%TO.C,J6*%
X161288800Y-113248600D03*
D14*
%TO.N,/IO/PC7*%
X161288800Y-110708600D03*
%TO.N,/IO/PB6*%
X161288800Y-108168600D03*
%TO.N,/IO/PA7*%
X161288800Y-105628600D03*
%TO.N,/IO/PA6*%
X161288800Y-103088600D03*
%TO.N,/IO/PA5*%
X161288800Y-100548600D03*
%TO.N,GND*%
X161288800Y-98008600D03*
%TO.N,+VDDREF*%
X161288800Y-95468600D03*
%TO.N,/IO/PB9*%
X161288800Y-92928600D03*
%TO.N,Net-(J6-Pin_10)*%
X161288800Y-90388600D03*
%TD*%
D13*
%TO.N,+5V_VIN*%
%TO.C,J13*%
X126985000Y-97459800D03*
D14*
%TO.N,+5V*%
X126985000Y-99999800D03*
%TO.N,+5V_USB_IN*%
X124445000Y-97459800D03*
%TO.N,+5V*%
X124445000Y-99999800D03*
%TO.N,+5V_EXT*%
X121905000Y-97459800D03*
%TO.N,+5V*%
X121905000Y-99999800D03*
%TD*%
%TA.AperFunction,Conductor*%
%TO.N,GND*%
G36*
X108198800Y-115355588D02*
G01*
X108141793Y-115322675D01*
X108014626Y-115288600D01*
X107882974Y-115288600D01*
X107755807Y-115322675D01*
X107698800Y-115355588D01*
X107698800Y-113681612D01*
X107755807Y-113714525D01*
X107882974Y-113748600D01*
X108014626Y-113748600D01*
X108141793Y-113714525D01*
X108198800Y-113681612D01*
X108198800Y-115355588D01*
G37*
%TD.AperFunction*%
%TA.AperFunction,Conductor*%
G36*
X107482875Y-113055607D02*
G01*
X107448800Y-113182774D01*
X107448800Y-113314426D01*
X107482875Y-113441593D01*
X107515788Y-113498600D01*
X105841812Y-113498600D01*
X105874725Y-113441593D01*
X105908800Y-113314426D01*
X105908800Y-113182774D01*
X105874725Y-113055607D01*
X105841812Y-112998600D01*
X107515788Y-112998600D01*
X107482875Y-113055607D01*
G37*
%TD.AperFunction*%
%TA.AperFunction,Conductor*%
G36*
X113278800Y-115355588D02*
G01*
X113221793Y-115322675D01*
X113094626Y-115288600D01*
X112962974Y-115288600D01*
X112835807Y-115322675D01*
X112778800Y-115355588D01*
X112778800Y-113681612D01*
X112835807Y-113714525D01*
X112962974Y-113748600D01*
X113094626Y-113748600D01*
X113221793Y-113714525D01*
X113278800Y-113681612D01*
X113278800Y-115355588D01*
G37*
%TD.AperFunction*%
%TA.AperFunction,Conductor*%
G36*
X105658800Y-64555588D02*
G01*
X105601793Y-64522675D01*
X105474626Y-64488600D01*
X105342974Y-64488600D01*
X105215807Y-64522675D01*
X105158800Y-64555588D01*
X105158800Y-62881612D01*
X105215807Y-62914525D01*
X105342974Y-62948600D01*
X105474626Y-62948600D01*
X105601793Y-62914525D01*
X105658800Y-62881612D01*
X105658800Y-64555588D01*
G37*
%TD.AperFunction*%
%TA.AperFunction,Conductor*%
G36*
X169158800Y-64555588D02*
G01*
X169101793Y-64522675D01*
X168974626Y-64488600D01*
X168842974Y-64488600D01*
X168715807Y-64522675D01*
X168658800Y-64555588D01*
X168658800Y-62881612D01*
X168715807Y-62914525D01*
X168842974Y-62948600D01*
X168974626Y-62948600D01*
X169101793Y-62914525D01*
X169158800Y-62881612D01*
X169158800Y-64555588D01*
G37*
%TD.AperFunction*%
%TA.AperFunction,Conductor*%
G36*
X131762256Y-59168785D02*
G01*
X131808011Y-59221589D01*
X131817955Y-59290747D01*
X131809778Y-59320552D01*
X131799750Y-59344760D01*
X131799747Y-59344770D01*
X131761300Y-59538056D01*
X131761300Y-59538059D01*
X131761300Y-60535141D01*
X131761300Y-60535143D01*
X131761299Y-60535143D01*
X131799747Y-60728429D01*
X131799750Y-60728439D01*
X131875164Y-60910507D01*
X131875171Y-60910520D01*
X131984660Y-61074381D01*
X131984663Y-61074385D01*
X132124014Y-61213736D01*
X132124018Y-61213739D01*
X132287879Y-61323228D01*
X132287892Y-61323235D01*
X132435649Y-61384437D01*
X132469965Y-61398651D01*
X132469969Y-61398651D01*
X132469970Y-61398652D01*
X132663256Y-61437100D01*
X132663259Y-61437100D01*
X132860343Y-61437100D01*
X132990382Y-61411232D01*
X133053635Y-61398651D01*
X133235714Y-61323232D01*
X133399582Y-61213739D01*
X133538939Y-61074382D01*
X133648432Y-60910514D01*
X133723851Y-60728435D01*
X133762300Y-60535141D01*
X133762300Y-59538059D01*
X133762300Y-59538056D01*
X133723852Y-59344770D01*
X133723851Y-59344769D01*
X133723851Y-59344765D01*
X133713822Y-59320552D01*
X133706353Y-59251083D01*
X133737628Y-59188604D01*
X133797717Y-59152952D01*
X133828383Y-59149100D01*
X140335217Y-59149100D01*
X140402256Y-59168785D01*
X140448011Y-59221589D01*
X140457955Y-59290747D01*
X140449778Y-59320552D01*
X140439750Y-59344760D01*
X140439747Y-59344770D01*
X140401300Y-59538056D01*
X140401300Y-59538059D01*
X140401300Y-60535141D01*
X140401300Y-60535143D01*
X140401299Y-60535143D01*
X140439747Y-60728429D01*
X140439750Y-60728439D01*
X140515164Y-60910507D01*
X140515171Y-60910520D01*
X140624660Y-61074381D01*
X140624663Y-61074385D01*
X140764014Y-61213736D01*
X140764018Y-61213739D01*
X140927879Y-61323228D01*
X140927892Y-61323235D01*
X141075649Y-61384437D01*
X141109965Y-61398651D01*
X141109969Y-61398651D01*
X141109970Y-61398652D01*
X141303256Y-61437100D01*
X141303259Y-61437100D01*
X141500343Y-61437100D01*
X141630382Y-61411232D01*
X141693635Y-61398651D01*
X141875714Y-61323232D01*
X142039582Y-61213739D01*
X142178939Y-61074382D01*
X142186454Y-61063135D01*
X152279100Y-61063135D01*
X152279100Y-64158870D01*
X152279101Y-64158876D01*
X152285508Y-64218483D01*
X152335802Y-64353328D01*
X152335806Y-64353335D01*
X152422052Y-64468544D01*
X152422055Y-64468547D01*
X152537264Y-64554793D01*
X152537271Y-64554797D01*
X152672117Y-64605091D01*
X152672116Y-64605091D01*
X152679044Y-64605835D01*
X152731727Y-64611500D01*
X155827472Y-64611499D01*
X155887083Y-64605091D01*
X156021931Y-64554796D01*
X156137146Y-64468546D01*
X156223396Y-64353331D01*
X156273691Y-64218483D01*
X156280100Y-64158873D01*
X156280099Y-62610998D01*
X157354491Y-62610998D01*
X157354491Y-62611001D01*
X157374900Y-62896362D01*
X157435709Y-63175895D01*
X157535691Y-63443958D01*
X157672791Y-63695038D01*
X157672796Y-63695046D01*
X157779482Y-63837561D01*
X157779483Y-63837562D01*
X158674367Y-62942677D01*
X158686097Y-62970995D01*
X158769270Y-63095472D01*
X158875128Y-63201330D01*
X158999605Y-63284503D01*
X159027920Y-63296231D01*
X158133036Y-64191115D01*
X158275560Y-64297807D01*
X158275561Y-64297808D01*
X158526642Y-64434908D01*
X158526641Y-64434908D01*
X158794704Y-64534890D01*
X159074237Y-64595699D01*
X159359599Y-64616109D01*
X159359601Y-64616109D01*
X159644962Y-64595699D01*
X159924495Y-64534890D01*
X160192558Y-64434908D01*
X160443647Y-64297803D01*
X160586161Y-64191116D01*
X160586162Y-64191115D01*
X159691279Y-63296231D01*
X159719595Y-63284503D01*
X159844072Y-63201330D01*
X159949930Y-63095472D01*
X160033103Y-62970995D01*
X160044831Y-62942678D01*
X160939715Y-63837562D01*
X160939716Y-63837561D01*
X161046403Y-63695047D01*
X161183508Y-63443958D01*
X161283490Y-63175895D01*
X161344299Y-62896362D01*
X161364709Y-62611001D01*
X161364709Y-62610998D01*
X161344299Y-62325637D01*
X161283490Y-62046104D01*
X161183508Y-61778041D01*
X161059401Y-61550755D01*
X167558800Y-61550755D01*
X167558800Y-62198600D01*
X168475788Y-62198600D01*
X168442875Y-62255607D01*
X168408800Y-62382774D01*
X168408800Y-62514426D01*
X168442875Y-62641593D01*
X168475788Y-62698600D01*
X167558800Y-62698600D01*
X167558800Y-63346444D01*
X167565201Y-63405972D01*
X167565203Y-63405979D01*
X167615445Y-63540686D01*
X167615449Y-63540693D01*
X167701609Y-63655787D01*
X167701612Y-63655790D01*
X167816706Y-63741950D01*
X167816713Y-63741954D01*
X167948786Y-63791214D01*
X168004720Y-63833085D01*
X168029137Y-63898549D01*
X168014286Y-63966822D01*
X167993135Y-63995077D01*
X167870686Y-64117526D01*
X167735200Y-64311020D01*
X167735199Y-64311022D01*
X167635370Y-64525107D01*
X167635367Y-64525113D01*
X167578164Y-64738599D01*
X167578164Y-64738600D01*
X168475788Y-64738600D01*
X168442875Y-64795607D01*
X168408800Y-64922774D01*
X168408800Y-65054426D01*
X168442875Y-65181593D01*
X168475788Y-65238600D01*
X167578164Y-65238600D01*
X167635367Y-65452086D01*
X167635370Y-65452092D01*
X167735199Y-65666178D01*
X167870694Y-65859682D01*
X168037717Y-66026705D01*
X168231221Y-66162200D01*
X168445307Y-66262029D01*
X168445316Y-66262033D01*
X168658800Y-66319234D01*
X168658800Y-65421612D01*
X168715807Y-65454525D01*
X168842974Y-65488600D01*
X168974626Y-65488600D01*
X169101793Y-65454525D01*
X169158800Y-65421612D01*
X169158800Y-66319233D01*
X169372283Y-66262033D01*
X169372292Y-66262029D01*
X169586378Y-66162200D01*
X169779882Y-66026705D01*
X169946905Y-65859682D01*
X170082400Y-65666178D01*
X170182229Y-65452092D01*
X170182232Y-65452086D01*
X170239436Y-65238600D01*
X169341812Y-65238600D01*
X169374725Y-65181593D01*
X169408800Y-65054426D01*
X169408800Y-64922774D01*
X169374725Y-64795607D01*
X169341812Y-64738600D01*
X170239436Y-64738600D01*
X170239435Y-64738599D01*
X170182232Y-64525113D01*
X170182229Y-64525107D01*
X170082400Y-64311022D01*
X170082399Y-64311020D01*
X169946913Y-64117526D01*
X169946908Y-64117520D01*
X169824465Y-63995077D01*
X169790980Y-63933754D01*
X169795964Y-63864062D01*
X169837836Y-63808129D01*
X169868813Y-63791214D01*
X170000886Y-63741954D01*
X170000893Y-63741950D01*
X170115987Y-63655790D01*
X170115990Y-63655787D01*
X170202150Y-63540693D01*
X170202154Y-63540686D01*
X170252396Y-63405979D01*
X170252398Y-63405972D01*
X170258799Y-63346444D01*
X170258800Y-63346427D01*
X170258800Y-62698600D01*
X169341812Y-62698600D01*
X169374725Y-62641593D01*
X169408800Y-62514426D01*
X169408800Y-62382774D01*
X169374725Y-62255607D01*
X169341812Y-62198600D01*
X170258800Y-62198600D01*
X170258800Y-61550772D01*
X170258799Y-61550755D01*
X170252398Y-61491227D01*
X170252396Y-61491220D01*
X170202154Y-61356513D01*
X170202150Y-61356506D01*
X170115990Y-61241412D01*
X170115987Y-61241409D01*
X170000893Y-61155249D01*
X170000886Y-61155245D01*
X169866179Y-61105003D01*
X169866172Y-61105001D01*
X169806644Y-61098600D01*
X169158800Y-61098600D01*
X169158800Y-62015588D01*
X169101793Y-61982675D01*
X168974626Y-61948600D01*
X168842974Y-61948600D01*
X168715807Y-61982675D01*
X168658800Y-62015588D01*
X168658800Y-61098600D01*
X168010955Y-61098600D01*
X167951427Y-61105001D01*
X167951420Y-61105003D01*
X167816713Y-61155245D01*
X167816706Y-61155249D01*
X167701612Y-61241409D01*
X167701609Y-61241412D01*
X167615449Y-61356506D01*
X167615445Y-61356513D01*
X167565203Y-61491220D01*
X167565201Y-61491227D01*
X167558800Y-61550755D01*
X161059401Y-61550755D01*
X161046408Y-61526961D01*
X161046407Y-61526960D01*
X160939715Y-61384436D01*
X160044831Y-62279320D01*
X160033103Y-62251005D01*
X159949930Y-62126528D01*
X159844072Y-62020670D01*
X159719595Y-61937497D01*
X159691278Y-61925767D01*
X160586162Y-61030883D01*
X160586161Y-61030882D01*
X160443646Y-60924196D01*
X160443638Y-60924191D01*
X160192557Y-60787091D01*
X160192558Y-60787091D01*
X159924495Y-60687109D01*
X159644962Y-60626300D01*
X159359601Y-60605891D01*
X159359599Y-60605891D01*
X159074237Y-60626300D01*
X158794704Y-60687109D01*
X158526641Y-60787091D01*
X158275561Y-60924191D01*
X158275553Y-60924196D01*
X158133037Y-61030882D01*
X158133036Y-61030883D01*
X159027921Y-61925767D01*
X158999605Y-61937497D01*
X158875128Y-62020670D01*
X158769270Y-62126528D01*
X158686097Y-62251005D01*
X158674368Y-62279321D01*
X157779483Y-61384436D01*
X157779482Y-61384437D01*
X157672796Y-61526953D01*
X157672791Y-61526961D01*
X157535691Y-61778041D01*
X157435709Y-62046104D01*
X157374900Y-62325637D01*
X157354491Y-62610998D01*
X156280099Y-62610998D01*
X156280099Y-61063128D01*
X156273691Y-61003517D01*
X156256003Y-60956094D01*
X156223397Y-60868671D01*
X156223393Y-60868664D01*
X156137147Y-60753455D01*
X156137144Y-60753452D01*
X156021935Y-60667206D01*
X156021928Y-60667202D01*
X155887082Y-60616908D01*
X155887083Y-60616908D01*
X155827483Y-60610501D01*
X155827481Y-60610500D01*
X155827473Y-60610500D01*
X155827464Y-60610500D01*
X152731729Y-60610500D01*
X152731723Y-60610501D01*
X152672116Y-60616908D01*
X152537271Y-60667202D01*
X152537264Y-60667206D01*
X152422055Y-60753452D01*
X152422052Y-60753455D01*
X152335806Y-60868664D01*
X152335802Y-60868671D01*
X152285508Y-61003517D01*
X152279870Y-61055964D01*
X152279101Y-61063123D01*
X152279100Y-61063135D01*
X142186454Y-61063135D01*
X142288432Y-60910514D01*
X142363851Y-60728435D01*
X142402300Y-60535141D01*
X142402300Y-59538059D01*
X142402300Y-59538056D01*
X142363852Y-59344770D01*
X142363851Y-59344769D01*
X142363851Y-59344765D01*
X142353822Y-59320552D01*
X142346353Y-59251083D01*
X142377628Y-59188604D01*
X142437717Y-59152952D01*
X142468383Y-59149100D01*
X171534300Y-59149100D01*
X171601339Y-59168785D01*
X171647094Y-59221589D01*
X171658300Y-59273100D01*
X171658300Y-140524100D01*
X171638615Y-140591139D01*
X171585811Y-140636894D01*
X171534300Y-140648100D01*
X102783300Y-140648100D01*
X102716261Y-140628415D01*
X102670506Y-140575611D01*
X102659300Y-140524100D01*
X102659300Y-138156311D01*
X121314100Y-138156311D01*
X121314100Y-138398888D01*
X121345761Y-138639385D01*
X121408547Y-138873704D01*
X121416701Y-138893389D01*
X121501376Y-139097812D01*
X121622664Y-139307889D01*
X121622666Y-139307892D01*
X121622667Y-139307893D01*
X121770333Y-139500336D01*
X121770339Y-139500343D01*
X121941856Y-139671860D01*
X121941862Y-139671865D01*
X122134311Y-139819536D01*
X122344388Y-139940824D01*
X122568500Y-140033654D01*
X122802811Y-140096438D01*
X122983186Y-140120184D01*
X123043311Y-140128100D01*
X123043312Y-140128100D01*
X123285889Y-140128100D01*
X123333988Y-140121767D01*
X123526389Y-140096438D01*
X123760700Y-140033654D01*
X123984812Y-139940824D01*
X124194889Y-139819536D01*
X124387338Y-139671865D01*
X124558865Y-139500338D01*
X124706536Y-139307889D01*
X124827824Y-139097812D01*
X124920654Y-138873700D01*
X124983438Y-138639389D01*
X125013596Y-138410311D01*
X144986900Y-138410311D01*
X144986900Y-138652888D01*
X145018561Y-138893385D01*
X145081347Y-139127704D01*
X145155984Y-139307893D01*
X145174176Y-139351812D01*
X145295464Y-139561889D01*
X145295466Y-139561892D01*
X145295467Y-139561893D01*
X145443133Y-139754336D01*
X145443139Y-139754343D01*
X145614656Y-139925860D01*
X145614663Y-139925866D01*
X145727721Y-140012618D01*
X145807111Y-140073536D01*
X146017188Y-140194824D01*
X146241300Y-140287654D01*
X146475611Y-140350438D01*
X146655986Y-140374184D01*
X146716111Y-140382100D01*
X146716112Y-140382100D01*
X146958689Y-140382100D01*
X147006788Y-140375767D01*
X147199189Y-140350438D01*
X147433500Y-140287654D01*
X147657612Y-140194824D01*
X147867689Y-140073536D01*
X148060138Y-139925865D01*
X148231665Y-139754338D01*
X148379336Y-139561889D01*
X148500624Y-139351812D01*
X148593454Y-139127700D01*
X148656238Y-138893389D01*
X148687900Y-138652888D01*
X148687900Y-138410312D01*
X148656238Y-138169811D01*
X148593454Y-137935500D01*
X148500624Y-137711388D01*
X148379336Y-137501311D01*
X148231665Y-137308862D01*
X148231660Y-137308856D01*
X148060143Y-137137339D01*
X148060136Y-137137333D01*
X147867693Y-136989667D01*
X147867692Y-136989666D01*
X147867689Y-136989664D01*
X147657612Y-136868376D01*
X147657605Y-136868373D01*
X147433504Y-136775547D01*
X147199185Y-136712761D01*
X146958689Y-136681100D01*
X146958688Y-136681100D01*
X146716112Y-136681100D01*
X146716111Y-136681100D01*
X146475614Y-136712761D01*
X146241295Y-136775547D01*
X146017194Y-136868373D01*
X146017185Y-136868377D01*
X145835251Y-136973417D01*
X145823857Y-136979996D01*
X145807106Y-136989667D01*
X145614663Y-137137333D01*
X145614656Y-137137339D01*
X145443139Y-137308856D01*
X145443133Y-137308863D01*
X145295467Y-137501306D01*
X145174177Y-137711385D01*
X145174173Y-137711394D01*
X145081347Y-137935495D01*
X145018561Y-138169814D01*
X144986900Y-138410311D01*
X125013596Y-138410311D01*
X125015100Y-138398888D01*
X125015100Y-138156312D01*
X124983438Y-137915811D01*
X124920654Y-137681500D01*
X124827824Y-137457388D01*
X124706536Y-137247311D01*
X124567475Y-137066083D01*
X124558866Y-137054863D01*
X124558860Y-137054856D01*
X124387343Y-136883339D01*
X124387336Y-136883333D01*
X124194893Y-136735667D01*
X124194892Y-136735666D01*
X124194889Y-136735664D01*
X123984812Y-136614376D01*
X123903347Y-136580632D01*
X123760704Y-136521547D01*
X123526385Y-136458761D01*
X123285889Y-136427100D01*
X123285888Y-136427100D01*
X123043312Y-136427100D01*
X123043311Y-136427100D01*
X122802814Y-136458761D01*
X122568495Y-136521547D01*
X122344394Y-136614373D01*
X122344385Y-136614377D01*
X122134306Y-136735667D01*
X121941863Y-136883333D01*
X121941856Y-136883339D01*
X121770339Y-137054856D01*
X121770333Y-137054863D01*
X121622667Y-137247306D01*
X121501377Y-137457385D01*
X121501373Y-137457394D01*
X121408547Y-137681495D01*
X121345761Y-137915814D01*
X121314100Y-138156311D01*
X102659300Y-138156311D01*
X102659300Y-92928599D01*
X104053141Y-92928599D01*
X104053141Y-92928600D01*
X104073736Y-93164003D01*
X104073738Y-93164013D01*
X104134894Y-93392255D01*
X104134896Y-93392259D01*
X104134897Y-93392263D01*
X104138800Y-93400632D01*
X104234765Y-93606430D01*
X104234767Y-93606434D01*
X104343081Y-93761121D01*
X104370301Y-93799996D01*
X104370306Y-93800002D01*
X104537397Y-93967093D01*
X104537403Y-93967098D01*
X104722958Y-94097025D01*
X104766583Y-94151602D01*
X104773777Y-94221100D01*
X104742254Y-94283455D01*
X104722958Y-94300175D01*
X104537397Y-94430105D01*
X104370305Y-94597197D01*
X104234765Y-94790769D01*
X104234764Y-94790771D01*
X104134898Y-95004935D01*
X104134894Y-95004944D01*
X104073738Y-95233186D01*
X104073736Y-95233196D01*
X104053141Y-95468599D01*
X104053141Y-95468600D01*
X104073736Y-95704003D01*
X104073738Y-95704013D01*
X104134894Y-95932255D01*
X104134896Y-95932259D01*
X104134897Y-95932263D01*
X104218158Y-96110817D01*
X104234765Y-96146430D01*
X104234767Y-96146434D01*
X104332330Y-96285767D01*
X104370301Y-96339996D01*
X104370306Y-96340002D01*
X104537397Y-96507093D01*
X104537403Y-96507098D01*
X104722958Y-96637025D01*
X104766583Y-96691602D01*
X104773777Y-96761100D01*
X104742254Y-96823455D01*
X104722958Y-96840175D01*
X104537397Y-96970105D01*
X104370305Y-97137197D01*
X104234765Y-97330769D01*
X104234764Y-97330771D01*
X104134898Y-97544935D01*
X104134894Y-97544944D01*
X104073738Y-97773186D01*
X104073736Y-97773196D01*
X104053141Y-98008599D01*
X104053141Y-98008600D01*
X104073736Y-98244003D01*
X104073738Y-98244013D01*
X104134894Y-98472255D01*
X104134896Y-98472259D01*
X104134897Y-98472263D01*
X104214804Y-98643623D01*
X104234765Y-98686430D01*
X104234767Y-98686434D01*
X104336257Y-98831375D01*
X104370301Y-98879996D01*
X104370306Y-98880002D01*
X104537397Y-99047093D01*
X104537403Y-99047098D01*
X104722958Y-99177025D01*
X104766583Y-99231602D01*
X104773777Y-99301100D01*
X104742254Y-99363455D01*
X104722958Y-99380175D01*
X104537397Y-99510105D01*
X104370305Y-99677197D01*
X104234765Y-99870769D01*
X104234764Y-99870771D01*
X104134898Y-100084935D01*
X104134894Y-100084944D01*
X104073738Y-100313186D01*
X104073736Y-100313196D01*
X104053141Y-100548599D01*
X104053141Y-100548600D01*
X104073736Y-100784003D01*
X104073738Y-100784013D01*
X104134894Y-101012255D01*
X104134896Y-101012259D01*
X104134897Y-101012263D01*
X104214021Y-101181944D01*
X104234765Y-101226430D01*
X104234767Y-101226434D01*
X104325112Y-101355459D01*
X104370304Y-101420000D01*
X104370306Y-101420002D01*
X104537397Y-101587093D01*
X104537403Y-101587098D01*
X104722958Y-101717025D01*
X104766583Y-101771602D01*
X104773777Y-101841100D01*
X104742254Y-101903455D01*
X104722958Y-101920175D01*
X104537397Y-102050105D01*
X104370305Y-102217197D01*
X104234765Y-102410769D01*
X104234764Y-102410771D01*
X104134898Y-102624935D01*
X104134894Y-102624944D01*
X104073738Y-102853186D01*
X104073736Y-102853196D01*
X104053141Y-103088599D01*
X104053141Y-103088600D01*
X104073736Y-103324003D01*
X104073738Y-103324013D01*
X104134894Y-103552255D01*
X104134896Y-103552259D01*
X104134897Y-103552263D01*
X104138800Y-103560632D01*
X104234765Y-103766430D01*
X104234767Y-103766434D01*
X104343081Y-103921121D01*
X104370301Y-103959996D01*
X104370306Y-103960002D01*
X104537397Y-104127093D01*
X104537403Y-104127098D01*
X104722958Y-104257025D01*
X104766583Y-104311602D01*
X104773777Y-104381100D01*
X104742254Y-104443455D01*
X104722958Y-104460175D01*
X104537397Y-104590105D01*
X104370305Y-104757197D01*
X104234765Y-104950769D01*
X104234764Y-104950771D01*
X104134898Y-105164935D01*
X104134894Y-105164944D01*
X104073738Y-105393186D01*
X104073736Y-105393196D01*
X104053141Y-105628599D01*
X104053141Y-105628600D01*
X104073736Y-105864003D01*
X104073738Y-105864013D01*
X104134894Y-106092255D01*
X104134896Y-106092259D01*
X104134897Y-106092263D01*
X104138800Y-106100632D01*
X104234765Y-106306430D01*
X104234767Y-106306434D01*
X104343081Y-106461121D01*
X104370301Y-106499996D01*
X104370306Y-106500002D01*
X104537397Y-106667093D01*
X104537403Y-106667098D01*
X104722958Y-106797025D01*
X104766583Y-106851602D01*
X104773777Y-106921100D01*
X104742254Y-106983455D01*
X104722958Y-107000175D01*
X104537397Y-107130105D01*
X104370305Y-107297197D01*
X104234765Y-107490769D01*
X104234764Y-107490771D01*
X104134898Y-107704935D01*
X104134894Y-107704944D01*
X104073738Y-107933186D01*
X104073736Y-107933196D01*
X104053141Y-108168599D01*
X104053141Y-108168600D01*
X104073736Y-108404003D01*
X104073738Y-108404013D01*
X104134894Y-108632255D01*
X104134896Y-108632259D01*
X104134897Y-108632263D01*
X104138800Y-108640632D01*
X104234765Y-108846430D01*
X104234767Y-108846434D01*
X104343081Y-109001121D01*
X104370301Y-109039996D01*
X104370306Y-109040002D01*
X104537397Y-109207093D01*
X104537403Y-109207098D01*
X104722958Y-109337025D01*
X104766583Y-109391602D01*
X104773777Y-109461100D01*
X104742254Y-109523455D01*
X104722958Y-109540175D01*
X104537397Y-109670105D01*
X104370305Y-109837197D01*
X104234765Y-110030769D01*
X104234764Y-110030771D01*
X104134898Y-110244935D01*
X104134894Y-110244944D01*
X104073738Y-110473186D01*
X104073736Y-110473196D01*
X104053141Y-110708599D01*
X104053141Y-110708600D01*
X104073736Y-110944003D01*
X104073738Y-110944013D01*
X104134894Y-111172255D01*
X104134896Y-111172259D01*
X104134897Y-111172263D01*
X104138800Y-111180632D01*
X104234765Y-111386430D01*
X104234767Y-111386434D01*
X104343081Y-111541121D01*
X104370305Y-111580001D01*
X104537399Y-111747095D01*
X104704239Y-111863918D01*
X104723394Y-111877330D01*
X104767019Y-111931907D01*
X104774213Y-112001405D01*
X104742690Y-112063760D01*
X104723395Y-112080480D01*
X104537722Y-112210490D01*
X104537720Y-112210491D01*
X104370691Y-112377520D01*
X104370686Y-112377526D01*
X104235200Y-112571020D01*
X104235199Y-112571022D01*
X104135370Y-112785107D01*
X104135367Y-112785113D01*
X104078164Y-112998599D01*
X104078164Y-112998600D01*
X104975788Y-112998600D01*
X104942875Y-113055607D01*
X104908800Y-113182774D01*
X104908800Y-113314426D01*
X104942875Y-113441593D01*
X104975788Y-113498600D01*
X104078164Y-113498600D01*
X104135367Y-113712086D01*
X104135370Y-113712092D01*
X104235199Y-113926178D01*
X104370694Y-114119682D01*
X104537717Y-114286705D01*
X104723395Y-114416719D01*
X104767019Y-114471296D01*
X104774212Y-114540795D01*
X104742690Y-114603149D01*
X104723395Y-114619869D01*
X104537394Y-114750108D01*
X104370305Y-114917197D01*
X104234765Y-115110769D01*
X104234764Y-115110771D01*
X104134898Y-115324935D01*
X104134894Y-115324944D01*
X104073738Y-115553186D01*
X104073736Y-115553196D01*
X104053141Y-115788599D01*
X104053141Y-115788600D01*
X104073736Y-116024003D01*
X104073738Y-116024013D01*
X104134894Y-116252255D01*
X104134896Y-116252259D01*
X104134897Y-116252263D01*
X104214804Y-116423623D01*
X104234765Y-116466430D01*
X104234767Y-116466434D01*
X104343081Y-116621121D01*
X104370301Y-116659996D01*
X104370306Y-116660002D01*
X104537397Y-116827093D01*
X104537403Y-116827098D01*
X104722958Y-116957025D01*
X104766583Y-117011602D01*
X104773777Y-117081100D01*
X104742254Y-117143455D01*
X104722958Y-117160175D01*
X104537397Y-117290105D01*
X104370305Y-117457197D01*
X104234765Y-117650769D01*
X104234764Y-117650771D01*
X104134898Y-117864935D01*
X104134894Y-117864944D01*
X104073738Y-118093186D01*
X104073736Y-118093196D01*
X104053141Y-118328599D01*
X104053141Y-118328600D01*
X104073736Y-118564003D01*
X104073738Y-118564013D01*
X104134894Y-118792255D01*
X104134896Y-118792259D01*
X104134897Y-118792263D01*
X104138800Y-118800632D01*
X104234765Y-119006430D01*
X104234767Y-119006434D01*
X104343081Y-119161121D01*
X104370301Y-119199996D01*
X104370306Y-119200002D01*
X104537397Y-119367093D01*
X104537403Y-119367098D01*
X104722958Y-119497025D01*
X104766583Y-119551602D01*
X104773777Y-119621100D01*
X104742254Y-119683455D01*
X104722958Y-119700175D01*
X104537397Y-119830105D01*
X104370305Y-119997197D01*
X104234765Y-120190769D01*
X104234764Y-120190771D01*
X104134898Y-120404935D01*
X104134894Y-120404944D01*
X104073738Y-120633186D01*
X104073736Y-120633196D01*
X104053141Y-120868599D01*
X104053141Y-120868600D01*
X104073736Y-121104003D01*
X104073738Y-121104013D01*
X104134894Y-121332255D01*
X104134896Y-121332259D01*
X104134897Y-121332263D01*
X104138800Y-121340632D01*
X104234765Y-121546430D01*
X104234767Y-121546434D01*
X104343081Y-121701121D01*
X104370301Y-121739996D01*
X104370306Y-121740002D01*
X104537397Y-121907093D01*
X104537403Y-121907098D01*
X104722958Y-122037025D01*
X104766583Y-122091602D01*
X104773777Y-122161100D01*
X104742254Y-122223455D01*
X104722958Y-122240175D01*
X104537397Y-122370105D01*
X104370305Y-122537197D01*
X104234765Y-122730769D01*
X104234764Y-122730771D01*
X104134898Y-122944935D01*
X104134894Y-122944944D01*
X104073738Y-123173186D01*
X104073736Y-123173196D01*
X104053141Y-123408599D01*
X104053141Y-123408600D01*
X104073736Y-123644003D01*
X104073738Y-123644013D01*
X104134894Y-123872255D01*
X104134896Y-123872259D01*
X104134897Y-123872263D01*
X104138800Y-123880632D01*
X104234765Y-124086430D01*
X104234767Y-124086434D01*
X104343081Y-124241121D01*
X104370301Y-124279996D01*
X104370306Y-124280002D01*
X104537397Y-124447093D01*
X104537403Y-124447098D01*
X104722958Y-124577025D01*
X104766583Y-124631602D01*
X104773777Y-124701100D01*
X104742254Y-124763455D01*
X104722958Y-124780175D01*
X104537397Y-124910105D01*
X104370305Y-125077197D01*
X104234765Y-125270769D01*
X104234764Y-125270771D01*
X104134898Y-125484935D01*
X104134894Y-125484944D01*
X104073738Y-125713186D01*
X104073736Y-125713196D01*
X104053141Y-125948599D01*
X104053141Y-125948600D01*
X104073736Y-126184003D01*
X104073738Y-126184013D01*
X104134894Y-126412255D01*
X104134896Y-126412259D01*
X104134897Y-126412263D01*
X104138800Y-126420632D01*
X104234765Y-126626430D01*
X104234767Y-126626434D01*
X104343081Y-126781121D01*
X104370301Y-126819996D01*
X104370306Y-126820002D01*
X104537397Y-126987093D01*
X104537403Y-126987098D01*
X104722958Y-127117025D01*
X104766583Y-127171602D01*
X104773777Y-127241100D01*
X104742254Y-127303455D01*
X104722958Y-127320175D01*
X104537397Y-127450105D01*
X104370305Y-127617197D01*
X104234765Y-127810769D01*
X104234764Y-127810771D01*
X104134898Y-128024935D01*
X104134894Y-128024944D01*
X104073738Y-128253186D01*
X104073736Y-128253196D01*
X104053141Y-128488599D01*
X104053141Y-128488600D01*
X104073736Y-128724003D01*
X104073738Y-128724013D01*
X104134894Y-128952255D01*
X104134896Y-128952259D01*
X104134897Y-128952263D01*
X104214804Y-129123623D01*
X104234765Y-129166430D01*
X104234767Y-129166434D01*
X104343081Y-129321121D01*
X104370301Y-129359996D01*
X104370306Y-129360002D01*
X104537397Y-129527093D01*
X104537403Y-129527098D01*
X104722958Y-129657025D01*
X104766583Y-129711602D01*
X104773777Y-129781100D01*
X104742254Y-129843455D01*
X104722958Y-129860175D01*
X104537397Y-129990105D01*
X104370305Y-130157197D01*
X104234765Y-130350769D01*
X104234764Y-130350771D01*
X104134898Y-130564935D01*
X104134894Y-130564944D01*
X104073738Y-130793186D01*
X104073736Y-130793196D01*
X104053141Y-131028599D01*
X104053141Y-131028600D01*
X104073736Y-131264003D01*
X104073738Y-131264013D01*
X104134894Y-131492255D01*
X104134896Y-131492259D01*
X104134897Y-131492263D01*
X104138800Y-131500632D01*
X104234765Y-131706430D01*
X104234767Y-131706434D01*
X104343081Y-131861121D01*
X104370301Y-131899996D01*
X104370306Y-131900002D01*
X104537397Y-132067093D01*
X104537403Y-132067098D01*
X104722958Y-132197025D01*
X104766583Y-132251602D01*
X104773777Y-132321100D01*
X104742254Y-132383455D01*
X104722958Y-132400175D01*
X104537397Y-132530105D01*
X104370305Y-132697197D01*
X104234765Y-132890769D01*
X104234764Y-132890771D01*
X104134898Y-133104935D01*
X104134894Y-133104944D01*
X104073738Y-133333186D01*
X104073736Y-133333196D01*
X104053141Y-133568599D01*
X104053141Y-133568600D01*
X104073736Y-133804003D01*
X104073738Y-133804013D01*
X104134894Y-134032255D01*
X104134896Y-134032259D01*
X104134897Y-134032263D01*
X104138800Y-134040632D01*
X104234765Y-134246430D01*
X104234767Y-134246434D01*
X104343081Y-134401121D01*
X104370301Y-134439996D01*
X104370306Y-134440002D01*
X104537397Y-134607093D01*
X104537403Y-134607098D01*
X104722958Y-134737025D01*
X104766583Y-134791602D01*
X104773777Y-134861100D01*
X104742254Y-134923455D01*
X104722958Y-134940175D01*
X104537397Y-135070105D01*
X104370305Y-135237197D01*
X104234765Y-135430769D01*
X104234764Y-135430771D01*
X104134898Y-135644935D01*
X104134894Y-135644944D01*
X104073738Y-135873186D01*
X104073736Y-135873196D01*
X104053141Y-136108599D01*
X104053141Y-136108600D01*
X104073736Y-136344003D01*
X104073738Y-136344013D01*
X104134894Y-136572255D01*
X104134896Y-136572259D01*
X104134897Y-136572263D01*
X104200413Y-136712762D01*
X104234765Y-136786430D01*
X104234767Y-136786434D01*
X104302621Y-136883339D01*
X104370305Y-136980001D01*
X104537399Y-137147095D01*
X104634184Y-137214865D01*
X104730965Y-137282632D01*
X104730967Y-137282633D01*
X104730970Y-137282635D01*
X104945137Y-137382503D01*
X105173392Y-137443663D01*
X105349834Y-137459100D01*
X105408799Y-137464259D01*
X105408800Y-137464259D01*
X105408801Y-137464259D01*
X105467766Y-137459100D01*
X105644208Y-137443663D01*
X105872463Y-137382503D01*
X106086630Y-137282635D01*
X106280201Y-137147095D01*
X106447295Y-136980001D01*
X106577225Y-136794442D01*
X106631802Y-136750817D01*
X106701300Y-136743623D01*
X106763655Y-136775146D01*
X106780375Y-136794442D01*
X106910300Y-136979995D01*
X106910305Y-136980001D01*
X107077399Y-137147095D01*
X107174184Y-137214865D01*
X107270965Y-137282632D01*
X107270967Y-137282633D01*
X107270970Y-137282635D01*
X107485137Y-137382503D01*
X107713392Y-137443663D01*
X107889834Y-137459100D01*
X107948799Y-137464259D01*
X107948800Y-137464259D01*
X107948801Y-137464259D01*
X108007766Y-137459100D01*
X108184208Y-137443663D01*
X108412463Y-137382503D01*
X108626630Y-137282635D01*
X108820201Y-137147095D01*
X108987295Y-136980001D01*
X109122835Y-136786430D01*
X109222703Y-136572263D01*
X109283863Y-136344008D01*
X109304459Y-136108600D01*
X109283863Y-135873192D01*
X109222703Y-135644937D01*
X109122835Y-135430771D01*
X109117225Y-135422758D01*
X108987294Y-135237197D01*
X108820202Y-135070106D01*
X108820196Y-135070101D01*
X108634642Y-134940175D01*
X108591017Y-134885598D01*
X108583823Y-134816100D01*
X108615346Y-134753745D01*
X108634642Y-134737025D01*
X108746854Y-134658453D01*
X108820201Y-134607095D01*
X108987295Y-134440001D01*
X109122835Y-134246430D01*
X109222703Y-134032263D01*
X109283863Y-133804008D01*
X109304459Y-133568600D01*
X109283863Y-133333192D01*
X109222703Y-133104937D01*
X109122835Y-132890771D01*
X109117225Y-132882758D01*
X108987294Y-132697197D01*
X108820202Y-132530106D01*
X108820196Y-132530101D01*
X108634642Y-132400175D01*
X108591017Y-132345598D01*
X108583823Y-132276100D01*
X108615346Y-132213745D01*
X108634642Y-132197025D01*
X108656826Y-132181491D01*
X108820201Y-132067095D01*
X108987295Y-131900001D01*
X109122835Y-131706430D01*
X109222703Y-131492263D01*
X109283863Y-131264008D01*
X109304459Y-131028600D01*
X109283863Y-130793192D01*
X109222703Y-130564937D01*
X109122835Y-130350771D01*
X109117225Y-130342758D01*
X108987294Y-130157197D01*
X108820202Y-129990106D01*
X108820196Y-129990101D01*
X108634642Y-129860175D01*
X108591017Y-129805598D01*
X108583823Y-129736100D01*
X108615346Y-129673745D01*
X108634642Y-129657025D01*
X108656826Y-129641491D01*
X108820201Y-129527095D01*
X108987295Y-129360001D01*
X109122835Y-129166430D01*
X109222703Y-128952263D01*
X109283863Y-128724008D01*
X109304459Y-128488600D01*
X109283863Y-128253192D01*
X109222703Y-128024937D01*
X109122835Y-127810771D01*
X109117531Y-127803195D01*
X108987294Y-127617197D01*
X108820202Y-127450106D01*
X108820196Y-127450101D01*
X108634642Y-127320175D01*
X108591017Y-127265598D01*
X108583823Y-127196100D01*
X108615346Y-127133745D01*
X108634642Y-127117025D01*
X108656826Y-127101491D01*
X108820201Y-126987095D01*
X108987295Y-126820001D01*
X109122835Y-126626430D01*
X109222703Y-126412263D01*
X109283863Y-126184008D01*
X109304459Y-125948600D01*
X109304459Y-125948599D01*
X111673141Y-125948599D01*
X111673141Y-125948600D01*
X111693736Y-126184003D01*
X111693738Y-126184013D01*
X111754894Y-126412255D01*
X111754896Y-126412259D01*
X111754897Y-126412263D01*
X111758800Y-126420632D01*
X111854765Y-126626430D01*
X111854767Y-126626434D01*
X111963081Y-126781121D01*
X111990301Y-126819996D01*
X111990306Y-126820002D01*
X112157397Y-126987093D01*
X112157403Y-126987098D01*
X112342958Y-127117025D01*
X112386583Y-127171602D01*
X112393777Y-127241100D01*
X112362254Y-127303455D01*
X112342958Y-127320175D01*
X112157397Y-127450105D01*
X111990305Y-127617197D01*
X111854765Y-127810769D01*
X111854764Y-127810771D01*
X111754898Y-128024935D01*
X111754894Y-128024944D01*
X111693738Y-128253186D01*
X111693736Y-128253196D01*
X111673141Y-128488599D01*
X111673141Y-128488600D01*
X111693736Y-128724003D01*
X111693738Y-128724013D01*
X111754894Y-128952255D01*
X111754896Y-128952259D01*
X111754897Y-128952263D01*
X111834804Y-129123623D01*
X111854765Y-129166430D01*
X111854767Y-129166434D01*
X111963081Y-129321121D01*
X111990301Y-129359996D01*
X111990306Y-129360002D01*
X112157397Y-129527093D01*
X112157403Y-129527098D01*
X112342958Y-129657025D01*
X112386583Y-129711602D01*
X112393777Y-129781100D01*
X112362254Y-129843455D01*
X112342958Y-129860175D01*
X112157397Y-129990105D01*
X111990305Y-130157197D01*
X111854765Y-130350769D01*
X111854764Y-130350771D01*
X111754898Y-130564935D01*
X111754894Y-130564944D01*
X111693738Y-130793186D01*
X111693736Y-130793196D01*
X111673141Y-131028599D01*
X111673141Y-131028600D01*
X111693736Y-131264003D01*
X111693738Y-131264013D01*
X111754894Y-131492255D01*
X111754896Y-131492259D01*
X111754897Y-131492263D01*
X111758800Y-131500632D01*
X111854765Y-131706430D01*
X111854767Y-131706434D01*
X111963081Y-131861121D01*
X111990301Y-131899996D01*
X111990306Y-131900002D01*
X112157397Y-132067093D01*
X112157403Y-132067098D01*
X112342958Y-132197025D01*
X112386583Y-132251602D01*
X112393777Y-132321100D01*
X112362254Y-132383455D01*
X112342958Y-132400175D01*
X112157397Y-132530105D01*
X111990305Y-132697197D01*
X111854765Y-132890769D01*
X111854764Y-132890771D01*
X111754898Y-133104935D01*
X111754894Y-133104944D01*
X111693738Y-133333186D01*
X111693736Y-133333196D01*
X111673141Y-133568599D01*
X111673141Y-133568600D01*
X111693736Y-133804003D01*
X111693738Y-133804013D01*
X111754894Y-134032255D01*
X111754896Y-134032259D01*
X111754897Y-134032263D01*
X111758800Y-134040632D01*
X111854765Y-134246430D01*
X111854767Y-134246434D01*
X111963081Y-134401121D01*
X111990301Y-134439996D01*
X111990306Y-134440002D01*
X112157397Y-134607093D01*
X112157403Y-134607098D01*
X112342958Y-134737025D01*
X112386583Y-134791602D01*
X112393777Y-134861100D01*
X112362254Y-134923455D01*
X112342958Y-134940175D01*
X112157397Y-135070105D01*
X111990305Y-135237197D01*
X111854765Y-135430769D01*
X111854764Y-135430771D01*
X111754898Y-135644935D01*
X111754894Y-135644944D01*
X111693738Y-135873186D01*
X111693736Y-135873196D01*
X111673141Y-136108599D01*
X111673141Y-136108600D01*
X111693736Y-136344003D01*
X111693738Y-136344013D01*
X111754894Y-136572255D01*
X111754896Y-136572259D01*
X111754897Y-136572263D01*
X111820413Y-136712762D01*
X111854765Y-136786430D01*
X111854767Y-136786434D01*
X111922621Y-136883339D01*
X111990305Y-136980001D01*
X112157399Y-137147095D01*
X112254184Y-137214865D01*
X112350965Y-137282632D01*
X112350967Y-137282633D01*
X112350970Y-137282635D01*
X112565137Y-137382503D01*
X112793392Y-137443663D01*
X112969834Y-137459100D01*
X113028799Y-137464259D01*
X113028800Y-137464259D01*
X113028801Y-137464259D01*
X113087766Y-137459100D01*
X113264208Y-137443663D01*
X113492463Y-137382503D01*
X113706630Y-137282635D01*
X113900201Y-137147095D01*
X114067295Y-136980001D01*
X114202835Y-136786430D01*
X114302703Y-136572263D01*
X114363863Y-136344008D01*
X114384459Y-136108600D01*
X114363863Y-135873192D01*
X114302703Y-135644937D01*
X114202835Y-135430771D01*
X114197225Y-135422758D01*
X114067294Y-135237197D01*
X113900202Y-135070106D01*
X113900196Y-135070101D01*
X113714642Y-134940175D01*
X113671017Y-134885598D01*
X113663823Y-134816100D01*
X113695346Y-134753745D01*
X113714642Y-134737025D01*
X113826854Y-134658453D01*
X113900201Y-134607095D01*
X114067295Y-134440001D01*
X114202835Y-134246430D01*
X114302703Y-134032263D01*
X114363863Y-133804008D01*
X114384459Y-133568600D01*
X114363863Y-133333192D01*
X114302703Y-133104937D01*
X114202835Y-132890771D01*
X114197225Y-132882758D01*
X114067294Y-132697197D01*
X113900202Y-132530106D01*
X113900196Y-132530101D01*
X113714642Y-132400175D01*
X113671017Y-132345598D01*
X113663823Y-132276100D01*
X113695346Y-132213745D01*
X113714642Y-132197025D01*
X113736826Y-132181491D01*
X113900201Y-132067095D01*
X114067295Y-131900001D01*
X114202835Y-131706430D01*
X114302703Y-131492263D01*
X114363863Y-131264008D01*
X114384459Y-131028600D01*
X114363863Y-130793192D01*
X114302703Y-130564937D01*
X114202835Y-130350771D01*
X114197225Y-130342758D01*
X114067294Y-130157197D01*
X113900202Y-129990106D01*
X113900196Y-129990101D01*
X113714642Y-129860175D01*
X113671017Y-129805598D01*
X113663823Y-129736100D01*
X113695346Y-129673745D01*
X113714642Y-129657025D01*
X113736826Y-129641491D01*
X113900201Y-129527095D01*
X114067295Y-129360001D01*
X114202835Y-129166430D01*
X114302703Y-128952263D01*
X114363863Y-128724008D01*
X114384459Y-128488600D01*
X114363863Y-128253192D01*
X114302703Y-128024937D01*
X114202835Y-127810771D01*
X114197531Y-127803195D01*
X114067294Y-127617197D01*
X113900202Y-127450106D01*
X113900196Y-127450101D01*
X113714642Y-127320175D01*
X113671017Y-127265598D01*
X113663823Y-127196100D01*
X113695346Y-127133745D01*
X113714642Y-127117025D01*
X113736826Y-127101491D01*
X113900201Y-126987095D01*
X114067295Y-126820001D01*
X114202835Y-126626430D01*
X114302703Y-126412263D01*
X114363863Y-126184008D01*
X114384459Y-125948600D01*
X114363863Y-125713192D01*
X114302703Y-125484937D01*
X114202835Y-125270771D01*
X114197224Y-125262758D01*
X114067296Y-125077200D01*
X114067293Y-125077197D01*
X113945367Y-124955271D01*
X113911884Y-124893951D01*
X113916868Y-124824259D01*
X113958739Y-124768325D01*
X113989715Y-124751410D01*
X114121131Y-124702396D01*
X114236346Y-124616146D01*
X114322596Y-124500931D01*
X114372891Y-124366083D01*
X114379300Y-124306473D01*
X114379299Y-122510728D01*
X114372891Y-122451117D01*
X114322596Y-122316269D01*
X114322595Y-122316268D01*
X114322593Y-122316264D01*
X114236347Y-122201055D01*
X114236344Y-122201052D01*
X114121135Y-122114806D01*
X114121128Y-122114802D01*
X113986282Y-122064508D01*
X113986283Y-122064508D01*
X113926683Y-122058101D01*
X113926681Y-122058100D01*
X113926673Y-122058100D01*
X113926664Y-122058100D01*
X112130929Y-122058100D01*
X112130923Y-122058101D01*
X112071316Y-122064508D01*
X111936471Y-122114802D01*
X111936464Y-122114806D01*
X111821255Y-122201052D01*
X111821252Y-122201055D01*
X111735006Y-122316264D01*
X111735002Y-122316271D01*
X111684708Y-122451117D01*
X111678301Y-122510716D01*
X111678301Y-122510723D01*
X111678300Y-122510735D01*
X111678300Y-124306470D01*
X111678301Y-124306476D01*
X111684708Y-124366083D01*
X111735002Y-124500928D01*
X111735006Y-124500935D01*
X111821252Y-124616144D01*
X111821255Y-124616147D01*
X111936464Y-124702393D01*
X111936471Y-124702397D01*
X112067881Y-124751410D01*
X112123815Y-124793281D01*
X112148232Y-124858745D01*
X112133380Y-124927018D01*
X112112230Y-124955273D01*
X111990303Y-125077200D01*
X111854765Y-125270769D01*
X111854764Y-125270771D01*
X111754898Y-125484935D01*
X111754894Y-125484944D01*
X111693738Y-125713186D01*
X111693736Y-125713196D01*
X111673141Y-125948599D01*
X109304459Y-125948599D01*
X109283863Y-125713192D01*
X109222703Y-125484937D01*
X109122835Y-125270771D01*
X109117225Y-125262758D01*
X108987294Y-125077197D01*
X108820202Y-124910106D01*
X108820196Y-124910101D01*
X108634642Y-124780175D01*
X108591017Y-124725598D01*
X108583823Y-124656100D01*
X108615346Y-124593745D01*
X108634642Y-124577025D01*
X108656826Y-124561491D01*
X108820201Y-124447095D01*
X108987295Y-124280001D01*
X109122835Y-124086430D01*
X109222703Y-123872263D01*
X109283863Y-123644008D01*
X109304459Y-123408600D01*
X109283863Y-123173192D01*
X109222703Y-122944937D01*
X109122835Y-122730771D01*
X109117225Y-122722758D01*
X108987294Y-122537197D01*
X108820202Y-122370106D01*
X108820196Y-122370101D01*
X108634642Y-122240175D01*
X108591017Y-122185598D01*
X108583823Y-122116100D01*
X108615346Y-122053745D01*
X108634642Y-122037025D01*
X108656826Y-122021491D01*
X108820201Y-121907095D01*
X108987295Y-121740001D01*
X109122835Y-121546430D01*
X109222703Y-121332263D01*
X109283863Y-121104008D01*
X109304459Y-120868600D01*
X109283863Y-120633192D01*
X109229494Y-120430283D01*
X109222705Y-120404944D01*
X109222704Y-120404943D01*
X109222703Y-120404937D01*
X109122835Y-120190771D01*
X109117225Y-120182758D01*
X108987294Y-119997197D01*
X108820202Y-119830106D01*
X108820196Y-119830101D01*
X108634642Y-119700175D01*
X108591017Y-119645598D01*
X108583823Y-119576100D01*
X108615346Y-119513745D01*
X108634642Y-119497025D01*
X108656826Y-119481491D01*
X108820201Y-119367095D01*
X108987295Y-119200001D01*
X109122835Y-119006430D01*
X109222703Y-118792263D01*
X109283863Y-118564008D01*
X109304459Y-118328600D01*
X109283863Y-118093192D01*
X109222703Y-117864937D01*
X109122835Y-117650771D01*
X109117225Y-117642758D01*
X108987294Y-117457197D01*
X108820202Y-117290106D01*
X108820201Y-117290105D01*
X108634205Y-117159869D01*
X108590581Y-117105292D01*
X108583388Y-117035793D01*
X108614910Y-116973439D01*
X108634205Y-116956719D01*
X108819882Y-116826705D01*
X108986905Y-116659682D01*
X109122400Y-116466178D01*
X109222229Y-116252092D01*
X109222232Y-116252086D01*
X109279436Y-116038600D01*
X108381812Y-116038600D01*
X108414725Y-115981593D01*
X108448800Y-115854426D01*
X108448800Y-115722774D01*
X108414725Y-115595607D01*
X108381812Y-115538600D01*
X109279436Y-115538600D01*
X109279435Y-115538599D01*
X109222232Y-115325113D01*
X109222229Y-115325107D01*
X109122400Y-115111022D01*
X109122399Y-115111020D01*
X108986913Y-114917526D01*
X108986908Y-114917520D01*
X108819882Y-114750494D01*
X108633768Y-114620175D01*
X108590144Y-114565598D01*
X108582951Y-114496099D01*
X108614473Y-114433745D01*
X108633768Y-114417025D01*
X108819882Y-114286705D01*
X108986905Y-114119682D01*
X109122400Y-113926178D01*
X109222229Y-113712092D01*
X109222232Y-113712086D01*
X109279436Y-113498600D01*
X108381812Y-113498600D01*
X108414725Y-113441593D01*
X108448800Y-113314426D01*
X108448800Y-113182774D01*
X108414725Y-113055607D01*
X108381812Y-112998600D01*
X109279436Y-112998600D01*
X109279435Y-112998599D01*
X109222232Y-112785113D01*
X109222229Y-112785107D01*
X109122400Y-112571022D01*
X109122399Y-112571020D01*
X108986913Y-112377526D01*
X108986908Y-112377520D01*
X108819878Y-112210490D01*
X108634205Y-112080479D01*
X108590580Y-112025902D01*
X108583388Y-111956404D01*
X108614910Y-111894049D01*
X108634206Y-111877330D01*
X108634642Y-111877025D01*
X108820201Y-111747095D01*
X108987295Y-111580001D01*
X109122835Y-111386430D01*
X109222703Y-111172263D01*
X109283863Y-110944008D01*
X109304459Y-110708600D01*
X109283863Y-110473192D01*
X109222703Y-110244937D01*
X109122835Y-110030771D01*
X109117225Y-110022758D01*
X108987294Y-109837197D01*
X108820202Y-109670106D01*
X108820196Y-109670101D01*
X108634642Y-109540175D01*
X108591017Y-109485598D01*
X108583823Y-109416100D01*
X108615346Y-109353745D01*
X108634642Y-109337025D01*
X108656826Y-109321491D01*
X108820201Y-109207095D01*
X108987295Y-109040001D01*
X109122835Y-108846430D01*
X109222703Y-108632263D01*
X109283863Y-108404008D01*
X109304459Y-108168600D01*
X109283863Y-107933192D01*
X109222703Y-107704937D01*
X109122835Y-107490771D01*
X109117225Y-107482758D01*
X108987294Y-107297197D01*
X108820202Y-107130106D01*
X108820196Y-107130101D01*
X108634642Y-107000175D01*
X108591017Y-106945598D01*
X108583823Y-106876100D01*
X108615346Y-106813745D01*
X108634642Y-106797025D01*
X108656826Y-106781491D01*
X108820201Y-106667095D01*
X108987295Y-106500001D01*
X109122835Y-106306430D01*
X109222703Y-106092263D01*
X109283863Y-105864008D01*
X109304459Y-105628600D01*
X109283863Y-105393192D01*
X109222703Y-105164937D01*
X109122835Y-104950771D01*
X109117225Y-104942758D01*
X108987294Y-104757197D01*
X108820202Y-104590106D01*
X108820196Y-104590101D01*
X108634642Y-104460175D01*
X108591017Y-104405598D01*
X108583823Y-104336100D01*
X108615346Y-104273745D01*
X108634642Y-104257025D01*
X108656826Y-104241491D01*
X108820201Y-104127095D01*
X108987295Y-103960001D01*
X109122835Y-103766430D01*
X109222703Y-103552263D01*
X109283863Y-103324008D01*
X109304459Y-103088600D01*
X109304459Y-103088599D01*
X111673141Y-103088599D01*
X111673141Y-103088600D01*
X111693736Y-103324003D01*
X111693738Y-103324013D01*
X111754894Y-103552255D01*
X111754896Y-103552259D01*
X111754897Y-103552263D01*
X111758800Y-103560632D01*
X111854765Y-103766430D01*
X111854767Y-103766434D01*
X111963081Y-103921121D01*
X111990301Y-103959996D01*
X111990306Y-103960002D01*
X112157397Y-104127093D01*
X112157403Y-104127098D01*
X112342958Y-104257025D01*
X112386583Y-104311602D01*
X112393777Y-104381100D01*
X112362254Y-104443455D01*
X112342958Y-104460175D01*
X112157397Y-104590105D01*
X111990305Y-104757197D01*
X111854765Y-104950769D01*
X111854764Y-104950771D01*
X111754898Y-105164935D01*
X111754894Y-105164944D01*
X111693738Y-105393186D01*
X111693736Y-105393196D01*
X111673141Y-105628599D01*
X111673141Y-105628600D01*
X111693736Y-105864003D01*
X111693738Y-105864013D01*
X111754894Y-106092255D01*
X111754896Y-106092259D01*
X111754897Y-106092263D01*
X111758800Y-106100632D01*
X111854765Y-106306430D01*
X111854767Y-106306434D01*
X111963081Y-106461121D01*
X111990301Y-106499996D01*
X111990306Y-106500002D01*
X112157397Y-106667093D01*
X112157403Y-106667098D01*
X112342958Y-106797025D01*
X112386583Y-106851602D01*
X112393777Y-106921100D01*
X112362254Y-106983455D01*
X112342958Y-107000175D01*
X112157397Y-107130105D01*
X111990305Y-107297197D01*
X111854765Y-107490769D01*
X111854764Y-107490771D01*
X111754898Y-107704935D01*
X111754894Y-107704944D01*
X111693738Y-107933186D01*
X111693736Y-107933196D01*
X111673141Y-108168599D01*
X111673141Y-108168600D01*
X111693736Y-108404003D01*
X111693738Y-108404013D01*
X111754894Y-108632255D01*
X111754896Y-108632259D01*
X111754897Y-108632263D01*
X111758800Y-108640632D01*
X111854765Y-108846430D01*
X111854767Y-108846434D01*
X111963081Y-109001121D01*
X111990301Y-109039996D01*
X111990306Y-109040002D01*
X112157397Y-109207093D01*
X112157403Y-109207098D01*
X112342958Y-109337025D01*
X112386583Y-109391602D01*
X112393777Y-109461100D01*
X112362254Y-109523455D01*
X112342958Y-109540175D01*
X112157397Y-109670105D01*
X111990305Y-109837197D01*
X111854765Y-110030769D01*
X111854764Y-110030771D01*
X111754898Y-110244935D01*
X111754894Y-110244944D01*
X111693738Y-110473186D01*
X111693736Y-110473196D01*
X111673141Y-110708599D01*
X111673141Y-110708600D01*
X111693736Y-110944003D01*
X111693738Y-110944013D01*
X111754894Y-111172255D01*
X111754896Y-111172259D01*
X111754897Y-111172263D01*
X111758800Y-111180632D01*
X111854765Y-111386430D01*
X111854767Y-111386434D01*
X111963081Y-111541121D01*
X111990305Y-111580001D01*
X112157399Y-111747095D01*
X112324239Y-111863918D01*
X112343394Y-111877330D01*
X112387019Y-111931907D01*
X112394213Y-112001405D01*
X112362690Y-112063760D01*
X112343395Y-112080480D01*
X112157722Y-112210490D01*
X112157720Y-112210491D01*
X111990691Y-112377520D01*
X111990686Y-112377526D01*
X111855200Y-112571020D01*
X111855199Y-112571022D01*
X111755370Y-112785107D01*
X111755367Y-112785113D01*
X111698164Y-112998599D01*
X111698164Y-112998600D01*
X112595788Y-112998600D01*
X112562875Y-113055607D01*
X112528800Y-113182774D01*
X112528800Y-113314426D01*
X112562875Y-113441593D01*
X112595788Y-113498600D01*
X111698164Y-113498600D01*
X111755367Y-113712086D01*
X111755370Y-113712092D01*
X111855199Y-113926178D01*
X111990694Y-114119682D01*
X112157717Y-114286705D01*
X112343831Y-114417025D01*
X112387456Y-114471603D01*
X112394648Y-114541101D01*
X112363126Y-114603456D01*
X112343831Y-114620175D01*
X112157722Y-114750490D01*
X112157720Y-114750491D01*
X111990691Y-114917520D01*
X111990686Y-114917526D01*
X111855200Y-115111020D01*
X111855199Y-115111022D01*
X111755370Y-115325107D01*
X111755367Y-115325113D01*
X111698164Y-115538599D01*
X111698164Y-115538600D01*
X112595788Y-115538600D01*
X112562875Y-115595607D01*
X112528800Y-115722774D01*
X112528800Y-115854426D01*
X112562875Y-115981593D01*
X112595788Y-116038600D01*
X111698164Y-116038600D01*
X111755367Y-116252086D01*
X111755370Y-116252092D01*
X111855199Y-116466178D01*
X111990694Y-116659682D01*
X112157717Y-116826705D01*
X112343395Y-116956719D01*
X112387019Y-117011296D01*
X112394212Y-117080795D01*
X112362690Y-117143149D01*
X112343395Y-117159869D01*
X112157394Y-117290108D01*
X111990305Y-117457197D01*
X111854765Y-117650769D01*
X111854764Y-117650771D01*
X111754898Y-117864935D01*
X111754894Y-117864944D01*
X111693738Y-118093186D01*
X111693736Y-118093196D01*
X111673141Y-118328599D01*
X111673141Y-118328600D01*
X111693736Y-118564003D01*
X111693738Y-118564013D01*
X111754894Y-118792255D01*
X111754896Y-118792259D01*
X111754897Y-118792263D01*
X111758800Y-118800632D01*
X111854765Y-119006430D01*
X111854767Y-119006434D01*
X111963081Y-119161121D01*
X111990305Y-119200001D01*
X112157399Y-119367095D01*
X112254184Y-119434865D01*
X112350965Y-119502632D01*
X112350967Y-119502633D01*
X112350970Y-119502635D01*
X112565137Y-119602503D01*
X112793392Y-119663663D01*
X112981718Y-119680139D01*
X113028799Y-119684259D01*
X113028800Y-119684259D01*
X113028801Y-119684259D01*
X113068034Y-119680826D01*
X113264208Y-119663663D01*
X113492463Y-119602503D01*
X113706630Y-119502635D01*
X113900201Y-119367095D01*
X114067295Y-119200001D01*
X114202835Y-119006430D01*
X114302703Y-118792263D01*
X114363863Y-118564008D01*
X114384459Y-118328600D01*
X114363863Y-118093192D01*
X114302703Y-117864937D01*
X114202835Y-117650771D01*
X114197225Y-117642758D01*
X114067294Y-117457197D01*
X113900202Y-117290106D01*
X113900201Y-117290105D01*
X113714205Y-117159869D01*
X113670581Y-117105292D01*
X113663388Y-117035793D01*
X113685325Y-116992399D01*
X119116541Y-116992399D01*
X119116541Y-116992400D01*
X119137136Y-117227803D01*
X119137138Y-117227813D01*
X119198294Y-117456055D01*
X119198296Y-117456059D01*
X119198297Y-117456063D01*
X119198826Y-117457197D01*
X119298165Y-117670230D01*
X119298167Y-117670234D01*
X119406481Y-117824921D01*
X119433701Y-117863796D01*
X119433706Y-117863802D01*
X119555630Y-117985726D01*
X119589115Y-118047049D01*
X119584131Y-118116741D01*
X119542259Y-118172674D01*
X119511283Y-118189589D01*
X119379869Y-118238603D01*
X119379864Y-118238606D01*
X119264655Y-118324852D01*
X119264652Y-118324855D01*
X119178406Y-118440064D01*
X119178402Y-118440071D01*
X119128108Y-118574917D01*
X119121701Y-118634516D01*
X119121701Y-118634523D01*
X119121700Y-118634535D01*
X119121700Y-120430270D01*
X119121701Y-120430276D01*
X119128108Y-120489883D01*
X119178402Y-120624728D01*
X119178406Y-120624735D01*
X119264652Y-120739944D01*
X119264655Y-120739947D01*
X119379864Y-120826193D01*
X119379871Y-120826197D01*
X119514717Y-120876491D01*
X119514716Y-120876491D01*
X119521644Y-120877235D01*
X119574327Y-120882900D01*
X121370072Y-120882899D01*
X121429683Y-120876491D01*
X121564531Y-120826196D01*
X121679746Y-120739946D01*
X121765996Y-120624731D01*
X121816291Y-120489883D01*
X121822700Y-120430273D01*
X121822699Y-118634528D01*
X121816291Y-118574917D01*
X121812222Y-118564008D01*
X121765997Y-118440071D01*
X121765993Y-118440064D01*
X121682550Y-118328599D01*
X159933141Y-118328599D01*
X159933141Y-118328600D01*
X159953736Y-118564003D01*
X159953738Y-118564013D01*
X160014894Y-118792255D01*
X160014896Y-118792259D01*
X160014897Y-118792263D01*
X160018800Y-118800632D01*
X160114765Y-119006430D01*
X160114767Y-119006434D01*
X160223081Y-119161121D01*
X160250301Y-119199996D01*
X160250306Y-119200002D01*
X160417397Y-119367093D01*
X160417403Y-119367098D01*
X160602958Y-119497025D01*
X160646583Y-119551602D01*
X160653777Y-119621100D01*
X160622254Y-119683455D01*
X160602958Y-119700175D01*
X160417397Y-119830105D01*
X160250305Y-119997197D01*
X160114765Y-120190769D01*
X160114764Y-120190771D01*
X160014898Y-120404935D01*
X160014894Y-120404944D01*
X159953738Y-120633186D01*
X159953736Y-120633196D01*
X159933141Y-120868599D01*
X159933141Y-120868600D01*
X159953736Y-121104003D01*
X159953738Y-121104013D01*
X160014894Y-121332255D01*
X160014896Y-121332259D01*
X160014897Y-121332263D01*
X160018800Y-121340632D01*
X160114765Y-121546430D01*
X160114767Y-121546434D01*
X160223081Y-121701121D01*
X160250301Y-121739996D01*
X160250306Y-121740002D01*
X160417397Y-121907093D01*
X160417403Y-121907098D01*
X160602958Y-122037025D01*
X160646583Y-122091602D01*
X160653777Y-122161100D01*
X160622254Y-122223455D01*
X160602958Y-122240175D01*
X160417397Y-122370105D01*
X160250305Y-122537197D01*
X160114765Y-122730769D01*
X160114764Y-122730771D01*
X160014898Y-122944935D01*
X160014894Y-122944944D01*
X159953738Y-123173186D01*
X159953736Y-123173196D01*
X159933141Y-123408599D01*
X159933141Y-123408600D01*
X159953736Y-123644003D01*
X159953738Y-123644013D01*
X160014894Y-123872255D01*
X160014896Y-123872259D01*
X160014897Y-123872263D01*
X160018800Y-123880632D01*
X160114765Y-124086430D01*
X160114767Y-124086434D01*
X160223081Y-124241121D01*
X160250301Y-124279996D01*
X160250306Y-124280002D01*
X160417397Y-124447093D01*
X160417403Y-124447098D01*
X160602958Y-124577025D01*
X160646583Y-124631602D01*
X160653777Y-124701100D01*
X160622254Y-124763455D01*
X160602958Y-124780175D01*
X160417397Y-124910105D01*
X160250305Y-125077197D01*
X160114765Y-125270769D01*
X160114764Y-125270771D01*
X160014898Y-125484935D01*
X160014894Y-125484944D01*
X159953738Y-125713186D01*
X159953736Y-125713196D01*
X159933141Y-125948599D01*
X159933141Y-125948600D01*
X159953736Y-126184003D01*
X159953738Y-126184013D01*
X160014894Y-126412255D01*
X160014896Y-126412259D01*
X160014897Y-126412263D01*
X160018800Y-126420632D01*
X160114765Y-126626430D01*
X160114767Y-126626434D01*
X160223081Y-126781121D01*
X160250301Y-126819996D01*
X160250306Y-126820002D01*
X160417397Y-126987093D01*
X160417403Y-126987098D01*
X160602958Y-127117025D01*
X160646583Y-127171602D01*
X160653777Y-127241100D01*
X160622254Y-127303455D01*
X160602958Y-127320175D01*
X160417397Y-127450105D01*
X160250305Y-127617197D01*
X160114765Y-127810769D01*
X160114764Y-127810771D01*
X160014898Y-128024935D01*
X160014894Y-128024944D01*
X159953738Y-128253186D01*
X159953736Y-128253196D01*
X159933141Y-128488599D01*
X159933141Y-128488600D01*
X159953736Y-128724003D01*
X159953738Y-128724013D01*
X160014894Y-128952255D01*
X160014896Y-128952259D01*
X160014897Y-128952263D01*
X160094804Y-129123623D01*
X160114765Y-129166430D01*
X160114767Y-129166434D01*
X160223081Y-129321121D01*
X160250301Y-129359996D01*
X160250306Y-129360002D01*
X160417397Y-129527093D01*
X160417403Y-129527098D01*
X160602958Y-129657025D01*
X160646583Y-129711602D01*
X160653777Y-129781100D01*
X160622254Y-129843455D01*
X160602958Y-129860175D01*
X160417397Y-129990105D01*
X160250305Y-130157197D01*
X160114765Y-130350769D01*
X160114764Y-130350771D01*
X160014898Y-130564935D01*
X160014894Y-130564944D01*
X159953738Y-130793186D01*
X159953736Y-130793196D01*
X159933141Y-131028599D01*
X159933141Y-131028600D01*
X159953736Y-131264003D01*
X159953738Y-131264013D01*
X160014894Y-131492255D01*
X160014896Y-131492259D01*
X160014897Y-131492263D01*
X160018800Y-131500632D01*
X160114765Y-131706430D01*
X160114767Y-131706434D01*
X160223081Y-131861121D01*
X160250301Y-131899996D01*
X160250306Y-131900002D01*
X160417397Y-132067093D01*
X160417403Y-132067098D01*
X160602958Y-132197025D01*
X160646583Y-132251602D01*
X160653777Y-132321100D01*
X160622254Y-132383455D01*
X160602958Y-132400175D01*
X160417397Y-132530105D01*
X160250305Y-132697197D01*
X160114765Y-132890769D01*
X160114764Y-132890771D01*
X160014898Y-133104935D01*
X160014894Y-133104944D01*
X159953738Y-133333186D01*
X159953736Y-133333196D01*
X159933141Y-133568599D01*
X159933141Y-133568600D01*
X159953736Y-133804003D01*
X159953738Y-133804013D01*
X160014894Y-134032255D01*
X160014896Y-134032259D01*
X160014897Y-134032263D01*
X160018800Y-134040632D01*
X160114765Y-134246430D01*
X160114767Y-134246434D01*
X160223081Y-134401121D01*
X160250301Y-134439996D01*
X160250306Y-134440002D01*
X160372230Y-134561926D01*
X160405715Y-134623249D01*
X160400731Y-134692941D01*
X160358859Y-134748874D01*
X160327883Y-134765789D01*
X160196469Y-134814803D01*
X160196464Y-134814806D01*
X160081255Y-134901052D01*
X160081252Y-134901055D01*
X159995006Y-135016264D01*
X159995002Y-135016271D01*
X159944708Y-135151117D01*
X159938301Y-135210716D01*
X159938301Y-135210723D01*
X159938300Y-135210735D01*
X159938300Y-137006470D01*
X159938301Y-137006476D01*
X159944708Y-137066083D01*
X159995002Y-137200928D01*
X159995006Y-137200935D01*
X160081252Y-137316144D01*
X160081255Y-137316147D01*
X160196464Y-137402393D01*
X160196471Y-137402397D01*
X160331317Y-137452691D01*
X160331316Y-137452691D01*
X160338244Y-137453435D01*
X160390927Y-137459100D01*
X162186672Y-137459099D01*
X162246283Y-137452691D01*
X162381131Y-137402396D01*
X162496346Y-137316146D01*
X162582596Y-137200931D01*
X162632891Y-137066083D01*
X162639300Y-137006473D01*
X162639299Y-135210728D01*
X162632891Y-135151117D01*
X162582596Y-135016269D01*
X162582595Y-135016268D01*
X162582593Y-135016264D01*
X162496347Y-134901055D01*
X162496344Y-134901052D01*
X162381135Y-134814806D01*
X162381128Y-134814802D01*
X162249717Y-134765789D01*
X162193783Y-134723918D01*
X162169366Y-134658453D01*
X162184218Y-134590180D01*
X162205363Y-134561932D01*
X162327295Y-134440001D01*
X162462835Y-134246430D01*
X162562703Y-134032263D01*
X162623863Y-133804008D01*
X162644459Y-133568600D01*
X162623863Y-133333192D01*
X162562703Y-133104937D01*
X162462835Y-132890771D01*
X162457225Y-132882758D01*
X162327294Y-132697197D01*
X162160202Y-132530106D01*
X162160196Y-132530101D01*
X161974642Y-132400175D01*
X161931017Y-132345598D01*
X161923823Y-132276100D01*
X161955346Y-132213745D01*
X161974642Y-132197025D01*
X161996826Y-132181491D01*
X162160201Y-132067095D01*
X162327295Y-131900001D01*
X162462835Y-131706430D01*
X162562703Y-131492263D01*
X162623863Y-131264008D01*
X162644459Y-131028600D01*
X162623863Y-130793192D01*
X162562703Y-130564937D01*
X162462835Y-130350771D01*
X162457225Y-130342758D01*
X162327294Y-130157197D01*
X162160202Y-129990106D01*
X162160196Y-129990101D01*
X161974642Y-129860175D01*
X161931017Y-129805598D01*
X161923823Y-129736100D01*
X161955346Y-129673745D01*
X161974642Y-129657025D01*
X161996826Y-129641491D01*
X162160201Y-129527095D01*
X162327295Y-129360001D01*
X162462835Y-129166430D01*
X162562703Y-128952263D01*
X162623863Y-128724008D01*
X162644459Y-128488600D01*
X162623863Y-128253192D01*
X162562703Y-128024937D01*
X162462835Y-127810771D01*
X162457531Y-127803195D01*
X162327294Y-127617197D01*
X162160202Y-127450106D01*
X162160196Y-127450101D01*
X161974642Y-127320175D01*
X161931017Y-127265598D01*
X161923823Y-127196100D01*
X161955346Y-127133745D01*
X161974642Y-127117025D01*
X161996826Y-127101491D01*
X162160201Y-126987095D01*
X162327295Y-126820001D01*
X162462835Y-126626430D01*
X162562703Y-126412263D01*
X162623863Y-126184008D01*
X162644459Y-125948600D01*
X162623863Y-125713192D01*
X162562703Y-125484937D01*
X162462835Y-125270771D01*
X162457225Y-125262758D01*
X162327294Y-125077197D01*
X162160202Y-124910106D01*
X162160196Y-124910101D01*
X161974642Y-124780175D01*
X161931017Y-124725598D01*
X161923823Y-124656100D01*
X161955346Y-124593745D01*
X161974642Y-124577025D01*
X161996826Y-124561491D01*
X162160201Y-124447095D01*
X162327295Y-124280001D01*
X162462835Y-124086430D01*
X162562703Y-123872263D01*
X162623863Y-123644008D01*
X162644459Y-123408600D01*
X162623863Y-123173192D01*
X162562703Y-122944937D01*
X162462835Y-122730771D01*
X162457225Y-122722758D01*
X162327294Y-122537197D01*
X162160202Y-122370106D01*
X162160196Y-122370101D01*
X161974642Y-122240175D01*
X161931017Y-122185598D01*
X161923823Y-122116100D01*
X161955346Y-122053745D01*
X161974642Y-122037025D01*
X161996826Y-122021491D01*
X162160201Y-121907095D01*
X162327295Y-121740001D01*
X162462835Y-121546430D01*
X162562703Y-121332263D01*
X162623863Y-121104008D01*
X162644459Y-120868600D01*
X162623863Y-120633192D01*
X162569494Y-120430283D01*
X162562705Y-120404944D01*
X162562704Y-120404943D01*
X162562703Y-120404937D01*
X162462835Y-120190771D01*
X162457225Y-120182758D01*
X162327294Y-119997197D01*
X162160202Y-119830106D01*
X162160196Y-119830101D01*
X161974642Y-119700175D01*
X161931017Y-119645598D01*
X161923823Y-119576100D01*
X161955346Y-119513745D01*
X161974642Y-119497025D01*
X161996826Y-119481491D01*
X162160201Y-119367095D01*
X162327295Y-119200001D01*
X162462835Y-119006430D01*
X162562703Y-118792263D01*
X162623863Y-118564008D01*
X162644459Y-118328600D01*
X162623863Y-118093192D01*
X162562703Y-117864937D01*
X162462835Y-117650771D01*
X162457225Y-117642758D01*
X162327294Y-117457197D01*
X162160202Y-117290106D01*
X162160195Y-117290101D01*
X161966634Y-117154567D01*
X161966630Y-117154565D01*
X161966628Y-117154564D01*
X161752463Y-117054697D01*
X161752459Y-117054696D01*
X161752455Y-117054694D01*
X161524213Y-116993538D01*
X161524203Y-116993536D01*
X161288801Y-116972941D01*
X161288799Y-116972941D01*
X161053396Y-116993536D01*
X161053386Y-116993538D01*
X160825144Y-117054694D01*
X160825135Y-117054698D01*
X160610971Y-117154564D01*
X160610969Y-117154565D01*
X160417397Y-117290105D01*
X160250305Y-117457197D01*
X160114765Y-117650769D01*
X160114764Y-117650771D01*
X160014898Y-117864935D01*
X160014894Y-117864944D01*
X159953738Y-118093186D01*
X159953736Y-118093196D01*
X159933141Y-118328599D01*
X121682550Y-118328599D01*
X121679747Y-118324855D01*
X121679744Y-118324852D01*
X121564535Y-118238606D01*
X121564528Y-118238602D01*
X121433117Y-118189589D01*
X121377183Y-118147718D01*
X121352766Y-118082253D01*
X121367618Y-118013980D01*
X121388763Y-117985732D01*
X121510695Y-117863801D01*
X121646235Y-117670230D01*
X121746103Y-117456063D01*
X121807263Y-117227808D01*
X121827859Y-116992400D01*
X121807263Y-116756992D01*
X121746103Y-116528737D01*
X121646235Y-116314571D01*
X121602608Y-116252264D01*
X121510694Y-116120997D01*
X121343602Y-115953906D01*
X121343595Y-115953901D01*
X121150034Y-115818367D01*
X121150030Y-115818365D01*
X121086199Y-115788600D01*
X120935863Y-115718497D01*
X120935859Y-115718496D01*
X120935855Y-115718494D01*
X120707613Y-115657338D01*
X120707603Y-115657336D01*
X120472201Y-115636741D01*
X120472199Y-115636741D01*
X120236796Y-115657336D01*
X120236786Y-115657338D01*
X120008544Y-115718494D01*
X120008535Y-115718498D01*
X119794371Y-115818364D01*
X119794369Y-115818365D01*
X119600797Y-115953905D01*
X119433705Y-116120997D01*
X119298165Y-116314569D01*
X119298164Y-116314571D01*
X119198298Y-116528735D01*
X119198294Y-116528744D01*
X119137138Y-116756986D01*
X119137136Y-116756996D01*
X119116541Y-116992399D01*
X113685325Y-116992399D01*
X113694910Y-116973439D01*
X113714205Y-116956719D01*
X113899882Y-116826705D01*
X114066905Y-116659682D01*
X114202400Y-116466178D01*
X114302229Y-116252092D01*
X114302232Y-116252086D01*
X114359436Y-116038600D01*
X113461812Y-116038600D01*
X113494725Y-115981593D01*
X113528800Y-115854426D01*
X113528800Y-115722774D01*
X113494725Y-115595607D01*
X113461812Y-115538600D01*
X114359436Y-115538600D01*
X114359435Y-115538599D01*
X114302232Y-115325113D01*
X114302229Y-115325107D01*
X114202400Y-115111022D01*
X114202399Y-115111020D01*
X114066913Y-114917526D01*
X114066908Y-114917520D01*
X113899882Y-114750494D01*
X113713768Y-114620175D01*
X113670144Y-114565598D01*
X113662951Y-114496099D01*
X113694473Y-114433745D01*
X113713768Y-114417025D01*
X113899882Y-114286705D01*
X114066905Y-114119682D01*
X114202400Y-113926178D01*
X114302229Y-113712092D01*
X114302232Y-113712086D01*
X114359436Y-113498600D01*
X113461812Y-113498600D01*
X113494725Y-113441593D01*
X113528800Y-113314426D01*
X113528800Y-113182774D01*
X113494725Y-113055607D01*
X113461812Y-112998600D01*
X114359436Y-112998600D01*
X114359435Y-112998599D01*
X114302232Y-112785113D01*
X114302229Y-112785107D01*
X114202400Y-112571022D01*
X114202399Y-112571020D01*
X114066913Y-112377526D01*
X114066908Y-112377520D01*
X113899878Y-112210490D01*
X113714205Y-112080479D01*
X113670580Y-112025902D01*
X113663388Y-111956404D01*
X113694910Y-111894049D01*
X113714206Y-111877330D01*
X113714642Y-111877025D01*
X113900201Y-111747095D01*
X114067295Y-111580001D01*
X114202835Y-111386430D01*
X114302703Y-111172263D01*
X114363863Y-110944008D01*
X114384459Y-110708600D01*
X114363863Y-110473192D01*
X114302703Y-110244937D01*
X114202835Y-110030771D01*
X114197225Y-110022758D01*
X114067294Y-109837197D01*
X113900202Y-109670106D01*
X113900196Y-109670101D01*
X113714642Y-109540175D01*
X113671017Y-109485598D01*
X113663823Y-109416100D01*
X113695346Y-109353745D01*
X113714642Y-109337025D01*
X113736826Y-109321491D01*
X113900201Y-109207095D01*
X114067295Y-109040001D01*
X114202835Y-108846430D01*
X114302703Y-108632263D01*
X114363863Y-108404008D01*
X114384459Y-108168600D01*
X114363863Y-107933192D01*
X114302703Y-107704937D01*
X114202835Y-107490771D01*
X114197225Y-107482758D01*
X114067294Y-107297197D01*
X113900202Y-107130106D01*
X113900196Y-107130101D01*
X113714642Y-107000175D01*
X113671017Y-106945598D01*
X113663823Y-106876100D01*
X113695346Y-106813745D01*
X113714642Y-106797025D01*
X113736826Y-106781491D01*
X113900201Y-106667095D01*
X114067295Y-106500001D01*
X114202835Y-106306430D01*
X114302703Y-106092263D01*
X114363863Y-105864008D01*
X114384459Y-105628600D01*
X114363863Y-105393192D01*
X114302703Y-105164937D01*
X114202835Y-104950771D01*
X114197225Y-104942758D01*
X114067294Y-104757197D01*
X113900202Y-104590106D01*
X113900196Y-104590101D01*
X113714642Y-104460175D01*
X113671017Y-104405598D01*
X113663823Y-104336100D01*
X113695346Y-104273745D01*
X113714642Y-104257025D01*
X113736826Y-104241491D01*
X113900201Y-104127095D01*
X114067295Y-103960001D01*
X114202835Y-103766430D01*
X114302703Y-103552263D01*
X114363863Y-103324008D01*
X114384459Y-103088600D01*
X114363863Y-102853192D01*
X114302703Y-102624937D01*
X114202835Y-102410771D01*
X114197224Y-102402758D01*
X114067296Y-102217200D01*
X114067293Y-102217197D01*
X113945367Y-102095271D01*
X113911884Y-102033951D01*
X113916868Y-101964259D01*
X113958739Y-101908325D01*
X113989715Y-101891410D01*
X114121131Y-101842396D01*
X114236346Y-101756146D01*
X114322596Y-101640931D01*
X114372891Y-101506083D01*
X114379300Y-101446473D01*
X114379299Y-99650728D01*
X114372891Y-99591117D01*
X114352387Y-99536144D01*
X114322597Y-99456271D01*
X114322593Y-99456264D01*
X114236347Y-99341055D01*
X114236344Y-99341052D01*
X114121135Y-99254806D01*
X114121128Y-99254802D01*
X113986282Y-99204508D01*
X113986283Y-99204508D01*
X113926683Y-99198101D01*
X113926681Y-99198100D01*
X113926673Y-99198100D01*
X113926664Y-99198100D01*
X112130929Y-99198100D01*
X112130923Y-99198101D01*
X112071316Y-99204508D01*
X111936471Y-99254802D01*
X111936464Y-99254806D01*
X111821255Y-99341052D01*
X111821252Y-99341055D01*
X111735006Y-99456264D01*
X111735002Y-99456271D01*
X111684708Y-99591117D01*
X111678301Y-99650716D01*
X111678301Y-99650723D01*
X111678300Y-99650735D01*
X111678300Y-101446470D01*
X111678301Y-101446476D01*
X111684708Y-101506083D01*
X111735002Y-101640928D01*
X111735006Y-101640935D01*
X111821252Y-101756144D01*
X111821255Y-101756147D01*
X111936464Y-101842393D01*
X111936471Y-101842397D01*
X112067881Y-101891410D01*
X112123815Y-101933281D01*
X112148232Y-101998745D01*
X112133380Y-102067018D01*
X112112230Y-102095273D01*
X111990303Y-102217200D01*
X111854765Y-102410769D01*
X111854764Y-102410771D01*
X111754898Y-102624935D01*
X111754894Y-102624944D01*
X111693738Y-102853186D01*
X111693736Y-102853196D01*
X111673141Y-103088599D01*
X109304459Y-103088599D01*
X109283863Y-102853192D01*
X109222703Y-102624937D01*
X109122835Y-102410771D01*
X109117225Y-102402758D01*
X108987294Y-102217197D01*
X108820202Y-102050106D01*
X108820196Y-102050101D01*
X108634642Y-101920175D01*
X108591017Y-101865598D01*
X108583823Y-101796100D01*
X108615346Y-101733745D01*
X108634642Y-101717025D01*
X108656826Y-101701491D01*
X108820201Y-101587095D01*
X108987295Y-101420001D01*
X109122835Y-101226430D01*
X109222703Y-101012263D01*
X109283863Y-100784008D01*
X109304459Y-100548600D01*
X109283863Y-100313192D01*
X109222703Y-100084937D01*
X109122835Y-99870771D01*
X109117531Y-99863195D01*
X108987294Y-99677197D01*
X108820202Y-99510106D01*
X108820201Y-99510105D01*
X108652644Y-99392780D01*
X108634205Y-99379869D01*
X108590581Y-99325292D01*
X108583388Y-99255793D01*
X108614910Y-99193439D01*
X108634205Y-99176719D01*
X108819882Y-99046705D01*
X108986905Y-98879682D01*
X109122400Y-98686178D01*
X109222229Y-98472092D01*
X109222232Y-98472086D01*
X109279436Y-98258600D01*
X108381812Y-98258600D01*
X108414725Y-98201593D01*
X108448800Y-98074426D01*
X108448800Y-97942774D01*
X108414725Y-97815607D01*
X108381812Y-97758600D01*
X109279436Y-97758600D01*
X109279435Y-97758599D01*
X109222232Y-97545113D01*
X109222229Y-97545107D01*
X109182449Y-97459799D01*
X120549341Y-97459799D01*
X120549341Y-97459800D01*
X120569936Y-97695203D01*
X120569938Y-97695213D01*
X120631094Y-97923455D01*
X120631096Y-97923459D01*
X120631097Y-97923463D01*
X120711004Y-98094823D01*
X120730965Y-98137630D01*
X120730967Y-98137634D01*
X120805455Y-98244013D01*
X120866501Y-98331196D01*
X120866506Y-98331202D01*
X121033597Y-98498293D01*
X121033603Y-98498298D01*
X121219158Y-98628225D01*
X121262783Y-98682802D01*
X121269977Y-98752300D01*
X121238454Y-98814655D01*
X121219158Y-98831375D01*
X121033597Y-98961305D01*
X120866505Y-99128397D01*
X120730965Y-99321969D01*
X120730964Y-99321971D01*
X120631098Y-99536135D01*
X120631094Y-99536144D01*
X120569938Y-99764386D01*
X120569936Y-99764396D01*
X120549341Y-99999799D01*
X120549341Y-99999800D01*
X120569936Y-100235203D01*
X120569938Y-100235213D01*
X120631094Y-100463455D01*
X120631096Y-100463459D01*
X120631097Y-100463463D01*
X120702514Y-100616617D01*
X120730965Y-100677630D01*
X120730967Y-100677634D01*
X120815669Y-100798600D01*
X120866505Y-100871201D01*
X121033599Y-101038295D01*
X121130384Y-101106065D01*
X121227165Y-101173832D01*
X121227167Y-101173833D01*
X121227170Y-101173835D01*
X121441337Y-101273703D01*
X121669592Y-101334863D01*
X121857918Y-101351339D01*
X121904999Y-101355459D01*
X121905000Y-101355459D01*
X121905001Y-101355459D01*
X121944234Y-101352026D01*
X122140408Y-101334863D01*
X122368663Y-101273703D01*
X122582830Y-101173835D01*
X122776401Y-101038295D01*
X122943495Y-100871201D01*
X123073425Y-100685642D01*
X123128002Y-100642017D01*
X123197500Y-100634823D01*
X123259855Y-100666346D01*
X123276575Y-100685642D01*
X123406500Y-100871195D01*
X123406505Y-100871201D01*
X123573599Y-101038295D01*
X123670384Y-101106065D01*
X123767165Y-101173832D01*
X123767167Y-101173833D01*
X123767170Y-101173835D01*
X123981337Y-101273703D01*
X124209592Y-101334863D01*
X124397918Y-101351339D01*
X124444999Y-101355459D01*
X124445000Y-101355459D01*
X124445001Y-101355459D01*
X124484234Y-101352026D01*
X124680408Y-101334863D01*
X124908663Y-101273703D01*
X125122830Y-101173835D01*
X125316401Y-101038295D01*
X125483495Y-100871201D01*
X125613425Y-100685642D01*
X125668002Y-100642017D01*
X125737500Y-100634823D01*
X125799855Y-100666346D01*
X125816575Y-100685642D01*
X125946500Y-100871195D01*
X125946505Y-100871201D01*
X126113599Y-101038295D01*
X126210384Y-101106065D01*
X126307165Y-101173832D01*
X126307167Y-101173833D01*
X126307170Y-101173835D01*
X126521337Y-101273703D01*
X126749592Y-101334863D01*
X126937918Y-101351339D01*
X126984999Y-101355459D01*
X126985000Y-101355459D01*
X126985001Y-101355459D01*
X127024234Y-101352026D01*
X127220408Y-101334863D01*
X127448663Y-101273703D01*
X127662830Y-101173835D01*
X127856401Y-101038295D01*
X128023495Y-100871201D01*
X128159035Y-100677630D01*
X128258903Y-100463463D01*
X128320063Y-100235208D01*
X128340659Y-99999800D01*
X128320063Y-99764392D01*
X128258903Y-99536137D01*
X128159035Y-99321971D01*
X128153424Y-99313958D01*
X128023496Y-99128400D01*
X127971631Y-99076535D01*
X133802900Y-99076535D01*
X133802900Y-100872270D01*
X133802901Y-100872276D01*
X133809308Y-100931883D01*
X133859602Y-101066728D01*
X133859606Y-101066735D01*
X133945852Y-101181944D01*
X133945855Y-101181947D01*
X134061064Y-101268193D01*
X134061071Y-101268197D01*
X134195917Y-101318491D01*
X134195916Y-101318491D01*
X134202844Y-101319235D01*
X134255527Y-101324900D01*
X136051272Y-101324899D01*
X136110883Y-101318491D01*
X136245731Y-101268196D01*
X136360946Y-101181946D01*
X136447196Y-101066731D01*
X136496210Y-100935316D01*
X136538081Y-100879384D01*
X136603545Y-100854966D01*
X136671818Y-100869817D01*
X136700073Y-100890969D01*
X136821999Y-101012895D01*
X136918784Y-101080665D01*
X137015565Y-101148432D01*
X137015567Y-101148433D01*
X137015570Y-101148435D01*
X137229737Y-101248303D01*
X137457992Y-101309463D01*
X137634434Y-101324900D01*
X137693399Y-101330059D01*
X137693400Y-101330059D01*
X137693401Y-101330059D01*
X137752366Y-101324900D01*
X137928808Y-101309463D01*
X138157063Y-101248303D01*
X138371230Y-101148435D01*
X138564801Y-101012895D01*
X138731895Y-100845801D01*
X138867435Y-100652230D01*
X138967303Y-100438063D01*
X139028463Y-100209808D01*
X139049059Y-99974400D01*
X139028463Y-99738992D01*
X138967303Y-99510737D01*
X138867435Y-99296571D01*
X138861825Y-99288558D01*
X138731894Y-99102997D01*
X138705432Y-99076535D01*
X140559300Y-99076535D01*
X140559300Y-100872270D01*
X140559301Y-100872276D01*
X140565708Y-100931883D01*
X140616002Y-101066728D01*
X140616006Y-101066735D01*
X140702252Y-101181944D01*
X140702255Y-101181947D01*
X140817464Y-101268193D01*
X140817471Y-101268197D01*
X140952317Y-101318491D01*
X140952316Y-101318491D01*
X140959244Y-101319235D01*
X141011927Y-101324900D01*
X142807672Y-101324899D01*
X142867283Y-101318491D01*
X143002131Y-101268196D01*
X143117346Y-101181946D01*
X143203596Y-101066731D01*
X143252610Y-100935316D01*
X143294481Y-100879384D01*
X143359945Y-100854966D01*
X143428218Y-100869817D01*
X143456473Y-100890969D01*
X143578399Y-101012895D01*
X143675184Y-101080665D01*
X143771965Y-101148432D01*
X143771967Y-101148433D01*
X143771970Y-101148435D01*
X143986137Y-101248303D01*
X144214392Y-101309463D01*
X144390834Y-101324900D01*
X144449799Y-101330059D01*
X144449800Y-101330059D01*
X144449801Y-101330059D01*
X144508766Y-101324900D01*
X144685208Y-101309463D01*
X144913463Y-101248303D01*
X145127630Y-101148435D01*
X145321201Y-101012895D01*
X145488295Y-100845801D01*
X145618225Y-100660242D01*
X145672802Y-100616617D01*
X145742300Y-100609423D01*
X145804655Y-100640946D01*
X145821375Y-100660242D01*
X145951300Y-100845795D01*
X145951305Y-100845801D01*
X146118399Y-101012895D01*
X146215184Y-101080665D01*
X146311965Y-101148432D01*
X146311967Y-101148433D01*
X146311970Y-101148435D01*
X146526137Y-101248303D01*
X146754392Y-101309463D01*
X146930834Y-101324900D01*
X146989799Y-101330059D01*
X146989800Y-101330059D01*
X146989801Y-101330059D01*
X147048766Y-101324900D01*
X147225208Y-101309463D01*
X147453463Y-101248303D01*
X147667630Y-101148435D01*
X147861201Y-101012895D01*
X148028295Y-100845801D01*
X148163835Y-100652230D01*
X148263703Y-100438063D01*
X148324863Y-100209808D01*
X148345459Y-99974400D01*
X148324863Y-99738992D01*
X148263703Y-99510737D01*
X148163835Y-99296571D01*
X148158225Y-99288558D01*
X148028294Y-99102997D01*
X147861202Y-98935906D01*
X147861195Y-98935901D01*
X147667634Y-98800367D01*
X147667630Y-98800365D01*
X147667628Y-98800364D01*
X147453463Y-98700497D01*
X147453459Y-98700496D01*
X147453455Y-98700494D01*
X147225213Y-98639338D01*
X147225203Y-98639336D01*
X146989801Y-98618741D01*
X146989799Y-98618741D01*
X146754396Y-98639336D01*
X146754386Y-98639338D01*
X146526144Y-98700494D01*
X146526135Y-98700498D01*
X146311971Y-98800364D01*
X146311969Y-98800365D01*
X146118397Y-98935905D01*
X145951305Y-99102997D01*
X145821375Y-99288558D01*
X145766798Y-99332183D01*
X145697300Y-99339377D01*
X145634945Y-99307854D01*
X145618225Y-99288558D01*
X145488294Y-99102997D01*
X145321202Y-98935906D01*
X145321195Y-98935901D01*
X145127634Y-98800367D01*
X145127630Y-98800365D01*
X145127628Y-98800364D01*
X144913463Y-98700497D01*
X144913459Y-98700496D01*
X144913455Y-98700494D01*
X144685213Y-98639338D01*
X144685203Y-98639336D01*
X144449801Y-98618741D01*
X144449799Y-98618741D01*
X144214396Y-98639336D01*
X144214386Y-98639338D01*
X143986144Y-98700494D01*
X143986135Y-98700498D01*
X143771971Y-98800364D01*
X143771969Y-98800365D01*
X143578400Y-98935903D01*
X143456473Y-99057830D01*
X143395150Y-99091314D01*
X143325458Y-99086330D01*
X143269525Y-99044458D01*
X143252610Y-99013481D01*
X143203597Y-98882071D01*
X143203593Y-98882064D01*
X143117347Y-98766855D01*
X143117344Y-98766852D01*
X143002135Y-98680606D01*
X143002128Y-98680602D01*
X142867282Y-98630308D01*
X142867283Y-98630308D01*
X142807683Y-98623901D01*
X142807681Y-98623900D01*
X142807673Y-98623900D01*
X142807664Y-98623900D01*
X141011929Y-98623900D01*
X141011923Y-98623901D01*
X140952316Y-98630308D01*
X140817471Y-98680602D01*
X140817464Y-98680606D01*
X140702255Y-98766852D01*
X140702252Y-98766855D01*
X140616006Y-98882064D01*
X140616002Y-98882071D01*
X140565708Y-99016917D01*
X140559301Y-99076516D01*
X140559300Y-99076535D01*
X138705432Y-99076535D01*
X138564802Y-98935906D01*
X138564795Y-98935901D01*
X138371234Y-98800367D01*
X138371230Y-98800365D01*
X138371228Y-98800364D01*
X138157063Y-98700497D01*
X138157059Y-98700496D01*
X138157055Y-98700494D01*
X137928813Y-98639338D01*
X137928803Y-98639336D01*
X137693401Y-98618741D01*
X137693399Y-98618741D01*
X137457996Y-98639336D01*
X137457986Y-98639338D01*
X137229744Y-98700494D01*
X137229735Y-98700498D01*
X137015571Y-98800364D01*
X137015569Y-98800365D01*
X136822000Y-98935903D01*
X136700073Y-99057830D01*
X136638750Y-99091314D01*
X136569058Y-99086330D01*
X136513125Y-99044458D01*
X136496210Y-99013481D01*
X136447197Y-98882071D01*
X136447193Y-98882064D01*
X136360947Y-98766855D01*
X136360944Y-98766852D01*
X136245735Y-98680606D01*
X136245728Y-98680602D01*
X136110882Y-98630308D01*
X136110883Y-98630308D01*
X136051283Y-98623901D01*
X136051281Y-98623900D01*
X136051273Y-98623900D01*
X136051264Y-98623900D01*
X134255529Y-98623900D01*
X134255523Y-98623901D01*
X134195916Y-98630308D01*
X134061071Y-98680602D01*
X134061064Y-98680606D01*
X133945855Y-98766852D01*
X133945852Y-98766855D01*
X133859606Y-98882064D01*
X133859602Y-98882071D01*
X133809308Y-99016917D01*
X133802901Y-99076516D01*
X133802900Y-99076535D01*
X127971631Y-99076535D01*
X127971612Y-99076516D01*
X127901567Y-99006471D01*
X127868084Y-98945151D01*
X127873068Y-98875459D01*
X127914939Y-98819525D01*
X127945915Y-98802610D01*
X128077331Y-98753596D01*
X128192546Y-98667346D01*
X128278796Y-98552131D01*
X128329091Y-98417283D01*
X128335500Y-98357673D01*
X128335499Y-96561928D01*
X128329091Y-96502317D01*
X128327810Y-96498883D01*
X128278797Y-96367471D01*
X128278793Y-96367464D01*
X128192547Y-96252255D01*
X128192544Y-96252252D01*
X128077335Y-96166006D01*
X128077328Y-96166002D01*
X127942482Y-96115708D01*
X127942483Y-96115708D01*
X127882883Y-96109301D01*
X127882881Y-96109300D01*
X127882873Y-96109300D01*
X127882864Y-96109300D01*
X126087129Y-96109300D01*
X126087123Y-96109301D01*
X126027516Y-96115708D01*
X125892671Y-96166002D01*
X125892664Y-96166006D01*
X125777455Y-96252252D01*
X125777452Y-96252255D01*
X125691206Y-96367464D01*
X125691203Y-96367469D01*
X125642189Y-96498883D01*
X125600317Y-96554816D01*
X125534853Y-96579233D01*
X125466580Y-96564381D01*
X125438326Y-96543230D01*
X125316402Y-96421306D01*
X125316395Y-96421301D01*
X125122834Y-96285767D01*
X125122830Y-96285765D01*
X125122828Y-96285764D01*
X124908663Y-96185897D01*
X124908659Y-96185896D01*
X124908655Y-96185894D01*
X124680413Y-96124738D01*
X124680403Y-96124736D01*
X124445001Y-96104141D01*
X124444999Y-96104141D01*
X124209596Y-96124736D01*
X124209586Y-96124738D01*
X123981344Y-96185894D01*
X123981335Y-96185898D01*
X123767171Y-96285764D01*
X123767169Y-96285765D01*
X123573597Y-96421305D01*
X123406505Y-96588397D01*
X123276575Y-96773958D01*
X123221998Y-96817583D01*
X123152500Y-96824777D01*
X123090145Y-96793254D01*
X123073425Y-96773958D01*
X122943494Y-96588397D01*
X122776402Y-96421306D01*
X122776395Y-96421301D01*
X122582834Y-96285767D01*
X122582830Y-96285765D01*
X122582828Y-96285764D01*
X122368663Y-96185897D01*
X122368659Y-96185896D01*
X122368655Y-96185894D01*
X122140413Y-96124738D01*
X122140403Y-96124736D01*
X121905001Y-96104141D01*
X121904999Y-96104141D01*
X121669596Y-96124736D01*
X121669586Y-96124738D01*
X121441344Y-96185894D01*
X121441335Y-96185898D01*
X121227171Y-96285764D01*
X121227169Y-96285765D01*
X121033597Y-96421305D01*
X120866505Y-96588397D01*
X120730965Y-96781969D01*
X120730964Y-96781971D01*
X120631098Y-96996135D01*
X120631094Y-96996144D01*
X120569938Y-97224386D01*
X120569936Y-97224396D01*
X120549341Y-97459799D01*
X109182449Y-97459799D01*
X109122400Y-97331022D01*
X109122399Y-97331020D01*
X108986913Y-97137526D01*
X108986908Y-97137520D01*
X108819878Y-96970490D01*
X108634205Y-96840479D01*
X108590580Y-96785902D01*
X108583388Y-96716404D01*
X108614910Y-96654049D01*
X108634206Y-96637330D01*
X108634642Y-96637025D01*
X108820201Y-96507095D01*
X108987295Y-96340001D01*
X109122835Y-96146430D01*
X109222703Y-95932263D01*
X109283863Y-95704008D01*
X109304459Y-95468600D01*
X109283863Y-95233192D01*
X109222703Y-95004937D01*
X109122835Y-94790771D01*
X109117225Y-94782758D01*
X108987294Y-94597197D01*
X108820202Y-94430106D01*
X108820196Y-94430101D01*
X108634642Y-94300175D01*
X108591017Y-94245598D01*
X108583823Y-94176100D01*
X108615346Y-94113745D01*
X108634642Y-94097025D01*
X108656826Y-94081491D01*
X108820201Y-93967095D01*
X108987295Y-93800001D01*
X109122835Y-93606430D01*
X109222703Y-93392263D01*
X109283863Y-93164008D01*
X109304459Y-92928600D01*
X109304459Y-92928599D01*
X111648141Y-92928599D01*
X111648141Y-92928600D01*
X111668736Y-93164003D01*
X111668738Y-93164013D01*
X111729894Y-93392255D01*
X111729896Y-93392259D01*
X111729897Y-93392263D01*
X111733800Y-93400632D01*
X111829765Y-93606430D01*
X111829767Y-93606434D01*
X111938081Y-93761121D01*
X111965305Y-93800001D01*
X112132399Y-93967095D01*
X112229184Y-94034865D01*
X112325965Y-94102632D01*
X112325967Y-94102633D01*
X112325970Y-94102635D01*
X112540137Y-94202503D01*
X112768392Y-94263663D01*
X112956718Y-94280139D01*
X113003799Y-94284259D01*
X113003800Y-94284259D01*
X113003801Y-94284259D01*
X113043034Y-94280826D01*
X113239208Y-94263663D01*
X113467463Y-94202503D01*
X113681630Y-94102635D01*
X113875201Y-93967095D01*
X114042295Y-93800001D01*
X114177835Y-93606430D01*
X114277703Y-93392263D01*
X114338863Y-93164008D01*
X114359459Y-92928600D01*
X114338863Y-92693192D01*
X114277703Y-92464937D01*
X114177835Y-92250771D01*
X114172224Y-92242758D01*
X114042296Y-92057200D01*
X114042293Y-92057197D01*
X113920367Y-91935271D01*
X113886884Y-91873951D01*
X113891868Y-91804259D01*
X113933739Y-91748325D01*
X113964715Y-91731410D01*
X114096131Y-91682396D01*
X114211346Y-91596146D01*
X114297596Y-91480931D01*
X114347891Y-91346083D01*
X114354300Y-91286473D01*
X114354299Y-90260994D01*
X124047757Y-90260994D01*
X124047757Y-90261005D01*
X124068290Y-90508812D01*
X124068292Y-90508824D01*
X124129336Y-90749881D01*
X124229226Y-90977606D01*
X124365233Y-91185782D01*
X124365236Y-91185785D01*
X124533656Y-91368738D01*
X124729891Y-91521474D01*
X124948590Y-91639828D01*
X125183786Y-91720571D01*
X125429065Y-91761500D01*
X125677735Y-91761500D01*
X125923014Y-91720571D01*
X126158210Y-91639828D01*
X126376909Y-91521474D01*
X126573144Y-91368738D01*
X126741564Y-91185785D01*
X126877573Y-90977607D01*
X126977463Y-90749881D01*
X127038508Y-90508821D01*
X127059043Y-90261000D01*
X127059043Y-90260994D01*
X130547757Y-90260994D01*
X130547757Y-90261005D01*
X130568290Y-90508812D01*
X130568292Y-90508824D01*
X130629336Y-90749881D01*
X130729226Y-90977606D01*
X130865233Y-91185782D01*
X130865236Y-91185785D01*
X131033656Y-91368738D01*
X131229891Y-91521474D01*
X131448590Y-91639828D01*
X131683786Y-91720571D01*
X131929065Y-91761500D01*
X132177735Y-91761500D01*
X132423014Y-91720571D01*
X132658210Y-91639828D01*
X132876909Y-91521474D01*
X133073144Y-91368738D01*
X133241564Y-91185785D01*
X133377573Y-90977607D01*
X133477463Y-90749881D01*
X133538508Y-90508821D01*
X133559043Y-90261000D01*
X133559043Y-90260994D01*
X140506957Y-90260994D01*
X140506957Y-90261005D01*
X140527490Y-90508812D01*
X140527492Y-90508824D01*
X140588536Y-90749881D01*
X140688426Y-90977606D01*
X140824433Y-91185782D01*
X140824436Y-91185785D01*
X140992856Y-91368738D01*
X141189091Y-91521474D01*
X141407790Y-91639828D01*
X141642986Y-91720571D01*
X141888265Y-91761500D01*
X142136935Y-91761500D01*
X142382214Y-91720571D01*
X142617410Y-91639828D01*
X142836109Y-91521474D01*
X143032344Y-91368738D01*
X143200764Y-91185785D01*
X143336773Y-90977607D01*
X143436663Y-90749881D01*
X143497708Y-90508821D01*
X143518243Y-90261000D01*
X143518243Y-90260994D01*
X147006957Y-90260994D01*
X147006957Y-90261005D01*
X147027490Y-90508812D01*
X147027492Y-90508824D01*
X147088536Y-90749881D01*
X147188426Y-90977606D01*
X147324433Y-91185782D01*
X147324436Y-91185785D01*
X147492856Y-91368738D01*
X147689091Y-91521474D01*
X147907790Y-91639828D01*
X148142986Y-91720571D01*
X148388265Y-91761500D01*
X148636935Y-91761500D01*
X148882214Y-91720571D01*
X149117410Y-91639828D01*
X149336109Y-91521474D01*
X149532344Y-91368738D01*
X149700764Y-91185785D01*
X149836773Y-90977607D01*
X149936663Y-90749881D01*
X149997708Y-90508821D01*
X150007670Y-90388599D01*
X159933141Y-90388599D01*
X159933141Y-90388600D01*
X159953736Y-90624003D01*
X159953738Y-90624013D01*
X160014894Y-90852255D01*
X160014896Y-90852259D01*
X160014897Y-90852263D01*
X160073346Y-90977606D01*
X160114765Y-91066430D01*
X160114767Y-91066434D01*
X160250301Y-91259995D01*
X160250306Y-91260002D01*
X160417397Y-91427093D01*
X160417403Y-91427098D01*
X160602958Y-91557025D01*
X160646583Y-91611602D01*
X160653777Y-91681100D01*
X160622254Y-91743455D01*
X160602958Y-91760175D01*
X160417397Y-91890105D01*
X160250305Y-92057197D01*
X160114765Y-92250769D01*
X160114764Y-92250771D01*
X160014898Y-92464935D01*
X160014894Y-92464944D01*
X159953738Y-92693186D01*
X159953736Y-92693196D01*
X159933141Y-92928599D01*
X159933141Y-92928600D01*
X159953736Y-93164003D01*
X159953738Y-93164013D01*
X160014894Y-93392255D01*
X160014896Y-93392259D01*
X160014897Y-93392263D01*
X160018800Y-93400632D01*
X160114765Y-93606430D01*
X160114767Y-93606434D01*
X160223081Y-93761121D01*
X160250301Y-93799996D01*
X160250306Y-93800002D01*
X160417397Y-93967093D01*
X160417403Y-93967098D01*
X160602958Y-94097025D01*
X160646583Y-94151602D01*
X160653777Y-94221100D01*
X160622254Y-94283455D01*
X160602958Y-94300175D01*
X160417397Y-94430105D01*
X160250305Y-94597197D01*
X160114765Y-94790769D01*
X160114764Y-94790771D01*
X160014898Y-95004935D01*
X160014894Y-95004944D01*
X159953738Y-95233186D01*
X159953736Y-95233196D01*
X159933141Y-95468599D01*
X159933141Y-95468600D01*
X159953736Y-95704003D01*
X159953738Y-95704013D01*
X160014894Y-95932255D01*
X160014896Y-95932259D01*
X160014897Y-95932263D01*
X160098158Y-96110817D01*
X160114765Y-96146430D01*
X160114767Y-96146434D01*
X160212330Y-96285767D01*
X160250301Y-96339996D01*
X160250306Y-96340002D01*
X160417397Y-96507093D01*
X160417403Y-96507098D01*
X160603394Y-96637330D01*
X160647019Y-96691907D01*
X160654213Y-96761405D01*
X160622690Y-96823760D01*
X160603395Y-96840480D01*
X160417722Y-96970490D01*
X160417720Y-96970491D01*
X160250691Y-97137520D01*
X160250686Y-97137526D01*
X160115200Y-97331020D01*
X160115199Y-97331022D01*
X160015370Y-97545107D01*
X160015367Y-97545113D01*
X159958164Y-97758599D01*
X159958164Y-97758600D01*
X160855788Y-97758600D01*
X160822875Y-97815607D01*
X160788800Y-97942774D01*
X160788800Y-98074426D01*
X160822875Y-98201593D01*
X160855788Y-98258600D01*
X159958164Y-98258600D01*
X160015367Y-98472086D01*
X160015370Y-98472092D01*
X160115199Y-98686178D01*
X160250694Y-98879682D01*
X160417717Y-99046705D01*
X160603395Y-99176719D01*
X160647019Y-99231296D01*
X160654212Y-99300795D01*
X160622690Y-99363149D01*
X160603395Y-99379869D01*
X160417394Y-99510108D01*
X160250305Y-99677197D01*
X160114765Y-99870769D01*
X160114764Y-99870771D01*
X160014898Y-100084935D01*
X160014894Y-100084944D01*
X159953738Y-100313186D01*
X159953736Y-100313196D01*
X159933141Y-100548599D01*
X159933141Y-100548600D01*
X159953736Y-100784003D01*
X159953738Y-100784013D01*
X160014894Y-101012255D01*
X160014896Y-101012259D01*
X160014897Y-101012263D01*
X160094021Y-101181944D01*
X160114765Y-101226430D01*
X160114767Y-101226434D01*
X160205112Y-101355459D01*
X160250304Y-101420000D01*
X160250306Y-101420002D01*
X160417397Y-101587093D01*
X160417403Y-101587098D01*
X160602958Y-101717025D01*
X160646583Y-101771602D01*
X160653777Y-101841100D01*
X160622254Y-101903455D01*
X160602958Y-101920175D01*
X160417397Y-102050105D01*
X160250305Y-102217197D01*
X160114765Y-102410769D01*
X160114764Y-102410771D01*
X160014898Y-102624935D01*
X160014894Y-102624944D01*
X159953738Y-102853186D01*
X159953736Y-102853196D01*
X159933141Y-103088599D01*
X159933141Y-103088600D01*
X159953736Y-103324003D01*
X159953738Y-103324013D01*
X160014894Y-103552255D01*
X160014896Y-103552259D01*
X160014897Y-103552263D01*
X160018800Y-103560632D01*
X160114765Y-103766430D01*
X160114767Y-103766434D01*
X160223081Y-103921121D01*
X160250301Y-103959996D01*
X160250306Y-103960002D01*
X160417397Y-104127093D01*
X160417403Y-104127098D01*
X160602958Y-104257025D01*
X160646583Y-104311602D01*
X160653777Y-104381100D01*
X160622254Y-104443455D01*
X160602958Y-104460175D01*
X160417397Y-104590105D01*
X160250305Y-104757197D01*
X160114765Y-104950769D01*
X160114764Y-104950771D01*
X160014898Y-105164935D01*
X160014894Y-105164944D01*
X159953738Y-105393186D01*
X159953736Y-105393196D01*
X159933141Y-105628599D01*
X159933141Y-105628600D01*
X159953736Y-105864003D01*
X159953738Y-105864013D01*
X160014894Y-106092255D01*
X160014896Y-106092259D01*
X160014897Y-106092263D01*
X160018800Y-106100632D01*
X160114765Y-106306430D01*
X160114767Y-106306434D01*
X160223081Y-106461121D01*
X160250301Y-106499996D01*
X160250306Y-106500002D01*
X160417397Y-106667093D01*
X160417403Y-106667098D01*
X160602958Y-106797025D01*
X160646583Y-106851602D01*
X160653777Y-106921100D01*
X160622254Y-106983455D01*
X160602958Y-107000175D01*
X160417397Y-107130105D01*
X160250305Y-107297197D01*
X160114765Y-107490769D01*
X160114764Y-107490771D01*
X160014898Y-107704935D01*
X160014894Y-107704944D01*
X159953738Y-107933186D01*
X159953736Y-107933196D01*
X159933141Y-108168599D01*
X159933141Y-108168600D01*
X159953736Y-108404003D01*
X159953738Y-108404013D01*
X160014894Y-108632255D01*
X160014896Y-108632259D01*
X160014897Y-108632263D01*
X160018800Y-108640632D01*
X160114765Y-108846430D01*
X160114767Y-108846434D01*
X160223081Y-109001121D01*
X160250301Y-109039996D01*
X160250306Y-109040002D01*
X160417397Y-109207093D01*
X160417403Y-109207098D01*
X160602958Y-109337025D01*
X160646583Y-109391602D01*
X160653777Y-109461100D01*
X160622254Y-109523455D01*
X160602958Y-109540175D01*
X160417397Y-109670105D01*
X160250305Y-109837197D01*
X160114765Y-110030769D01*
X160114764Y-110030771D01*
X160014898Y-110244935D01*
X160014894Y-110244944D01*
X159953738Y-110473186D01*
X159953736Y-110473196D01*
X159933141Y-110708599D01*
X159933141Y-110708600D01*
X159953736Y-110944003D01*
X159953738Y-110944013D01*
X160014894Y-111172255D01*
X160014896Y-111172259D01*
X160014897Y-111172263D01*
X160018800Y-111180632D01*
X160114765Y-111386430D01*
X160114767Y-111386434D01*
X160223081Y-111541121D01*
X160250301Y-111579996D01*
X160250306Y-111580002D01*
X160372230Y-111701926D01*
X160405715Y-111763249D01*
X160400731Y-111832941D01*
X160358859Y-111888874D01*
X160327883Y-111905789D01*
X160196469Y-111954803D01*
X160196464Y-111954806D01*
X160081255Y-112041052D01*
X160081252Y-112041055D01*
X159995006Y-112156264D01*
X159995002Y-112156271D01*
X159944708Y-112291117D01*
X159938301Y-112350716D01*
X159938301Y-112350723D01*
X159938300Y-112350735D01*
X159938300Y-114146470D01*
X159938301Y-114146476D01*
X159944708Y-114206083D01*
X159995002Y-114340928D01*
X159995006Y-114340935D01*
X160081252Y-114456144D01*
X160081255Y-114456147D01*
X160196464Y-114542393D01*
X160196471Y-114542397D01*
X160331317Y-114592691D01*
X160331316Y-114592691D01*
X160338244Y-114593435D01*
X160390927Y-114599100D01*
X162186672Y-114599099D01*
X162246283Y-114592691D01*
X162381131Y-114542396D01*
X162496346Y-114456146D01*
X162582596Y-114340931D01*
X162632891Y-114206083D01*
X162639300Y-114146473D01*
X162639299Y-112350728D01*
X162632891Y-112291117D01*
X162602819Y-112210491D01*
X162582597Y-112156271D01*
X162582593Y-112156264D01*
X162496347Y-112041055D01*
X162496344Y-112041052D01*
X162381135Y-111954806D01*
X162381128Y-111954802D01*
X162249717Y-111905789D01*
X162193783Y-111863918D01*
X162169366Y-111798453D01*
X162184218Y-111730180D01*
X162205363Y-111701932D01*
X162327295Y-111580001D01*
X162462835Y-111386430D01*
X162562703Y-111172263D01*
X162623863Y-110944008D01*
X162644459Y-110708600D01*
X162623863Y-110473192D01*
X162562703Y-110244937D01*
X162462835Y-110030771D01*
X162457225Y-110022758D01*
X162327294Y-109837197D01*
X162160202Y-109670106D01*
X162160196Y-109670101D01*
X161974642Y-109540175D01*
X161931017Y-109485598D01*
X161923823Y-109416100D01*
X161955346Y-109353745D01*
X161974642Y-109337025D01*
X161996826Y-109321491D01*
X162160201Y-109207095D01*
X162327295Y-109040001D01*
X162462835Y-108846430D01*
X162562703Y-108632263D01*
X162623863Y-108404008D01*
X162644459Y-108168600D01*
X162623863Y-107933192D01*
X162562703Y-107704937D01*
X162462835Y-107490771D01*
X162457225Y-107482758D01*
X162327294Y-107297197D01*
X162160202Y-107130106D01*
X162160196Y-107130101D01*
X161974642Y-107000175D01*
X161931017Y-106945598D01*
X161923823Y-106876100D01*
X161955346Y-106813745D01*
X161974642Y-106797025D01*
X161996826Y-106781491D01*
X162160201Y-106667095D01*
X162327295Y-106500001D01*
X162462835Y-106306430D01*
X162562703Y-106092263D01*
X162623863Y-105864008D01*
X162644459Y-105628600D01*
X162623863Y-105393192D01*
X162562703Y-105164937D01*
X162462835Y-104950771D01*
X162457225Y-104942758D01*
X162327294Y-104757197D01*
X162160202Y-104590106D01*
X162160196Y-104590101D01*
X161974642Y-104460175D01*
X161931017Y-104405598D01*
X161923823Y-104336100D01*
X161955346Y-104273745D01*
X161974642Y-104257025D01*
X161996826Y-104241491D01*
X162160201Y-104127095D01*
X162327295Y-103960001D01*
X162462835Y-103766430D01*
X162562703Y-103552263D01*
X162623863Y-103324008D01*
X162644459Y-103088600D01*
X162623863Y-102853192D01*
X162562703Y-102624937D01*
X162462835Y-102410771D01*
X162457225Y-102402758D01*
X162327294Y-102217197D01*
X162160202Y-102050106D01*
X162160196Y-102050101D01*
X161974642Y-101920175D01*
X161931017Y-101865598D01*
X161923823Y-101796100D01*
X161955346Y-101733745D01*
X161974642Y-101717025D01*
X161996826Y-101701491D01*
X162160201Y-101587095D01*
X162327295Y-101420001D01*
X162462835Y-101226430D01*
X162562703Y-101012263D01*
X162623863Y-100784008D01*
X162644459Y-100548600D01*
X162623863Y-100313192D01*
X162562703Y-100084937D01*
X162462835Y-99870771D01*
X162457531Y-99863195D01*
X162327294Y-99677197D01*
X162160202Y-99510106D01*
X162160201Y-99510105D01*
X161992644Y-99392780D01*
X161974205Y-99379869D01*
X161930581Y-99325292D01*
X161923388Y-99255793D01*
X161954910Y-99193439D01*
X161974205Y-99176719D01*
X162159882Y-99046705D01*
X162326905Y-98879682D01*
X162462400Y-98686178D01*
X162562229Y-98472092D01*
X162562232Y-98472086D01*
X162619436Y-98258600D01*
X161721812Y-98258600D01*
X161754725Y-98201593D01*
X161788800Y-98074426D01*
X161788800Y-97942774D01*
X161754725Y-97815607D01*
X161721812Y-97758600D01*
X162619436Y-97758600D01*
X162619435Y-97758599D01*
X162562232Y-97545113D01*
X162562229Y-97545107D01*
X162462400Y-97331022D01*
X162462399Y-97331020D01*
X162326913Y-97137526D01*
X162326908Y-97137520D01*
X162159878Y-96970490D01*
X161974205Y-96840479D01*
X161930580Y-96785902D01*
X161923388Y-96716404D01*
X161954910Y-96654049D01*
X161974206Y-96637330D01*
X161974642Y-96637025D01*
X162160201Y-96507095D01*
X162327295Y-96340001D01*
X162462835Y-96146430D01*
X162562703Y-95932263D01*
X162623863Y-95704008D01*
X162644459Y-95468600D01*
X162623863Y-95233192D01*
X162562703Y-95004937D01*
X162462835Y-94790771D01*
X162457225Y-94782758D01*
X162327294Y-94597197D01*
X162160202Y-94430106D01*
X162160196Y-94430101D01*
X161974642Y-94300175D01*
X161931017Y-94245598D01*
X161923823Y-94176100D01*
X161955346Y-94113745D01*
X161974642Y-94097025D01*
X161996826Y-94081491D01*
X162160201Y-93967095D01*
X162327295Y-93800001D01*
X162462835Y-93606430D01*
X162562703Y-93392263D01*
X162623863Y-93164008D01*
X162644459Y-92928600D01*
X162644459Y-92928599D01*
X165013141Y-92928599D01*
X165013141Y-92928600D01*
X165033736Y-93164003D01*
X165033738Y-93164013D01*
X165094894Y-93392255D01*
X165094896Y-93392259D01*
X165094897Y-93392263D01*
X165098800Y-93400632D01*
X165194765Y-93606430D01*
X165194767Y-93606434D01*
X165303081Y-93761121D01*
X165330301Y-93799996D01*
X165330306Y-93800002D01*
X165497397Y-93967093D01*
X165497403Y-93967098D01*
X165682958Y-94097025D01*
X165726583Y-94151602D01*
X165733777Y-94221100D01*
X165702254Y-94283455D01*
X165682958Y-94300175D01*
X165497397Y-94430105D01*
X165330305Y-94597197D01*
X165194765Y-94790769D01*
X165194764Y-94790771D01*
X165094898Y-95004935D01*
X165094894Y-95004944D01*
X165033738Y-95233186D01*
X165033736Y-95233196D01*
X165013141Y-95468599D01*
X165013141Y-95468600D01*
X165033736Y-95704003D01*
X165033738Y-95704013D01*
X165094894Y-95932255D01*
X165094896Y-95932259D01*
X165094897Y-95932263D01*
X165178158Y-96110817D01*
X165194765Y-96146430D01*
X165194767Y-96146434D01*
X165292330Y-96285767D01*
X165330301Y-96339996D01*
X165330306Y-96340002D01*
X165497397Y-96507093D01*
X165497403Y-96507098D01*
X165682958Y-96637025D01*
X165726583Y-96691602D01*
X165733777Y-96761100D01*
X165702254Y-96823455D01*
X165682958Y-96840175D01*
X165497397Y-96970105D01*
X165330305Y-97137197D01*
X165194765Y-97330769D01*
X165194764Y-97330771D01*
X165094898Y-97544935D01*
X165094894Y-97544944D01*
X165033738Y-97773186D01*
X165033736Y-97773196D01*
X165013141Y-98008599D01*
X165013141Y-98008600D01*
X165033736Y-98244003D01*
X165033738Y-98244013D01*
X165094894Y-98472255D01*
X165094896Y-98472259D01*
X165094897Y-98472263D01*
X165174804Y-98643623D01*
X165194765Y-98686430D01*
X165194767Y-98686434D01*
X165296257Y-98831375D01*
X165330301Y-98879996D01*
X165330306Y-98880002D01*
X165497397Y-99047093D01*
X165497403Y-99047098D01*
X165553432Y-99086330D01*
X165613514Y-99128400D01*
X165683394Y-99177330D01*
X165727019Y-99231907D01*
X165734213Y-99301405D01*
X165702690Y-99363760D01*
X165683395Y-99380480D01*
X165497722Y-99510490D01*
X165497720Y-99510491D01*
X165330691Y-99677520D01*
X165330686Y-99677526D01*
X165195200Y-99871020D01*
X165195199Y-99871022D01*
X165095370Y-100085107D01*
X165095367Y-100085113D01*
X165038164Y-100298599D01*
X165038164Y-100298600D01*
X165935788Y-100298600D01*
X165902875Y-100355607D01*
X165868800Y-100482774D01*
X165868800Y-100614426D01*
X165902875Y-100741593D01*
X165935788Y-100798600D01*
X165038164Y-100798600D01*
X165095367Y-101012086D01*
X165095370Y-101012092D01*
X165195199Y-101226178D01*
X165330694Y-101419682D01*
X165497717Y-101586705D01*
X165683395Y-101716719D01*
X165727019Y-101771296D01*
X165734212Y-101840795D01*
X165702690Y-101903149D01*
X165683395Y-101919869D01*
X165497394Y-102050108D01*
X165330305Y-102217197D01*
X165194765Y-102410769D01*
X165194764Y-102410771D01*
X165094898Y-102624935D01*
X165094894Y-102624944D01*
X165033738Y-102853186D01*
X165033736Y-102853196D01*
X165013141Y-103088599D01*
X165013141Y-103088600D01*
X165033736Y-103324003D01*
X165033738Y-103324013D01*
X165094894Y-103552255D01*
X165094896Y-103552259D01*
X165094897Y-103552263D01*
X165098800Y-103560632D01*
X165194765Y-103766430D01*
X165194767Y-103766434D01*
X165303081Y-103921121D01*
X165330301Y-103959996D01*
X165330306Y-103960002D01*
X165497397Y-104127093D01*
X165497403Y-104127098D01*
X165682958Y-104257025D01*
X165726583Y-104311602D01*
X165733777Y-104381100D01*
X165702254Y-104443455D01*
X165682958Y-104460175D01*
X165497397Y-104590105D01*
X165330305Y-104757197D01*
X165194765Y-104950769D01*
X165194764Y-104950771D01*
X165094898Y-105164935D01*
X165094894Y-105164944D01*
X165033738Y-105393186D01*
X165033736Y-105393196D01*
X165013141Y-105628599D01*
X165013141Y-105628600D01*
X165033736Y-105864003D01*
X165033738Y-105864013D01*
X165094894Y-106092255D01*
X165094896Y-106092259D01*
X165094897Y-106092263D01*
X165098800Y-106100632D01*
X165194765Y-106306430D01*
X165194767Y-106306434D01*
X165303081Y-106461121D01*
X165330301Y-106499996D01*
X165330306Y-106500002D01*
X165497397Y-106667093D01*
X165497403Y-106667098D01*
X165682958Y-106797025D01*
X165726583Y-106851602D01*
X165733777Y-106921100D01*
X165702254Y-106983455D01*
X165682958Y-107000175D01*
X165497397Y-107130105D01*
X165330305Y-107297197D01*
X165194765Y-107490769D01*
X165194764Y-107490771D01*
X165094898Y-107704935D01*
X165094894Y-107704944D01*
X165033738Y-107933186D01*
X165033736Y-107933196D01*
X165013141Y-108168599D01*
X165013141Y-108168600D01*
X165033736Y-108404003D01*
X165033738Y-108404013D01*
X165094894Y-108632255D01*
X165094896Y-108632259D01*
X165094897Y-108632263D01*
X165098800Y-108640632D01*
X165194765Y-108846430D01*
X165194767Y-108846434D01*
X165303081Y-109001121D01*
X165330301Y-109039996D01*
X165330306Y-109040002D01*
X165497397Y-109207093D01*
X165497403Y-109207098D01*
X165682958Y-109337025D01*
X165726583Y-109391602D01*
X165733777Y-109461100D01*
X165702254Y-109523455D01*
X165682958Y-109540175D01*
X165497397Y-109670105D01*
X165330305Y-109837197D01*
X165194765Y-110030769D01*
X165194764Y-110030771D01*
X165094898Y-110244935D01*
X165094894Y-110244944D01*
X165033738Y-110473186D01*
X165033736Y-110473196D01*
X165013141Y-110708599D01*
X165013141Y-110708600D01*
X165033736Y-110944003D01*
X165033738Y-110944013D01*
X165094894Y-111172255D01*
X165094896Y-111172259D01*
X165094897Y-111172263D01*
X165098800Y-111180632D01*
X165194765Y-111386430D01*
X165194767Y-111386434D01*
X165303081Y-111541121D01*
X165330301Y-111579996D01*
X165330306Y-111580002D01*
X165497397Y-111747093D01*
X165497403Y-111747098D01*
X165682958Y-111877025D01*
X165726583Y-111931602D01*
X165733777Y-112001100D01*
X165702254Y-112063455D01*
X165682958Y-112080175D01*
X165497397Y-112210105D01*
X165330305Y-112377197D01*
X165194765Y-112570769D01*
X165194764Y-112570771D01*
X165094898Y-112784935D01*
X165094894Y-112784944D01*
X165033738Y-113013186D01*
X165033736Y-113013196D01*
X165013141Y-113248599D01*
X165013141Y-113248600D01*
X165033736Y-113484003D01*
X165033738Y-113484013D01*
X165094894Y-113712255D01*
X165094896Y-113712259D01*
X165094897Y-113712263D01*
X165177751Y-113889944D01*
X165194765Y-113926430D01*
X165194767Y-113926434D01*
X165303081Y-114081121D01*
X165330301Y-114119996D01*
X165330306Y-114120002D01*
X165497397Y-114287093D01*
X165497403Y-114287098D01*
X165682958Y-114417025D01*
X165726583Y-114471602D01*
X165733777Y-114541100D01*
X165702254Y-114603455D01*
X165682958Y-114620175D01*
X165497397Y-114750105D01*
X165330305Y-114917197D01*
X165194765Y-115110769D01*
X165194764Y-115110771D01*
X165094898Y-115324935D01*
X165094894Y-115324944D01*
X165033738Y-115553186D01*
X165033736Y-115553196D01*
X165013141Y-115788599D01*
X165013141Y-115788600D01*
X165033736Y-116024003D01*
X165033738Y-116024013D01*
X165094894Y-116252255D01*
X165094896Y-116252259D01*
X165094897Y-116252263D01*
X165174804Y-116423623D01*
X165194765Y-116466430D01*
X165194767Y-116466434D01*
X165303081Y-116621121D01*
X165330301Y-116659996D01*
X165330306Y-116660002D01*
X165497397Y-116827093D01*
X165497403Y-116827098D01*
X165682958Y-116957025D01*
X165726583Y-117011602D01*
X165733777Y-117081100D01*
X165702254Y-117143455D01*
X165682958Y-117160175D01*
X165497397Y-117290105D01*
X165330305Y-117457197D01*
X165194765Y-117650769D01*
X165194764Y-117650771D01*
X165094898Y-117864935D01*
X165094894Y-117864944D01*
X165033738Y-118093186D01*
X165033736Y-118093196D01*
X165013141Y-118328599D01*
X165013141Y-118328600D01*
X165033736Y-118564003D01*
X165033738Y-118564013D01*
X165094894Y-118792255D01*
X165094896Y-118792259D01*
X165094897Y-118792263D01*
X165098800Y-118800632D01*
X165194765Y-119006430D01*
X165194767Y-119006434D01*
X165303081Y-119161121D01*
X165330301Y-119199996D01*
X165330306Y-119200002D01*
X165497397Y-119367093D01*
X165497403Y-119367098D01*
X165682958Y-119497025D01*
X165726583Y-119551602D01*
X165733777Y-119621100D01*
X165702254Y-119683455D01*
X165682958Y-119700175D01*
X165497397Y-119830105D01*
X165330305Y-119997197D01*
X165194765Y-120190769D01*
X165194764Y-120190771D01*
X165094898Y-120404935D01*
X165094894Y-120404944D01*
X165033738Y-120633186D01*
X165033736Y-120633196D01*
X165013141Y-120868599D01*
X165013141Y-120868600D01*
X165033736Y-121104003D01*
X165033738Y-121104013D01*
X165094894Y-121332255D01*
X165094896Y-121332259D01*
X165094897Y-121332263D01*
X165098800Y-121340632D01*
X165194765Y-121546430D01*
X165194767Y-121546434D01*
X165303081Y-121701121D01*
X165330301Y-121739996D01*
X165330306Y-121740002D01*
X165497397Y-121907093D01*
X165497403Y-121907098D01*
X165682958Y-122037025D01*
X165726583Y-122091602D01*
X165733777Y-122161100D01*
X165702254Y-122223455D01*
X165682958Y-122240175D01*
X165497397Y-122370105D01*
X165330305Y-122537197D01*
X165194765Y-122730769D01*
X165194764Y-122730771D01*
X165094898Y-122944935D01*
X165094894Y-122944944D01*
X165033738Y-123173186D01*
X165033736Y-123173196D01*
X165013141Y-123408599D01*
X165013141Y-123408600D01*
X165033736Y-123644003D01*
X165033738Y-123644013D01*
X165094894Y-123872255D01*
X165094896Y-123872259D01*
X165094897Y-123872263D01*
X165098800Y-123880632D01*
X165194765Y-124086430D01*
X165194767Y-124086434D01*
X165303081Y-124241121D01*
X165330301Y-124279996D01*
X165330306Y-124280002D01*
X165497397Y-124447093D01*
X165497403Y-124447098D01*
X165682958Y-124577025D01*
X165726583Y-124631602D01*
X165733777Y-124701100D01*
X165702254Y-124763455D01*
X165682958Y-124780175D01*
X165497397Y-124910105D01*
X165330305Y-125077197D01*
X165194765Y-125270769D01*
X165194764Y-125270771D01*
X165094898Y-125484935D01*
X165094894Y-125484944D01*
X165033738Y-125713186D01*
X165033736Y-125713196D01*
X165013141Y-125948599D01*
X165013141Y-125948600D01*
X165033736Y-126184003D01*
X165033738Y-126184013D01*
X165094894Y-126412255D01*
X165094896Y-126412259D01*
X165094897Y-126412263D01*
X165098800Y-126420632D01*
X165194765Y-126626430D01*
X165194767Y-126626434D01*
X165303081Y-126781121D01*
X165330301Y-126819996D01*
X165330306Y-126820002D01*
X165497397Y-126987093D01*
X165497403Y-126987098D01*
X165682958Y-127117025D01*
X165726583Y-127171602D01*
X165733777Y-127241100D01*
X165702254Y-127303455D01*
X165682958Y-127320175D01*
X165497397Y-127450105D01*
X165330305Y-127617197D01*
X165194765Y-127810769D01*
X165194764Y-127810771D01*
X165094898Y-128024935D01*
X165094894Y-128024944D01*
X165033738Y-128253186D01*
X165033736Y-128253196D01*
X165013141Y-128488599D01*
X165013141Y-128488600D01*
X165033736Y-128724003D01*
X165033738Y-128724013D01*
X165094894Y-128952255D01*
X165094896Y-128952259D01*
X165094897Y-128952263D01*
X165174804Y-129123623D01*
X165194765Y-129166430D01*
X165194767Y-129166434D01*
X165303081Y-129321121D01*
X165330301Y-129359996D01*
X165330306Y-129360002D01*
X165497397Y-129527093D01*
X165497403Y-129527098D01*
X165682958Y-129657025D01*
X165726583Y-129711602D01*
X165733777Y-129781100D01*
X165702254Y-129843455D01*
X165682958Y-129860175D01*
X165497397Y-129990105D01*
X165330305Y-130157197D01*
X165194765Y-130350769D01*
X165194764Y-130350771D01*
X165094898Y-130564935D01*
X165094894Y-130564944D01*
X165033738Y-130793186D01*
X165033736Y-130793196D01*
X165013141Y-131028599D01*
X165013141Y-131028600D01*
X165033736Y-131264003D01*
X165033738Y-131264013D01*
X165094894Y-131492255D01*
X165094896Y-131492259D01*
X165094897Y-131492263D01*
X165098800Y-131500632D01*
X165194765Y-131706430D01*
X165194767Y-131706434D01*
X165303081Y-131861121D01*
X165330301Y-131899996D01*
X165330306Y-131900002D01*
X165497397Y-132067093D01*
X165497403Y-132067098D01*
X165682958Y-132197025D01*
X165726583Y-132251602D01*
X165733777Y-132321100D01*
X165702254Y-132383455D01*
X165682958Y-132400175D01*
X165497397Y-132530105D01*
X165330305Y-132697197D01*
X165194765Y-132890769D01*
X165194764Y-132890771D01*
X165094898Y-133104935D01*
X165094894Y-133104944D01*
X165033738Y-133333186D01*
X165033736Y-133333196D01*
X165013141Y-133568599D01*
X165013141Y-133568600D01*
X165033736Y-133804003D01*
X165033738Y-133804013D01*
X165094894Y-134032255D01*
X165094896Y-134032259D01*
X165094897Y-134032263D01*
X165098800Y-134040632D01*
X165194765Y-134246430D01*
X165194767Y-134246434D01*
X165303081Y-134401121D01*
X165330301Y-134439996D01*
X165330306Y-134440002D01*
X165497397Y-134607093D01*
X165497403Y-134607098D01*
X165682958Y-134737025D01*
X165726583Y-134791602D01*
X165733777Y-134861100D01*
X165702254Y-134923455D01*
X165682958Y-134940175D01*
X165497397Y-135070105D01*
X165330305Y-135237197D01*
X165194765Y-135430769D01*
X165194764Y-135430771D01*
X165094898Y-135644935D01*
X165094894Y-135644944D01*
X165033738Y-135873186D01*
X165033736Y-135873196D01*
X165013141Y-136108599D01*
X165013141Y-136108600D01*
X165033736Y-136344003D01*
X165033738Y-136344013D01*
X165094894Y-136572255D01*
X165094896Y-136572259D01*
X165094897Y-136572263D01*
X165160413Y-136712762D01*
X165194765Y-136786430D01*
X165194767Y-136786434D01*
X165262621Y-136883339D01*
X165330305Y-136980001D01*
X165497399Y-137147095D01*
X165594184Y-137214865D01*
X165690965Y-137282632D01*
X165690967Y-137282633D01*
X165690970Y-137282635D01*
X165905137Y-137382503D01*
X166133392Y-137443663D01*
X166309834Y-137459100D01*
X166368799Y-137464259D01*
X166368800Y-137464259D01*
X166368801Y-137464259D01*
X166427766Y-137459100D01*
X166604208Y-137443663D01*
X166832463Y-137382503D01*
X167046630Y-137282635D01*
X167240201Y-137147095D01*
X167407295Y-136980001D01*
X167537225Y-136794442D01*
X167591802Y-136750817D01*
X167661300Y-136743623D01*
X167723655Y-136775146D01*
X167740375Y-136794442D01*
X167870300Y-136979995D01*
X167870305Y-136980001D01*
X168037399Y-137147095D01*
X168134184Y-137214865D01*
X168230965Y-137282632D01*
X168230967Y-137282633D01*
X168230970Y-137282635D01*
X168445137Y-137382503D01*
X168673392Y-137443663D01*
X168849834Y-137459100D01*
X168908799Y-137464259D01*
X168908800Y-137464259D01*
X168908801Y-137464259D01*
X168967766Y-137459100D01*
X169144208Y-137443663D01*
X169372463Y-137382503D01*
X169586630Y-137282635D01*
X169780201Y-137147095D01*
X169947295Y-136980001D01*
X170082835Y-136786430D01*
X170182703Y-136572263D01*
X170243863Y-136344008D01*
X170264459Y-136108600D01*
X170243863Y-135873192D01*
X170182703Y-135644937D01*
X170082835Y-135430771D01*
X170077225Y-135422758D01*
X169947294Y-135237197D01*
X169780202Y-135070106D01*
X169780196Y-135070101D01*
X169594642Y-134940175D01*
X169551017Y-134885598D01*
X169543823Y-134816100D01*
X169575346Y-134753745D01*
X169594642Y-134737025D01*
X169706854Y-134658453D01*
X169780201Y-134607095D01*
X169947295Y-134440001D01*
X170082835Y-134246430D01*
X170182703Y-134032263D01*
X170243863Y-133804008D01*
X170264459Y-133568600D01*
X170243863Y-133333192D01*
X170182703Y-133104937D01*
X170082835Y-132890771D01*
X170077225Y-132882758D01*
X169947294Y-132697197D01*
X169780202Y-132530106D01*
X169780196Y-132530101D01*
X169594642Y-132400175D01*
X169551017Y-132345598D01*
X169543823Y-132276100D01*
X169575346Y-132213745D01*
X169594642Y-132197025D01*
X169616826Y-132181491D01*
X169780201Y-132067095D01*
X169947295Y-131900001D01*
X170082835Y-131706430D01*
X170182703Y-131492263D01*
X170243863Y-131264008D01*
X170264459Y-131028600D01*
X170243863Y-130793192D01*
X170182703Y-130564937D01*
X170082835Y-130350771D01*
X170077225Y-130342758D01*
X169947294Y-130157197D01*
X169780202Y-129990106D01*
X169780201Y-129990105D01*
X169594205Y-129859869D01*
X169550581Y-129805292D01*
X169543388Y-129735793D01*
X169574910Y-129673439D01*
X169594205Y-129656719D01*
X169779882Y-129526705D01*
X169946905Y-129359682D01*
X170082400Y-129166178D01*
X170182229Y-128952092D01*
X170182232Y-128952086D01*
X170239436Y-128738600D01*
X169341812Y-128738600D01*
X169374725Y-128681593D01*
X169408800Y-128554426D01*
X169408800Y-128422774D01*
X169374725Y-128295607D01*
X169341812Y-128238600D01*
X170239436Y-128238600D01*
X170239435Y-128238599D01*
X170182232Y-128025113D01*
X170182229Y-128025107D01*
X170082400Y-127811022D01*
X170082399Y-127811020D01*
X169946913Y-127617526D01*
X169946908Y-127617520D01*
X169779878Y-127450490D01*
X169594205Y-127320479D01*
X169550580Y-127265902D01*
X169543388Y-127196404D01*
X169574910Y-127134049D01*
X169594206Y-127117330D01*
X169594642Y-127117025D01*
X169780201Y-126987095D01*
X169947295Y-126820001D01*
X170082835Y-126626430D01*
X170182703Y-126412263D01*
X170243863Y-126184008D01*
X170264459Y-125948600D01*
X170243863Y-125713192D01*
X170182703Y-125484937D01*
X170082835Y-125270771D01*
X170077225Y-125262758D01*
X169947294Y-125077197D01*
X169780202Y-124910106D01*
X169780196Y-124910101D01*
X169594642Y-124780175D01*
X169551017Y-124725598D01*
X169543823Y-124656100D01*
X169575346Y-124593745D01*
X169594642Y-124577025D01*
X169616826Y-124561491D01*
X169780201Y-124447095D01*
X169947295Y-124280001D01*
X170082835Y-124086430D01*
X170182703Y-123872263D01*
X170243863Y-123644008D01*
X170264459Y-123408600D01*
X170243863Y-123173192D01*
X170182703Y-122944937D01*
X170082835Y-122730771D01*
X170077225Y-122722758D01*
X169947294Y-122537197D01*
X169780202Y-122370106D01*
X169780196Y-122370101D01*
X169594642Y-122240175D01*
X169551017Y-122185598D01*
X169543823Y-122116100D01*
X169575346Y-122053745D01*
X169594642Y-122037025D01*
X169616826Y-122021491D01*
X169780201Y-121907095D01*
X169947295Y-121740001D01*
X170082835Y-121546430D01*
X170182703Y-121332263D01*
X170243863Y-121104008D01*
X170264459Y-120868600D01*
X170243863Y-120633192D01*
X170189494Y-120430283D01*
X170182705Y-120404944D01*
X170182704Y-120404943D01*
X170182703Y-120404937D01*
X170082835Y-120190771D01*
X170077225Y-120182758D01*
X169947294Y-119997197D01*
X169780202Y-119830106D01*
X169780196Y-119830101D01*
X169594642Y-119700175D01*
X169551017Y-119645598D01*
X169543823Y-119576100D01*
X169575346Y-119513745D01*
X169594642Y-119497025D01*
X169616826Y-119481491D01*
X169780201Y-119367095D01*
X169947295Y-119200001D01*
X170082835Y-119006430D01*
X170182703Y-118792263D01*
X170243863Y-118564008D01*
X170264459Y-118328600D01*
X170243863Y-118093192D01*
X170182703Y-117864937D01*
X170082835Y-117650771D01*
X170077225Y-117642758D01*
X169947294Y-117457197D01*
X169780202Y-117290106D01*
X169780196Y-117290101D01*
X169594642Y-117160175D01*
X169551017Y-117105598D01*
X169543823Y-117036100D01*
X169575346Y-116973745D01*
X169594642Y-116957025D01*
X169616826Y-116941491D01*
X169780201Y-116827095D01*
X169947295Y-116660001D01*
X170082835Y-116466430D01*
X170182703Y-116252263D01*
X170243863Y-116024008D01*
X170264459Y-115788600D01*
X170243863Y-115553192D01*
X170182703Y-115324937D01*
X170082835Y-115110771D01*
X170077531Y-115103195D01*
X169947294Y-114917197D01*
X169780202Y-114750106D01*
X169780201Y-114750105D01*
X169594205Y-114619869D01*
X169550581Y-114565292D01*
X169543388Y-114495793D01*
X169574910Y-114433439D01*
X169594205Y-114416719D01*
X169779882Y-114286705D01*
X169946905Y-114119682D01*
X170082400Y-113926178D01*
X170182229Y-113712092D01*
X170182232Y-113712086D01*
X170239436Y-113498600D01*
X169341812Y-113498600D01*
X169374725Y-113441593D01*
X169408800Y-113314426D01*
X169408800Y-113182774D01*
X169374725Y-113055607D01*
X169341812Y-112998600D01*
X170239436Y-112998600D01*
X170239435Y-112998599D01*
X170182232Y-112785113D01*
X170182229Y-112785107D01*
X170082400Y-112571022D01*
X170082399Y-112571020D01*
X169946913Y-112377526D01*
X169946908Y-112377520D01*
X169779878Y-112210490D01*
X169594205Y-112080479D01*
X169550580Y-112025902D01*
X169543388Y-111956404D01*
X169574910Y-111894049D01*
X169594206Y-111877330D01*
X169594642Y-111877025D01*
X169780201Y-111747095D01*
X169947295Y-111580001D01*
X170082835Y-111386430D01*
X170182703Y-111172263D01*
X170243863Y-110944008D01*
X170264459Y-110708600D01*
X170243863Y-110473192D01*
X170182703Y-110244937D01*
X170082835Y-110030771D01*
X170077225Y-110022758D01*
X169947294Y-109837197D01*
X169780202Y-109670106D01*
X169780196Y-109670101D01*
X169594642Y-109540175D01*
X169551017Y-109485598D01*
X169543823Y-109416100D01*
X169575346Y-109353745D01*
X169594642Y-109337025D01*
X169616826Y-109321491D01*
X169780201Y-109207095D01*
X169947295Y-109040001D01*
X170082835Y-108846430D01*
X170182703Y-108632263D01*
X170243863Y-108404008D01*
X170264459Y-108168600D01*
X170243863Y-107933192D01*
X170182703Y-107704937D01*
X170082835Y-107490771D01*
X170077225Y-107482758D01*
X169947294Y-107297197D01*
X169780202Y-107130106D01*
X169780196Y-107130101D01*
X169594642Y-107000175D01*
X169551017Y-106945598D01*
X169543823Y-106876100D01*
X169575346Y-106813745D01*
X169594642Y-106797025D01*
X169616826Y-106781491D01*
X169780201Y-106667095D01*
X169947295Y-106500001D01*
X170082835Y-106306430D01*
X170182703Y-106092263D01*
X170243863Y-105864008D01*
X170264459Y-105628600D01*
X170243863Y-105393192D01*
X170182703Y-105164937D01*
X170082835Y-104950771D01*
X170077225Y-104942758D01*
X169947294Y-104757197D01*
X169780202Y-104590106D01*
X169780196Y-104590101D01*
X169594642Y-104460175D01*
X169551017Y-104405598D01*
X169543823Y-104336100D01*
X169575346Y-104273745D01*
X169594642Y-104257025D01*
X169616826Y-104241491D01*
X169780201Y-104127095D01*
X169947295Y-103960001D01*
X170082835Y-103766430D01*
X170182703Y-103552263D01*
X170243863Y-103324008D01*
X170264459Y-103088600D01*
X170243863Y-102853192D01*
X170182703Y-102624937D01*
X170082835Y-102410771D01*
X170077225Y-102402758D01*
X169947294Y-102217197D01*
X169780202Y-102050106D01*
X169780196Y-102050101D01*
X169594642Y-101920175D01*
X169551017Y-101865598D01*
X169543823Y-101796100D01*
X169575346Y-101733745D01*
X169594642Y-101717025D01*
X169616826Y-101701491D01*
X169780201Y-101587095D01*
X169947295Y-101420001D01*
X170082835Y-101226430D01*
X170182703Y-101012263D01*
X170243863Y-100784008D01*
X170264459Y-100548600D01*
X170243863Y-100313192D01*
X170182703Y-100084937D01*
X170082835Y-99870771D01*
X170077531Y-99863195D01*
X169947294Y-99677197D01*
X169780202Y-99510106D01*
X169780196Y-99510101D01*
X169594642Y-99380175D01*
X169551017Y-99325598D01*
X169543823Y-99256100D01*
X169575346Y-99193745D01*
X169594642Y-99177025D01*
X169616826Y-99161491D01*
X169780201Y-99047095D01*
X169947295Y-98880001D01*
X170082835Y-98686430D01*
X170182703Y-98472263D01*
X170243863Y-98244008D01*
X170264459Y-98008600D01*
X170243863Y-97773192D01*
X170182703Y-97544937D01*
X170082835Y-97330771D01*
X170077531Y-97323195D01*
X169947294Y-97137197D01*
X169780202Y-96970106D01*
X169780196Y-96970101D01*
X169594642Y-96840175D01*
X169551017Y-96785598D01*
X169543823Y-96716100D01*
X169575346Y-96653745D01*
X169594642Y-96637025D01*
X169701891Y-96561928D01*
X169780201Y-96507095D01*
X169947295Y-96340001D01*
X170082835Y-96146430D01*
X170182703Y-95932263D01*
X170243863Y-95704008D01*
X170264459Y-95468600D01*
X170243863Y-95233192D01*
X170182703Y-95004937D01*
X170082835Y-94790771D01*
X170077225Y-94782758D01*
X169947294Y-94597197D01*
X169780202Y-94430106D01*
X169780196Y-94430101D01*
X169594642Y-94300175D01*
X169551017Y-94245598D01*
X169543823Y-94176100D01*
X169575346Y-94113745D01*
X169594642Y-94097025D01*
X169616826Y-94081491D01*
X169780201Y-93967095D01*
X169947295Y-93800001D01*
X170082835Y-93606430D01*
X170182703Y-93392263D01*
X170243863Y-93164008D01*
X170264459Y-92928600D01*
X170243863Y-92693192D01*
X170182703Y-92464937D01*
X170082835Y-92250771D01*
X170077225Y-92242758D01*
X169947294Y-92057197D01*
X169780202Y-91890106D01*
X169780196Y-91890101D01*
X169594642Y-91760175D01*
X169551017Y-91705598D01*
X169543823Y-91636100D01*
X169575346Y-91573745D01*
X169594642Y-91557025D01*
X169616826Y-91541491D01*
X169780201Y-91427095D01*
X169947295Y-91260001D01*
X170082835Y-91066430D01*
X170182703Y-90852263D01*
X170243863Y-90624008D01*
X170264459Y-90388600D01*
X170243863Y-90153192D01*
X170182703Y-89924937D01*
X170082835Y-89710771D01*
X169966337Y-89544393D01*
X169947294Y-89517197D01*
X169780202Y-89350106D01*
X169780195Y-89350101D01*
X169586634Y-89214567D01*
X169586630Y-89214565D01*
X169586628Y-89214564D01*
X169372463Y-89114697D01*
X169372459Y-89114696D01*
X169372455Y-89114694D01*
X169144213Y-89053538D01*
X169144203Y-89053536D01*
X168908801Y-89032941D01*
X168908799Y-89032941D01*
X168673396Y-89053536D01*
X168673386Y-89053538D01*
X168445144Y-89114694D01*
X168445135Y-89114698D01*
X168230971Y-89214564D01*
X168230969Y-89214565D01*
X168037400Y-89350103D01*
X167915473Y-89472030D01*
X167854150Y-89505514D01*
X167784458Y-89500530D01*
X167728525Y-89458658D01*
X167711610Y-89427681D01*
X167662597Y-89296271D01*
X167662593Y-89296264D01*
X167576347Y-89181055D01*
X167576344Y-89181052D01*
X167461135Y-89094806D01*
X167461128Y-89094802D01*
X167326282Y-89044508D01*
X167326283Y-89044508D01*
X167266683Y-89038101D01*
X167266681Y-89038100D01*
X167266673Y-89038100D01*
X167266664Y-89038100D01*
X165470929Y-89038100D01*
X165470923Y-89038101D01*
X165411316Y-89044508D01*
X165276471Y-89094802D01*
X165276464Y-89094806D01*
X165161255Y-89181052D01*
X165161252Y-89181055D01*
X165075006Y-89296264D01*
X165075002Y-89296271D01*
X165024708Y-89431117D01*
X165020310Y-89472030D01*
X165018301Y-89490723D01*
X165018300Y-89490735D01*
X165018300Y-91286470D01*
X165018301Y-91286476D01*
X165024708Y-91346083D01*
X165075002Y-91480928D01*
X165075006Y-91480935D01*
X165161252Y-91596144D01*
X165161255Y-91596147D01*
X165276464Y-91682393D01*
X165276471Y-91682397D01*
X165407881Y-91731410D01*
X165463815Y-91773281D01*
X165488232Y-91838745D01*
X165473380Y-91907018D01*
X165452230Y-91935273D01*
X165330303Y-92057200D01*
X165194765Y-92250769D01*
X165194764Y-92250771D01*
X165094898Y-92464935D01*
X165094894Y-92464944D01*
X165033738Y-92693186D01*
X165033736Y-92693196D01*
X165013141Y-92928599D01*
X162644459Y-92928599D01*
X162623863Y-92693192D01*
X162562703Y-92464937D01*
X162462835Y-92250771D01*
X162457225Y-92242758D01*
X162327294Y-92057197D01*
X162160202Y-91890106D01*
X162160196Y-91890101D01*
X161974642Y-91760175D01*
X161931017Y-91705598D01*
X161923823Y-91636100D01*
X161955346Y-91573745D01*
X161974642Y-91557025D01*
X161996826Y-91541491D01*
X162160201Y-91427095D01*
X162327295Y-91260001D01*
X162462835Y-91066430D01*
X162562703Y-90852263D01*
X162623863Y-90624008D01*
X162644459Y-90388600D01*
X162623863Y-90153192D01*
X162562703Y-89924937D01*
X162462835Y-89710771D01*
X162346337Y-89544393D01*
X162327294Y-89517197D01*
X162160202Y-89350106D01*
X162160195Y-89350101D01*
X161966634Y-89214567D01*
X161966630Y-89214565D01*
X161966628Y-89214564D01*
X161752463Y-89114697D01*
X161752459Y-89114696D01*
X161752455Y-89114694D01*
X161524213Y-89053538D01*
X161524203Y-89053536D01*
X161288801Y-89032941D01*
X161288799Y-89032941D01*
X161053396Y-89053536D01*
X161053386Y-89053538D01*
X160825144Y-89114694D01*
X160825135Y-89114698D01*
X160610971Y-89214564D01*
X160610969Y-89214565D01*
X160417397Y-89350105D01*
X160250305Y-89517197D01*
X160114765Y-89710769D01*
X160114764Y-89710771D01*
X160014898Y-89924935D01*
X160014894Y-89924944D01*
X159953738Y-90153186D01*
X159953736Y-90153196D01*
X159933141Y-90388599D01*
X150007670Y-90388599D01*
X150018243Y-90261000D01*
X150009310Y-90153196D01*
X149997709Y-90013187D01*
X149997707Y-90013175D01*
X149936663Y-89772118D01*
X149836773Y-89544393D01*
X149700766Y-89336217D01*
X149663991Y-89296269D01*
X149532344Y-89153262D01*
X149336109Y-89000526D01*
X149336107Y-89000525D01*
X149336106Y-89000524D01*
X149117411Y-88882172D01*
X149117402Y-88882169D01*
X148882216Y-88801429D01*
X148636935Y-88760500D01*
X148388265Y-88760500D01*
X148142983Y-88801429D01*
X147907797Y-88882169D01*
X147907788Y-88882172D01*
X147689093Y-89000524D01*
X147492857Y-89153261D01*
X147324433Y-89336217D01*
X147188426Y-89544393D01*
X147088536Y-89772118D01*
X147027492Y-90013175D01*
X147027490Y-90013187D01*
X147006957Y-90260994D01*
X143518243Y-90260994D01*
X143509310Y-90153196D01*
X143497709Y-90013187D01*
X143497707Y-90013175D01*
X143436663Y-89772118D01*
X143336773Y-89544393D01*
X143200766Y-89336217D01*
X143163991Y-89296269D01*
X143032344Y-89153262D01*
X142836109Y-89000526D01*
X142836107Y-89000525D01*
X142836106Y-89000524D01*
X142617411Y-88882172D01*
X142617402Y-88882169D01*
X142382216Y-88801429D01*
X142136935Y-88760500D01*
X141888265Y-88760500D01*
X141642983Y-88801429D01*
X141407797Y-88882169D01*
X141407788Y-88882172D01*
X141189093Y-89000524D01*
X140992857Y-89153261D01*
X140824433Y-89336217D01*
X140688426Y-89544393D01*
X140588536Y-89772118D01*
X140527492Y-90013175D01*
X140527490Y-90013187D01*
X140506957Y-90260994D01*
X133559043Y-90260994D01*
X133550110Y-90153196D01*
X133538509Y-90013187D01*
X133538507Y-90013175D01*
X133477463Y-89772118D01*
X133377573Y-89544393D01*
X133241566Y-89336217D01*
X133204791Y-89296269D01*
X133073144Y-89153262D01*
X132876909Y-89000526D01*
X132876907Y-89000525D01*
X132876906Y-89000524D01*
X132658211Y-88882172D01*
X132658202Y-88882169D01*
X132423016Y-88801429D01*
X132177735Y-88760500D01*
X131929065Y-88760500D01*
X131683783Y-88801429D01*
X131448597Y-88882169D01*
X131448588Y-88882172D01*
X131229893Y-89000524D01*
X131033657Y-89153261D01*
X130865233Y-89336217D01*
X130729226Y-89544393D01*
X130629336Y-89772118D01*
X130568292Y-90013175D01*
X130568290Y-90013187D01*
X130547757Y-90260994D01*
X127059043Y-90260994D01*
X127050110Y-90153196D01*
X127038509Y-90013187D01*
X127038507Y-90013175D01*
X126977463Y-89772118D01*
X126877573Y-89544393D01*
X126741566Y-89336217D01*
X126704791Y-89296269D01*
X126573144Y-89153262D01*
X126376909Y-89000526D01*
X126376907Y-89000525D01*
X126376906Y-89000524D01*
X126158211Y-88882172D01*
X126158202Y-88882169D01*
X125923016Y-88801429D01*
X125677735Y-88760500D01*
X125429065Y-88760500D01*
X125183783Y-88801429D01*
X124948597Y-88882169D01*
X124948588Y-88882172D01*
X124729893Y-89000524D01*
X124533657Y-89153261D01*
X124365233Y-89336217D01*
X124229226Y-89544393D01*
X124129336Y-89772118D01*
X124068292Y-90013175D01*
X124068290Y-90013187D01*
X124047757Y-90260994D01*
X114354299Y-90260994D01*
X114354299Y-89490728D01*
X114347891Y-89431117D01*
X114346609Y-89427681D01*
X114297597Y-89296271D01*
X114297593Y-89296264D01*
X114211347Y-89181055D01*
X114211344Y-89181052D01*
X114096135Y-89094806D01*
X114096128Y-89094802D01*
X113961282Y-89044508D01*
X113961283Y-89044508D01*
X113901683Y-89038101D01*
X113901681Y-89038100D01*
X113901673Y-89038100D01*
X113901664Y-89038100D01*
X112105929Y-89038100D01*
X112105923Y-89038101D01*
X112046316Y-89044508D01*
X111911471Y-89094802D01*
X111911464Y-89094806D01*
X111796255Y-89181052D01*
X111796252Y-89181055D01*
X111710006Y-89296264D01*
X111710002Y-89296271D01*
X111659708Y-89431117D01*
X111655310Y-89472030D01*
X111653301Y-89490723D01*
X111653300Y-89490735D01*
X111653300Y-91286470D01*
X111653301Y-91286476D01*
X111659708Y-91346083D01*
X111710002Y-91480928D01*
X111710006Y-91480935D01*
X111796252Y-91596144D01*
X111796255Y-91596147D01*
X111911464Y-91682393D01*
X111911471Y-91682397D01*
X112042881Y-91731410D01*
X112098815Y-91773281D01*
X112123232Y-91838745D01*
X112108380Y-91907018D01*
X112087230Y-91935273D01*
X111965303Y-92057200D01*
X111829765Y-92250769D01*
X111829764Y-92250771D01*
X111729898Y-92464935D01*
X111729894Y-92464944D01*
X111668738Y-92693186D01*
X111668736Y-92693196D01*
X111648141Y-92928599D01*
X109304459Y-92928599D01*
X109283863Y-92693192D01*
X109222703Y-92464937D01*
X109122835Y-92250771D01*
X109117225Y-92242758D01*
X108987294Y-92057197D01*
X108820202Y-91890106D01*
X108820196Y-91890101D01*
X108634642Y-91760175D01*
X108591017Y-91705598D01*
X108583823Y-91636100D01*
X108615346Y-91573745D01*
X108634642Y-91557025D01*
X108656826Y-91541491D01*
X108820201Y-91427095D01*
X108987295Y-91260001D01*
X109122835Y-91066430D01*
X109222703Y-90852263D01*
X109283863Y-90624008D01*
X109304459Y-90388600D01*
X109283863Y-90153192D01*
X109222703Y-89924937D01*
X109122835Y-89710771D01*
X109006337Y-89544393D01*
X108987294Y-89517197D01*
X108820202Y-89350106D01*
X108820195Y-89350101D01*
X108626634Y-89214567D01*
X108626630Y-89214565D01*
X108626628Y-89214564D01*
X108412463Y-89114697D01*
X108412459Y-89114696D01*
X108412455Y-89114694D01*
X108184213Y-89053538D01*
X108184203Y-89053536D01*
X107948801Y-89032941D01*
X107948799Y-89032941D01*
X107713396Y-89053536D01*
X107713386Y-89053538D01*
X107485144Y-89114694D01*
X107485135Y-89114698D01*
X107270971Y-89214564D01*
X107270969Y-89214565D01*
X107077400Y-89350103D01*
X106955473Y-89472030D01*
X106894150Y-89505514D01*
X106824458Y-89500530D01*
X106768525Y-89458658D01*
X106751610Y-89427681D01*
X106702597Y-89296271D01*
X106702593Y-89296264D01*
X106616347Y-89181055D01*
X106616344Y-89181052D01*
X106501135Y-89094806D01*
X106501128Y-89094802D01*
X106366282Y-89044508D01*
X106366283Y-89044508D01*
X106306683Y-89038101D01*
X106306681Y-89038100D01*
X106306673Y-89038100D01*
X106306664Y-89038100D01*
X104510929Y-89038100D01*
X104510923Y-89038101D01*
X104451316Y-89044508D01*
X104316471Y-89094802D01*
X104316464Y-89094806D01*
X104201255Y-89181052D01*
X104201252Y-89181055D01*
X104115006Y-89296264D01*
X104115002Y-89296271D01*
X104064708Y-89431117D01*
X104060310Y-89472030D01*
X104058301Y-89490723D01*
X104058300Y-89490735D01*
X104058300Y-91286470D01*
X104058301Y-91286476D01*
X104064708Y-91346083D01*
X104115002Y-91480928D01*
X104115006Y-91480935D01*
X104201252Y-91596144D01*
X104201255Y-91596147D01*
X104316464Y-91682393D01*
X104316471Y-91682397D01*
X104447881Y-91731410D01*
X104503815Y-91773281D01*
X104528232Y-91838745D01*
X104513380Y-91907018D01*
X104492230Y-91935273D01*
X104370303Y-92057200D01*
X104234765Y-92250769D01*
X104234764Y-92250771D01*
X104134898Y-92464935D01*
X104134894Y-92464944D01*
X104073738Y-92693186D01*
X104073736Y-92693196D01*
X104053141Y-92928599D01*
X102659300Y-92928599D01*
X102659300Y-84740111D01*
X111153300Y-84740111D01*
X111153300Y-84982688D01*
X111184961Y-85223185D01*
X111247747Y-85457504D01*
X111285525Y-85548708D01*
X111340576Y-85681612D01*
X111461864Y-85891689D01*
X111461866Y-85891692D01*
X111461867Y-85891693D01*
X111609533Y-86084136D01*
X111609539Y-86084143D01*
X111781056Y-86255660D01*
X111781063Y-86255666D01*
X111853176Y-86311000D01*
X111973511Y-86403336D01*
X112183588Y-86524624D01*
X112407700Y-86617454D01*
X112642011Y-86680238D01*
X112822386Y-86703984D01*
X112882511Y-86711900D01*
X112882512Y-86711900D01*
X113125089Y-86711900D01*
X113173188Y-86705567D01*
X113365589Y-86680238D01*
X113599900Y-86617454D01*
X113824012Y-86524624D01*
X114034089Y-86403336D01*
X114226538Y-86255665D01*
X114398065Y-86084138D01*
X114545736Y-85891689D01*
X114621193Y-85760994D01*
X124047757Y-85760994D01*
X124047757Y-85761005D01*
X124068290Y-86008812D01*
X124068292Y-86008824D01*
X124129336Y-86249881D01*
X124229226Y-86477606D01*
X124365233Y-86685782D01*
X124397645Y-86720991D01*
X124533656Y-86868738D01*
X124729891Y-87021474D01*
X124729893Y-87021475D01*
X124947732Y-87139364D01*
X124948590Y-87139828D01*
X125167541Y-87214994D01*
X125182364Y-87220083D01*
X125183786Y-87220571D01*
X125429065Y-87261500D01*
X125677735Y-87261500D01*
X125923014Y-87220571D01*
X126158210Y-87139828D01*
X126376909Y-87021474D01*
X126573144Y-86868738D01*
X126741564Y-86685785D01*
X126877573Y-86477607D01*
X126977463Y-86249881D01*
X127038508Y-86008821D01*
X127041452Y-85973292D01*
X127059043Y-85761005D01*
X127059043Y-85760994D01*
X130547757Y-85760994D01*
X130547757Y-85761005D01*
X130568290Y-86008812D01*
X130568292Y-86008824D01*
X130629336Y-86249881D01*
X130729226Y-86477606D01*
X130865233Y-86685782D01*
X130897645Y-86720991D01*
X131033656Y-86868738D01*
X131229891Y-87021474D01*
X131229893Y-87021475D01*
X131447732Y-87139364D01*
X131448590Y-87139828D01*
X131667541Y-87214994D01*
X131682364Y-87220083D01*
X131683786Y-87220571D01*
X131929065Y-87261500D01*
X132177735Y-87261500D01*
X132423014Y-87220571D01*
X132658210Y-87139828D01*
X132876909Y-87021474D01*
X133073144Y-86868738D01*
X133241564Y-86685785D01*
X133377573Y-86477607D01*
X133477463Y-86249881D01*
X133538508Y-86008821D01*
X133541452Y-85973292D01*
X133559043Y-85761005D01*
X133559043Y-85760994D01*
X140507459Y-85760994D01*
X140507459Y-85761005D01*
X140527985Y-86008729D01*
X140527987Y-86008738D01*
X140589012Y-86249717D01*
X140688866Y-86477364D01*
X140789164Y-86630882D01*
X141488812Y-85931234D01*
X141500082Y-85973292D01*
X141572490Y-86098708D01*
X141674892Y-86201110D01*
X141800308Y-86273518D01*
X141842365Y-86284787D01*
X141142542Y-86984609D01*
X141189368Y-87021055D01*
X141189370Y-87021056D01*
X141407985Y-87139364D01*
X141407996Y-87139369D01*
X141643106Y-87220083D01*
X141888307Y-87261000D01*
X142136893Y-87261000D01*
X142382093Y-87220083D01*
X142617203Y-87139369D01*
X142617214Y-87139364D01*
X142835828Y-87021057D01*
X142835831Y-87021055D01*
X142882656Y-86984609D01*
X142182834Y-86284787D01*
X142224892Y-86273518D01*
X142350308Y-86201110D01*
X142452710Y-86098708D01*
X142525118Y-85973292D01*
X142536387Y-85931235D01*
X143236034Y-86630882D01*
X143336331Y-86477369D01*
X143436187Y-86249717D01*
X143497212Y-86008738D01*
X143497214Y-86008729D01*
X143517741Y-85761005D01*
X143517741Y-85760994D01*
X147007459Y-85760994D01*
X147007459Y-85761005D01*
X147027985Y-86008729D01*
X147027987Y-86008738D01*
X147089012Y-86249717D01*
X147188866Y-86477364D01*
X147289164Y-86630882D01*
X147988812Y-85931234D01*
X148000082Y-85973292D01*
X148072490Y-86098708D01*
X148174892Y-86201110D01*
X148300308Y-86273518D01*
X148342365Y-86284787D01*
X147642542Y-86984609D01*
X147689368Y-87021055D01*
X147689370Y-87021056D01*
X147907985Y-87139364D01*
X147907996Y-87139369D01*
X148143106Y-87220083D01*
X148388307Y-87261000D01*
X148636893Y-87261000D01*
X148882093Y-87220083D01*
X149117203Y-87139369D01*
X149117214Y-87139364D01*
X149335828Y-87021057D01*
X149335831Y-87021055D01*
X149382656Y-86984609D01*
X148682834Y-86284787D01*
X148724892Y-86273518D01*
X148850308Y-86201110D01*
X148952710Y-86098708D01*
X149025118Y-85973292D01*
X149036387Y-85931235D01*
X149736034Y-86630882D01*
X149836331Y-86477369D01*
X149936187Y-86249717D01*
X149997212Y-86008738D01*
X149997214Y-86008729D01*
X150017741Y-85761005D01*
X150017741Y-85760994D01*
X149997214Y-85513270D01*
X149997212Y-85513261D01*
X149936187Y-85272282D01*
X149836331Y-85044630D01*
X149819920Y-85019511D01*
X159463300Y-85019511D01*
X159463300Y-85262088D01*
X159494961Y-85502585D01*
X159557747Y-85736904D01*
X159621863Y-85891693D01*
X159650576Y-85961012D01*
X159771864Y-86171089D01*
X159771866Y-86171092D01*
X159771867Y-86171093D01*
X159919533Y-86363536D01*
X159919539Y-86363543D01*
X160091056Y-86535060D01*
X160091062Y-86535065D01*
X160283511Y-86682736D01*
X160493588Y-86804024D01*
X160717700Y-86896854D01*
X160952011Y-86959638D01*
X161132386Y-86983384D01*
X161192511Y-86991300D01*
X161192512Y-86991300D01*
X161435089Y-86991300D01*
X161485912Y-86984609D01*
X161675589Y-86959638D01*
X161909900Y-86896854D01*
X162134012Y-86804024D01*
X162344089Y-86682736D01*
X162536538Y-86535065D01*
X162708065Y-86363538D01*
X162855736Y-86171089D01*
X162977024Y-85961012D01*
X163069854Y-85736900D01*
X163132638Y-85502589D01*
X163164300Y-85262088D01*
X163164300Y-85019512D01*
X163132638Y-84779011D01*
X163069854Y-84544700D01*
X162977024Y-84320588D01*
X162855736Y-84110511D01*
X162708065Y-83918062D01*
X162708060Y-83918056D01*
X162536543Y-83746539D01*
X162536536Y-83746533D01*
X162344093Y-83598867D01*
X162344092Y-83598866D01*
X162344089Y-83598864D01*
X162134012Y-83477576D01*
X162108815Y-83467139D01*
X161909904Y-83384747D01*
X161675585Y-83321961D01*
X161435089Y-83290300D01*
X161435088Y-83290300D01*
X161192512Y-83290300D01*
X161192511Y-83290300D01*
X160952014Y-83321961D01*
X160717695Y-83384747D01*
X160493594Y-83477573D01*
X160493585Y-83477577D01*
X160283506Y-83598867D01*
X160091063Y-83746533D01*
X160091056Y-83746539D01*
X159919539Y-83918056D01*
X159919533Y-83918063D01*
X159771867Y-84110506D01*
X159650577Y-84320585D01*
X159650573Y-84320594D01*
X159557747Y-84544695D01*
X159494961Y-84779014D01*
X159463300Y-85019511D01*
X149819920Y-85019511D01*
X149736034Y-84891116D01*
X149036387Y-85590764D01*
X149025118Y-85548708D01*
X148952710Y-85423292D01*
X148850308Y-85320890D01*
X148724892Y-85248482D01*
X148682835Y-85237212D01*
X149382657Y-84537390D01*
X149382656Y-84537389D01*
X149335829Y-84500943D01*
X149117214Y-84382635D01*
X149117203Y-84382630D01*
X148882093Y-84301916D01*
X148636893Y-84261000D01*
X148388307Y-84261000D01*
X148143106Y-84301916D01*
X147907996Y-84382630D01*
X147907990Y-84382632D01*
X147689361Y-84500949D01*
X147642542Y-84537388D01*
X147642542Y-84537390D01*
X148342365Y-85237212D01*
X148300308Y-85248482D01*
X148174892Y-85320890D01*
X148072490Y-85423292D01*
X148000082Y-85548708D01*
X147988812Y-85590764D01*
X147289164Y-84891116D01*
X147188867Y-85044632D01*
X147089012Y-85272282D01*
X147027987Y-85513261D01*
X147027985Y-85513270D01*
X147007459Y-85760994D01*
X143517741Y-85760994D01*
X143497214Y-85513270D01*
X143497212Y-85513261D01*
X143436187Y-85272282D01*
X143336331Y-85044630D01*
X143236034Y-84891116D01*
X142536387Y-85590764D01*
X142525118Y-85548708D01*
X142452710Y-85423292D01*
X142350308Y-85320890D01*
X142224892Y-85248482D01*
X142182835Y-85237212D01*
X142882657Y-84537390D01*
X142882656Y-84537389D01*
X142835829Y-84500943D01*
X142617214Y-84382635D01*
X142617203Y-84382630D01*
X142382093Y-84301916D01*
X142136893Y-84261000D01*
X141888307Y-84261000D01*
X141643106Y-84301916D01*
X141407996Y-84382630D01*
X141407990Y-84382632D01*
X141189361Y-84500949D01*
X141142542Y-84537388D01*
X141142542Y-84537390D01*
X141842365Y-85237212D01*
X141800308Y-85248482D01*
X141674892Y-85320890D01*
X141572490Y-85423292D01*
X141500082Y-85548708D01*
X141488812Y-85590764D01*
X140789164Y-84891116D01*
X140688867Y-85044632D01*
X140589012Y-85272282D01*
X140527987Y-85513261D01*
X140527985Y-85513270D01*
X140507459Y-85760994D01*
X133559043Y-85760994D01*
X133538509Y-85513187D01*
X133538507Y-85513175D01*
X133477463Y-85272118D01*
X133377573Y-85044393D01*
X133241566Y-84836217D01*
X133153094Y-84740111D01*
X133073144Y-84653262D01*
X132876909Y-84500526D01*
X132876907Y-84500525D01*
X132876906Y-84500524D01*
X132658211Y-84382172D01*
X132658202Y-84382169D01*
X132423016Y-84301429D01*
X132177735Y-84260500D01*
X131929065Y-84260500D01*
X131683783Y-84301429D01*
X131448597Y-84382169D01*
X131448588Y-84382172D01*
X131229893Y-84500524D01*
X131033657Y-84653261D01*
X130865233Y-84836217D01*
X130729226Y-85044393D01*
X130629336Y-85272118D01*
X130568292Y-85513175D01*
X130568290Y-85513187D01*
X130547757Y-85760994D01*
X127059043Y-85760994D01*
X127038509Y-85513187D01*
X127038507Y-85513175D01*
X126977463Y-85272118D01*
X126877573Y-85044393D01*
X126741566Y-84836217D01*
X126653094Y-84740111D01*
X126573144Y-84653262D01*
X126376909Y-84500526D01*
X126376907Y-84500525D01*
X126376906Y-84500524D01*
X126158211Y-84382172D01*
X126158202Y-84382169D01*
X125923016Y-84301429D01*
X125677735Y-84260500D01*
X125429065Y-84260500D01*
X125183783Y-84301429D01*
X124948597Y-84382169D01*
X124948588Y-84382172D01*
X124729893Y-84500524D01*
X124533657Y-84653261D01*
X124365233Y-84836217D01*
X124229226Y-85044393D01*
X124129336Y-85272118D01*
X124068292Y-85513175D01*
X124068290Y-85513187D01*
X124047757Y-85760994D01*
X114621193Y-85760994D01*
X114667024Y-85681612D01*
X114759854Y-85457500D01*
X114822638Y-85223189D01*
X114854300Y-84982688D01*
X114854300Y-84740112D01*
X114822638Y-84499611D01*
X114759854Y-84265300D01*
X114667024Y-84041188D01*
X114545736Y-83831111D01*
X114398065Y-83638662D01*
X114398060Y-83638656D01*
X114226543Y-83467139D01*
X114226536Y-83467133D01*
X114034093Y-83319467D01*
X114034092Y-83319466D01*
X114034089Y-83319464D01*
X113824012Y-83198176D01*
X113824005Y-83198173D01*
X113599904Y-83105347D01*
X113365585Y-83042561D01*
X113125089Y-83010900D01*
X113125088Y-83010900D01*
X112882512Y-83010900D01*
X112882511Y-83010900D01*
X112642014Y-83042561D01*
X112407695Y-83105347D01*
X112183594Y-83198173D01*
X112183585Y-83198177D01*
X111973506Y-83319467D01*
X111781063Y-83467133D01*
X111781056Y-83467139D01*
X111609539Y-83638656D01*
X111609533Y-83638663D01*
X111461867Y-83831106D01*
X111340577Y-84041185D01*
X111340573Y-84041194D01*
X111247747Y-84265295D01*
X111184961Y-84499614D01*
X111153300Y-84740111D01*
X102659300Y-84740111D01*
X102659300Y-61550755D01*
X104058800Y-61550755D01*
X104058800Y-62198600D01*
X104975788Y-62198600D01*
X104942875Y-62255607D01*
X104908800Y-62382774D01*
X104908800Y-62514426D01*
X104942875Y-62641593D01*
X104975788Y-62698600D01*
X104058800Y-62698600D01*
X104058800Y-63346444D01*
X104065201Y-63405972D01*
X104065203Y-63405979D01*
X104115445Y-63540686D01*
X104115449Y-63540693D01*
X104201609Y-63655787D01*
X104201612Y-63655790D01*
X104316706Y-63741950D01*
X104316713Y-63741954D01*
X104448786Y-63791214D01*
X104504720Y-63833085D01*
X104529137Y-63898549D01*
X104514286Y-63966822D01*
X104493135Y-63995077D01*
X104370686Y-64117526D01*
X104235200Y-64311020D01*
X104235199Y-64311022D01*
X104135370Y-64525107D01*
X104135367Y-64525113D01*
X104078164Y-64738599D01*
X104078164Y-64738600D01*
X104975788Y-64738600D01*
X104942875Y-64795607D01*
X104908800Y-64922774D01*
X104908800Y-65054426D01*
X104942875Y-65181593D01*
X104975788Y-65238600D01*
X104078164Y-65238600D01*
X104135367Y-65452086D01*
X104135370Y-65452092D01*
X104235199Y-65666178D01*
X104370694Y-65859682D01*
X104537717Y-66026705D01*
X104731221Y-66162200D01*
X104945307Y-66262029D01*
X104945316Y-66262033D01*
X105158800Y-66319234D01*
X105158800Y-65421612D01*
X105215807Y-65454525D01*
X105342974Y-65488600D01*
X105474626Y-65488600D01*
X105601793Y-65454525D01*
X105658800Y-65421612D01*
X105658800Y-66319233D01*
X105872283Y-66262033D01*
X105872292Y-66262029D01*
X106086378Y-66162200D01*
X106279882Y-66026705D01*
X106446905Y-65859682D01*
X106582400Y-65666178D01*
X106682229Y-65452092D01*
X106682232Y-65452086D01*
X106739436Y-65238600D01*
X105841812Y-65238600D01*
X105874725Y-65181593D01*
X105908800Y-65054426D01*
X105908800Y-64922774D01*
X105874725Y-64795607D01*
X105841812Y-64738600D01*
X106739436Y-64738600D01*
X106739435Y-64738599D01*
X106682232Y-64525113D01*
X106682229Y-64525107D01*
X106582400Y-64311022D01*
X106582399Y-64311020D01*
X106446913Y-64117526D01*
X106446908Y-64117520D01*
X106324465Y-63995077D01*
X106290980Y-63933754D01*
X106295964Y-63864062D01*
X106337836Y-63808129D01*
X106368813Y-63791214D01*
X106500886Y-63741954D01*
X106500893Y-63741950D01*
X106615987Y-63655790D01*
X106615990Y-63655787D01*
X106702150Y-63540693D01*
X106702154Y-63540686D01*
X106752396Y-63405979D01*
X106752398Y-63405972D01*
X106758799Y-63346444D01*
X106758800Y-63346427D01*
X106758800Y-62698600D01*
X105841812Y-62698600D01*
X105874725Y-62641593D01*
X105908800Y-62514426D01*
X105908800Y-62382774D01*
X105874725Y-62255607D01*
X105859940Y-62229999D01*
X113147541Y-62229999D01*
X113147541Y-62230000D01*
X113168136Y-62465403D01*
X113168138Y-62465413D01*
X113229294Y-62693655D01*
X113229296Y-62693659D01*
X113229297Y-62693663D01*
X113294124Y-62832684D01*
X113329165Y-62907830D01*
X113329167Y-62907834D01*
X113427883Y-63048814D01*
X113464701Y-63101396D01*
X113464706Y-63101402D01*
X113631797Y-63268493D01*
X113631803Y-63268498D01*
X113817358Y-63398425D01*
X113860983Y-63453002D01*
X113868177Y-63522500D01*
X113836654Y-63584855D01*
X113817358Y-63601575D01*
X113631797Y-63731505D01*
X113464705Y-63898597D01*
X113329165Y-64092169D01*
X113329164Y-64092171D01*
X113254224Y-64252881D01*
X113233277Y-64297803D01*
X113229298Y-64306335D01*
X113229294Y-64306344D01*
X113168138Y-64534586D01*
X113168136Y-64534596D01*
X113147541Y-64769999D01*
X113147541Y-64770000D01*
X113168136Y-65005403D01*
X113168138Y-65005413D01*
X113229294Y-65233655D01*
X113229296Y-65233659D01*
X113229297Y-65233663D01*
X113233200Y-65242032D01*
X113329165Y-65447830D01*
X113329167Y-65447834D01*
X113357712Y-65488600D01*
X113464705Y-65641401D01*
X113631799Y-65808495D01*
X113704902Y-65859682D01*
X113825365Y-65944032D01*
X113825367Y-65944033D01*
X113825370Y-65944035D01*
X114039537Y-66043903D01*
X114267792Y-66105063D01*
X114456118Y-66121539D01*
X114503199Y-66125659D01*
X114503200Y-66125659D01*
X114503201Y-66125659D01*
X114542434Y-66122226D01*
X114738608Y-66105063D01*
X114966863Y-66043903D01*
X115181030Y-65944035D01*
X115374601Y-65808495D01*
X115541695Y-65641401D01*
X115671625Y-65455842D01*
X115726202Y-65412217D01*
X115795700Y-65405023D01*
X115858055Y-65436546D01*
X115874775Y-65455842D01*
X116004700Y-65641395D01*
X116004705Y-65641401D01*
X116171799Y-65808495D01*
X116244902Y-65859682D01*
X116365365Y-65944032D01*
X116365367Y-65944033D01*
X116365370Y-65944035D01*
X116579537Y-66043903D01*
X116807792Y-66105063D01*
X116996118Y-66121539D01*
X117043199Y-66125659D01*
X117043200Y-66125659D01*
X117043201Y-66125659D01*
X117082434Y-66122226D01*
X117278608Y-66105063D01*
X117506863Y-66043903D01*
X117721030Y-65944035D01*
X117914601Y-65808495D01*
X118081695Y-65641401D01*
X118211625Y-65455842D01*
X118266202Y-65412217D01*
X118335700Y-65405023D01*
X118398055Y-65436546D01*
X118414775Y-65455842D01*
X118544700Y-65641395D01*
X118544705Y-65641401D01*
X118711799Y-65808495D01*
X118784902Y-65859682D01*
X118905365Y-65944032D01*
X118905367Y-65944033D01*
X118905370Y-65944035D01*
X119119537Y-66043903D01*
X119347792Y-66105063D01*
X119536118Y-66121539D01*
X119583199Y-66125659D01*
X119583200Y-66125659D01*
X119583201Y-66125659D01*
X119622434Y-66122226D01*
X119818608Y-66105063D01*
X120046863Y-66043903D01*
X120261030Y-65944035D01*
X120454601Y-65808495D01*
X120621695Y-65641401D01*
X120751625Y-65455842D01*
X120806202Y-65412217D01*
X120875700Y-65405023D01*
X120938055Y-65436546D01*
X120954775Y-65455842D01*
X121084700Y-65641395D01*
X121084705Y-65641401D01*
X121251799Y-65808495D01*
X121324902Y-65859682D01*
X121445365Y-65944032D01*
X121445367Y-65944033D01*
X121445370Y-65944035D01*
X121659537Y-66043903D01*
X121887792Y-66105063D01*
X122076118Y-66121539D01*
X122123199Y-66125659D01*
X122123200Y-66125659D01*
X122123201Y-66125659D01*
X122162434Y-66122226D01*
X122358608Y-66105063D01*
X122586863Y-66043903D01*
X122801030Y-65944035D01*
X122994601Y-65808495D01*
X123161695Y-65641401D01*
X123291625Y-65455842D01*
X123346202Y-65412217D01*
X123415700Y-65405023D01*
X123478055Y-65436546D01*
X123494775Y-65455842D01*
X123624700Y-65641395D01*
X123624705Y-65641401D01*
X123791799Y-65808495D01*
X123864902Y-65859682D01*
X123985365Y-65944032D01*
X123985367Y-65944033D01*
X123985370Y-65944035D01*
X124199537Y-66043903D01*
X124427792Y-66105063D01*
X124616118Y-66121539D01*
X124663199Y-66125659D01*
X124663200Y-66125659D01*
X124663201Y-66125659D01*
X124702434Y-66122226D01*
X124898608Y-66105063D01*
X125126863Y-66043903D01*
X125341030Y-65944035D01*
X125534601Y-65808495D01*
X125701695Y-65641401D01*
X125837235Y-65447830D01*
X125937103Y-65233663D01*
X125998263Y-65005408D01*
X126008785Y-64885143D01*
X131761299Y-64885143D01*
X131799747Y-65078429D01*
X131799750Y-65078439D01*
X131875164Y-65260507D01*
X131875171Y-65260520D01*
X131984660Y-65424381D01*
X131984663Y-65424385D01*
X132124014Y-65563736D01*
X132124018Y-65563739D01*
X132287879Y-65673228D01*
X132287892Y-65673235D01*
X132469960Y-65748649D01*
X132469965Y-65748651D01*
X132469969Y-65748651D01*
X132469970Y-65748652D01*
X132663256Y-65787100D01*
X132663259Y-65787100D01*
X132860343Y-65787100D01*
X132990382Y-65761232D01*
X133053635Y-65748651D01*
X133235714Y-65673232D01*
X133399582Y-65563739D01*
X133538939Y-65424382D01*
X133648432Y-65260514D01*
X133723851Y-65078435D01*
X133738378Y-65005403D01*
X133762300Y-64885143D01*
X133762300Y-64347933D01*
X133781985Y-64280894D01*
X133834789Y-64235139D01*
X133903947Y-64225195D01*
X133948301Y-64240547D01*
X133969659Y-64252878D01*
X133969660Y-64252878D01*
X133969665Y-64252881D01*
X134116034Y-64292100D01*
X134116036Y-64292100D01*
X134267564Y-64292100D01*
X134267566Y-64292100D01*
X134413935Y-64252881D01*
X134545165Y-64177115D01*
X134652315Y-64069965D01*
X134728081Y-63938735D01*
X134767300Y-63792366D01*
X134767300Y-63640834D01*
X139396300Y-63640834D01*
X139396300Y-63792366D01*
X139408410Y-63837561D01*
X139435519Y-63938736D01*
X139451735Y-63966822D01*
X139511285Y-64069965D01*
X139618435Y-64177115D01*
X139701712Y-64225195D01*
X139749661Y-64252879D01*
X139749665Y-64252881D01*
X139896034Y-64292100D01*
X139896036Y-64292100D01*
X140047564Y-64292100D01*
X140047566Y-64292100D01*
X140193935Y-64252881D01*
X140204251Y-64246925D01*
X140215299Y-64240547D01*
X140283198Y-64224073D01*
X140349226Y-64246925D01*
X140392417Y-64301845D01*
X140401300Y-64347933D01*
X140401300Y-64885141D01*
X140401300Y-64885143D01*
X140401299Y-64885143D01*
X140439747Y-65078429D01*
X140439750Y-65078439D01*
X140515164Y-65260507D01*
X140515171Y-65260520D01*
X140624660Y-65424381D01*
X140624663Y-65424385D01*
X140764014Y-65563736D01*
X140764018Y-65563739D01*
X140927879Y-65673228D01*
X140927892Y-65673235D01*
X141109960Y-65748649D01*
X141109965Y-65748651D01*
X141109969Y-65748651D01*
X141109970Y-65748652D01*
X141303256Y-65787100D01*
X141303259Y-65787100D01*
X141500343Y-65787100D01*
X141630382Y-65761232D01*
X141693635Y-65748651D01*
X141875714Y-65673232D01*
X142039582Y-65563739D01*
X142178939Y-65424382D01*
X142288432Y-65260514D01*
X142363851Y-65078435D01*
X142378378Y-65005403D01*
X142402300Y-64885143D01*
X142402300Y-63588056D01*
X142363852Y-63394770D01*
X142363851Y-63394769D01*
X142363851Y-63394765D01*
X142343829Y-63346427D01*
X142288435Y-63212692D01*
X142288428Y-63212679D01*
X142178939Y-63048818D01*
X142178936Y-63048814D01*
X142039585Y-62909463D01*
X142039581Y-62909460D01*
X141875720Y-62799971D01*
X141875707Y-62799964D01*
X141693639Y-62724550D01*
X141693629Y-62724547D01*
X141500343Y-62686100D01*
X141500341Y-62686100D01*
X141303259Y-62686100D01*
X141303257Y-62686100D01*
X141109970Y-62724547D01*
X141109960Y-62724550D01*
X140927892Y-62799964D01*
X140927879Y-62799971D01*
X140764018Y-62909460D01*
X140764014Y-62909463D01*
X140624663Y-63048814D01*
X140624660Y-63048818D01*
X140515168Y-63212684D01*
X140512349Y-63217959D01*
X140463386Y-63267803D01*
X140395248Y-63283263D01*
X140329569Y-63259431D01*
X140327501Y-63257878D01*
X140325169Y-63256089D01*
X140325165Y-63256085D01*
X140230327Y-63201330D01*
X140193936Y-63180319D01*
X140120750Y-63160709D01*
X140047566Y-63141100D01*
X139896034Y-63141100D01*
X139749663Y-63180319D01*
X139618435Y-63256085D01*
X139618432Y-63256087D01*
X139511287Y-63363232D01*
X139511285Y-63363235D01*
X139435519Y-63494463D01*
X139410441Y-63588059D01*
X139396300Y-63640834D01*
X134767300Y-63640834D01*
X134728081Y-63494465D01*
X134652315Y-63363235D01*
X134545165Y-63256085D01*
X134479115Y-63217951D01*
X134413936Y-63180319D01*
X134340750Y-63160709D01*
X134267566Y-63141100D01*
X134116034Y-63141100D01*
X133969663Y-63180319D01*
X133838431Y-63256087D01*
X133836093Y-63257882D01*
X133833764Y-63258782D01*
X133831397Y-63260149D01*
X133831183Y-63259779D01*
X133770923Y-63283075D01*
X133702478Y-63269036D01*
X133652490Y-63220221D01*
X133651246Y-63217951D01*
X133648430Y-63212682D01*
X133538939Y-63048818D01*
X133538936Y-63048814D01*
X133399585Y-62909463D01*
X133399581Y-62909460D01*
X133235720Y-62799971D01*
X133235707Y-62799964D01*
X133053639Y-62724550D01*
X133053629Y-62724547D01*
X132860343Y-62686100D01*
X132860341Y-62686100D01*
X132663259Y-62686100D01*
X132663257Y-62686100D01*
X132469970Y-62724547D01*
X132469960Y-62724550D01*
X132287892Y-62799964D01*
X132287879Y-62799971D01*
X132124018Y-62909460D01*
X132124014Y-62909463D01*
X131984663Y-63048814D01*
X131984660Y-63048818D01*
X131875171Y-63212679D01*
X131875164Y-63212692D01*
X131799750Y-63394760D01*
X131799747Y-63394770D01*
X131761300Y-63588056D01*
X131761300Y-63588059D01*
X131761300Y-64885141D01*
X131761300Y-64885143D01*
X131761299Y-64885143D01*
X126008785Y-64885143D01*
X126018859Y-64770000D01*
X125998263Y-64534592D01*
X125949694Y-64353328D01*
X125937105Y-64306344D01*
X125937104Y-64306343D01*
X125937103Y-64306337D01*
X125837235Y-64092171D01*
X125831625Y-64084158D01*
X125701694Y-63898597D01*
X125534598Y-63731501D01*
X125533230Y-63730354D01*
X125532792Y-63729696D01*
X125530773Y-63727677D01*
X125531178Y-63727271D01*
X125494530Y-63672182D01*
X125493424Y-63602321D01*
X125530263Y-63542952D01*
X125573937Y-63517662D01*
X125582534Y-63514814D01*
X125731856Y-63422712D01*
X125855912Y-63298656D01*
X125948014Y-63149334D01*
X126003199Y-62982797D01*
X126013700Y-62880009D01*
X126013699Y-61579992D01*
X126003199Y-61477203D01*
X125948014Y-61310666D01*
X125855912Y-61161344D01*
X125731856Y-61037288D01*
X125639088Y-60980069D01*
X125582536Y-60945187D01*
X125582531Y-60945185D01*
X125519175Y-60924191D01*
X125415997Y-60890001D01*
X125415995Y-60890000D01*
X125313210Y-60879500D01*
X124013198Y-60879500D01*
X124013181Y-60879501D01*
X123910403Y-60890000D01*
X123910400Y-60890001D01*
X123743868Y-60945185D01*
X123743863Y-60945187D01*
X123594542Y-61037289D01*
X123470489Y-61161342D01*
X123378387Y-61310663D01*
X123378383Y-61310673D01*
X123375535Y-61319268D01*
X123335760Y-61376711D01*
X123271244Y-61403531D01*
X123202468Y-61391214D01*
X123165717Y-61362233D01*
X123165524Y-61362427D01*
X123163882Y-61360785D01*
X123162842Y-61359965D01*
X123161694Y-61358597D01*
X122994602Y-61191506D01*
X122994595Y-61191501D01*
X122801034Y-61055967D01*
X122801030Y-61055965D01*
X122760977Y-61037288D01*
X122586863Y-60956097D01*
X122586859Y-60956096D01*
X122586855Y-60956094D01*
X122358613Y-60894938D01*
X122358603Y-60894936D01*
X122123201Y-60874341D01*
X122123199Y-60874341D01*
X121887796Y-60894936D01*
X121887786Y-60894938D01*
X121659544Y-60956094D01*
X121659535Y-60956098D01*
X121445371Y-61055964D01*
X121445369Y-61055965D01*
X121251797Y-61191505D01*
X121084705Y-61358597D01*
X120954775Y-61544158D01*
X120900198Y-61587783D01*
X120830700Y-61594977D01*
X120768345Y-61563454D01*
X120751625Y-61544158D01*
X120621694Y-61358597D01*
X120454602Y-61191506D01*
X120454595Y-61191501D01*
X120261034Y-61055967D01*
X120261030Y-61055965D01*
X120220977Y-61037288D01*
X120046863Y-60956097D01*
X120046859Y-60956096D01*
X120046855Y-60956094D01*
X119818613Y-60894938D01*
X119818603Y-60894936D01*
X119583201Y-60874341D01*
X119583199Y-60874341D01*
X119347796Y-60894936D01*
X119347786Y-60894938D01*
X119119544Y-60956094D01*
X119119535Y-60956098D01*
X118905371Y-61055964D01*
X118905369Y-61055965D01*
X118711797Y-61191505D01*
X118544705Y-61358597D01*
X118414775Y-61544158D01*
X118360198Y-61587783D01*
X118290700Y-61594977D01*
X118228345Y-61563454D01*
X118211625Y-61544158D01*
X118081694Y-61358597D01*
X117914602Y-61191506D01*
X117914595Y-61191501D01*
X117721034Y-61055967D01*
X117721030Y-61055965D01*
X117680977Y-61037288D01*
X117506863Y-60956097D01*
X117506859Y-60956096D01*
X117506855Y-60956094D01*
X117278613Y-60894938D01*
X117278603Y-60894936D01*
X117043201Y-60874341D01*
X117043199Y-60874341D01*
X116807796Y-60894936D01*
X116807786Y-60894938D01*
X116579544Y-60956094D01*
X116579535Y-60956098D01*
X116365371Y-61055964D01*
X116365369Y-61055965D01*
X116171797Y-61191505D01*
X116004705Y-61358597D01*
X115874775Y-61544158D01*
X115820198Y-61587783D01*
X115750700Y-61594977D01*
X115688345Y-61563454D01*
X115671625Y-61544158D01*
X115541694Y-61358597D01*
X115374602Y-61191506D01*
X115374595Y-61191501D01*
X115181034Y-61055967D01*
X115181030Y-61055965D01*
X115140977Y-61037288D01*
X114966863Y-60956097D01*
X114966859Y-60956096D01*
X114966855Y-60956094D01*
X114738613Y-60894938D01*
X114738603Y-60894936D01*
X114503201Y-60874341D01*
X114503199Y-60874341D01*
X114267796Y-60894936D01*
X114267786Y-60894938D01*
X114039544Y-60956094D01*
X114039535Y-60956098D01*
X113825371Y-61055964D01*
X113825369Y-61055965D01*
X113631797Y-61191505D01*
X113464705Y-61358597D01*
X113329165Y-61552169D01*
X113329164Y-61552171D01*
X113229298Y-61766335D01*
X113229294Y-61766344D01*
X113168138Y-61994586D01*
X113168136Y-61994596D01*
X113147541Y-62229999D01*
X105859940Y-62229999D01*
X105841812Y-62198600D01*
X106758800Y-62198600D01*
X106758800Y-61550772D01*
X106758799Y-61550755D01*
X106752398Y-61491227D01*
X106752396Y-61491220D01*
X106702154Y-61356513D01*
X106702150Y-61356506D01*
X106615990Y-61241412D01*
X106615987Y-61241409D01*
X106500893Y-61155249D01*
X106500886Y-61155245D01*
X106366179Y-61105003D01*
X106366172Y-61105001D01*
X106306644Y-61098600D01*
X105658800Y-61098600D01*
X105658800Y-62015588D01*
X105601793Y-61982675D01*
X105474626Y-61948600D01*
X105342974Y-61948600D01*
X105215807Y-61982675D01*
X105158800Y-62015588D01*
X105158800Y-61098600D01*
X104510955Y-61098600D01*
X104451427Y-61105001D01*
X104451420Y-61105003D01*
X104316713Y-61155245D01*
X104316706Y-61155249D01*
X104201612Y-61241409D01*
X104201609Y-61241412D01*
X104115449Y-61356506D01*
X104115445Y-61356513D01*
X104065203Y-61491220D01*
X104065201Y-61491227D01*
X104058800Y-61550755D01*
X102659300Y-61550755D01*
X102659300Y-59273100D01*
X102678985Y-59206061D01*
X102731789Y-59160306D01*
X102783300Y-59149100D01*
X131695217Y-59149100D01*
X131762256Y-59168785D01*
G37*
%TD.AperFunction*%
%TD*%
M02*
