%TF.GenerationSoftware,KiCad,Pcbnew,8.0.4*%
%TF.CreationDate,2024-12-11T23:07:32+07:00*%
%TF.ProjectId,G474-dev-board,47343734-2d64-4657-962d-626f6172642e,rev?*%
%TF.SameCoordinates,Original*%
%TF.FileFunction,Soldermask,Top*%
%TF.FilePolarity,Negative*%
%FSLAX46Y46*%
G04 Gerber Fmt 4.6, Leading zero omitted, Abs format (unit mm)*
G04 Created by KiCad (PCBNEW 8.0.4) date 2024-12-11 23:07:32*
%MOMM*%
%LPD*%
G01*
G04 APERTURE LIST*
G04 Aperture macros list*
%AMRoundRect*
0 Rectangle with rounded corners*
0 $1 Rounding radius*
0 $2 $3 $4 $5 $6 $7 $8 $9 X,Y pos of 4 corners*
0 Add a 4 corners polygon primitive as box body*
4,1,4,$2,$3,$4,$5,$6,$7,$8,$9,$2,$3,0*
0 Add four circle primitives for the rounded corners*
1,1,$1+$1,$2,$3*
1,1,$1+$1,$4,$5*
1,1,$1+$1,$6,$7*
1,1,$1+$1,$8,$9*
0 Add four rect primitives between the rounded corners*
20,1,$1+$1,$2,$3,$4,$5,0*
20,1,$1+$1,$4,$5,$6,$7,0*
20,1,$1+$1,$6,$7,$8,$9,0*
20,1,$1+$1,$8,$9,$2,$3,0*%
G04 Aperture macros list end*
%ADD10RoundRect,0.250000X0.300000X-0.300000X0.300000X0.300000X-0.300000X0.300000X-0.300000X-0.300000X0*%
%ADD11C,1.700000*%
%ADD12RoundRect,0.250000X-0.600000X0.600000X-0.600000X-0.600000X0.600000X-0.600000X0.600000X0.600000X0*%
%ADD13RoundRect,0.225000X0.375000X-0.225000X0.375000X0.225000X-0.375000X0.225000X-0.375000X-0.225000X0*%
%ADD14R,1.000000X1.800000*%
%ADD15R,1.400000X1.200000*%
%ADD16RoundRect,0.075000X0.075000X-0.700000X0.075000X0.700000X-0.075000X0.700000X-0.075000X-0.700000X0*%
%ADD17RoundRect,0.075000X0.700000X-0.075000X0.700000X0.075000X-0.700000X0.075000X-0.700000X-0.075000X0*%
%ADD18C,2.000000*%
%ADD19RoundRect,0.200000X0.200000X0.275000X-0.200000X0.275000X-0.200000X-0.275000X0.200000X-0.275000X0*%
%ADD20RoundRect,0.200000X-0.200000X-0.275000X0.200000X-0.275000X0.200000X0.275000X-0.200000X0.275000X0*%
%ADD21RoundRect,0.200000X0.275000X-0.200000X0.275000X0.200000X-0.275000X0.200000X-0.275000X-0.200000X0*%
%ADD22RoundRect,0.250000X0.275000X0.350000X-0.275000X0.350000X-0.275000X-0.350000X0.275000X-0.350000X0*%
%ADD23R,1.700000X1.700000*%
%ADD24O,1.700000X1.700000*%
%ADD25R,2.400000X0.740000*%
%ADD26RoundRect,0.225000X-0.225000X-0.250000X0.225000X-0.250000X0.225000X0.250000X-0.225000X0.250000X0*%
%ADD27RoundRect,0.250000X-0.250000X-0.475000X0.250000X-0.475000X0.250000X0.475000X-0.250000X0.475000X0*%
%ADD28RoundRect,0.225000X0.225000X0.250000X-0.225000X0.250000X-0.225000X-0.250000X0.225000X-0.250000X0*%
%ADD29RoundRect,0.225000X-0.250000X0.225000X-0.250000X-0.225000X0.250000X-0.225000X0.250000X0.225000X0*%
%ADD30RoundRect,0.225000X0.250000X-0.225000X0.250000X0.225000X-0.250000X0.225000X-0.250000X-0.225000X0*%
%ADD31RoundRect,0.250000X0.250000X0.475000X-0.250000X0.475000X-0.250000X-0.475000X0.250000X-0.475000X0*%
%ADD32C,3.200000*%
%ADD33RoundRect,0.150000X0.512500X0.150000X-0.512500X0.150000X-0.512500X-0.150000X0.512500X-0.150000X0*%
%ADD34RoundRect,0.200000X-0.275000X0.200000X-0.275000X-0.200000X0.275000X-0.200000X0.275000X0.200000X0*%
%ADD35RoundRect,0.150000X0.587500X0.150000X-0.587500X0.150000X-0.587500X-0.150000X0.587500X-0.150000X0*%
%ADD36RoundRect,0.250000X-0.475000X0.250000X-0.475000X-0.250000X0.475000X-0.250000X0.475000X0.250000X0*%
%ADD37R,3.000000X3.000000*%
%ADD38C,3.000000*%
%ADD39RoundRect,0.375000X0.625000X0.375000X-0.625000X0.375000X-0.625000X-0.375000X0.625000X-0.375000X0*%
%ADD40RoundRect,0.500000X0.500000X1.400000X-0.500000X1.400000X-0.500000X-1.400000X0.500000X-1.400000X0*%
%ADD41RoundRect,0.250000X0.475000X-0.250000X0.475000X0.250000X-0.475000X0.250000X-0.475000X-0.250000X0*%
%ADD42C,0.650000*%
%ADD43R,0.600000X1.240000*%
%ADD44R,0.300000X1.240000*%
%ADD45O,1.000000X2.100000*%
%ADD46O,1.000000X1.800000*%
%ADD47RoundRect,0.243750X0.456250X-0.243750X0.456250X0.243750X-0.456250X0.243750X-0.456250X-0.243750X0*%
%ADD48RoundRect,0.150000X-0.150000X0.587500X-0.150000X-0.587500X0.150000X-0.587500X0.150000X0.587500X0*%
G04 APERTURE END LIST*
D10*
%TO.C,D2*%
X135102600Y-90261000D03*
X135102600Y-87461000D03*
%TD*%
%TO.C,D1*%
X151460200Y-90261000D03*
X151460200Y-87461000D03*
%TD*%
D11*
%TO.C,J17*%
X114503200Y-64770000D03*
X114503200Y-62230000D03*
X117043200Y-64770000D03*
X117043200Y-62230000D03*
X119583200Y-64770000D03*
X119583200Y-62230000D03*
X122123200Y-64770000D03*
X122123200Y-62230000D03*
X124663200Y-64770000D03*
D12*
X124663200Y-62230000D03*
%TD*%
D13*
%TO.C,D6*%
X104444800Y-74370200D03*
X104444800Y-71070200D03*
%TD*%
D14*
%TO.C,Y2*%
X127157800Y-131114800D03*
X124657800Y-131114800D03*
%TD*%
D15*
%TO.C,Y1*%
X133614400Y-130366400D03*
X131414400Y-130366400D03*
X131414400Y-132066400D03*
X133614400Y-132066400D03*
%TD*%
D16*
%TO.C,U1*%
X130514400Y-123023000D03*
X131014400Y-123023000D03*
X131514400Y-123023000D03*
X132014400Y-123023000D03*
X132514400Y-123023000D03*
X133014400Y-123023000D03*
X133514400Y-123023000D03*
X134014400Y-123023000D03*
X134514400Y-123023000D03*
X135014400Y-123023000D03*
X135514400Y-123023000D03*
X136014400Y-123023000D03*
X136514400Y-123023000D03*
X137014400Y-123023000D03*
X137514400Y-123023000D03*
X138014400Y-123023000D03*
D17*
X139939400Y-121098000D03*
X139939400Y-120598000D03*
X139939400Y-120098000D03*
X139939400Y-119598000D03*
X139939400Y-119098000D03*
X139939400Y-118598000D03*
X139939400Y-118098000D03*
X139939400Y-117598000D03*
X139939400Y-117098000D03*
X139939400Y-116598000D03*
X139939400Y-116098000D03*
X139939400Y-115598000D03*
X139939400Y-115098000D03*
X139939400Y-114598000D03*
X139939400Y-114098000D03*
X139939400Y-113598000D03*
D16*
X138014400Y-111673000D03*
X137514400Y-111673000D03*
X137014400Y-111673000D03*
X136514400Y-111673000D03*
X136014400Y-111673000D03*
X135514400Y-111673000D03*
X135014400Y-111673000D03*
X134514400Y-111673000D03*
X134014400Y-111673000D03*
X133514400Y-111673000D03*
X133014400Y-111673000D03*
X132514400Y-111673000D03*
X132014400Y-111673000D03*
X131514400Y-111673000D03*
X131014400Y-111673000D03*
X130514400Y-111673000D03*
D17*
X128589400Y-113598000D03*
X128589400Y-114098000D03*
X128589400Y-114598000D03*
X128589400Y-115098000D03*
X128589400Y-115598000D03*
X128589400Y-116098000D03*
X128589400Y-116598000D03*
X128589400Y-117098000D03*
X128589400Y-117598000D03*
X128589400Y-118098000D03*
X128589400Y-118598000D03*
X128589400Y-119098000D03*
X128589400Y-119598000D03*
X128589400Y-120098000D03*
X128589400Y-120598000D03*
X128589400Y-121098000D03*
%TD*%
D18*
%TO.C,SW2*%
X125553400Y-85761000D03*
X132053400Y-85761000D03*
X125553400Y-90261000D03*
X132053400Y-90261000D03*
%TD*%
%TO.C,SW1*%
X148512600Y-90261000D03*
X142012600Y-90261000D03*
X148512600Y-85761000D03*
X142012600Y-85761000D03*
%TD*%
D19*
%TO.C,R6*%
X129704600Y-92557600D03*
X128054600Y-92557600D03*
%TD*%
D20*
%TO.C,R5*%
X104889800Y-84196400D03*
X106539800Y-84196400D03*
%TD*%
D21*
%TO.C,R4*%
X120548400Y-114401600D03*
X120548400Y-112751600D03*
%TD*%
D22*
%TO.C,L2*%
X145683000Y-116662200D03*
X143383000Y-116662200D03*
%TD*%
%TO.C,L1*%
X145683000Y-119862600D03*
X143383000Y-119862600D03*
%TD*%
D23*
%TO.C,J16*%
X141909800Y-99974400D03*
D24*
X144449800Y-99974400D03*
X146989800Y-99974400D03*
%TD*%
D23*
%TO.C,J8*%
X113003800Y-90388600D03*
D24*
X113003800Y-92928600D03*
%TD*%
D25*
%TO.C,J2*%
X110521200Y-71120000D03*
X114421200Y-71120000D03*
X110521200Y-72390000D03*
X114421200Y-72390000D03*
X110521200Y-73660000D03*
X114421200Y-73660000D03*
X110521200Y-74930000D03*
X114421200Y-74930000D03*
X110521200Y-76200000D03*
X114421200Y-76200000D03*
X110521200Y-77470000D03*
X114421200Y-77470000D03*
X110521200Y-78740000D03*
X114421200Y-78740000D03*
%TD*%
D23*
%TO.C,J1*%
X120472200Y-119532400D03*
D24*
X120472200Y-116992400D03*
%TD*%
D26*
%TO.C,C21*%
X144933000Y-115062000D03*
X143383000Y-115062000D03*
%TD*%
%TO.C,C19*%
X143383000Y-118262400D03*
X144933000Y-118262400D03*
%TD*%
D27*
%TO.C,C16*%
X149148800Y-115036600D03*
X151048800Y-115036600D03*
%TD*%
%TO.C,C15*%
X151048800Y-118541800D03*
X149148800Y-118541800D03*
%TD*%
D26*
%TO.C,C14*%
X150698800Y-116789200D03*
X149148800Y-116789200D03*
%TD*%
%TO.C,C13*%
X150698800Y-120269000D03*
X149148800Y-120269000D03*
%TD*%
%TO.C,C12*%
X143383000Y-113563400D03*
X144933000Y-113563400D03*
%TD*%
D28*
%TO.C,C11*%
X125311200Y-121107200D03*
X123761200Y-121107200D03*
%TD*%
D29*
%TO.C,C10*%
X139852400Y-127037800D03*
X139852400Y-128587800D03*
%TD*%
%TO.C,C9*%
X141655800Y-127190200D03*
X141655800Y-128740200D03*
%TD*%
D26*
%TO.C,C8*%
X104939800Y-81686400D03*
X106489800Y-81686400D03*
%TD*%
D30*
%TO.C,C7*%
X130479800Y-108762800D03*
X130479800Y-107212800D03*
%TD*%
D31*
%TO.C,C6*%
X125460800Y-118389400D03*
X123560800Y-118389400D03*
%TD*%
%TO.C,C5*%
X125511600Y-123037600D03*
X123611600Y-123037600D03*
%TD*%
D28*
%TO.C,C4*%
X128740200Y-128981200D03*
X127190200Y-128981200D03*
%TD*%
D26*
%TO.C,C3*%
X123113800Y-129032000D03*
X124663800Y-129032000D03*
%TD*%
D30*
%TO.C,C2*%
X135407400Y-131991400D03*
X135407400Y-130441400D03*
%TD*%
D26*
%TO.C,C1*%
X130964400Y-128625600D03*
X132514400Y-128625600D03*
%TD*%
D32*
%TO.C,H1*%
X146837400Y-138531600D03*
%TD*%
D30*
%TO.C,C25*%
X133489049Y-96305500D03*
X133489049Y-94755500D03*
%TD*%
%TO.C,C23*%
X139077049Y-96305500D03*
X139077049Y-94755500D03*
%TD*%
D33*
%TO.C,U3*%
X137415049Y-96393000D03*
X137415049Y-95443000D03*
X137415049Y-94493000D03*
X135140049Y-94493000D03*
X135140049Y-96393000D03*
%TD*%
D34*
%TO.C,R10*%
X138331800Y-67120000D03*
X138331800Y-68770000D03*
%TD*%
%TO.C,R3*%
X144576800Y-130606800D03*
X144576800Y-132256800D03*
%TD*%
D21*
%TO.C,R9*%
X138430000Y-85761000D03*
X138430000Y-84111000D03*
%TD*%
D24*
%TO.C,J9*%
X107948800Y-136108600D03*
X105408800Y-136108600D03*
X107948800Y-133568600D03*
X105408800Y-133568600D03*
X107948800Y-131028600D03*
X105408800Y-131028600D03*
X107948800Y-128488600D03*
X105408800Y-128488600D03*
X107948800Y-125948600D03*
X105408800Y-125948600D03*
X107948800Y-123408600D03*
X105408800Y-123408600D03*
X107948800Y-120868600D03*
X105408800Y-120868600D03*
X107948800Y-118328600D03*
X105408800Y-118328600D03*
X107948800Y-115788600D03*
X105408800Y-115788600D03*
X107948800Y-113248600D03*
X105408800Y-113248600D03*
X107948800Y-110708600D03*
X105408800Y-110708600D03*
X107948800Y-108168600D03*
X105408800Y-108168600D03*
X107948800Y-105628600D03*
X105408800Y-105628600D03*
X107948800Y-103088600D03*
X105408800Y-103088600D03*
X107948800Y-100548600D03*
X105408800Y-100548600D03*
X107948800Y-98008600D03*
X105408800Y-98008600D03*
X107948800Y-95468600D03*
X105408800Y-95468600D03*
X107948800Y-92928600D03*
X105408800Y-92928600D03*
X107948800Y-90388600D03*
D23*
X105408800Y-90388600D03*
%TD*%
D35*
%TO.C,Q2*%
X150518100Y-96962000D03*
X150518100Y-95062000D03*
X148643100Y-96012000D03*
%TD*%
D30*
%TO.C,C18*%
X149809200Y-125390200D03*
X149809200Y-123840200D03*
%TD*%
D32*
%TO.C,H3*%
X161313800Y-85140800D03*
%TD*%
D23*
%TO.C,J7*%
X166368800Y-90388600D03*
D24*
X168908800Y-90388600D03*
X166368800Y-92928600D03*
X168908800Y-92928600D03*
X166368800Y-95468600D03*
X168908800Y-95468600D03*
X166368800Y-98008600D03*
X168908800Y-98008600D03*
X166368800Y-100548600D03*
X168908800Y-100548600D03*
X166368800Y-103088600D03*
X168908800Y-103088600D03*
X166368800Y-105628600D03*
X168908800Y-105628600D03*
X166368800Y-108168600D03*
X168908800Y-108168600D03*
X166368800Y-110708600D03*
X168908800Y-110708600D03*
X166368800Y-113248600D03*
X168908800Y-113248600D03*
X166368800Y-115788600D03*
X168908800Y-115788600D03*
X166368800Y-118328600D03*
X168908800Y-118328600D03*
X166368800Y-120868600D03*
X168908800Y-120868600D03*
X166368800Y-123408600D03*
X168908800Y-123408600D03*
X166368800Y-125948600D03*
X168908800Y-125948600D03*
X166368800Y-128488600D03*
X168908800Y-128488600D03*
X166368800Y-131028600D03*
X168908800Y-131028600D03*
X166368800Y-133568600D03*
X168908800Y-133568600D03*
X166368800Y-136108600D03*
X168908800Y-136108600D03*
%TD*%
D34*
%TO.C,R11*%
X135331800Y-67120000D03*
X135331800Y-68770000D03*
%TD*%
D23*
%TO.C,J14*%
X105408800Y-62448600D03*
D24*
X105408800Y-64988600D03*
%TD*%
D26*
%TO.C,C26*%
X135502549Y-92965100D03*
X137052549Y-92965100D03*
%TD*%
D36*
%TO.C,C20*%
X151587200Y-123840200D03*
X151587200Y-125740200D03*
%TD*%
D21*
%TO.C,R8*%
X152730200Y-100548600D03*
X152730200Y-98898600D03*
%TD*%
%TO.C,R2*%
X143078200Y-132256800D03*
X143078200Y-130606800D03*
%TD*%
D36*
%TO.C,C28*%
X157175200Y-76849000D03*
X157175200Y-78749000D03*
%TD*%
D37*
%TO.C,J12*%
X154279600Y-62611000D03*
D38*
X159359600Y-62611000D03*
%TD*%
D20*
%TO.C,R1*%
X146304200Y-127355600D03*
X147954200Y-127355600D03*
%TD*%
D28*
%TO.C,C17*%
X147904200Y-128879600D03*
X146354200Y-128879600D03*
%TD*%
D31*
%TO.C,C27*%
X154279600Y-72263700D03*
X152379600Y-72263700D03*
%TD*%
D23*
%TO.C,J5*%
X161288800Y-136108600D03*
D24*
X161288800Y-133568600D03*
X161288800Y-131028600D03*
X161288800Y-128488600D03*
X161288800Y-125948600D03*
X161288800Y-123408600D03*
X161288800Y-120868600D03*
X161288800Y-118328600D03*
%TD*%
D32*
%TO.C,H2*%
X123164600Y-138277600D03*
%TD*%
D35*
%TO.C,Q1*%
X148066700Y-125740200D03*
X148066700Y-123840200D03*
X146191700Y-124790200D03*
%TD*%
D23*
%TO.C,J11*%
X135153400Y-99974400D03*
D24*
X137693400Y-99974400D03*
%TD*%
D39*
%TO.C,U4*%
X154279600Y-79149000D03*
X154279600Y-76849000D03*
D40*
X147979600Y-76849000D03*
D39*
X154279600Y-74549000D03*
%TD*%
D41*
%TO.C,C24*%
X131761849Y-96480500D03*
X131761849Y-94580500D03*
%TD*%
D34*
%TO.C,R12*%
X121869200Y-87363800D03*
X121869200Y-89013800D03*
%TD*%
D21*
%TO.C,R7*%
X152730200Y-96837000D03*
X152730200Y-95187000D03*
%TD*%
D23*
%TO.C,J15*%
X168908800Y-62448600D03*
D24*
X168908800Y-64988600D03*
%TD*%
D23*
%TO.C,J4*%
X113028800Y-123408600D03*
D24*
X113028800Y-125948600D03*
X113028800Y-128488600D03*
X113028800Y-131028600D03*
X113028800Y-133568600D03*
X113028800Y-136108600D03*
%TD*%
D32*
%TO.C,H4*%
X113003800Y-84861400D03*
%TD*%
D23*
%TO.C,J3*%
X113028800Y-100548600D03*
D24*
X113028800Y-103088600D03*
X113028800Y-105628600D03*
X113028800Y-108168600D03*
X113028800Y-110708600D03*
X113028800Y-113248600D03*
X113028800Y-115788600D03*
X113028800Y-118328600D03*
%TD*%
D42*
%TO.C,J10*%
X139971800Y-63716600D03*
X134191800Y-63716600D03*
D43*
X140281800Y-64836600D03*
X139481800Y-64836600D03*
D44*
X138331800Y-64836600D03*
X137331800Y-64836600D03*
X136831800Y-64836600D03*
X135831800Y-64836600D03*
D43*
X134681800Y-64836600D03*
X133881800Y-64836600D03*
X133881800Y-64836600D03*
X134681800Y-64836600D03*
D44*
X135331800Y-64836600D03*
X136331800Y-64836600D03*
X137831800Y-64836600D03*
X138831800Y-64836600D03*
D43*
X139481800Y-64836600D03*
X140281800Y-64836600D03*
D45*
X141401800Y-64236600D03*
D46*
X141401800Y-60036600D03*
D45*
X132761800Y-64236600D03*
D46*
X132761800Y-60036600D03*
%TD*%
D47*
%TO.C,D3*%
X138430000Y-90261000D03*
X138430000Y-88386000D03*
%TD*%
%TO.C,D4*%
X121869200Y-92987100D03*
X121869200Y-91112100D03*
%TD*%
D23*
%TO.C,J6*%
X161288800Y-113248600D03*
D24*
X161288800Y-110708600D03*
X161288800Y-108168600D03*
X161288800Y-105628600D03*
X161288800Y-103088600D03*
X161288800Y-100548600D03*
X161288800Y-98008600D03*
X161288800Y-95468600D03*
X161288800Y-92928600D03*
X161288800Y-90388600D03*
%TD*%
D41*
%TO.C,C22*%
X140804249Y-96480500D03*
X140804249Y-94580500D03*
%TD*%
D48*
%TO.C,U2*%
X147991700Y-130606800D03*
X146091700Y-130606800D03*
X147041700Y-132481800D03*
%TD*%
D23*
%TO.C,J13*%
X126985000Y-97459800D03*
D24*
X126985000Y-99999800D03*
X124445000Y-97459800D03*
X124445000Y-99999800D03*
X121905000Y-97459800D03*
X121905000Y-99999800D03*
%TD*%
M02*
