%TF.GenerationSoftware,KiCad,Pcbnew,8.0.4*%
%TF.CreationDate,2024-12-11T23:07:32+07:00*%
%TF.ProjectId,G474-dev-board,47343734-2d64-4657-962d-626f6172642e,rev?*%
%TF.SameCoordinates,Original*%
%TF.FileFunction,Legend,Bot*%
%TF.FilePolarity,Positive*%
%FSLAX46Y46*%
G04 Gerber Fmt 4.6, Leading zero omitted, Abs format (unit mm)*
G04 Created by KiCad (PCBNEW 8.0.4) date 2024-12-11 23:07:32*
%MOMM*%
%LPD*%
G01*
G04 APERTURE LIST*
%ADD10C,0.150000*%
%ADD11C,0.120000*%
G04 APERTURE END LIST*
D10*
X128696933Y-124292419D02*
X128696933Y-125006704D01*
X128696933Y-125006704D02*
X128744552Y-125149561D01*
X128744552Y-125149561D02*
X128839790Y-125244800D01*
X128839790Y-125244800D02*
X128982647Y-125292419D01*
X128982647Y-125292419D02*
X129077885Y-125292419D01*
X128220742Y-125292419D02*
X128220742Y-124292419D01*
X128220742Y-124292419D02*
X127839790Y-124292419D01*
X127839790Y-124292419D02*
X127744552Y-124340038D01*
X127744552Y-124340038D02*
X127696933Y-124387657D01*
X127696933Y-124387657D02*
X127649314Y-124482895D01*
X127649314Y-124482895D02*
X127649314Y-124625752D01*
X127649314Y-124625752D02*
X127696933Y-124720990D01*
X127696933Y-124720990D02*
X127744552Y-124768609D01*
X127744552Y-124768609D02*
X127839790Y-124816228D01*
X127839790Y-124816228D02*
X128220742Y-124816228D01*
X126696933Y-125292419D02*
X127268361Y-125292419D01*
X126982647Y-125292419D02*
X126982647Y-124292419D01*
X126982647Y-124292419D02*
X127077885Y-124435276D01*
X127077885Y-124435276D02*
X127173123Y-124530514D01*
X127173123Y-124530514D02*
X127268361Y-124578133D01*
X149956733Y-131861619D02*
X149956733Y-132575904D01*
X149956733Y-132575904D02*
X150004352Y-132718761D01*
X150004352Y-132718761D02*
X150099590Y-132814000D01*
X150099590Y-132814000D02*
X150242447Y-132861619D01*
X150242447Y-132861619D02*
X150337685Y-132861619D01*
X149480542Y-132861619D02*
X149480542Y-131861619D01*
X149480542Y-131861619D02*
X149099590Y-131861619D01*
X149099590Y-131861619D02*
X149004352Y-131909238D01*
X149004352Y-131909238D02*
X148956733Y-131956857D01*
X148956733Y-131956857D02*
X148909114Y-132052095D01*
X148909114Y-132052095D02*
X148909114Y-132194952D01*
X148909114Y-132194952D02*
X148956733Y-132290190D01*
X148956733Y-132290190D02*
X149004352Y-132337809D01*
X149004352Y-132337809D02*
X149099590Y-132385428D01*
X149099590Y-132385428D02*
X149480542Y-132385428D01*
X148575780Y-131861619D02*
X147956733Y-131861619D01*
X147956733Y-131861619D02*
X148290066Y-132242571D01*
X148290066Y-132242571D02*
X148147209Y-132242571D01*
X148147209Y-132242571D02*
X148051971Y-132290190D01*
X148051971Y-132290190D02*
X148004352Y-132337809D01*
X148004352Y-132337809D02*
X147956733Y-132433047D01*
X147956733Y-132433047D02*
X147956733Y-132671142D01*
X147956733Y-132671142D02*
X148004352Y-132766380D01*
X148004352Y-132766380D02*
X148051971Y-132814000D01*
X148051971Y-132814000D02*
X148147209Y-132861619D01*
X148147209Y-132861619D02*
X148432923Y-132861619D01*
X148432923Y-132861619D02*
X148528161Y-132814000D01*
X148528161Y-132814000D02*
X148575780Y-132766380D01*
X142231619Y-129123466D02*
X142945904Y-129123466D01*
X142945904Y-129123466D02*
X143088761Y-129075847D01*
X143088761Y-129075847D02*
X143184000Y-128980609D01*
X143184000Y-128980609D02*
X143231619Y-128837752D01*
X143231619Y-128837752D02*
X143231619Y-128742514D01*
X143231619Y-129599657D02*
X142231619Y-129599657D01*
X142231619Y-129599657D02*
X142231619Y-129980609D01*
X142231619Y-129980609D02*
X142279238Y-130075847D01*
X142279238Y-130075847D02*
X142326857Y-130123466D01*
X142326857Y-130123466D02*
X142422095Y-130171085D01*
X142422095Y-130171085D02*
X142564952Y-130171085D01*
X142564952Y-130171085D02*
X142660190Y-130123466D01*
X142660190Y-130123466D02*
X142707809Y-130075847D01*
X142707809Y-130075847D02*
X142755428Y-129980609D01*
X142755428Y-129980609D02*
X142755428Y-129599657D01*
X142326857Y-130552038D02*
X142279238Y-130599657D01*
X142279238Y-130599657D02*
X142231619Y-130694895D01*
X142231619Y-130694895D02*
X142231619Y-130932990D01*
X142231619Y-130932990D02*
X142279238Y-131028228D01*
X142279238Y-131028228D02*
X142326857Y-131075847D01*
X142326857Y-131075847D02*
X142422095Y-131123466D01*
X142422095Y-131123466D02*
X142517333Y-131123466D01*
X142517333Y-131123466D02*
X142660190Y-131075847D01*
X142660190Y-131075847D02*
X143231619Y-130504419D01*
X143231619Y-130504419D02*
X143231619Y-131123466D01*
D11*
%TO.C,JP1*%
X126463600Y-123337600D02*
X126463600Y-122737600D01*
X128563600Y-124037600D02*
X127163600Y-124037600D01*
X127163600Y-122037600D02*
X128563600Y-122037600D01*
X129263600Y-122737600D02*
X129263600Y-123337600D01*
X127163600Y-124037600D02*
G75*
G02*
X126463600Y-123337600I-1J699999D01*
G01*
X126463600Y-122737600D02*
G75*
G02*
X127163600Y-122037600I699999J1D01*
G01*
X129263600Y-123337600D02*
G75*
G02*
X128563600Y-124037600I-700000J0D01*
G01*
X128563600Y-122037600D02*
G75*
G02*
X129263600Y-122737600I0J-700000D01*
G01*
%TO.C,JP3*%
X147723400Y-130906800D02*
X147723400Y-130306800D01*
X148423400Y-129606800D02*
X149823400Y-129606800D01*
X149823400Y-131606800D02*
X148423400Y-131606800D01*
X150523400Y-130306800D02*
X150523400Y-130906800D01*
X147723400Y-130306800D02*
G75*
G02*
X148423400Y-129606800I699999J1D01*
G01*
X148423400Y-131606800D02*
G75*
G02*
X147723400Y-130906800I-1J699999D01*
G01*
X149823400Y-129606800D02*
G75*
G02*
X150523400Y-130306800I0J-700000D01*
G01*
X150523400Y-130906800D02*
G75*
G02*
X149823400Y-131606800I-700000J0D01*
G01*
%TO.C,JP2*%
X143576800Y-130656800D02*
X143576800Y-129256800D01*
X144276800Y-128556800D02*
X144876800Y-128556800D01*
X144876800Y-131356800D02*
X144276800Y-131356800D01*
X145576800Y-129256800D02*
X145576800Y-130656800D01*
X143576800Y-129256800D02*
G75*
G02*
X144276800Y-128556800I699999J1D01*
G01*
X144276800Y-131356800D02*
G75*
G02*
X143576800Y-130656800I0J700000D01*
G01*
X144876800Y-128556800D02*
G75*
G02*
X145576800Y-129256800I1J-699999D01*
G01*
X145576800Y-130656800D02*
G75*
G02*
X144876800Y-131356800I-700000J0D01*
G01*
%TD*%
M02*
